<!--?undefined undefined?--><svg xmlns="http://www.w3.org/2000/svg" id="svgid16" viewBox="0 0 600 600" repair="1" xmlns:xlink="http://www.w3.org/1999/xlink"><path fill="none" d="M0 0h600v600H0z"></path><g id="MTBteHk3MzIxMDAwMDAwMDAwMHh6czI5MA" transform="translate(60.75 -34.875)"><path id="MTBteHkxODUxMDAwMDAwMDAwMHh6czgw" fill="rgb(82, 121, 111)" d="M246.5 198.9l-9.3-43.3c5.2-6.1 8.7-13.5 8.1-21.9-1.7-24.1-35.2-18.8-41.7-6.6-6.5 12.2-5.7 43 2.7 45.1 3.4.9 10.5-1.3 17.8-5.6l-4.6 32.4h27z" coriginal="rgb(178,139,103)" colortype="13" awdzp="13" style="fill: rgb(82, 121, 111);"></path></g><g id="MTBteHk2NjQxMDAwMDAwMDAwMHh6czQzOQ" transform="translate(368 47) rotate(180)"><path id="MTBteHkzMzEwMDAwMDAwMDAweHpzNTA5" fill="rgb(72, 111, 101)" d="M231.2 114.1c.2-1.5-.2-2.2 5.7-6.3s15.4-9 25-6.9c12.5 2.8 17.4 11 22.2 15 4.3 3.6 8.7 4 11.3 8.5 2.6 4.5 3.9 17.3 1.7 22.4-3.1 7.1-9.2 8.9-13.6 11-7.6 3.5-18.4-.2-18.7-.8-2-4.7-12.9-18-19.4-23.6-4.9-4.1-15.3-12.4-14.2-19.3z" coriginal="rgb(92,99,171)" colortype="15" awdzp="15" style="fill: rgb(72, 111, 101);"></path><g id="MTBteHk5NDMxMDAwMDAwMDAwMHh6czg2OA" transform="translate(34.896 -26.708)"><defs><path id="MTBteHk5OTEwMDAwMDAwMDAweHpzNTUz" d="M231.2 114.1c.2-1.5-.2-2.2 5.7-6.3s15.4-9 25-6.9c12.5 2.8 17.4 11 22.2 15 4.3 3.6 8.7 4 11.3 8.5 2.6 4.5 3.9 17.3 1.7 22.4-3.1 7.1-9.2 8.9-13.6 11-7.6 3.5-18.4-.2-18.7-.8-2-4.7-12.9-18-19.4-23.6-4.9-4.1-15.3-12.4-14.2-19.3z"></path></defs><clipPath id="MTBteHk0NjUxMDAwMDAwMDAwMHh6czIwNA"><use xlink:href="#MTBteHk5OTEwMDAwMDAwMDAweHpzNTUz" overflow="visible"></use></clipPath></g></g><path id="MTBteHk3MzgxMDAwMDAwMDAwMHh6czEwOQ" fill="rgb(44, 83, 73)" d="M325.2 259l-42.3 138.5-20.5 117.8h-16.1L268 259h57.2z" coriginal="rgb(153,118,89)" colortype="17" awdzp="17" style="fill: rgb(44, 83, 73);"></path><path id="MTBteHk3MzgxMDAwMDAwMDAwMHh6czEwOQ-2" fill="rgb(82, 121, 111)" d="M340.3 259c-2.9 76 .5 115.2 1.1 122.1.6 6.9 9.4 51.7 30.3 136.4l-17.1-5.9c-32.9-77.7-44.1-118.1-47.9-128.3-3.8-10.2-13.8-51.7-30.1-124.4h63.7z" coriginal="rgb(178,139,103)" colortype="13" awdzp="13" style="fill: rgb(82, 121, 111);"></path><path id="MTBteHk4OTQxMDAwMDAwMDAwMHh6czI1Mg" fill="rgb(250, 250, 250)" d="M368.5 510c1.2-.4 2.4.2 2.8 1.4v.1l2.1 7.6c-.2 3-.5 5.9-1 8.9h-62.7s-2.4-8.2 2.8-8.8c5.3-.7 8.7-1.2 8.7-1.2l29.1-13.2c.6-.2 1.2 0 1.5.6l1.9 4.6s4.9 2.3 7.9 2.3l6.9-2.3z" coriginal="rgb(228,228,228)" colortype="1" awdzp="1" style="fill: rgb(250, 250, 250);"></path><path id="MTBteHk4OTQxMDAwMDAwMDAwMHh6czI1Mg-2" fill="rgb(250, 250, 250)" d="M263 510c1.2-.4 2.4.2 2.8 1.4v.1l2.1 7.6c-.2 3-.5 5.9-1 8.9h-62.7s-2.4-8.2 2.8-8.8c5.3-.7 8.7-1.2 8.7-1.2l29.1-13.2c.6-.2 1.2 0 1.5.6l1.9 4.6s4.9 2.3 7.9 2.3l6.9-2.3z" coriginal="rgb(228,228,228)" colortype="1" awdzp="1" style="fill: rgb(250, 250, 250);"></path><path id="MTBteHkyMDMxMDAwMDAwMDAwMHh6czc0OQ" fill="rgb(93, 69, 98)" d="M330.8 259l-18 70.5H258l8.2-70.5h64.6z" coriginal="rgb(105,161,172)" colortype="12" awdzp="12" style="fill: rgb(93, 69, 98);"></path><path id="MTBteHk4NjQxMDAwMDAwMDAwMHh6czU0Mw" fill="rgb(192, 200, 187)" d="M340.9 259c8.9 26.6 3.4 70.5 3.4 70.5h-56L272.9 259h68z" coriginal="rgb(137,197,204)" colortype="6" awdzp="6" style="fill: rgb(192, 200, 187);"></path><path id="MTBteHk1ODgxMDAwMDAwMDAwMHh6czI1OQ" fill="rgb(82, 121, 111)" d="M204.1 254l33.4-18-10.3-16.3-32.2 28.4c-8.1 3.1-15.8 7.1-22.9 12.1-1.4 1.5-2.8 4.2 3.4 2.9 6.3-1.3 12.9-2.5 14.1-.7s-2.4 4.7-.2 7c.2.2.5.3.8.3 2-.3 6.6-5.5 13.9-15.7zm9.9-100.5l-43.8-5.4c-7.6-4-15.6-7-24-8.9-2.1-.1-5.4.6-.6 4.3 4.8 3.7 9.7 7.8 8.7 9.7s-5.5 1.2-6.4 4.2c-.6 2 6.9 2.3 22.3 1l35.3 12.7 8.5-17.6z" coriginal="rgb(178,139,103)" colortype="13" awdzp="13" style="fill: rgb(82, 121, 111);"></path><path id="MTBteHk0MDgxMDAwMDAwMDAwMHh6czY3Mw" fill="rgb(47, 62, 70)" d="M273.5 148.9c-14.8 35.1-39.3 63.8-76.2 95.3l17.5 13.4c43.2-21.5 65.8-33.9 73.2-66.2 1.9-8.1.5-32.8.4-45.9l-14.9 3.4z" coriginal="rgb(32,38,162)" colortype="18" awdzp="18" style="fill: rgb(47, 62, 70);"></path><path id="MTBteHk2MDYxMDAwMDAwMDAwMHh6czU1MQ" fill="rgb(255, 255, 255)" d="M342.7 249.1L257 261.2s17.9-83.8 14.4-113.6c-.1-1 1.7-3.1 2.7-3 10.5 1.1 21.3-4.9 21.3-4.9 24.4 26.4 36.5 61.5 47.3 109.4z" coriginal="rgb(242,242,242)" colortype="0" awdzp="0" style="fill: rgb(255, 255, 255);"></path><path id="MTBteHk3MjUxMDAwMDAwMDAwMHh6czI5" fill="rgb(67, 106, 96)" d="M355.8 272.3c1.1-44.8-26.5-102.8-48.5-130.9-1.3-2-3.7-3-6-2.6l-13.3 1.9c-4.5.7-9.4 1.5-14.9 2.4-24.3 4.2-57.8 9.6-96.9 4l-1.7 21c37.6 15.2 75 25.7 105.5 19.2-6.2 53.4.4 95.5 30 91.3l45.8-6.3z" coriginal="rgb(31,40,207)" colortype="16" awdzp="16" style="fill: rgb(67, 106, 96);"></path><g id="MTBteHkyMTAxMDAwMDAwMDAwMHh6czcwNA" opacity=".5"><path id="MTBteHk2MjcxMDAwMDAwMDAwMHh6czM3MA" d="M319 89.2c-.1-.1-.3-.2-.4-.3-1.3 5.7-5.3 20.2-15.5 32.7 11.8-9.2 17.3-24.1 19.1-30.1-1-.7-2.1-1.4-3.2-2.3zm4.8 3.1c-1.3 4.3-7.3 21.4-24.6 37.1-.3.3-.6.6-1 .9.4-.2.7-.5 1.1-.7 18.8-11.8 26.3-28.7 28.5-34.7-1.1-1.1-2.5-1.8-4-2.6z"></path></g></svg>