<!--?undefined undefined?--><svg xmlns="http://www.w3.org/2000/svg" id="svgid8" viewBox="0 0 600 600" repair="1" xmlns:xlink="http://www.w3.org/1999/xlink"><g id="MTBteHkyMjExMDAwMDAwMDAwMHh6czIwNA" transform="translate(236 68)"><g id="MTBteHk3NjcxMDAwMDAwMDAwMHh6czM3Mg" transform="translate(54 31)"><path id="MTBteHk3NjcxMDAwMDAwMDAwMHh6czM3Mg-2" fill="rgb(82, 121, 111)" d="M0 73l8.3-38.5C3.7 29.1.6 22.5 1.1 15c1.5-21.4 31.2-16.7 37-5.9s5.1 38.2-2.4 40.1c-3 .8-9.3-1.1-15.8-5L24 73H0z" coriginal="rgb(178,139,103)" colortype="13" awdzp="13" style="fill: rgb(82, 121, 111);"></path></g><path id="MTBteHk5MTkxMDAwMDAwMDAwMHh6czgxNQ" fill="rgb(32, 47, 55)" d="M74.1 74.1c-1.6-4.9-2.2-18.9-2.4-23H71c-3.3 0-6 2.7-6 6 0 1.6.7 3.2 1.8 4.3-1.4 2-2.9 4-4.7 6.1-6.7-4-11.7-15.8-5.1-27.1 1.8-5.5 5.9-8.5 10.7-9.9 3.6-1.6 7.6-1.9 11.4-.8 6.7.6 12.7 2.6 14.5 3.9 0 6.4-1.2 8.3-11.8 8.1-2.6 1.4-4.6 3.7-6.7 6.8 0 .2 1.4 19.2 7.3 19.2s10.9-3.8 13.5-3.8c1.9 0 1.5 2.4.2 4.1-1 1.4-6.1 2.8-6.1 5.1 0 1.3 1.3 1.3 2.4 1.3.9 0 1.6 0 1.6.6 0 2.2.7 6.3-3.1 6.3-3.8-.1-14.9-1.5-16.8-7.2z" coriginal="rgb(25,24,71)" colortype="21" awdzp="21" style="fill: rgb(32, 47, 55);"></path></g><g id="MTBteHk2MzkxMDAwMDAwMDAwMHh6czExMA" transform="translate(154 255)"><path id="MTBteHkzMzUxMDAwMDAwMDAwMHh6czU5Mw" fill="rgb(32, 47, 55)" d="M128 0l36.3 127.2 26.5 93.8H210L181.9 0H128z" coriginal="rgb(25,24,71)" colortype="21" awdzp="21" style="fill: rgb(32, 47, 55);"></path><path id="MTBteHkzMzUxMDAwMDAwMDAwMHh6czU5Mw-2" fill="rgb(42, 57, 65)" d="M118.3 0c-.8 65.6-3.7 101.3-4.6 107.3S99.5 151.2 73.8 221h20c32.8-67 51.1-104.9 54.9-113.7C152.5 98.5 164.3 62.7 182 0h-63.7z" coriginal="rgb(47,54,118)" colortype="19" awdzp="19" style="fill: rgb(42, 57, 65);"></path><g id="MTBteHk2ODIxMDAwMDAwMDAwMHh6czE4Ng" transform="translate(72 199)"><path id="MTBteHk2NTExMDAwMDAwMDAwMHh6czUxMA" fill="rgb(32, 47, 55)" d="M0 40l1-21h21c14.9 10.5 39 17 39 17v4H23l-13-2v2H0z" coriginal="rgb(25,24,71)" colortype="21" awdzp="21" style="fill: rgb(32, 47, 55);"></path></g><g id="Right_MTBteHk2NTExMDAwMDAwMDAwMHh6czUxMA" transform="translate(188 199)"><path id="MTBteHk2NTExMDAwMDAwMDAwMHh6czUxMA-2" fill="rgb(32, 47, 55)" d="M0 40l1-21h21c14.9 10.5 39 17 39 17v4H23l-13-2v2H0z" coriginal="rgb(25,24,71)" colortype="21" awdzp="21" style="fill: rgb(32, 47, 55);"></path></g></g><g id="MTBteHkzMTIxMDAwMDAwMDAwMHh6czY1MA" transform="translate(176 150)"><path id="MTBteHk2MjkxMDAwMDAwMDAwMHh6czc5Mg" fill="rgb(82, 121, 111)" d="M36.6 162c-1.5-2.2-3.2-4.5-7.8-3-8.3 2.5-15.1 8.3-23.3 1.4-1-.8-1.9-3.6 1.3-5.2 8-4 19.7-11.2 21.5-13.9 3.7-5.5 25.3-63.7 25.3-63.7l17.7 2.6s-28.5 61.9-30.6 65.4c-3.1 5.4.5 14.7 2 19.6-.5.2-1.1.3-1.7.3-2.2-.1-3.2-1.8-4.4-3.5zm176.1-41.2l-30.6-15.3 8.3-16.9 30.2 25.6c7.4 2.4 14.5 5.9 21 10.2 1.3 1.3 2.8 4-2.9 3.1s-11.6-1.5-12.5.4c-.9 1.9 2.4 4.4.6 6.9-.1.2-.4.3-.6.3-1.9.1-6.4-4.7-13.5-14.3z" coriginal="rgb(178,139,103)" colortype="13" awdzp="13" style="fill: rgb(82, 121, 111);"></path><path id="MTBteHk2NTEwMDAwMDAwMDAweHpzOQ" fill="rgb(202, 210, 197)" d="M127.7 5.3l11-3.6c14.9 37.2 37.1 73.2 74.2 103.5l-9.2 15.8c-32.6-19.2-63.5-34.1-76-62.9-4.2-9.6-.3-41.2 0-52.8z" coriginal="rgb(197,207,214)" colortype="4" awdzp="4" style="fill: rgb(202, 210, 197);"></path><path id="MTBteHk4OTEwMDAwMDAwMDAweHpzMTg1" fill="rgb(37, 52, 60)" d="M90 110s47.2 5 74.2 0c2.2-.4 2.6-4.2 1.6-6.7-16.2-39.6-27.2-74.1-27.2-101.6-4.5 2.2-15.6.7-15.6.7C103.1 30.7 93.9 63.2 90 110z" coriginal="rgb(50,51,55)" colortype="20" awdzp="20" style="fill: rgb(37, 52, 60);"></path><path id="MTBteHk5NzkxMDAwMDAwMDAwMHh6czY2NQ" fill="rgb(245, 245, 245)" d="M51.4 215.6c2.1-44.9 18.7-98.6 35.8-144.1-12.7 12.6-27.4 33.7-39.4 68.8l-19.1-4.9C48.2 51.6 105.2 8.5 116.2.7l.3-.7h.8c.5-.3.8-.5.8-.5V0h8.3c1.9 11.4 8 165.3 26.8 215.6H51.4z" coriginal="rgb(221,227,233)" colortype="2" awdzp="2" style="fill: rgb(245, 245, 245);"></path></g></svg>