<!--?undefined undefined?--><svg xmlns="http://www.w3.org/2000/svg" id="svgid13" viewBox="0 0 600 600" repair="1" xmlns:xlink="http://www.w3.org/1999/xlink"><g id="MTBteHk5MTEwMDAwMDAwMDAweHpzMzU4" transform="translate(139 271)"><path id="MTBteHk3MzMxMDAwMDAwMDAwMHh6czExOQ" fill="rgb(44, 83, 73)" d="M128 0l36.6 126.2 17.2 94.8h17.3L181.9 0H128z" coriginal="rgb(153,118,89)" colortype="17" awdzp="17" style="fill: rgb(44, 83, 73);"></path><path id="MTBteHk3MzMxMDAwMDAwMDAwMHh6czExOQ-2" fill="rgb(82, 121, 111)" d="M111.5 0c2.6 65.6 1.5 101.3 1 107.3-.6 6-3.8 45.9-26 115.7h18c29.3-67 39.5-106.9 42.9-115.7 3.4-8.8 13.3-44.6 27.8-107.3h-63.7z" coriginal="rgb(178,139,103)" colortype="13" awdzp="13" style="fill: rgb(82, 121, 111);"></path><path id="MTBteHkyMDExMDAwMDAwMDAwMHh6czI0Mw" fill="rgb(93, 69, 98)" d="M127.2 0c9.5 43.4 26 112.8 49.4 208h25.3c1.9-97.7-6.1-162.1-19.8-208h-54.9z" coriginal="rgb(105,161,172)" colortype="12" awdzp="12" style="fill: rgb(93, 69, 98);"></path><path id="MTBteHkyMDExMDAwMDAwMDAwMHh6czI0Mw-2" fill="rgb(192, 200, 187)" d="M111.4 0c2.5 65.6-4 130.2-24.1 209h27c29.4-66 50.4-130.3 64.8-209h-67.7z" coriginal="rgb(137,197,204)" colortype="6" awdzp="6" style="fill: rgb(192, 200, 187);"></path><g id="MTBteHkyOTcxMDAwMDAwMDAwMHh6czYzNQ" transform="translate(84 199)"><path id="MTBteHk0ODkxMDAwMDAwMDAwMHh6czUxMA" fill="rgb(32, 47, 55)" d="M0 37l.9-15.1c0-.5.4-.9.9-.9l21-1.9 36 13.4c1 .4 1.5 1.4 1.2 2.4L58.6 40H2l-2-3z" coriginal="rgb(25,24,71)" colortype="21" awdzp="21" style="fill: rgb(32, 47, 55);"></path></g><g id="Right_MTBteHk0ODkxMDAwMDAwMDAwMHh6czUxMA" transform="translate(178 199)"><path id="MTBteHk0ODkxMDAwMDAwMDAwMHh6czUxMA-2" fill="rgb(32, 47, 55)" d="M0 37l.9-15.1c0-.5.4-.9.9-.9l21-1.9 36 13.4c1 .4 1.5 1.4 1.2 2.4L58.6 40H2l-2-3z" coriginal="rgb(25,24,71)" colortype="21" awdzp="21" style="fill: rgb(32, 47, 55);"></path></g></g><g id="MTBteHkyODcxMDAwMDAwMDAwMHh6czk2MA" transform="translate(212 60)"><g id="MTBteHk0MDMxMDAwMDAwMDAwMHh6czMxMA" transform="translate(54 31)"><path id="MTBteHk0MDMxMDAwMDAwMDAwMHh6czMxMA-2" fill="rgb(82, 121, 111)" d="M0 73l8.3-38.5C3.7 29.1.6 22.5 1.1 15c1.5-21.4 31.2-16.7 37-5.9s5.1 38.2-2.4 40.1c-3 .8-9.3-1.1-15.8-5L24 73H0z" coriginal="rgb(178,139,103)" colortype="13" awdzp="13" style="fill: rgb(82, 121, 111);"></path></g><path id="MTBteHk1ODMxMDAwMDAwMDAwMHh6czI5NA" fill="rgb(32, 47, 55)" d="M62 67c-2.1-.2-4.5-2.8-6.6-6.9C53.3 56 52.1 51.5 52 47c0-4.8 2-9.4 5.6-12.6 4-3.5 9.6-5.4 16.4-5.4 2.8 0 5.5.3 8.2.9 2 .5 3.8 1.3 5.5 2.3 2.4 1.4 4 4 4.3 6.8-4.9 1.4-13.5 2-26.1 2H63v1l12 1 2 6h-.5c-2.6 0-4.7 1.6-6.8 4.9-.8-.6-1.7-.9-2.7-.9-2.7.1-4.9 2.3-5 5-.1 2.3 1 4.4 3 5.5-1.1 2.2-2 3.3-3 3.5z" coriginal="rgb(25,24,71)" colortype="21" awdzp="21" style="fill: rgb(32, 47, 55);"></path></g><g id="MTBteHk4NDIxMDAwMDAwMDAwMHh6czI2Nw" transform="translate(159.837 159.513)"><path id="MTBteHk5ODAxMDAwMDAwMDAwMHh6czUyOA" fill="rgb(82, 121, 111)" d="M35.4 179c-1.1-.7-2.3-3.3.6-5.3 7.4-5.1 18-13.9 19.4-16.8C58.3 151 68.3 93 68.3 93l20.9.1s-19.4 62.5-20.9 66.3c-2.3 5.7 2.6 14.5 4.7 19.2-3.3 1.5-4.8-.4-6.5-2.3-1.8-2-3.7-4-8.2-2-5.7 2.6-10.4 6.8-16 6.8-2.5 0-4.9-.7-6.9-2.1zm179.9-56.3l-31.6-13.1 7.1-17.4 31.9 23.4c7.6 1.9 14.9 4.8 21.7 8.7 1.4 1.2 3 3.8-2.7 3.3-5.7-.4-11.7-.6-12.5 1.3-.8 1.9 2.7 4.3 1.1 6.9-.1.2-.4.4-.7.4-1.9 0-6.6-4.5-14.3-13.5z" coriginal="rgb(178,139,103)" colortype="13" awdzp="13" style="fill: rgb(82, 121, 111);"></path><path id="MTBteHkyNjYxMDAwMDAwMDAwMHh6czUyNg" fill="rgb(118, 94, 123)" d="M127.7 5.3l8.6-1.5c32.1 27.7 45.3 80.9 84.6 109.1l-9.5 11.7c-68.1-8.3-85.1-73.3-83.7-119.3z" coriginal="rgb(232,118,19)" colortype="11" awdzp="11" style="fill: rgb(118, 94, 123);"></path><path id="MTBteHkxMTEwMDAwMDAwMDAweHpzOTUx" fill="rgb(245, 245, 245)" d="M90 114h76.5c3.5 0 2.8-5 2.3-7.6C163 77 140.2 45.3 140.2 3.5l-22-3.5C99.9 29.4 93.6 65.5 90 114z" coriginal="rgb(221,227,233)" colortype="2" awdzp="2" style="fill: rgb(245, 245, 245);"></path><path id="MTBteHk3MjkxMDAwMDAwMDAwMHh6czIzOQ" fill="rgb(187, 195, 182)" d="M55 156C53.2 98.9 74.8 55 92.9 28.5c-4.2-.1-8-2.4-9.9-6.1C74.9 7.9 77.8-.2 86.5-2.8s16.3 2.8 30 2.8c.5 0 1.1 0 1.6.1l7.3.4s29.7 100.8 16.4 134.5H81.4c-2.9 7.2-6.2 14.2-10 21H55z" coriginal="rgb(255,155,33)" colortype="7" awdzp="7" style="fill: rgb(187, 195, 182);"></path><path id="MTBteHkxMzIxMDAwMDAwMDAwMHh6czk0Ng" d="M104 135H81.4c4.1-10 8.7-22.2 13.6-36.5 2 17.6 5.1 29.9 9 36.5z" opacity=".5"></path></g></svg>