<!--?undefined undefined?--><svg xmlns="http://www.w3.org/2000/svg" id="svgid21" viewBox="0 0 600 600" repair="1" xmlns:xlink="http://www.w3.org/1999/xlink"><g id="MTBteHkyNzMxMDAwMDAwMDAwMHh6czM1NQ" transform="translate(60.66 34.848)"><path id="MTBteHk0NzIxMDAwMDAwMDAwMHh6czg3Nw" fill="rgb(82, 121, 111)" d="M190.1 181.1l9.3-43.3c-5.2-6.1-8.7-13.5-8.1-21.9 1.7-24.1 35.2-18.8 41.7-6.6s5.7 42.9-2.7 45.1c-3.4.9-10.5-1.3-17.8-5.6l4.6 32.3h-27z" coriginal="rgb(178,139,103)" colortype="13" awdzp="13" style="fill: rgb(82, 121, 111);"></path></g><path id="MTBteHk3NjExMDAwMDAwMDAwMHh6czg1MQ" fill="rgb(32, 47, 55)" d="M240.2 142.7c-.8-.9-1.4-2.1-1.8-3.3-.4-1.2-.8-2.5-1.1-3.7-.6-2.5-.6-5.4 1.2-7.4 1.5-1.5 3.5-2.4 5.6-2.4 1.3-.1 2.7.1 4 .5 1.3.4 2.4 1.2 3.6 1.8-.1-2.8.6-5.5 1.9-7.9 1.2-2.1 3.4-3.5 5.9-3.8 2.5-.3 5 .2 7.1 1.4.6.3 1.1.6 1.6 1 .4.3.9.6 1.4.8.6.1.9-.2 1.2-.6.4-.5.9-.9 1.5-1.3 2.3-1.8 5.3-2.3 8-1.4 1.3.5 2.4 1.3 3.3 2.4.7 1 1.3 2.5 2.3 3.2.4.3.7-.1 1.1-.4.6-.4 1.2-.9 1.8-1.3.8-.6 1.8-1 2.8-1.2 1.4-.3 3.4-.3 3.9 1.6.1.7.1 1.5 0 2.2-.1 1-.1 2-.2 3-.1.7-.2 1.5-.3 2.2-.2.5-.2 1-.1 1.5.2.5 1.2.2 1.6.2.8 0 1.6.2 2.4.5.6.2 1.2.7 1.4 1.3.1.4.1.8 0 1.3 0 .4 0 .9.1 1.3 1.1-.5 4.9-1.7 5.4.2.1.7-.1 1.4-.5 1.9-.5 1-1.1 1.9-1.8 2.7-1.4 1.7-2.9 3.3-4.7 4.6 1.6.7 2.3 2.5 1.6 4.1-.2.4-.5.8-.8 1.1-.8.6-1.8.9-2.8.8-.4-.1-.8-.1-1.2-.1-.2.1-.3.1-.5.2-1.5 0-2.9-.2-4.3-.5-2.5-.5-4.7-1.7-6.6-3.4-.4-.4-.9-.7-1.5-.7s-1.1.2-1.7.2c-1.5 0-2.8-.7-4.2-1.2-.1 1.9-.6 3.8-1.4 5.6-.6 1.4-1.9 1.6-3.2 1.7-4.1.4-8.2 0-12.3 0 4 .9 8.1 1.3 12 2.3 1.8.5.4 1.7-.3 2.5-1.3 1.4-2.2 3.1-2.8 4.9-1.9-2.5-5.4-4.2-8.4-3.4-3.4.9-5.7 5.4-3.6 8.7 1.2 1.9 3.5 2.6 5.4 3.4-1.5 1.5-1.8 3.8-2.7 5.7-.3 1-1.1 1.8-2 2.3-.4.1-.7.2-1.1.4-.4.4-.4.8-.9 1.1-1.9 1.3-4.5 1.1-6.2-.5-1.4-1.5-1.1-3.8.1-5.3-1.9-.8-5.4-1.8-4.6-4.8-4.1-.3-14.2-7-8.6-11.9-3-1.7-5.8-5.9-3.9-9.6 1.5-3 5-4.3 7.9-4.5" coriginal="rgb(25,24,71)" colortype="21" awdzp="21" style="fill: rgb(32, 47, 55);"></path><g id="MTBteHkzMzgxMDAwMDAwMDAwMHh6czcxNQ" transform="translate(61.172)"><path id="MTBteHk4MTcxMDAwMDAwMDAwMHh6czg4Mg" fill="rgb(202, 210, 197)" d="M148.8 357.5h85.9L246 496.9H118.1l30.7-139.4z" coriginal="rgb(197,207,214)" colortype="4" awdzp="4" style="fill: rgb(202, 210, 197);"></path><path id="MTBteHk4MTcxMDAwMDAwMDAwMHh6czg4Mg-2" d="M148.8 357.5h26.4L191 496.9h-73l30.8-139.4z" opacity=".5"></path></g><path id="MTBteHk4NDYxMDAwMDAwMDAwMHh6czU1MQ" fill="rgb(82, 121, 111)" d="M381.9 486.2c-1.1-14.2-3.2-63.4-1.1-86.2.9-9.6 1.8-18.8 2.7-26.9-19.9 36.1-52.4 88.9-52.4 88.9l-12.8-5.9s15.1-50.2 24.7-70.9c11-23.6 21.4-43.9 25.7-51 6.8-11.2 18.8-7.3 25-.5 9.2-5.6 24.5 1.6 24.5 9.5 0 23.8-21.5 135.9-22.6 143-.6 3.8-4.2 6-7.6 6-2.9.1-5.7-1.8-6.1-6z" coriginal="rgb(178,139,103)" colortype="13" awdzp="13" style="fill: rgb(82, 121, 111);"></path><path id="MTBteHk1NDIxMDAwMDAwMDAwMHh6czg0NA" fill="rgb(67, 106, 96)" d="M319.3 437.5l44-105.3c10.5-17.1 40.1 3.5 36.5 13.4-8.2 22.5-49.6 95.5-52.1 102.3l-28.4-10.4z" coriginal="rgb(31,40,207)" colortype="16" awdzp="16" style="fill: rgb(67, 106, 96);"></path><path id="MTBteHk4OTAxMDAwMDAwMDAwMHh6czI1Nw" fill="rgb(250, 250, 250)" d="M320.3 449.7c-.8-.9-2.2-1-3.1-.2l-.1.1-5.6 5.5c-1.3 2.7-2.5 5.4-3.5 8.2l54.3 31.7s6.2-5.8 1.9-9.1c-4.2-3.2-7-5.4-7-5.4l-18.8-26.1c-.4-.5-1-.6-1.5-.3l-3.9 3s-5.4-.5-8-2l-4.7-5.4z" coriginal="rgb(228,228,228)" colortype="1" awdzp="1" style="fill: rgb(250, 250, 250);"></path><path id="MTBteHk4OTAxMDAwMDAwMDAwMHh6czI1Nw-2" fill="rgb(250, 250, 250)" d="M382.2 479c-1.2-.4-2.4.2-2.8 1.4v.1l-2.1 7.6c.2 3 .5 5.9 1 8.9h62.6s2.4-8.2-2.8-8.8c-5.3-.7-8.7-1.2-8.7-1.2l-29.1-13.1c-.6-.3-1.2 0-1.5.5v.1l-1.9 4.6s-4.9 2.3-7.9 2.3l-6.8-2.4z" coriginal="rgb(228,228,228)" colortype="1" awdzp="1" style="fill: rgb(250, 250, 250);"></path><path id="MTBteHk1MDAxMDAwMDAwMDAwMHh6czczOQ" fill="rgb(123, 99, 128)" d="M421.5 351.3c0 29.9-14 99.5-14 106.1h-30.2s6.6-93.2 4.7-94.2c-1.9-1-79 7.8-102.1 7.8-33.3 0-47.1-21.2-48.3-60.6h66.1c13.4 1.5 83.6 15.8 109.6 20.7 11.1 2 14.2 12 14.2 20.2z" coriginal="rgb(43,68,255)" colortype="10" awdzp="10" style="fill: rgb(123, 99, 128);"></path><path id="MTBteHk1MjQxMDAwMDAwMDAwMHh6czYwNA" fill="rgb(240, 240, 240)" d="M222.5 338.6c0-16 13.1-32 13.5-51.4.4-18.5 3.8-74.5 18.3-93.4.3-.9.5-1.7.8-2.6l1 .5.5-.5L288 196c0 17.7 14.1 34.3 23 48.5 13.8 22.1 38.5 46.7 22.7 79.6-9.1 18.9-30.5 24.4-52.2 24.4-29.4 0-59-9.9-59-9.9z" coriginal="rgb(193,222,226)" colortype="3" awdzp="3" style="fill: rgb(240, 240, 240);"></path><path id="MTBteHk4NDYxMDAwMDAwMDAwMHh6czU1MQ-2" fill="rgb(82, 121, 111)" d="M323.1 339.6c-3.8 0-9-6.2-12.1-9.9-.5-.6-.9-1.1-1.3-1.5-1.1-1.3-6.6-5.4-16.4-12.5 2.1-10.8 3.5-18.1 4.1-21.8 16.7 18.9 26.4 28.5 29 28.7h.7c1.8-.1 3.6-.6 5.2-1.5.4-.2.7-.4 1-.6.7-.4 1.4-.8 2.2-.9.2 0 .4.1.5.2.9 2.8-.1 7.6-2.5 11.7-1.4 2.5-4.6 6.8-9.8 7.9-.2.2-.4.2-.6.2zm9.3-55.6c-2.1 0-7.5-1.7-12.2-3.9-2.2-1-4.4-2.2-6.4-3.6-1.8-1.4-2.8-2.6-2.8-3.6 0-2.4 3.3-4 6.5-5.6 2.7-1.3 5.3-2.6 5.3-4.1-.1-1.3-.7-2.6-1.6-3.6-.5-.6-.9-1.1-.7-1.5.1-.3.7-.4 1.8-.4 4.5 0 6.8 2 9.2 5.4 1 1.5 2.1 5.3 2.7 9.6.6 4.6.5 8.4-.4 10.1-.2.7-.8 1.1-1.4 1.2z" coriginal="rgb(178,139,103)" colortype="13" awdzp="13" style="fill: rgb(82, 121, 111);"></path><path id="MTBteHk1OTgxMDAwMDAwMDAwMHh6czkyNA" d="M283.8 335.1c-23.1-16.2-36.6-34.7-41.2-56.8-2.1-10.5-2.4-21.3-1-32 1.5-11.6 4.1-23 7.7-34.1-12.6 52.7-2 88.6 35.4 120-.6 1.7-.9 2.8-.9 2.9z" opacity=".5"></path></svg>