<!--?undefined undefined?--><svg xmlns="http://www.w3.org/2000/svg" id="svgid17" viewBox="0 0 600 600" repair="1" xmlns:xlink="http://www.w3.org/1999/xlink"><g id="MTBteHk2MDEwMDAwMDAwMDAweHpzODA0" transform="translate(245 68)"><g id="MTBteHk4NTcxMDAwMDAwMDAwMHh6czU4OQ" transform="translate(54 31)"><path id="MTBteHk4NTcxMDAwMDAwMDAwMHh6czU4OQ-2" fill="rgb(82, 121, 111)" d="M0 73l8.3-38.5C3.7 29.1.6 22.5 1.1 15c1.5-21.4 31.2-16.7 37-5.9s5.1 38.2-2.4 40.1c-3 .8-9.3-1.1-15.8-5L24 73H0z" coriginal="rgb(178,139,103)" colortype="13" awdzp="13" style="fill: rgb(82, 121, 111);"></path></g><path id="MTBteHkxODkxMDAwMDAwMDAwMHh6czcwNw" fill="rgb(32, 47, 55)" d="M59.4 74c-3.7 0-7.1-2.4-9.6-6.6-2.5-4.6-3.8-9.8-3.8-15v-1.2c-2.7 2-5.2 4.2-7.6 6.6-2.5 2.6-5.2 4.9-8.2 7-2.9 2-6.3 3.2-9.8 3.2-3.7 0-7.2-1.9-9.7-5.4C8.3 59.3 7 55.3 7 51.2c-.1-3.3 1-6.6 3.1-9.2 1.2-1.3 2.6-2.3 4.2-2.9 2-.8 4-1.1 6.1-1.1 14.1 0 21 2 27.1 5.1 1-3.1 2.8-5.9 5.2-8.1.7-.7 1.5-1.3 2.4-1.7.6-.3 1.3-.6 2-.9 4.7-1.5 9.7-2.4 14.7-2.5H75c0-5.5 4.5-10 10-10s10 4.5 10 10c0 5.3-4.2 9.7-9.5 10-3.6 1.1-7.4 1.7-11.2 1.9.4 1.8.7 3.6.6 5.4 0 1.9-.2 3.7-.6 5.6-.8-1.1-2.1-1.8-3.4-1.8-3.3 0-6 2.7-6 6 0 4 2.2 6.8 5.6 7-1.3 2.7-3.1 5.1-5.2 7.2-1.9 1.8-4 2.8-5.9 2.8z" coriginal="rgb(25,24,71)" colortype="21" awdzp="21" style="fill: rgb(32, 47, 55);"></path></g><g id="MTBteHk3NzcxMDAwMDAwMDAwMHh6czU3Nw" transform="translate(167 272.3)"><path id="MTBteHk4MDMxMDAwMDAwMDAwMHh6czI" fill="rgb(67, 106, 96)" d="M97.4 98.1s36 10.1 62.1 10.1S208 92.7 208 92.7s-35.2-10.3-58-10.3-52.6 15.7-52.6 15.7z" coriginal="rgb(31,40,207)" colortype="16" awdzp="16" style="fill: rgb(67, 106, 96);"></path><path id="MTBteHkyMDIxMDAwMDAwMDAwMHh6czU3Mw" fill="rgb(44, 83, 73)" d="M180.3 117.8c-.2-.4-.4-.7-.6-1.1-3.2-8.5-54.6-100-59.7-116.7h57.8c3.9 12.7 21.4 92.5 23.9 108.4 7.8 25.1 23.8 106.5 25.8 112.1 2.2 5.9-9.9 12.1-13.2 4.8-5.1-11.6-17.3-43.7-22.8-63.3-5-18.3-9.2-34.8-11.2-44.2z" coriginal="rgb(153,118,89)" colortype="17" awdzp="17" style="fill: rgb(44, 83, 73);"></path><path id="MTBteHkyMDIxMDAwMDAwMDAwMHh6czU3Mw-2" fill="rgb(82, 121, 111)" d="M133 129c-23.5 5.9-109.4 16.7-115.3 18.3-6.1 1.7-11.4-10.8-3.9-13.5 11.9-4.3 44.8-14.3 64.7-18.3 16-3.3 30.6-5.9 40.5-7.5-.8-27.6-4.6-93.8-2.1-108.1H168c-2.4 13.7-22.6 113.7-26.3 123.7-1.2 3.7-4.8 5.3-8.7 5.4z" coriginal="rgb(178,139,103)" colortype="13" awdzp="13" style="fill: rgb(82, 121, 111);"></path><g id="MTBteHk1NzAxMDAwMDAwMDAwMHh6czY2NQ" transform="matrix(.174 .985 -.985 .174 38.9 123.49)"><path id="MTBteHk0MDkxMDAwMDAwMDAwMHh6czEzMw" fill="rgb(250, 250, 250)" d="M5.5 24c-1-.4-2.2.2-2.5 1.3v.1l-2 6.7c.1 2.6.4 5.3.9 7.9h56.4s2.2-7.3-2.5-7.8c-4.7-.6-7.9-1-7.9-1L21.7 19.4c-.5-.2-1.1 0-1.3.5L18.7 24s-4.4 2-7.1 2l-6.1-2z" coriginal="rgb(228,228,228)" colortype="1" awdzp="1" style="fill: rgb(250, 250, 250);"></path></g><g id="MTBteHkzMzExMDAwMDAwMDAwMHh6czY5MA" transform="translate(208 199)"><path id="MTBteHk0MDkxMDAwMDAwMDAwMHh6czEzMw-2" fill="rgb(250, 250, 250)" d="M5.5 24c-1-.4-2.2.2-2.5 1.3v.1l-2 6.7c.1 2.6.4 5.3.9 7.9h56.4s2.2-7.3-2.5-7.8c-4.7-.6-7.9-1-7.9-1L21.7 19.4c-.5-.2-1.1 0-1.3.5L18.7 24s-4.4 2-7.1 2l-6.1-2z" coriginal="rgb(228,228,228)" colortype="1" awdzp="1" style="fill: rgb(250, 250, 250);"></path></g><path id="MTBteHk0MzQxMDAwMDAwMDAwMHh6czg2NA" fill="rgb(123, 99, 128)" d="M117 0s33.8-9.7 64 0c7 31.9 24 44.6 27 93.6-34 16.9-76-12-111 4.4-10-23 4-78.5 20-98z" coriginal="rgb(43,68,255)" colortype="10" awdzp="10" style="fill: rgb(123, 99, 128);"></path></g><g id="MTBteHkyNDEwMDAwMDAwMDAweHpzODEy" transform="translate(184.436 168.519)"><path id="MTBteHkzNjYxMDAwMDAwMDAwMHh6czk1Mg" fill="rgb(82, 121, 111)" d="M36.6 162c-1.5-2.2-3.2-4.5-7.8-3-8.3 2.5-15.1 8.2-23.3 1.4-1-.8-1.9-3.6 1.3-5.2 8-4 19.7-11.2 21.5-13.9 3.7-5.5 25.3-63.7 25.3-63.7l17.7 2.6s-28.5 61.9-30.6 65.4c-3.1 5.4.5 14.7 2 19.6-.5.2-1.1.3-1.7.3-2.2-.1-3.2-1.8-4.4-3.5zm176.1-41.2l-30.6-15.3 8.3-16.9 30.2 25.6c7.4 2.4 14.5 5.9 21 10.2 1.3 1.3 2.8 4-2.9 3.1s-11.6-1.5-12.5.4 2.4 4.4.6 6.9c-.1.2-.4.3-.6.3-1.9.1-6.4-4.7-13.5-14.3z" coriginal="rgb(178,139,103)" colortype="13" awdzp="13" style="fill: rgb(82, 121, 111);"></path><path id="MTBteHk2NDkxMDAwMDAwMDAwMHh6czUwNA" fill="rgb(202, 210, 197)" d="M127.7 5.3l11-3.6c14.9 37.2 37.1 73.2 74.2 103.5l-9.2 15.8c-32.6-19.2-63.5-34.1-76-62.9-4.2-9.6-.3-41.2 0-52.8z" coriginal="rgb(197,207,214)" colortype="4" awdzp="4" style="fill: rgb(202, 210, 197);"></path><path id="MTBteHk5NTEwMDAwMDAwMDAweHpzMQ" fill="rgb(37, 52, 60)" d="M90 110s47.2 5 74.2 0c2.2-.4 2.6-4.2 1.6-6.7-16.2-39.6-27.2-74.1-27.2-101.6-4.5 2.2-15.6.7-15.6.7C103.1 30.7 93.9 63.2 90 110z" coriginal="rgb(50,51,55)" colortype="20" awdzp="20" style="fill: rgb(37, 52, 60);"></path><path id="MTBteHkxODQxMDAwMDAwMDAwMHh6czUxNA" fill="rgb(245, 245, 245)" d="M51.4 215.6c2.1-44.9 18.7-98.6 35.8-144.1-12.7 12.6-27.4 33.7-39.4 68.8l-19.1-4.9C48.2 51.6 105.2 8.5 116.2.7l.3-.7h.8c.5-.3.8-.5.8-.5V0h8.3c1.9 11.4 8 165.3 26.8 215.6H51.4z" coriginal="rgb(221,227,233)" colortype="2" awdzp="2" style="fill: rgb(245, 245, 245);"></path></g></svg>