<!--?undefined undefined?--><svg xmlns="http://www.w3.org/2000/svg" id="svgid4" viewBox="0 0 600 600" repair="1" xmlns:xlink="http://www.w3.org/1999/xlink"><g id="MTBteHkyNDkxMDAwMDAwMDAwMHh6czk2Mw" transform="translate(117 294)"><path id="MTBteHkxNjkxMDAwMDAwMDAwMHh6czY2NQ" fill="rgb(44, 83, 73)" d="M128 0l37.6 123 18.2 104.6h14.3L178.9 0H128z" coriginal="rgb(153,118,89)" colortype="17" awdzp="17" style="fill: rgb(44, 83, 73);"></path><path id="MTBteHkxNjkxMDAwMDAwMDAwMHh6czY2NQ-2" fill="rgb(82, 121, 111)" d="M114.5 0c2.6 67.5-.5 102.4-1 108.5-.6 6.1-8.4 45.9-27 121.2l15.2-5.2c29.3-69 39.3-104.9 42.7-114 3.4-9.1 12.3-45.9 26.8-110.5h-56.7z" coriginal="rgb(178,139,103)" colortype="13" awdzp="13" style="fill: rgb(82, 121, 111);"></path><g id="MTBteHkxNTEwMDAwMDAwMDAweHpzNjQy" transform="translate(84 199)"><path id="MTBteHk0NjcxMDAwMDAwMDAwMHh6czcxOA" fill="rgb(250, 250, 250)" d="M5.5 24c-1-.4-2.2.2-2.5 1.3v.1l-2 6.7c.1 2.6.4 5.3.9 7.9h56.4s2.2-7.3-2.5-7.8c-4.7-.6-7.9-1-7.9-1L21.7 19.4c-.5-.2-1.1 0-1.3.5L18.7 24s-4.4 2-7.1 2l-6.1-2z" coriginal="rgb(228,228,228)" colortype="1" awdzp="1" style="fill: rgb(250, 250, 250);"></path></g><g id="MTBteHkyNjMxMDAwMDAwMDAwMHh6czc3OQ" transform="translate(178 199)"><path id="MTBteHk0NjcxMDAwMDAwMDAwMHh6czcxOA-2" fill="rgb(250, 250, 250)" d="M5.5 24c-1-.4-2.2.2-2.5 1.3v.1l-2 6.7c.1 2.6.4 5.3.9 7.9h56.4s2.2-7.3-2.5-7.8c-4.7-.6-7.9-1-7.9-1L21.7 19.4c-.5-.2-1.1 0-1.3.5L18.7 24s-4.4 2-7.1 2l-6.1-2z" coriginal="rgb(228,228,228)" colortype="1" awdzp="1" style="fill: rgb(250, 250, 250);"></path></g><path id="MTBteHk2ODIxMDAwMDAwMDAwMHh6czQyMw" fill="rgb(93, 69, 98)" d="M123 0l16 62.7h48.9L180.6 0H123z" coriginal="rgb(105,161,172)" colortype="12" awdzp="12" style="fill: rgb(93, 69, 98);"></path><path id="MTBteHk2ODIxMDAwMDAwMDAwMHh6czQyMw-2" fill="rgb(192, 200, 187)" d="M114 0c-7.9 23.7-3 62.7-3 62.7h49.9L174.6 0H114z" coriginal="rgb(137,197,204)" colortype="6" awdzp="6" style="fill: rgb(192, 200, 187);"></path></g><g id="MTBteHk5OTEwMDAwMDAwMDAweHpzMzQx" transform="translate(202.002 63)"><g id="MTBteHk5MzcxMDAwMDAwMDAwMHh6czE3Mg" transform="translate(54 31)"><path id="MTBteHk5MzcxMDAwMDAwMDAwMHh6czE3Mg-2" fill="rgb(82, 121, 111)" d="M0 73l8.3-38.5C3.7 29.1.6 22.5 1.1 15c1.5-21.4 31.2-16.7 37-5.9s5.1 38.2-2.4 40.1c-3 .8-9.3-1.1-15.8-5L24 73H0z" coriginal="rgb(178,139,103)" colortype="13" awdzp="13" style="fill: rgb(82, 121, 111);"></path></g><path id="MTBteHk2MDIxMDAwMDAwMDAwMHh6czcwNg" fill="rgb(32, 47, 55)" d="M82.7 28.4c-3.3-.9-6.7-1.3-10-1.1 1.2-2.8 1.6-5.8 1.2-8.7-.4-2.9-1.6-5.3-2.8-7.9-.5-1.2-1.2-2.3-2.1-3.3-.9-.9-2.1-1.5-3.4-1.8-1.3-.3-2.6-.3-3.9 0-.6.1-1.1.4-1.6.5-.6.1-.8-.2-1.3-.6-1.1-.8-2.4-1.3-3.7-1.4-1.4-.2-2.9 0-4.2.5-1.3.4-2.6 1.2-3.5 2.3-.4.5-.8 1-1.1 1.6-.1.2-.1.4-.4.5-.3 0-.6 0-.8.1-2.3.8-4.2 2.5-5.3 4.8-.7 2-1 4.1-.8 6.2.1 2.6 2.4 9.3 4.6 11.8 2 2.2 4.7 3.7 7.6 4.3-1.8 2.2-3.1 4.7-4 7.4-1 2.9-1.6 5.9-1.8 9-.3 3-.1 5.9.5 8.9.5 2.6 2.1 4.8 4.3 6.2 1.1.6 2.2 1.1 3.3 1.6 1.1.5 2.2.8 3.4 1.1 2.2.5 4.8.4 6.5-1.4.7-.7 1.2-1.4 1.7-2.2.2-.3.3-.5.1-.7-.3-.3-.6-.6-.9-.8-1.7-1.4-2.8-3.5-3-5.7-.3-2.3.4-5.4 2.6-6.4 2.8-1.3 5.9.2 8.4 1.5 1.1-3.7 3.2-7.1 6.7-8.8 3.8-1.9 8.1-2.1 12-3.8 1.1-.4 2-1 2.8-1.8.4-.4.6-.8.8-1.3.1-.6-.1-1.2-.6-1.6-1.8-2.8-8.1-8-11.3-9z" coriginal="rgb(25,24,71)" colortype="21" awdzp="21" style="fill: rgb(32, 47, 55);"></path></g><g id="MTBteHk4MDEwMDAwMDAwMDAweHpzNTk" transform="translate(140.776 158)"><path id="MTBteHk3NTkxMDAwMDAwMDAwMHh6czk0Mg" fill="rgb(44, 83, 73)" d="M213 58.7l15.2-8.4s3.2-12.2 7.7-12.3c1.2-.5.7 1.8.5 4.2-.2 2.3-.1 4.6 2.1 4.2 4.3-.9 14.9-8.8 16.7-7.2 2.7 2.4.3 9.6-2.5 13.2-5.3 6.7-9.7 9.1-20.5 12.1-8.5 2.4-18.4 9.5-18.4 9.5l-.8-15.3zm-54.4-16l34.7-19c4.9-6.1 10.7-11.4 17.1-16 1.7-.7 4.7-1.1 1.9 3.8-2.8 5-5.5 10.3-4.1 11.9.6.7 1.7.6 2.8.6 1.4 0 3-.1 3.9 1.3 1.1 1.7-4.9 4.4-18.2 8l-25.2 23.1-12.9-13.7z" coriginal="rgb(153,118,89)" colortype="17" awdzp="17" style="fill: rgb(44, 83, 73);"></path><path id="MTBteHk5MzkxMDAwMDAwMDAwMHh6czQ3Nw" fill="rgb(47, 62, 70)" d="M141.7 38.5c16.2-.1 32.1-4.9 45.7-13.7l6.8 15.1c-11.9 11.8-28.7 21.6-43.4 21.2-11.5-.3-17.5-14.3-9.1-22.6z" coriginal="rgb(32,38,162)" colortype="18" awdzp="18" style="fill: rgb(47, 62, 70);"></path><path id="MTBteHk0ODIxMDAwMDAwMDAwMHh6czQ5NA" fill="rgb(67, 106, 96)" d="M110.6 142.5c-12.2-1.6-23.6-3.2-30.2-1.9C69.2 103.9 91 88.9 91.1 65.4 91.1 39.6 111.8 0 114.8 0h27.7c1.5 19.7 9.2 41.3 15.6 62.7 20.2 4.6 64.9-11.4 64.9-11.4s11.3 23.4 10.5 33.3c-26.1 13.6-48.4 19.7-66.8 20.1.6 10.9-.7 21.3-5.2 30.8-3.3 7.1-12.6 9.2-23.9 9.2-8.4.1-17.9-1-27-2.2z" coriginal="rgb(31,40,207)" colortype="16" awdzp="16" style="fill: rgb(67, 106, 96);"></path></g></svg>