<!--?undefined undefined?--><svg xmlns="http://www.w3.org/2000/svg" id="svgid22" viewBox="0 0 600 600" repair="1" xmlns:xlink="http://www.w3.org/1999/xlink"><g id="MTBteHkyOTExMDAwMDAwMDAwMHh6czgwMw" transform="translate(167 275.3)"><path id="MTBteHkxNDcxMDAwMDAwMDAwMHh6czIx" fill="rgb(67, 106, 96)" d="M97.4 98.1s36 10.1 62.1 10.1S208 92.7 208 92.7s-35.2-10.3-58-10.3-52.6 15.7-52.6 15.7z" coriginal="rgb(31,40,207)" colortype="16" awdzp="16" style="fill: rgb(67, 106, 96);"></path><path id="MTBteHk5OTQxMDAwMDAwMDAwMHh6czY3NQ" fill="rgb(44, 83, 73)" d="M180.3 117.8c-.2-.4-.4-.7-.6-1.1-3.2-8.5-54.6-100-59.7-116.7h57.8c3.9 12.7 21.4 92.5 23.9 108.4 7.8 25.1 23.8 106.5 25.8 112.1 2.2 5.9-9.9 12.1-13.2 4.8-5.1-11.6-17.3-43.7-22.8-63.3-5-18.3-9.2-34.8-11.2-44.2z" coriginal="rgb(153,118,89)" colortype="17" awdzp="17" style="fill: rgb(44, 83, 73);"></path><path id="MTBteHk5OTQxMDAwMDAwMDAwMHh6czY3NQ-2" fill="rgb(82, 121, 111)" d="M133 129c-23.5 5.9-109.4 16.7-115.3 18.3-6.1 1.7-11.4-10.8-3.9-13.5 11.9-4.3 44.8-14.3 64.7-18.3 16-3.3 30.6-5.9 40.5-7.5-.8-27.6-4.6-93.8-2.1-108.1H168c-2.4 13.7-22.6 113.7-26.3 123.7-1.2 3.7-4.8 5.3-8.7 5.4z" coriginal="rgb(178,139,103)" colortype="13" awdzp="13" style="fill: rgb(82, 121, 111);"></path><g id="MTBteHk1NzgxMDAwMDAwMDAwMHh6czI2Mw" transform="matrix(.174 .985 -.985 .174 38.9 123.49)"><path id="MTBteHk5ODMxMDAwMDAwMDAwMHh6czg1MA" fill="rgb(250, 250, 250)" d="M5.5 24c-1-.4-2.2.2-2.5 1.3v.1l-2 6.7c.1 2.6.4 5.3.9 7.9h56.4s2.2-7.3-2.5-7.8c-4.7-.6-7.9-1-7.9-1L21.7 19.4c-.5-.2-1.1 0-1.3.5L18.7 24s-4.4 2-7.1 2l-6.1-2z" coriginal="rgb(228,228,228)" colortype="1" awdzp="1" style="fill: rgb(250, 250, 250);"></path></g><g id="MTBteHkxMjgxMDAwMDAwMDAwMHh6czczNg" transform="translate(208 199)"><path id="MTBteHk5ODMxMDAwMDAwMDAwMHh6czg1MA-2" fill="rgb(250, 250, 250)" d="M5.5 24c-1-.4-2.2.2-2.5 1.3v.1l-2 6.7c.1 2.6.4 5.3.9 7.9h56.4s2.2-7.3-2.5-7.8c-4.7-.6-7.9-1-7.9-1L21.7 19.4c-.5-.2-1.1 0-1.3.5L18.7 24s-4.4 2-7.1 2l-6.1-2z" coriginal="rgb(228,228,228)" colortype="1" awdzp="1" style="fill: rgb(250, 250, 250);"></path></g><path id="MTBteHk5MTcxMDAwMDAwMDAwMHh6czQ2OQ" fill="rgb(123, 99, 128)" d="M117 0s33.8-9.7 64 0c7 31.9 24 44.6 27 93.6-34 16.9-76-12-111 4.4-10-23 4-78.5 20-98z" coriginal="rgb(43,68,255)" colortype="10" awdzp="10" style="fill: rgb(123, 99, 128);"></path></g><g id="MTBteHk5OTQxMDAwMDAwMDAwMHh6czk3Mg" transform="translate(241 69)"><g id="MTBteHk1MTYxMDAwMDAwMDAwMHh6czU4Mg" transform="translate(54 31)"><path id="MTBteHk1MTYxMDAwMDAwMDAwMHh6czU4Mg-2" fill="rgb(82, 121, 111)" d="M0 73l8.3-38.5C3.7 29.1.6 22.5 1.1 15c1.5-21.4 31.2-16.7 37-5.9s5.1 38.2-2.4 40.1c-3 .8-9.3-1.1-15.8-5L24 73H0z" coriginal="rgb(178,139,103)" colortype="13" awdzp="13" style="fill: rgb(82, 121, 111);"></path></g><path id="MTBteHkxMTQxMDAwMDAwMDAwMHh6czY3OQ" fill="rgb(32, 47, 55)" d="M52 16c8.3 0 15 6.7 15 15s-6.7 15-15 15-15-6.7-15-15 6.7-15 15-15z" coriginal="rgb(25,24,71)" colortype="21" awdzp="21" style="fill: rgb(32, 47, 55);"></path></g><g id="MTBteHk3MzIxMDAwMDAwMDAwMHh6czgxNg" transform="translate(180.837 165.513)"><path id="MTBteHk2ODUxMDAwMDAwMDAwMHh6czMw" fill="rgb(82, 121, 111)" d="M35.4 179c-1.1-.7-2.3-3.3.6-5.3 7.4-5.1 18-13.9 19.4-16.8C58.3 151 68.3 93 68.3 93l20.9.1s-19.4 62.5-20.9 66.3c-2.3 5.7 2.6 14.5 4.7 19.2-3.3 1.5-4.8-.4-6.5-2.3-1.8-2-3.7-4-8.2-2-5.7 2.6-10.4 6.8-16 6.8-2.5 0-4.9-.7-6.9-2.1zm179.9-56.3l-31.6-13.1 7.1-17.4 31.9 23.4c7.6 1.9 14.9 4.8 21.7 8.7 1.4 1.2 3 3.8-2.7 3.3-5.7-.4-11.7-.6-12.5 1.3-.8 1.9 2.7 4.3 1.1 6.9-.1.2-.4.4-.7.4-1.9 0-6.6-4.5-14.3-13.5z" coriginal="rgb(178,139,103)" colortype="13" awdzp="13" style="fill: rgb(82, 121, 111);"></path><path id="MTBteHkyNzYxMDAwMDAwMDAwMHh6czc2NA" fill="rgb(118, 94, 123)" d="M127.7 5.3l8.6-1.5c32.1 27.7 45.3 80.9 84.6 109.1l-9.5 11.7c-68.1-8.3-85.1-73.3-83.7-119.3z" coriginal="rgb(232,118,19)" colortype="11" awdzp="11" style="fill: rgb(118, 94, 123);"></path><path id="MTBteHkyODcxMDAwMDAwMDAwMHh6czkzNA" fill="rgb(245, 245, 245)" d="M90 114h76.5c3.5 0 2.8-5 2.3-7.6C163 77 140.2 45.3 140.2 3.5l-22-3.5C99.9 29.4 93.6 65.5 90 114z" coriginal="rgb(221,227,233)" colortype="2" awdzp="2" style="fill: rgb(245, 245, 245);"></path><path id="MTBteHkzMzEwMDAwMDAwMDAweHpzNDEz" fill="rgb(187, 195, 182)" d="M55 156C53.2 98.9 74.8 55 92.9 28.5c-4.2-.1-8-2.4-9.9-6.1C74.9 7.9 77.8-.2 86.5-2.8s16.3 2.8 30 2.8c.5 0 1.1 0 1.6.1l7.3.4s29.7 100.8 16.4 134.5H81.4c-2.9 7.2-6.2 14.2-10 21H55z" coriginal="rgb(255,155,33)" colortype="7" awdzp="7" style="fill: rgb(187, 195, 182);"></path><path id="MTBteHkyNDcxMDAwMDAwMDAwMHh6czg2Mw" d="M104 135H81.4c4.1-10 8.7-22.2 13.6-36.5 2 17.6 5.1 29.9 9 36.5z" opacity=".5"></path></g></svg>