<!--?undefined undefined?--><svg xmlns="http://www.w3.org/2000/svg" id="svgid20" viewBox="0 0 600 600" repair="1" xmlns:xlink="http://www.w3.org/1999/xlink"><g id="MTBteHkzMzgxMDAwMDAwMDAwMHh6czYzMg" transform="translate(143 270.787)"><path id="MTBteHk3MzIxMDAwMDAwMDAwMHh6czU1Mw" fill="rgb(82, 121, 111)" d="M116.7 0c1.8 24.6 117.9 97.1 118.6 99.2.5 1.4-36.2 85.7-36.2 85.7l10.2 4s56.2-89.3 53.3-98.8C258.5 76.5 172.5.4 172.5.4L116.7 0z" coriginal="rgb(178,139,103)" colortype="13" awdzp="13" style="fill: rgb(82, 121, 111);"></path><path id="MTBteHk1MTcxMDAwMDAwMDAwMHh6czY" fill="rgb(42, 57, 65)" d="M201.8 172.2l16.6 6c35-39.4 48.7-72 46.2-88.6S174.8.1 174.8.1h-59.3c2 57 109.7 99.3 111.1 101.7s-12.8 26.2-24.8 70.4z" coriginal="rgb(47,54,118)" colortype="19" awdzp="19" style="fill: rgb(42, 57, 65);"></path><g id="MTBteHkxOTUxMDAwMDAwMDAwMHh6czkx" transform="translate(201.564 158.054) rotate(20)"><path id="MTBteHk5OTEwMDAwMDAwMDAweHpzNjYy" fill="rgb(250, 250, 250)" d="M5.5 24c-1-.4-2.2.2-2.5 1.3v.1l-2 6.7c.1 2.6.4 5.3.9 7.9h56.4s2.2-7.3-2.5-7.8c-4.7-.6-7.9-1-7.9-1L21.7 19.4c-.5-.2-1.1 0-1.3.5L18.7 24s-4.4 2-7.1 2l-6.1-2z" coriginal="rgb(228,228,228)" colortype="1" awdzp="1" style="fill: rgb(250, 250, 250);"></path></g><path id="MTBteHk3MzIxMDAwMDAwMDAwMHh6czU1Mw-2" fill="rgb(44, 83, 73)" d="M130 0L78.3 124.2l-50.9 105h12L170.7 0H130z" coriginal="rgb(153,118,89)" colortype="17" awdzp="17" style="fill: rgb(44, 83, 73);"></path><g id="MTBteHk3NTQxMDAwMDAwMDAwMHh6czE4" transform="translate(24 199)"><path id="MTBteHk5OTEwMDAwMDAwMDAweHpzNjYy-2" fill="rgb(250, 250, 250)" d="M5.5 24c-1-.4-2.2.2-2.5 1.3v.1l-2 6.7c.1 2.6.4 5.3.9 7.9h56.4s2.2-7.3-2.5-7.8c-4.7-.6-7.9-1-7.9-1L21.7 19.4c-.5-.2-1.1 0-1.3.5L18.7 24s-4.4 2-7.1 2l-6.1-2z" coriginal="rgb(228,228,228)" colortype="1" awdzp="1" style="fill: rgb(250, 250, 250);"></path></g><path id="MTBteHk1MTcxMDAwMDAwMDAwMHh6czY-2" fill="rgb(72, 111, 101)" d="M32 207.4l26.7 5C79.3 182.1 165.5 57.9 175 0h-59.4C84.1 41.8 51.6 176.6 32 207.4z" coriginal="rgb(92,99,171)" colortype="15" awdzp="15" style="fill: rgb(72, 111, 101);"></path></g><g id="MTBteHk3OTgxMDAwMDAwMDAwMHh6czEzNA" transform="translate(213.111 60.98)"><g id="MTBteHk0NzgxMDAwMDAwMDAwMHh6czgzMA" transform="translate(54 31)"><path id="MTBteHk0NzgxMDAwMDAwMDAwMHh6czgzMA-2" fill="rgb(82, 121, 111)" d="M0 73l8.3-38.5C3.7 29.1.6 22.5 1.1 15c1.5-21.4 31.2-16.7 37-5.9s5.1 38.2-2.4 40.1c-3 .8-9.3-1.1-15.8-5L24 73H0z" coriginal="rgb(178,139,103)" colortype="13" awdzp="13" style="fill: rgb(82, 121, 111);"></path></g><path id="MTBteHk2OTQxMDAwMDAwMDAwMHh6czg2NQ" fill="rgb(32, 47, 55)" d="M74.1 74.1c-1.6-4.9-2.2-18.9-2.4-23H71c-3.3 0-6 2.7-6 6 0 1.6.7 3.2 1.8 4.3-1.4 2-2.9 4-4.7 6.1-6.7-4-11.7-15.8-5.1-27.1 1.8-5.5 5.9-8.5 10.7-9.9 3.6-1.6 7.6-1.9 11.4-.8 6.7.6 12.7 2.6 14.5 3.9 0 6.4-1.2 8.3-11.8 8.1-2.6 1.4-4.6 3.7-6.7 6.8 0 .2 1.4 19.2 7.3 19.2s10.9-3.8 13.5-3.8c1.9 0 1.5 2.4.2 4.1-1 1.4-6.1 2.8-6.1 5.1 0 1.3 1.3 1.3 2.4 1.3.9 0 1.6 0 1.6.6 0 2.2.7 6.3-3.1 6.3-3.8-.1-14.9-1.5-16.8-7.2z" coriginal="rgb(25,24,71)" colortype="21" awdzp="21" style="fill: rgb(32, 47, 55);"></path></g><g id="MTBteHkxNjIxMDAwMDAwMDAwMHh6czkw" transform="translate(157.071 158.224)"><path id="MTBteHk5NzcxMDAwMDAwMDAwMHh6czc1OQ" fill="rgb(82, 121, 111)" d="M212.6 99.7L181 86.6l7.1-17.4L220 92.6c7.6 1.9 14.9 4.8 21.7 8.7 1.4 1.2 3 3.8-2.7 3.3-5.7-.4-11.7-.6-12.5 1.3s2.7 4.3 1.1 6.9c-.1.2-.4.4-.7.4-1.8 0-6.6-4.5-14.3-13.5zM191.5 2.3L229.4-9c6.1-4.9 12.8-9 20-12.1 1.8-.3 4.8-.1 1.1 4.1s-7.6 9-6.5 10.8 5 .4 6.1 3.3c.8 1.9-5.7 3.3-19.5 4.1l-29.5 17.3-9.6-16.2z" coriginal="rgb(178,139,103)" colortype="13" awdzp="13" style="fill: rgb(82, 121, 111);"></path><path id="MTBteHk4ODExMDAwMDAwMDAwMHh6czQ4OQ" fill="rgb(47, 62, 70)" d="M138.6 6.1c17.4 32.4 42.5 57.2 78.9 83.1l-13.8 15.5C163 89.6 141.5 80.4 131 49.8c-2.6-7.7-4.5-32.2-6.1-45.1l13.7 1.4z" coriginal="rgb(32,38,162)" colortype="18" awdzp="18" style="fill: rgb(47, 62, 70);"></path><path id="MTBteHk4MTUxMDAwMDAwMDAwMHh6czM5NQ" fill="rgb(255, 255, 255)" d="M90 114h77S140.8 34.2 140.3 4.5c0-1-1.9-2.8-2.7-2.6-9.1 2.6-19.4-1.9-19.4-1.9C99.9 29.4 93.6 65.5 90 114z" coriginal="rgb(242,242,242)" colortype="0" awdzp="0" style="fill: rgb(255, 255, 255);"></path><path id="MTBteHkzMDcxMDAwMDAwMDAwMHh6czYz" fill="rgb(67, 106, 96)" d="M81.4 138.6C74.8 94.8 92 34 107.9 3.4c.8-2 2.8-3.3 4.9-3.4h11.9c4 0 8.5.2 13.4.4 21.9.7 52 1.4 85.8-9.4l4.1 20.4c-31.2 20.1-62.8 35.6-90.5 33.4 12 51.6 11.5 93.8-15.1 93.8h-41z" coriginal="rgb(31,40,207)" colortype="16" awdzp="16" style="fill: rgb(67, 106, 96);"></path></g></svg>