<!--?undefined undefined?--><svg xmlns="http://www.w3.org/2000/svg" id="svgid19" viewBox="0 0 600 600" repair="1" xmlns:xlink="http://www.w3.org/1999/xlink"><path fill="none" d="M0 0h600v600H0z"></path><g id="MTBteHk2ODkxMDAwMDAwMDAwMHh6czM2OQ" transform="matrix(.848 .53 -.53 .848 335.889 66.867)"><g id="MTBteHk2ODkxMDAwMDAwMDAwMHh6czM2OQ-2" transform="translate(54 31)"><path id="MTBteHk2ODkxMDAwMDAwMDAwMHh6czM2OQ-3" fill="rgb(82, 121, 111)" d="M0 73l8.3-38.5C3.7 29.1.6 22.5 1.1 15c1.5-21.4 31.2-16.7 37-5.9s5.1 38.2-2.4 40.1c-3 .8-9.3-1.1-15.8-5L24 73H0z" coriginal="rgb(178,139,103)" colortype="13" awdzp="13" style="fill: rgb(82, 121, 111);"></path></g><path id="MTBteHkzNDAxMDAwMDAwMDAwMHh6czE3MQ" fill="rgb(32, 47, 55)" d="M59.4 74c-3.7 0-7.1-2.4-9.6-6.6-2.5-4.6-3.8-9.8-3.8-15v-1.2c-2.7 2-5.2 4.2-7.6 6.6-2.5 2.6-5.2 4.9-8.2 7-2.9 2-6.3 3.2-9.8 3.2-3.7 0-7.2-1.9-9.7-5.4C8.3 59.3 7 55.3 7 51.2c-.1-3.3 1-6.6 3.2-9.2 1.2-1.3 2.6-2.3 4.2-2.9 2-.8 4-1.1 6.1-1.1 14.1 0 21 2 27.1 5.1 1-3.1 2.8-5.9 5.2-8.1.7-.7 1.5-1.3 2.4-1.7.6-.3 1.3-.6 2-.9 4.7-1.5 9.7-2.4 14.7-2.5h3.2c0-5.5 4.5-10 10-10s10 4.5 10 10c0 5.3-4.2 9.7-9.5 10-3.6 1.1-7.4 1.7-11.2 1.9.4 1.8.7 3.6.6 5.4 0 1.9-.2 3.7-.6 5.6-.8-1.1-2.1-1.8-3.4-1.8-3.3 0-6 2.7-6 6 0 4 2.2 6.8 5.6 7-1.3 2.7-3.1 5.1-5.2 7.2-2 1.8-4.1 2.8-6 2.8z" coriginal="rgb(25,24,71)" colortype="21" awdzp="21" style="fill: rgb(32, 47, 55);"></path></g><g id="MTBteHk4MzIxMDAwMDAwMDAwMHh6czgxNw" transform="translate(146 262)"><path id="MTBteHkzNTMxMDAwMDAwMDAwMHh6czk3OQ" fill="rgb(67, 106, 96)" d="M97.4 98.1s36 10.1 62.1 10.1S208 92.7 208 92.7s-35.2-10.3-58-10.3-52.6 15.7-52.6 15.7z" coriginal="rgb(31,40,207)" colortype="16" awdzp="16" style="fill: rgb(67, 106, 96);"></path><path id="MTBteHkyMzExMDAwMDAwMDAwMHh6czY0Ng" fill="rgb(44, 83, 73)" d="M180.3 117.8c-.2-.4-.4-.7-.6-1.1-3.2-8.5-54.6-100-59.7-116.7h57.8c3.9 12.7 21.4 92.5 23.9 108.4 7.8 25.1 23.8 106.5 25.8 112.1 2.2 5.9-9.9 12.1-13.2 4.8-5.1-11.6-17.3-43.7-22.8-63.3-5-18.3-9.2-34.8-11.2-44.2z" coriginal="rgb(153,118,89)" colortype="17" awdzp="17" style="fill: rgb(44, 83, 73);"></path><path id="MTBteHkyMzExMDAwMDAwMDAwMHh6czY0Ng-2" fill="rgb(82, 121, 111)" d="M133 129c-23.5 5.9-109.4 16.7-115.3 18.3-6.1 1.7-11.4-10.8-3.9-13.5 11.9-4.3 44.8-14.3 64.7-18.3 16-3.3 30.6-5.9 40.5-7.5-.8-27.6-4.6-93.8-2.1-108.1H168c-2.4 13.7-22.6 113.7-26.3 123.7-1.2 3.7-4.8 5.3-8.7 5.4z" coriginal="rgb(178,139,103)" colortype="13" awdzp="13" style="fill: rgb(82, 121, 111);"></path><g id="MTBteHkzNTcxMDAwMDAwMDAwMHh6czgzNw" transform="matrix(.174 .985 -.985 .174 38.9 123.49)"><path id="MTBteHk1NDQxMDAwMDAwMDAwMHh6czY3NQ" fill="rgb(250, 250, 250)" d="M5.5 24c-1-.4-2.2.2-2.5 1.3v.1l-2 6.7c.1 2.6.4 5.3.9 7.9h56.4s2.2-7.3-2.5-7.8c-4.7-.6-7.9-1-7.9-1L21.7 19.4c-.5-.2-1.1 0-1.3.5L18.7 24s-4.4 2-7.1 2l-6.1-2z" coriginal="rgb(228,228,228)" colortype="1" awdzp="1" style="fill: rgb(250, 250, 250);"></path></g><g id="MTBteHk3NTgxMDAwMDAwMDAwMHh6czM3OA" transform="translate(208 199)"><path id="MTBteHk1NDQxMDAwMDAwMDAwMHh6czY3NQ-2" fill="rgb(250, 250, 250)" d="M5.5 24c-1-.4-2.2.2-2.5 1.3v.1l-2 6.7c.1 2.6.4 5.3.9 7.9h56.4s2.2-7.3-2.5-7.8c-4.7-.6-7.9-1-7.9-1L21.7 19.4c-.5-.2-1.1 0-1.3.5L18.7 24s-4.4 2-7.1 2l-6.1-2z" coriginal="rgb(228,228,228)" colortype="1" awdzp="1" style="fill: rgb(250, 250, 250);"></path></g><path id="MTBteHk0NDIxMDAwMDAwMDAwMHh6czM1Mg" fill="rgb(123, 99, 128)" d="M117 0s33.8-9.7 64 0c7 31.9 24 44.6 27 93.6-34 16.9-76-12-111 4.4-10-23 4-78.5 20-98z" coriginal="rgb(43,68,255)" colortype="10" awdzp="10" style="fill: rgb(123, 99, 128);"></path></g><path id="MTBteHkyMTAwMDAwMDAwMDB4enMyMDg" fill="rgb(82, 121, 111)" d="M195.9 310.1c-.8-1-1-3.9 2.5-4.7 8.7-2.1 21.7-6.5 24.1-8.7 4.9-4.5 34.9-55 34.9-55l19.5 7.6s-40.5 51.4-43.3 54.4c-4.2 4.5-2.8 14.4-2.5 19.6-3.6.2-4.4-2.1-5.3-4.5-.9-2.5-2.1-5.1-6.9-4.8-6.2.4-12.1 2.7-17.4.7-2.2-1-4.2-2.6-5.6-4.6zm187 11.6l-21.3-26.8 14.6-11.8 16.5 36c5.7 5.3 10.7 11.4 14.7 18.1.6 1.8.8 4.8-3.9 1.6s-9.9-6.2-11.5-4.9c-1.6 1.3.3 5-2.4 6.5-.2.1-.4.1-.7.1-1.6-.7-3.6-6.9-6-18.8z" coriginal="rgb(178,139,103)" colortype="13" awdzp="13" style="fill: rgb(82, 121, 111);"></path><path id="MTBteHk5MjExMDAwMDAwMDAwMHh6czU3Mg" fill="rgb(32, 47, 55)" d="M344.3 181.1l8.6 1.7c.6 40 12.7 80.9 36.5 122.6L351 327.1c-19.1-53.7-24.4-103.5-6.7-146z" coriginal="rgb(25,24,71)" colortype="21" awdzp="21" style="fill: rgb(32, 47, 55);"></path><path id="MTBteHk4ODYxMDAwMDAwMDAwMHh6czg5" fill="rgb(245, 245, 245)" d="M270.2 269l71.9 27.6s-1.7-70.3 14.6-112.8l-20.4-11.6c-27.6 20.9-45.4 52.8-66.1 96.8z" coriginal="rgb(221,227,233)" colortype="2" awdzp="2" style="fill: rgb(245, 245, 245);"></path><path id="MTBteHk5ODMxMDAwMDAwMDAwMHh6czI5MQ" fill="rgb(42, 57, 65)" d="M225.7 287.3c41.9-85.7 110.1-115.2 110.1-115.2l1.4.5c2.5 1.1 7.6 3.3 7.6 3.3l-.5 17c-9.7 27.7-32.7 114.1-32.7 114.1l-47-18c-1.4 3.8-2.7 7.8-3.9 11.8l-35-13.5z" coriginal="rgb(47,54,118)" colortype="19" awdzp="19" style="fill: rgb(42, 57, 65);"></path><path id="MTBteHkyNjEwMDAwMDAwMDAweHpzODYz" d="M277.6 294.4l-13.1-5c5.6-15.6 12.8-30.6 21.3-44.9-2.7 8.9-5 17.9-6.8 27.1-1.8 9.8-2.3 17.5-1.4 22.8z" opacity=".5"></path><path id="MTBteHk2NjkxMDAwMDAwMDAwMHh6czEyMA" d="M286 264.4l27.4-1.9-4.1 10.8-23.3-8.9z" opacity=".5"></path></svg>