<!--?undefined undefined?--><svg xmlns="http://www.w3.org/2000/svg" id="svgid24" viewBox="0 0 600 600" repair="1" xmlns:xlink="http://www.w3.org/1999/xlink"><g id="MTBteHk5MzUxMDAwMDAwMDAwMHh6czM1MA" transform="translate(60.75 -34.875)"><path id="MTBteHk0OTcxMDAwMDAwMDAwMHh6czU3Nw" fill="rgb(82, 121, 111)" d="M253.1 186l-17.4-40.8c3.9-7 6-14.9 3.8-23-6.2-23.3-38.1-11.7-42.2 1.4s2.5 43.3 11.2 43.8c3.5.2 10.1-3.2 16.4-8.9l1.7 32.6 26.5-5.1z" coriginal="rgb(178,139,103)" colortype="13" awdzp="13" style="fill: rgb(82, 121, 111);"></path></g><path id="MTBteHkyMDEwMDAwMDAwMDAweHpzMTk3" fill="rgb(32, 47, 55)" d="M285.2 122.4c.7-5.7-1.6-21.3-2.3-25.9.3-.1.5-.1.8-.2 3.7-.7 7.2 1.7 7.9 5.3.3 1.8 0 3.6-1.1 5.1 2 1.9 4.1 3.8 6.5 5.7 6.5-5.9 9.5-19.9-.2-31-3.2-5.7-8.3-8.1-14-8.6-4.3-1-8.8-.4-12.8 1.5-7.3 2.1-13.5 5.6-15.1 7.4 1.4 7 3.1 8.9 14.8 6.4 3.2 1 5.9 3.1 8.8 6.1 0 .2 2.6 21.5-3.9 22.8-6.5 1.3-12.9-1.8-15.7-1.2-2.1.4-1.1 2.9.6 4.6 1.5 1.4 7.3 1.8 7.8 4.3.3 1.4-1.1 1.7-2.4 1.9-.9.2-1.8.3-1.6 1 .5 2.4.6 7.2 4.8 6.3 4.3-.9 16.3-4.8 17.1-11.5z" coriginal="rgb(25,24,71)" colortype="21" awdzp="21" style="fill: rgb(32, 47, 55);"></path><path id="MTBteHk5NDEwMDAwMDAwMDAweHpzNjk0" fill="rgb(44, 83, 73)" d="M334.2 251l-42.3 138.5-20.5 117.8h-16.1L277 251h57.2z" coriginal="rgb(153,118,89)" colortype="17" awdzp="17" style="fill: rgb(44, 83, 73);"></path><path id="MTBteHk5NDEwMDAwMDAwMDAweHpzNjk0-2" fill="rgb(82, 121, 111)" d="M349.3 251c-2.9 76 .5 115.2 1.1 122.1.6 6.9 9.4 51.7 30.3 136.4l-17.1-5.9c-32.9-77.7-44.1-118.1-47.9-128.3-3.8-10.2-13.8-51.7-30.1-124.4h63.7z" coriginal="rgb(178,139,103)" colortype="13" awdzp="13" style="fill: rgb(82, 121, 111);"></path><g id="MTBteHk4NzExMDAwMDAwMDAwMHh6czY3Mg" transform="translate(94.36 -223.979)"><path id="MTBteHkxMTgxMDAwMDAwMDAwMHh6czk1MA" fill="rgb(250, 250, 250)" d="M283.2 726c1.2-.4 2.4.2 2.8 1.4v.1l2.1 7.6c-.2 3-.5 5.9-1 8.9h-62.7s-2.4-8.2 2.8-8.8c5.3-.7 8.7-1.2 8.7-1.2l29.1-13.2c.6-.2 1.2 0 1.5.6l1.9 4.6s4.9 2.3 7.9 2.3l6.9-2.3z" coriginal="rgb(228,228,228)" colortype="1" awdzp="1" style="fill: rgb(250, 250, 250);"></path></g><g id="MTBteHk5NzAxMDAwMDAwMDAwMHh6czY0NQ" transform="translate(199.953 -223.979)"><path id="MTBteHkxMTgxMDAwMDAwMDAwMHh6czk1MA-2" fill="rgb(250, 250, 250)" d="M72 726c1.2-.4 2.4.2 2.8 1.4v.1l2.1 7.6c-.2 3-.5 5.9-1 8.9H13.3s-2.4-8.2 2.8-8.8c5.3-.7 8.7-1.2 8.7-1.2L54 720.8c.6-.2 1.2 0 1.5.6l1.9 4.6s4.9 2.3 7.9 2.3L72 726z" coriginal="rgb(228,228,228)" colortype="1" awdzp="1" style="fill: rgb(250, 250, 250);"></path></g><path id="MTBteHk5ODEwMDAwMDAwMDAweHpzOTQ4" fill="rgb(93, 69, 98)" d="M339.8 251l-18 70.5H267l8.2-70.5h64.6z" coriginal="rgb(105,161,172)" colortype="12" awdzp="12" style="fill: rgb(93, 69, 98);"></path><path id="MTBteHk4NTExMDAwMDAwMDAwMHh6czk4MA" fill="rgb(192, 200, 187)" d="M349.9 251c8.9 26.6 3.4 70.5 3.4 70.5h-56L281.9 251h68z" coriginal="rgb(137,197,204)" colortype="6" awdzp="6" style="fill: rgb(192, 200, 187);"></path><path id="MTBteHk4NTgxMDAwMDAwMDAwMHh6czUx" fill="rgb(82, 121, 111)" d="M424.5 317.6c1.1-.9 2.1-4-1.5-5.8-9-4.5-22.2-12.6-24.2-15.6-4.2-6.2-24.4-69-24.4-69l-23.3 3.4s31.3 66.5 33.6 70.5c3.5 6-.6 16.5-2.2 22 3.9 1.1 5.3-1.2 6.9-3.6 1.7-2.5 3.5-5.1 8.8-3.5 6.7 2 12.6 6 18.9 5.1 2.8-.5 5.4-1.7 7.4-3.5zM216.7 283l30.1-23.9-13-16.6-27.2 35.2c-8.6 5.2-15.5 10.6-20.8 16.1-1.1 1.8-2.1 5 3.9 2.8s12.4-4.3 13.9-2.5c1.5 1.9-1.6 5.4 1 7.8.2.2.4.3.7.2 1.9-.3 5.7-6.7 11.4-19.1z" coriginal="rgb(178,139,103)" colortype="13" awdzp="13" style="fill: rgb(82, 121, 111);"></path><path id="MTBteHk3ODcxMDAwMDAwMDAwMHh6czI2NQ" fill="rgb(32, 47, 55)" d="M294.6 138.9l-9.9-.3c-10.8 43.7-34.5 85.3-71 124.9l36.5 33.5c34.6-53.9 53.1-107.1 44.4-158.1z" coriginal="rgb(25,24,71)" colortype="21" awdzp="21" style="fill: rgb(32, 47, 55);"></path><path id="MTBteHk2NTEwMDAwMDAwMDAweHpzMjY4" fill="rgb(245, 245, 245)" d="M353.5 253.8l-85.8 12.1s19.6-76.5 12.5-127.1l25.3-7.5c25 29.8 36.4 69.2 48 122.5z" coriginal="rgb(221,227,233)" colortype="2" awdzp="2" style="fill: rgb(245, 245, 245);"></path><path id="MTBteHkxNjUxMDAwMDAwMDAwMHh6czczNA" fill="rgb(42, 57, 65)" d="M397.7 285.1c-24.2-104.3-91.5-153.8-91.5-153.8l-1.7.2c-3 .5-9.2 1.7-9.2 1.7l-3.7 18.7c3.6 32.8 6.9 133.1 6.9 133.1l56.1-7.9c.5 4.5 1 9.2 1.3 13.9l41.8-5.9z" coriginal="rgb(47,54,118)" colortype="19" awdzp="19" style="fill: rgb(42, 57, 65);"></path><path id="MTBteHk5NDAxMDAwMDAwMDAwMHh6czU3OA" d="M339 279.7l15.6-2.2c-2.2-18.5-6.2-36.7-12-54.5.7 10.4.9 20.9.6 31.3-.5 11.4-1.9 19.9-4.2 25.4z" opacity=".5"></path><path id="MTBteHk1NjEwMDAwMDAwMDAweHpzOTI5" d="M337.4 244.8l-29.5-9 1.8 12.9 27.7-3.9z" opacity=".5"></path></svg>