<!--?undefined undefined?--><svg xmlns="http://www.w3.org/2000/svg" id="svgid23" viewBox="0 0 600 600" repair="1" xmlns:xlink="http://www.w3.org/1999/xlink"><g id="MTBteHkxNDMxMDAwMDAwMDAwMHh6czU2MA" transform="matrix(-.891 -.454 .454 -.891 419.433 140.053)"><g id="MTBteHk2NDAxMDAwMDAwMDAwMHh6czI1Mw" transform="translate(54 -31)"><path id="MTBteHk2NDAxMDAwMDAwMDAwMHh6czI1Mw-2" fill="rgb(82, 121, 111)" d="M0-73l8.3 38.5C3.7-29.1.6-22.5 1.1-15c1.5 21.4 31.2 16.7 37 5.9s5.1-38.2-2.4-40.1c-3-.8-9.3 1.1-15.8 5L24-73H0z" coriginal="rgb(178,139,103)" colortype="13" awdzp="13" style="fill: rgb(82, 121, 111);"></path></g><path id="MTBteHk5NjIxMDAwMDAwMDAwMHh6czUx" fill="rgb(32, 47, 55)" d="M102.8-25.2c-.5 1.8-1.9 3.2-3.6 3.7-.4.1-.9.2-1.3.1-.2 0-.2-.1-.3.1 0 .1-.1.3-.1.4l-.3.9c-.4 1-1 1.9-1.8 2.6-1.4 1.5-3.3 2.4-5.4 2.6-1.1.1-2.2-.1-3.2-.4-.5-.2-1.1-.4-1.6-.7-.2-.1-.6-.5-.8-.4-.2 0-.5.4-.6.6-1.7 1.2-3.8 1.9-5.9 1.8-2.4 0-4.7-.1-6.7-1.6-.4-.3-.8-.6-1.2-1l-.6-.6c-.1-.1-.2-.2-.3-.4-.2-.2-.2-.3-.4-.1-1 .6-2.1.8-3.2.7-.7-.1-1.3-.3-1.9-.5-.2-.1-.7-.4-.9-.5s-.7.3-.9.4c-1.2.5-2.6.6-3.9.4-1.3-.2-2.6-.7-3.8-1.5-.5-.3-1-.8-1.4-1.3-.2-.2-.3-.5-.5-.7l-.4-.4c-.5.3-1 .5-1.6.7-.7.2-1.5.2-2.3-.1-1.4-.5-2.6-1.4-3.6-2.5-.5-.5-.9-1.1-1.3-1.8-.2-.3-.3-.6-.5-.9-.1-.2-.1-.3-.2-.5s-.2-.2-.4-.3c-1.1-.4-2.2-1.1-3-2-.8-.9-1.3-2-1.5-3.2 0-.1 0-.3-.1-.4-.1-.1-.3 0-.4 0-.3 0-.6-.1-.9-.2-.5-.1-1.1-.3-1.6-.6-1.9-1-3.3-2.7-4-4.8-.7-2.2-.7-4.5.2-6.6.1-.3.3-.7.5-1 .1-.2.2-.2.1-.4s-.2-.4-.3-.7c-.3-.7-.6-1.5-.7-2.2-.3-1.3-.3-2.6-.1-3.8.1-.6.3-1.2.6-1.7.1-.3.3-.5.5-.8l.3-.3.2-.2c.1-.2.2 0 .1-.3-.1-.4-.3-.7-.5-1-.1-.4-.3-.7-.4-1.1-.2-.7-.4-1.5-.6-2.2-.3-1.5-.1-3 .5-4.4.3-.6.7-1.1 1.2-1.5.3-.2.5-.4.8-.5.1-.1.3-.1.4-.2.1-.1 0-.5-.1-.6-.3-1.5-.2-3 .1-4.5.4-1.4 1.3-2.5 2.5-3.3 2.3-1.4 5.3-1.5 7.7-.2.6.3 1.2.7 1.7 1.2 1.3-1.8 4-1.7 5.9-1.2 2.4.6 4.3 2.3 5.4 4.5 1.5-1.8 4.7-1.2 5.7.8.3.5.4 1 .5 1.6v.9c.1.4.2.7.4 1.1.3.7.4 1.4.4 2.1 0 .4 0 .8-.1 1.1 0 .3 0 .7.1 1-.7-.1-1.3 0-1.9.2-.6.2-1.1.6-1.5 1.1-.9 1-1.5 2.2-1.9 3.5-.9 2.8-.5 6.1 2.3 7.7 1.3.7 5.2.7 6.8.4 1.6-.4 3.5-4 3.6-4.3.1-.2 0-.5.2-.6.4-.3 1.1.2 1.4.5.5.5.9 1 1.3 1.7.7 1.3 1.3 2.8 1.7 4.2.3 1.1.5 2.3.9 3.4s1.1 2.1 2.1 2.7c1.1.6 2.4 1.1 3.6 1.5 1.2.4 2.4 1 3.3 1.8l.6.6c.1.2.3.5.5.6.3.2.8-.3 1-.5 1.3-.9 2.4-2 3.3-3.3.9-1.2 1.6-2.5 2.2-3.9.3-1.2.8-2.3 1.5-3.3.3-.4 2.9-.6 3.7-.3.8.4 1.5 1 2 1.8.3.6.4 1.2.2 1.8-.1.4-.2.7-.3 1.1-.1.3-.1.6-.3.9-.3.5-.7.9-1.3 1 .6.5 1.1 1.2 1.4 1.9.4.8.6 1.6.7 2.5.1.7-.1 1.4-.4 1.9-.4.6-1 1-1.7 1.4.9.7 1.7 1.6 2.3 2.5 2.1 1.8 2.6 4.1 2.1 6.3z" coriginal="rgb(25,24,71)" colortype="21" awdzp="21" style="fill: rgb(32, 47, 55);"></path></g><g id="MTBteHk1OTExMDAwMDAwMDAwMHh6czgzNA" transform="translate(439 282) rotate(180)"><path id="MTBteHk3ODIxMDAwMDAwMDAwMHh6czE3MA" fill="rgb(44, 83, 73)" d="M134 0l49.1-124.2 32.9-105h13L178.7 0H134z" coriginal="rgb(153,118,89)" colortype="17" awdzp="17" style="fill: rgb(44, 83, 73);"></path><path id="MTBteHk3ODIxMDAwMDAwMDAwMHh6czE3MA-2" fill="rgb(82, 121, 111)" d="M124.1 0c-.5-43.7-8.1-102.4-9.4-105.1s-84.1-69.2-84.1-69.2l9-9.6s97.8 57 102.3 64.6S161.2-41.8 173 0h-48.9z" coriginal="rgb(178,139,103)" colortype="13" awdzp="13" style="fill: rgb(82, 121, 111);"></path><g id="MTBteHkxNzMxMDAwMDAwMDAwMHh6czUwMg" transform="translate(47.216 -152.78) rotate(-50)"><path id="MTBteHkyNDQxMDAwMDAwMDAwMHh6czgzMw" fill="rgb(250, 250, 250)" d="M5.5-24c-1 .4-2.2-.2-2.5-1.3v-.1l-2-6.7c.1-2.6.4-5.3.9-7.9h56.4s2.2 7.3-2.5 7.8-7.9 1-7.9 1L21.7-19.4c-.5.2-1.1 0-1.3-.5L18.7-24s-4.4-2-7.1-2l-6.1 2z" coriginal="rgb(228,228,228)" colortype="1" awdzp="1" style="fill: rgb(250, 250, 250);"></path></g><g id="MTBteHk4ODkxMDAwMDAwMDAwMHh6czIzNw" transform="translate(208 -199)"><path id="MTBteHkyNDQxMDAwMDAwMDAwMHh6czgzMw-2" fill="rgb(250, 250, 250)" d="M5.5-24c-1 .4-2.2-.2-2.5-1.3v-.1l-2-6.7c.1-2.6.4-5.3.9-7.9h56.4s2.2 7.3-2.5 7.8c-4.7.6-7.9 1-7.9 1L21.7-19.4c-.5.2-1.1 0-1.3-.5L18.7-24s-4.4-2-7.1-2l-6.1 2z" coriginal="rgb(228,228,228)" colortype="1" awdzp="1" style="fill: rgb(250, 250, 250);"></path></g><path id="MTBteHk3MTgxMDAwMDAwMDAwMHh6czk3NQ" fill="rgb(93, 69, 98)" d="M167-218.4l61.8 6.7L183 0h-55.4L167-218.4z" coriginal="rgb(105,161,172)" colortype="12" awdzp="12" style="fill: rgb(93, 69, 98);"></path><path id="MTBteHk3MTgxMDAwMDAwMDAwMHh6czk3NQ-2" fill="rgb(192, 200, 187)" d="M43.5-158.9l40.5-48s64.1 70 74.7 91.3S177.8 0 177.8 0h-62.3s-4.6-82.9-6.2-86.8-65.8-72.1-65.8-72.1z" coriginal="rgb(137,197,204)" colortype="6" awdzp="6" style="fill: rgb(192, 200, 187);"></path></g><g id="MTBteHkxMjEwMDAwMDAwMDAweHpzMTYz" transform="translate(445.529 214.936) rotate(-166)"><path id="MTBteHkxOTQxMDAwMDAwMDAwMHh6czIyMg" fill="rgb(82, 121, 111)" d="M33.8-163.3c-1.4 2.3-2.9 4.6-7.6 3.4-8.4-2.1-15.5-7.4-23.4-.2-1 .9-1.7 3.7 1.6 5.1 8.2 3.5 20.3 10.2 22.2 12.8 2.7 3.5 11 23.6 24.9 60.2L72-86.1c-20.6-38.4-31.7-58.8-33.2-61.1-3.4-5.2-.2-14.7.9-19.7-.5-.1-.9-.2-1.4-.2-2.4.1-3.4 2-4.5 3.8zM198-77.6l36.2 15.9c5.4 5.6 11.6 10.5 18.4 14.4 1.8.6 4.8.7 1.6-4-3.2-4.7-6.4-9.8-5.1-11.4 1.3-1.6 5 .2 6.5-2.5 1-1.8-5.3-3.9-18.9-6.4l-27.1-20.8L198-77.6z" coriginal="rgb(178,139,103)" colortype="13" awdzp="13" style="fill: rgb(82, 121, 111);"></path><path id="MTBteHk2NTkxMDAwMDAwMDAwMHh6czk0OA" fill="rgb(77, 116, 106)" d="M127.7-5.3l8.6 1.5c18.8-18.3 26.5-62.1 39.1-68 11.9-5.5 28.7-.2 48.7 7l6.1-13.7c-18.2-19.7-56.9-36.3-72.5-26.8-25.1 15.2-30.9 69.3-30 100z" coriginal="rgb(219,39,33)" colortype="14" awdzp="14" style="fill: rgb(77, 116, 106);"></path><path id="MTBteHk4MTgxMDAwMDAwMDAwMHh6czc3Mg" fill="rgb(245, 245, 245)" d="M90-114h76.5c3.5 0 2.8 5 2.3 7.6C163-77 140.2-45.3 140.2-3.5l-22 3.5C99.9-29.4 93.6-65.5 90-114z" coriginal="rgb(221,227,233)" colortype="2" awdzp="2" style="fill: rgb(245, 245, 245);"></path><path id="MTBteHkxMjUxMDAwMDAwMDAwMHh6czU1NQ" fill="rgb(128, 104, 133)" d="M27-141.9C37.3-77.8 67.2-30.5 116.7 0h8.7s29.7-101.3 16.4-135H73c1.1 16.4 4.6 33.8 9.4 50.8C66.8-112.4 53.7-132.6 43-145l-16 3.1z" coriginal="rgb(255,65,51)" colortype="9" awdzp="9" style="fill: rgb(128, 104, 133);"></path></g></svg>