<!--?undefined undefined?--><svg xmlns="http://www.w3.org/2000/svg" id="svgid5" viewBox="0 0 600 600" repair="1" xmlns:xlink="http://www.w3.org/1999/xlink"><path fill="none" d="M0 0h600v600H0z"></path><g id="MTBteHk5NjgxMDAwMDAwMDAwMHh6czc3OQ" transform="translate(383 104) rotate(180)"><g id="MTBteHk0ODgxMDAwMDAwMDAwMHh6czQzNA" transform="translate(54 -31)"><path id="MTBteHk0ODgxMDAwMDAwMDAwMHh6czQzNA-2" fill="rgb(82, 121, 111)" d="M0-73l8.3 38.5C3.7-29.1.6-22.5 1.1-15c1.5 21.4 31.2 16.7 37 5.9s5.1-38.2-2.4-40.1c-3-.8-9.3 1.1-15.8 5L24-73H0z" coriginal="rgb(178,139,103)" colortype="13" awdzp="13" style="fill: rgb(82, 121, 111);"></path></g><path id="MTBteHk2MzYxMDAwMDAwMDAwMHh6czE1Mg" fill="rgb(32, 47, 55)" d="M102.8-25.2c-.5 1.8-1.9 3.2-3.6 3.7-.4.1-.9.2-1.3.1-.2 0-.2-.1-.3.1 0 .1-.1.3-.1.4l-.3.9c-.4 1-1 1.9-1.8 2.6-1.4 1.5-3.3 2.4-5.4 2.6-1.1.1-2.2-.1-3.2-.4-.5-.2-1.1-.4-1.6-.7-.2-.1-.6-.5-.8-.4-.2 0-.5.4-.6.6-1.7 1.2-3.8 1.9-5.9 1.8-2.4 0-4.7-.1-6.7-1.6-.4-.3-.8-.6-1.2-1l-.6-.6c-.1-.1-.2-.2-.3-.4-.2-.2-.2-.3-.4-.1-1 .6-2.1.8-3.2.7-.7-.1-1.3-.3-1.9-.5-.2-.1-.7-.4-.9-.4-.2 0-.7.3-.9.4-1.2.5-2.6.6-3.9.4-1.3-.2-2.6-.7-3.8-1.5-.5-.3-1-.8-1.4-1.3-.2-.2-.3-.5-.5-.7l-.4-.4c-.5.3-1 .5-1.6.7-.7.2-1.5.2-2.3-.1-1.4-.5-2.6-1.4-3.6-2.5-.5-.5-.9-1.1-1.3-1.8-.2-.3-.3-.6-.5-.9-.1-.2-.1-.3-.2-.5s-.2-.2-.4-.3c-1.1-.4-2.2-1.1-3-2-.8-.9-1.3-2-1.5-3.2 0-.1 0-.3-.1-.4-.1-.1-.3 0-.4 0-.3 0-.6-.1-.9-.2-.5-.1-1.1-.3-1.6-.6-1.9-1-3.3-2.7-4-4.8-.7-2.2-.7-4.5.2-6.6.1-.3.3-.7.5-1 .1-.2.2-.2.1-.4s-.2-.4-.3-.7c-.3-.7-.6-1.5-.7-2.2-.3-1.3-.3-2.6-.1-3.8.1-.6.3-1.2.6-1.7.1-.3.3-.5.5-.8l.3-.3.2-.2c.1-.2.2 0 .1-.3-.1-.4-.3-.7-.5-1-.1-.4-.3-.7-.4-1.1-.2-.7-.4-1.5-.5-2.2-.3-1.5-.1-3 .5-4.4.3-.6.7-1.1 1.2-1.5.3-.2.5-.4.8-.5.1-.1.3-.1.4-.2.1-.1 0-.5-.1-.6-.3-1.5-.2-3 .1-4.5.4-1.4 1.3-2.5 2.5-3.3 2.3-1.4 5.3-1.5 7.7-.2.6.3 1.2.7 1.7 1.2 1.3-1.8 4-1.7 5.9-1.2 2.4.6 4.3 2.3 5.4 4.5 1.5-1.8 4.7-1.2 5.7.8.3.5.4 1 .5 1.6v.9c.1.4.2.7.4 1.1.3.7.4 1.4.4 2.1 0 .4 0 .8-.1 1.1 0 .3 0 .7.1 1-.7-.1-1.3 0-1.9.2-.6.2-1.1.6-1.5 1.1-.9 1-1.5 2.2-1.9 3.5-.9 2.8-.5 6.1 2.3 7.7 1.3.7 5.2.7 6.8.4 1.6-.4 3.5-4 3.6-4.3.1-.2 0-.5.2-.6.4-.3 1.1.2 1.4.5.5.5.9 1 1.3 1.7.7 1.3 1.3 2.8 1.7 4.2.3 1.1.5 2.3.9 3.4s1.1 2.1 2.1 2.7c1.1.6 2.4 1.1 3.6 1.5 1.2.4 2.4 1 3.3 1.8l.6.6c.1.2.3.5.5.6.3.2.8-.3 1-.5 1.3-.9 2.4-2 3.3-3.3.9-1.2 1.6-2.5 2.2-3.9.3-1.2.8-2.3 1.5-3.3.3-.4 2.9-.6 3.7-.3.8.4 1.5 1 2 1.8.3.6.4 1.2.2 1.8-.1.4-.2.7-.3 1.1-.1.3-.1.6-.3.9-.3.5-.7.9-1.3 1 .6.5 1.1 1.2 1.4 1.9.4.8.6 1.6.7 2.5.1.7-.1 1.4-.4 1.9-.4.6-1 1-1.7 1.4.9.7 1.7 1.6 2.3 2.5 2 1.7 2.5 4 2 6.2z" coriginal="rgb(25,24,71)" colortype="21" awdzp="21" style="fill: rgb(32, 47, 55);"></path></g><g id="MTBteHkxOTkxMDAwMDAwMDAwMHh6czMwMw" transform="translate(465 291) rotate(180)"><g id="MTBteHk3MDUxMDAwMDAwMDAwMHh6czMyNw" transform="translate(10 -42)"><path id="MTBteHk3MDUxMDAwMDAwMDAwMHh6czMyNw-2" fill="rgb(202, 210, 197)" d="M174-124H59c-4.2 0-8.3 1.7-11.3 4.7S43-112.2 43-108v92c0 4.2 1.7 8.3 4.7 11.3S54.8 0 59 0h115c4.2 0 8.3-1.7 11.3-4.7S190-11.8 190-16v-92c0-4.2-1.7-8.3-4.7-11.3s-7.1-4.7-11.3-4.7zM75-28c-2.2 0-4-1.8-4-4v-60c0-2.2 1.8-4 4-4h83c2.2 0 4 1.8 4 4v60c0 2.2-1.8 4-4 4H75z" coriginal="rgb(197,207,214)" colortype="4" awdzp="4" style="fill: rgb(202, 210, 197);"></path></g><path id="MTBteHkzNTIxMDAwMDAwMDAwMHh6czUzNw" fill="rgb(82, 121, 111)" d="M245.7-96.6c-6.4 22.3-11.2 41.9-12.4 49.3-2.9 17.5 22.5 18.5 25.8 9.8 5.1-13.1 13.9-56.4 24.6-121.6l-12.2-3.6c-12.8 28.4-22.1 53.1-25.8 66.1zM122.9-73.7c11.8 4.6 52.9 19.2 72.8 23.3 5.7 1.2 11.2 2.3 16.4 3.3 15.5 3 23.5-24.9 8.6-27.1-37.1-5.3-89.6-10.8-94.1-11.5-.3 0-.5-.1-.8-.1-5.9.1-10 9.3-2.9 12.1z" coriginal="rgb(178,139,103)" colortype="13" awdzp="13" style="fill: rgb(82, 121, 111);"></path><path id="MTBteHk1MzUxMDAwMDAwMDAwMHh6czQwOQ" fill="rgb(67, 106, 96)" d="M221.8-42.7c-.2 1.1-.3 2.2-.2 3.3L158-7v7h7.6s92.3-23.5 94.3-30.1v-.1l.1-.1c12.2-16.8 19.5-98.6 21.9-104.8l-23.4-3.5c-8.9 33.1-37.5 56.2-36.7 95.9z" coriginal="rgb(31,40,207)" colortype="16" awdzp="16" style="fill: rgb(67, 106, 96);"></path><path id="MTBteHk4NzAxMDAwMDAwMDAwMHh6czQxOA" fill="rgb(123, 99, 128)" d="M144.1-65.2l19.2 6.6c-5.8 1.2-11.2 2.2-15.8 3-29.6 5.2-38.2 21-33.1 55.6H169c8.9-2.6 55.2-22 79.3-32.3 15.9-6.8 10.9-31.5 1.9-37.9 0-.3-.2-.6-.5-.8-33.3-13.8-61.9-13.1-80.6-12.5-8.5.3-15 .6-19-.4l-6 18.7z" coriginal="rgb(43,68,255)" colortype="10" awdzp="10" style="fill: rgb(123, 99, 128);"></path><g id="MTBteHkzOTExMDAwMDAwMDAwMHh6czY2NA" transform="matrix(.438 -.899 .899 .438 148.565 -57.151)"><path id="MTBteHk0MDkxMDAwMDAwMDAwMHh6czMyNQ" fill="rgb(250, 250, 250)" d="M5.5-24c-1 .4-2.2-.2-2.5-1.3v-.1l-2-6.7c.1-2.6.4-5.3.9-7.9h56.4s2.2 7.3-2.5 7.8c-4.7.6-7.9 1-7.9 1L21.7-19.4c-.5.2-1.1 0-1.3-.5L18.7-24s-4.4-2-7.1-2l-6.1 2z" coriginal="rgb(228,228,228)" colortype="1" awdzp="1" style="fill: rgb(250, 250, 250);"></path></g><g id="MTBteHkzOTExMDAwMDAwMDAwMHh6czY2NA-2" transform="translate(263 -132)"><path id="MTBteHk0MDkxMDAwMDAwMDAwMHh6czMyNQ-2" fill="rgb(250, 250, 250)" d="M5.5-24c-1 .4-2.2-.2-2.5-1.3v-.1l-2-6.7c.1-2.6.4-5.3.9-7.9h56.4s2.2 7.3-2.5 7.8c-4.7.6-7.9 1-7.9 1L21.7-19.4c-.5.2-1.1 0-1.3-.5L18.7-24s-4.4-2-7.1-2l-6.1 2z" coriginal="rgb(228,228,228)" colortype="1" awdzp="1" style="fill: rgb(250, 250, 250);"></path></g></g><g id="MTBteHkxMDQxMDAwMDAwMDAwMHh6czc3NQ" transform="translate(443 186) rotate(180)"><path id="MTBteHkzNTIxMDAwMDAwMDAwMHh6czUzNw-2" fill="rgb(82, 121, 111)" d="M35.4-179c-1.1.7-2.3 3.3.6 5.3 7.4 5.1 18 13.9 19.4 16.8C58.3-151 68.3-93 68.3-93l20.9-.1s-19.4-62.5-20.9-66.3c-2.3-5.7 2.6-14.5 4.7-19.2-3.3-1.5-4.8.4-6.5 2.3-1.8 2-3.7 4-8.2 2-5.7-2.6-10.4-6.8-16-6.8-2.5 0-4.9.7-6.9 2.1zm178.7 56.2l-29.5 17.4 9.4 16.3 28.3-27.6c7.3-2.9 14.1-6.9 20.3-11.6 1.2-1.4 2.5-4.2-3.1-2.9s-11.5 2.3-12.5.5c-1-1.8 2-4.6.1-7-.1-.2-.4-.3-.6-.3-1.8-.1-5.9 5-12.4 15.2z" coriginal="rgb(178,139,103)" colortype="13" awdzp="13" style="fill: rgb(82, 121, 111);"></path><path id="MTBteHk4MzUxMDAwMDAwMDAwMHh6czg1Mw" fill="rgb(32, 47, 55)" d="M127.7-5.3l8.6 1.5c14.9-37.2 40.9-71 78-101.3l-28-34.1c-37.1 43.2-60 87.9-58.6 133.9z" coriginal="rgb(25,24,71)" colortype="21" awdzp="21" style="fill: rgb(32, 47, 55);"></path><path id="MTBteHk3NDAxMDAwMDAwMDAwMHh6czc1MA" fill="rgb(245, 245, 245)" d="M90-114h77S140.2-48.9 140.2-3.5L117 0C98.8-29.4 93.6-65.5 90-114z" coriginal="rgb(221,227,233)" colortype="2" awdzp="2" style="fill: rgb(245, 245, 245);"></path><path id="MTBteHk2MjExMDAwMDAwMDAwMHh6czIwOQ" fill="rgb(42, 57, 65)" d="M55-147C63.4-52 116.5 0 116.5 0h1.5c2.7-.1 8.3-.3 8.3-.3l5.6-16c.9-29.3 10.4-118.2 10.4-118.2H91.9c.1-4.1.3-8.2.6-12.4L55-147z" coriginal="rgb(47,54,118)" colortype="19" awdzp="19" style="fill: rgb(42, 57, 65);"></path><path id="MTBteHkxNjAxMDAwMDAwMDAwMHh6czcw" d="M106-135H92c-.3 16.6.9 33.2 3.8 49.5.6-9.3 1.8-18.5 3.4-27.7 1.8-9.9 4.1-17.2 6.8-21.8z" opacity=".5"></path><path id="MTBteHk3MTcxMDAwMDAwMDAwMHh6czY4Mw" d="M103.1-104L128-92.4V-104h-24.9z" opacity=".5"></path></g></svg>