<!--?undefined undefined?--><svg xmlns="http://www.w3.org/2000/svg" id="svgid6" viewBox="0 0 600 600" repair="1" xmlns:xlink="http://www.w3.org/1999/xlink"><path id="MTBteHk0MjAxMDAwMDAwMDAwMHh6czg1Nw" fill="rgb(32, 47, 55)" d="M276.9 41.1c11.7-2.3 22.9 5.3 25.2 17l5.4 27.9c2.3 11.6-5.3 22.8-16.8 25.2l-31.8 6.2c-5.8-3.8-7.1-34.7-6.1-49.8-2.2-11.6 5.4-22.9 17-25.1l7.1-1.4z" coriginal="rgb(25,24,71)" colortype="21" awdzp="21" style="fill: rgb(32, 47, 55);"></path><g id="MTBteHkzMDcxMDAwMDAwMDAwMHh6czU2NA" transform="translate(141.509 32.959) rotate(-11)"><path id="MTBteHkzMDcxMDAwMDAwMDAwMHh6czU2NA-2" fill="rgb(82, 121, 111)" d="M149.5 119.8l-9.2-43c5.1-6 8.6-13.4 8-21.7-1.7-23.9-34.9-18.6-41.4-6.6-6.5 12.1-5.7 42.6 2.7 44.8 3.3.9 10.4-1.2 17.7-5.6l-4.5 32.1h26.7z" coriginal="rgb(178,139,103)" colortype="13" awdzp="13" style="fill: rgb(82, 121, 111);"></path></g><path id="MTBteHkxNDcxMDAwMDAwMDAwMHh6czM1Nw" fill="rgb(32, 47, 55)" d="M294.9 109.8l31.8-6.2c-.4-3.4-1.1-6.7-2.1-9.9-.7-2.3-1.7-4.4-2.9-6.5-1.9-2.8-4.4-5.3-7.2-7.2-4.8-3.6-9.7-7.2-12.4-21.3-.3-.2-.7-.4-1-.6-.9-.6-1.8-1.2-2.7-1.7l-.1-.9c-2.2-2.7-4.6-5.2-7.4-7.3-2.3-1.9-4.9-3.4-7.7-4.5-2.9-1.2-6.1-1.5-9.1-1-5.7 1.1-9.8 3.1-12.8 6.2-2.2 2.5-4 5.4-5.1 8.6 3 5.8 8.8 7.2 15.4 8.8 3 .7 5.9 1.5 8.8 2.6 2.2-2.6 6-2.9 8.6-.8 2.6 2.2 2.9 6 .8 8.6-.9 1.1-2.2 1.8-3.5 2.1h-.3c.6 6.5 1.7 13 3.4 19.3 1.6 6.5 3.6 10.4 5.5 11.7z" coriginal="rgb(25,24,71)" colortype="21" awdzp="21" style="fill: rgb(32, 47, 55);"></path><path id="MTBteHk5NjQxMDAwMDAwMDAwMHh6czYxMQ" fill="rgb(44, 83, 73)" d="M334.2 240l-42.3 138.5-20.5 117.8h-16.1L277 240h57.2z" coriginal="rgb(153,118,89)" colortype="17" awdzp="17" style="fill: rgb(44, 83, 73);"></path><path id="MTBteHk5NjQxMDAwMDAwMDAwMHh6czYxMQ-2" fill="rgb(82, 121, 111)" d="M349.3 240c-2.9 76 .5 115.2 1.1 122.1.6 6.9 9.4 51.7 30.3 136.4l-17.1-5.9c-32.9-77.7-44.1-118.1-47.9-128.3-3.8-10.2-13.8-51.7-30.1-124.4h63.7z" coriginal="rgb(178,139,103)" colortype="13" awdzp="13" style="fill: rgb(82, 121, 111);"></path><g id="MTBteHkyMzAxMDAwMDAwMDAwMHh6czk5MQ" transform="translate(94.36 -223.979)"><path id="MTBteHk3OTIxMDAwMDAwMDAwMHh6czk2MQ" fill="rgb(250, 250, 250)" d="M283.2 715c1.2-.4 2.4.2 2.8 1.4v.1l2.1 7.6c-.2 3-.5 5.9-1 8.9h-62.7s-2.4-8.2 2.8-8.8c5.3-.7 8.7-1.2 8.7-1.2l29.1-13.2c.6-.2 1.2 0 1.5.6l1.9 4.6s4.9 2.3 7.9 2.3l6.9-2.3z" coriginal="rgb(228,228,228)" colortype="1" awdzp="1" style="fill: rgb(250, 250, 250);"></path></g><g id="MTBteHkyNzYxMDAwMDAwMDAwMHh6czc" transform="translate(199.953 -223.979)"><path id="MTBteHk3OTIxMDAwMDAwMDAwMHh6czk2MQ-2" fill="rgb(250, 250, 250)" d="M72 715c1.2-.4 2.4.2 2.8 1.4v.1l2.1 7.6c-.2 3-.5 5.9-1 8.9H13.3s-2.4-8.2 2.8-8.8c5.3-.7 8.7-1.2 8.7-1.2L54 709.8c.6-.2 1.2 0 1.5.6l1.9 4.6s4.9 2.3 7.9 2.3L72 715z" coriginal="rgb(228,228,228)" colortype="1" awdzp="1" style="fill: rgb(250, 250, 250);"></path></g><path id="MTBteHkxMDExMDAwMDAwMDAwMHh6czc4NQ" fill="rgb(93, 69, 98)" d="M339.8 240l-18 70.5H267l8.2-70.5h64.6z" coriginal="rgb(105,161,172)" colortype="12" awdzp="12" style="fill: rgb(93, 69, 98);"></path><path id="MTBteHk2OTgxMDAwMDAwMDAwMHh6czc2Nw" fill="rgb(192, 200, 187)" d="M349.9 240c8.9 26.6 3.4 70.5 3.4 70.5h-56L281.9 240h68z" coriginal="rgb(137,197,204)" colortype="6" awdzp="6" style="fill: rgb(192, 200, 187);"></path><path id="MTBteHk2NjEwMDAwMDAwMDAweHpzNjM1" fill="rgb(82, 121, 111)" d="M436.2 292.6c1.1-.9 2.1-3.9-1.5-5.7-9-4.3-22.1-12.2-24.2-15.2-4.2-6-32.1-86.7-32.1-86.7l-24.4 3.5s40.2 84 42.5 87.9c3.4 5.9-.7 16.1-2.3 21.5 3.9 1.1 5.3-1.2 6.9-3.5 1.7-2.5 3.6-4.9 8.8-3.4 6.7 2 12.6 5.8 18.8 4.9 2.9-.3 5.4-1.5 7.5-3.3zm-225.5-19l30.2-23.4-13-16.2-27.3 34.4c-8.6 5.1-15.6 10.4-20.8 15.8-1.1 1.7-2.1 4.9 3.9 2.7s12.4-4.3 13.9-2.5c1.4 1.8-1.6 5.3.9 7.6.2.2.4.3.7.2 2-.3 5.8-6.5 11.5-18.6z" coriginal="rgb(178,139,103)" colortype="13" awdzp="13" style="fill: rgb(82, 121, 111);"></path><path id="MTBteHkzMTAxMDAwMDAwMDAwMHh6czQ0Ng" fill="rgb(77, 116, 106)" d="M294.6 128.2l-9.9-.3c-7.8 54.3-80.8 100.9-82.8 121.1-.8 7.4 5 10.3 2.6 12.8l13.8 7.2c1.8-2.7 6.9 1.1 15.9-3.3s69.1-75.7 60.4-137.5z" coriginal="rgb(219,39,33)" colortype="14" awdzp="14" style="fill: rgb(77, 116, 106);"></path><path id="MTBteHk5NDAxMDAwMDAwMDAwMHh6czc4" fill="rgb(128, 104, 133)" d="M408.5 266.7c-2-5.8 5.4-9.8 1.4-22.9-22.3-73.9-73-108.2-93-119.2l-1.3-6.3c-.5-2.4-2.9-3.9-5.3-3.4l-29.7 6.3c-2.4.5-4 2.8-3.5 5.2l2.4 11.1c10.8 69-27.7 92.4-14.7 118.8 10.8 21.8 86.5 36.3 95.9 12.1 3.7-9.7 4.5-20.9 3.2-32.7 4.4 8.5 8.2 16.1 10.9 22.3 4.8 11 17.5 11.1 18.1 15.5l15.6-6.8z" coriginal="rgb(255,65,51)" colortype="9" awdzp="9" style="fill: rgb(128, 104, 133);"></path></svg>