<!--?undefined undefined?--><svg xmlns="http://www.w3.org/2000/svg" id="svgid2" viewBox="0 0 600 600" repair="1" xmlns:xlink="http://www.w3.org/1999/xlink"><g id="MTBteHk4NjUxMDAwMDAwMDAwMHh6czc5Nw" transform="translate(153 272)"><path id="MTBteHk3NDQxMDAwMDAwMDAwMHh6czM3MA" fill="rgb(67, 106, 96)" d="M128 0l48.1 127.2 33.7 93.8H229L182.7 0H128z" coriginal="rgb(31,40,207)" colortype="16" awdzp="16" style="fill: rgb(67, 106, 96);"></path><path id="MTBteHk3NDQxMDAwMDAwMDAwMHh6czM3MA-2" fill="rgb(123, 99, 128)" d="M116.1 0c-.5 43.7-.1 102.4-1.4 105.1s-75.8 62-75.8 62l9.9 16.8s88.5-57.1 93-64.7S169.2 41.8 181 0h-64.9z" coriginal="rgb(43,68,255)" colortype="10" awdzp="10" style="fill: rgb(123, 99, 128);"></path><g id="MTBteHk3NTcxMDAwMDAwMDAwMHh6czUxMg" transform="translate(52.216 152.78) rotate(50)"><path id="MTBteHk4NjkxMDAwMDAwMDAwMHh6czg0Mw" fill="rgb(32, 47, 55)" d="M0 40l1-21h21c14.9 10.5 39 17 39 17v4H23l-13-2v2H0z" coriginal="rgb(25,24,71)" colortype="21" awdzp="21" style="fill: rgb(32, 47, 55);"></path></g><g id="Right_MTBteHk4NjkxMDAwMDAwMDAwMHh6czg0Mw" transform="translate(208 199)"><path id="MTBteHk4NjkxMDAwMDAwMDAwMHh6czg0Mw-2" fill="rgb(32, 47, 55)" d="M0 40l1-21h21c14.9 10.5 39 17 39 17v4H23l-13-2v2H0z" coriginal="rgb(25,24,71)" colortype="21" awdzp="21" style="fill: rgb(32, 47, 55);"></path></g></g><g id="MTBteHk5NzAxMDAwMDAwMDAwMHh6czMyMw" transform="translate(230.113 61.636)"><g id="MTBteHk1NDQxMDAwMDAwMDAwMHh6czI1Mg" transform="translate(54 31)"><path id="MTBteHk1NDQxMDAwMDAwMDAwMHh6czI1Mg-2" fill="rgb(82, 121, 111)" d="M0 73l8.3-38.5C3.7 29.1.6 22.5 1.1 15c1.5-21.4 31.2-16.7 37-5.9s5.1 38.2-2.4 40.1c-3 .8-9.3-1.1-15.8-5L24 73H0z" coriginal="rgb(178,139,103)" colortype="13" awdzp="13" style="fill: rgb(82, 121, 111);"></path></g><path id="MTBteHk5MjcxMDAwMDAwMDAwMHh6czg3Mw" fill="rgb(32, 47, 55)" d="M62.1 67.4c-4-2.4-7-7.2-7.9-12.6-.5-3-.3-6.1.5-9 .5-1.8 1.2-3.6 2.2-5.3 3.7-15.1 18.9-13.8 30.3-12.4 5.5.7 10.2 1.3 12.1.1 1.3 8.2-2.9 14.7-17.7 13.5-3.2 1.8-5.5 5.2-8.4 9.7-3.1-1.2-6.6.3-7.8 3.4-.9 2.2-.3 4.8 1.4 6.5-1.5 2.2-3.1 4.2-4.7 6.1z" coriginal="rgb(25,24,71)" colortype="21" awdzp="21" style="fill: rgb(32, 47, 55);"></path></g><g id="MTBteHkyODgxMDAwMDAwMDAwMHh6czQxNw" transform="translate(173.071 159.224)"><path id="MTBteHk3NDQxMDAwMDAwMDAwMHh6czI0MA" fill="rgb(82, 121, 111)" d="M212.6 99.7L181 86.6l7.1-17.4L220 92.6c7.6 1.9 14.9 4.8 21.7 8.7 1.4 1.2 3 3.8-2.7 3.3-5.7-.4-11.7-.6-12.5 1.3s2.7 4.3 1.1 6.9c-.1.2-.4.4-.7.4-1.8 0-6.6-4.5-14.3-13.5zM191.5 2.3L229.4-9c6.1-4.9 12.8-9 20-12.1 1.8-.3 4.8-.1 1.1 4.1s-7.6 9-6.5 10.8 5 .4 6.1 3.3c.8 1.9-5.7 3.3-19.5 4.1l-29.5 17.3-9.6-16.2z" coriginal="rgb(178,139,103)" colortype="13" awdzp="13" style="fill: rgb(82, 121, 111);"></path><path id="MTBteHk5NTIxMDAwMDAwMDAwMHh6czY3NA" fill="rgb(47, 62, 70)" d="M138.6 6.1c17.4 32.4 42.5 57.2 78.9 83.1l-13.8 15.5C163 89.6 141.5 80.4 131 49.8c-2.6-7.7-4.5-32.2-6.1-45.1l13.7 1.4z" coriginal="rgb(32,38,162)" colortype="18" awdzp="18" style="fill: rgb(47, 62, 70);"></path><path id="MTBteHkyNjcxMDAwMDAwMDAwMHh6czQ2" fill="rgb(255, 255, 255)" d="M90 114h77S140.8 34.2 140.3 4.5c0-1-1.9-2.8-2.7-2.6-9.1 2.6-19.4-1.9-19.4-1.9C99.9 29.4 93.6 65.5 90 114z" coriginal="rgb(242,242,242)" colortype="0" awdzp="0" style="fill: rgb(255, 255, 255);"></path><path id="MTBteHk4NDAxMDAwMDAwMDAwMHh6czIxNA" fill="rgb(67, 106, 96)" d="M81.4 138.6C74.8 94.8 92 34 107.9 3.4c.8-2 2.8-3.3 4.9-3.4h11.9c4 0 8.5.2 13.4.4 21.9.7 52 1.4 85.8-9.4l4.1 20.4c-31.2 20.1-62.8 35.6-90.5 33.4 12 51.6 11.5 93.8-15.1 93.8h-41z" coriginal="rgb(31,40,207)" colortype="16" awdzp="16" style="fill: rgb(67, 106, 96);"></path></g></svg>