<!--?undefined undefined?--><svg xmlns="http://www.w3.org/2000/svg" id="svgid3" viewBox="0 0 600 600" repair="1" xmlns:xlink="http://www.w3.org/1999/xlink"><g id="MTBteHkzMzQxMDAwMDAwMDAwMHh6czIxOQ" transform="translate(372 99) rotate(180)"><g id="MTBteHkyMTIxMDAwMDAwMDAwMHh6czc1NA" transform="translate(54 -31)"><path id="MTBteHkyMTIxMDAwMDAwMDAwMHh6czc1NA-2" fill="rgb(82, 121, 111)" d="M0-73l8.3 38.5C3.7-29.1.6-22.5 1.1-15c1.5 21.4 31.2 16.7 37 5.9s5.1-38.2-2.4-40.1c-3-.8-9.3 1.1-15.8 5L24-73H0z" coriginal="rgb(178,139,103)" colortype="13" awdzp="13" style="fill: rgb(82, 121, 111);"></path></g><g id="MTBteHk5OTQxMDAwMDAwMDAwMHh6czExNA" transform="translate(36 -28)"><path id="MTBteHk2NDYxMDAwMDAwMDAwMHh6czc1OA" fill="rgb(12, 27, 35)" d="M50.7-5c-.5.3-1.7 1-2.3 1.3-.1 0-1 .7-1.1.7-.7-.2-2.8-1.2-3-1.9 0-.1-.1-.1-.1-.2-.3-.5-.6-1.1-.8-1.7-.6-1.2-1.1-2.5-1.5-3.8-.9-2.5-1.7-5.1-2.5-7.6-.8-2.6-1.4-5.3-2.1-7.9-1-3.8-2.3-7.5-3.4-11.3-.7-2.4-1-4.9-.8-7.3v-.1c0-.4.1-.8.1-1.1 0-.3.1-.7.1-1 .9 1.9 1.6 3.9 2.4 5.9.1.2.1.4.2.6.2.4.5.8.7 1.2 1.6 2.5 3.2 4.9 4.7 7.4 2.6 4.6 5.5 9 8.7 13.2 1 1.2 1.9 2.4 2.9 3.7.5.7 1.1 1.4 1.6 2.1.4.5 1.9 2.3 1.4 3.4-1.6 1.6-3.3 3.1-5.2 4.4z" coriginal="rgb(44,44,44)" colortype="22" awdzp="22" style="fill: rgb(12, 27, 35);"></path><path id="MTBteHk5NjExMDAwMDAwMDAwMHh6czI1NQ" fill="rgb(133, 109, 138)" d="M48.6-3.8c.5-.2.3.9-.2 1.3C46-.7 36.8 0 28.8-1.7 23.1-2.9 17.6-5.5 13-9.1c-3.9-3.2-6.5-8.3-7.9-13.3-1.4-5.2-1.7-10.6-.9-16 .2-1.2.6-2.3.8-3.4.2-1.3.4-2.6.8-3.8.3-.8.7-1.5.9-2.3.2-.9.2-1.8-.1-2.6-.2-1.5-.6-2.9-1.1-4.3-.8-2.1-1.7-4.1-2.3-6.2-.9-3-4.2-12.4-1.8-15h46.5c-1.2 3.2-4.7 7-5.4 10.4-.4 2-.6 6.4-.7 6.6-1 7.2-3.1 10.7-4.4 11.9s-3 1.6-3.1 2.7c-.4 4.5 1.4 8.8 2.7 13 1.6 5 2.7 10.1 4.3 15.1.9 2.2 4.5 13.4 7.3 12.5z" coriginal="rgb(137,145,220)" colortype="8" awdzp="8" style="fill: rgb(133, 109, 138);"></path><path id="MTBteHk3MzAxMDAwMDAwMDAwMHh6czY0NA" d="M13.7-48.7l.7.9c9.6-3 8.5-9.2 20.6-15.5l-1-.7c-10.6 4.4-13.1 13.7-20.3 15.3zm7.7 33.3l.8.1c1.5-11.3 1.9-17.7 9.7-30l-.9-.3c-7.9 10.8-9.2 19.5-9.6 30.2zM8.1-23.7l.7.3c3.3-7.9 4.8-12.6 13.9-19l-.7-.5c-9.1 5.1-11.7 11.3-13.9 19.2zm21.6-1.4C28.1-18 29.5-11.2 31.2-9h1.1c-1.8-5.6-2.1-8.5-1.8-16.1h-.8z" opacity=".5"></path></g></g><g id="MTBteHk5ODUxMDAwMDAwMDAwMHh6czU2" transform="translate(454 286) rotate(180)"><g id="MTBteHkxNzkxMDAwMDAwMDAwMHh6czk2OA" transform="translate(10 -42)"><g id="MTBteHkxNzkxMDAwMDAwMDAwMHh6czk2OA-2" transform="translate(55)"><path id="MTBteHkxNzkxMDAwMDAwMDAwMHh6czk2OA_Stuff" fill="rgb(202, 210, 197)" d="M27.6 0h77.3L115-124H0L27.6 0z" coriginal="rgb(197,207,214)" colortype="4" awdzp="4" style="fill: rgb(202, 210, 197);"></path><path id="MTBteHkxNzkxMDAwMDAwMDAwMHh6czk2OA_Stuff-2" d="M27.6 0h23.8l14.2-124H0L27.6 0z" opacity=".5"></path></g></g><path id="MTBteHk2ODcxMDAwMDAwMDAwMHh6czEwOQ" fill="rgb(82, 121, 111)" d="M247.2-156.5c-1 12.6-2.9 56.4-1 76.7.8 8.6 1.6 16.7 2.5 23.9C230.8-88 201.6-135 201.6-135l-11.5 5.3s13.6 44.7 22.2 63.1c9.9 21 19.2 39 23.1 45.4 6.2 10 16.9 6.5 22.5.5 8.2 4.9 22.1-1.4 22-8.5 0-21.2-19.3-120.9-20.4-127.2-.5-3.3-3.8-5.4-6.9-5.4-2.5 0-5.1 1.6-5.4 5.3z" coriginal="rgb(178,139,103)" colortype="13" awdzp="13" style="fill: rgb(82, 121, 111);"></path><path id="MTBteHk5MTAwMDAwMDAwMDB4enM0ODY" fill="rgb(67, 106, 96)" d="M190.9-113.1l39.5 93.6c9.5 15.2 36-3.1 32.8-11.9-7.3-20.1-44.6-85-46.8-91l-25.5 9.3z" coriginal="rgb(31,40,207)" colortype="16" awdzp="16" style="fill: rgb(67, 106, 96);"></path><g id="MTBteHkyOTExMDAwMDAwMDAwMHh6czcwMQ" transform="translate(199.086 -100.429) rotate(-30)"><path id="MTBteHk3MjAxMDAwMDAwMDAwMHh6czYwNw" fill="rgb(250, 250, 250)" d="M5.5-24c-1 .4-2.2-.2-2.5-1.3v-.1l-2-6.7c.1-2.6.4-5.3.9-7.9h56.4s2.2 7.3-2.5 7.8c-4.7.6-7.9 1-7.9 1L21.7-19.4c-.5.2-1.1 0-1.3-.5L18.7-24s-4.4-2-7.1-2l-6.1 2z" coriginal="rgb(228,228,228)" colortype="1" awdzp="1" style="fill: rgb(250, 250, 250);"></path></g><g id="MTBteHkyOTExMDAwMDAwMDAwMHh6czcwMQ-2" transform="translate(242 -126)"><path id="MTBteHk3MjAxMDAwMDAwMDAwMHh6czYwNw-2" fill="rgb(250, 250, 250)" d="M5.5-24c-1 .4-2.2-.2-2.5-1.3v-.1l-2-6.7c.1-2.6.4-5.3.9-7.9h56.4s2.2 7.3-2.5 7.8c-4.7.6-7.9 1-7.9 1L21.7-19.4c-.5.2-1.1 0-1.3-.5L18.7-24s-4.4-2-7.1-2l-6.1 2z" coriginal="rgb(228,228,228)" colortype="1" awdzp="1" style="fill: rgb(250, 250, 250);"></path></g><path id="MTBteHk5NDYxMDAwMDAwMDAwMHh6czM2NQ" fill="rgb(123, 99, 128)" d="M282.8-36.4c0-26.6-12.6-88.5-12.6-94.4h-27.1s6 82.9 4.2 83.8-71.1-6.9-91.8-6.9C125.4-53.9 113-35 112 0h59.4c12.1-1.3 75.2-14 98.6-18.4 10-1.9 12.8-10.7 12.8-18z" coriginal="rgb(43,68,255)" colortype="10" awdzp="10" style="fill: rgb(123, 99, 128);"></path></g><g id="MTBteHk0NDcxMDAwMDAwMDAwMHh6czI5Mg" transform="translate(432 181) rotate(180)"><path id="MTBteHk2ODcxMDAwMDAwMDAwMHh6czEwOQ-2" fill="rgb(82, 121, 111)" d="M23.4-172c-1.1.7-2.3 3.3.6 5.3 7.4 5.1 18 13.9 19.4 16.8C46.3-144 61-67.4 61-67.4l21.9-.1s-25-81.1-26.6-84.9c-2.3-5.7 2.6-14.5 4.7-19.2-3.3-1.5-4.8.4-6.5 2.3-1.8 2-3.7 4-8.2 2-5.7-2.6-10.4-6.8-16-6.8-2.5 0-4.9.7-6.9 2.1zm196.1 45.9L190-108.7l9.4 16.3 28.3-27.6c7.3-2.9 14.1-6.9 20.3-11.6 1.2-1.4 2.5-4.2-3.1-2.9-5.6 1.2-11.5 2.3-12.5.5-1-1.8 2-4.6.1-7-.1-.2-.4-.3-.6-.3-1.7-.2-5.9 4.9-12.4 15.2z" coriginal="rgb(178,139,103)" colortype="13" awdzp="13" style="fill: rgb(82, 121, 111);"></path><path id="MTBteHkyODMxMDAwMDAwMDAwMHh6czEyMA" fill="rgb(77, 116, 106)" d="M127.7-5.3l8.6 1.5c13.6-48.1 83.6-80.9 87.9-98.9 1.6-6.6-3.2-9.9-.7-11.9l-11.2-8.2c-1.9 2.2-6-1.8-14.4 1-8.5 2.7-70.2 59.5-70.2 116.5z" coriginal="rgb(219,39,33)" colortype="14" awdzp="14" style="fill: rgb(77, 116, 106);"></path><path id="Clothes_MTBteHk2NDYxMDAwMDAwMDAwMHh6czc1OA" fill="rgb(128, 104, 133)" d="M44.6-145c1 5.5-5.9 8.2-4.1 20.5C51-54.8 91.4-17.4 107.6-4.8L108 1c.2 2.2 2.1 3.9 4.3 3.7l26.9-1.9c2.2-.2 3.9-2.1 3.7-4.3l-.7-10.3c-1-63.8 35.9-80 27.6-105.6-6.8-21.1-71.7-43.8-82.9-23.1-4.5 8.3-6.6 18.3-6.8 29.2-2.8-8.2-5.2-15.6-6.8-21.5-2.9-10.5-14-12.2-14-16.3L44.6-145z" coriginal="rgb(255,65,51)" colortype="9" awdzp="9" style="fill: rgb(128, 104, 133);"></path></g></svg>