<!--?undefined undefined?--><svg xmlns="http://www.w3.org/2000/svg" id="svgid15" viewBox="0 0 600 600" repair="1" xmlns:xlink="http://www.w3.org/1999/xlink"><g id="MTBteHk3NTEwMDAwMDAwMDAweHpzMTE1" transform="translate(54 31)"><path id="MTBteHk3NTEwMDAwMDAwMDAweHpzMTE1-2" fill="rgb(82, 121, 111)" d="M215 145l8.3-38.5c-4.6-5.4-7.7-12-7.2-19.5 1.5-21.4 31.2-16.7 37-5.9 5.8 10.8 5.1 38.2-2.4 40.1-3 .8-9.3-1.1-15.8-5L239 145h-24z" coriginal="rgb(178,139,103)" colortype="13" awdzp="13" style="fill: rgb(82, 121, 111);"></path></g><path id="MTBteHk2NzkxMDAwMDAwMDAwMHh6czQ5Mg" fill="rgb(72, 111, 101)" d="M307.5 105.7c-.2-1.3.2-1.9-5-5.6-5.2-3.7-13.7-8-22.3-6.1-11.1 2.4-15.5 9.8-19.8 13.3-3.9 3.2-7.7 3.6-10 7.5s-3.5 15.5-1.5 20c2.7 6.3 8.2 8 12.1 9.8 6.8 3.1 16.4-.2 16.6-.7 1.8-4.2 11.5-16 17.3-21 4.3-3.7 13.6-11 12.6-17.2z" coriginal="rgb(92,99,171)" colortype="15" awdzp="15" style="fill: rgb(72, 111, 101);"></path><g id="MTBteHk3OTkxMDAwMDAwMDAwMHh6czU4OQ" transform="translate(143 269.787)"><path id="MTBteHk1MzMxMDAwMDAwMDAwMHh6czUxNQ" fill="rgb(82, 121, 111)" d="M110.7 4.8c1.8 24.6 117.9 97.1 118.6 99.2.5 1.4-36.2 85.7-36.2 85.7l10.2 4s56.2-89.3 53.3-98.8C252.5 81.1 166.5 5 166.5 5l-55.8-.2z" coriginal="rgb(178,139,103)" colortype="13" awdzp="13" style="fill: rgb(82, 121, 111);"></path><path id="MTBteHk2NTgxMDAwMDAwMDAwMHh6czQwNA" fill="rgb(42, 57, 65)" d="M195.8 176.9l16.6 6c35-39.4 48.7-72 46.2-88.6-2.5-16.5-89.8-89.5-89.8-89.5h-59.3c2 57 109.7 99.3 111.1 101.7 1.4 2.5-12.7 26.3-24.8 70.4z" coriginal="rgb(47,54,118)" colortype="19" awdzp="19" style="fill: rgb(42, 57, 65);"></path><g id="MTBteHk5MzcxMDAwMDAwMDAwMHh6czg4MA" transform="translate(201.564 158.054) rotate(20)"><path id="MTBteHk5OTgxMDAwMDAwMDAwMHh6czEy" fill="rgb(250, 250, 250)" d="M1.5 30.5c-1-.4-2.2.2-2.5 1.3v.1l-1.9 6.7c.1 2.6.4 5.3.9 7.9h56.4s2.2-7.3-2.5-7.8c-4.7-.6-7.9-1-7.9-1L17.7 25.9c-.5-.2-1.1 0-1.3.5l-1.7 4.1s-4.4 2-7.1 2l-6.1-2z" coriginal="rgb(228,228,228)" colortype="1" awdzp="1" style="fill: rgb(250, 250, 250);"></path></g><path id="MTBteHk1MzMxMDAwMDAwMDAwMHh6czUxNQ-2" fill="rgb(44, 83, 73)" d="M124 4.7L72.3 129 21.4 234h12L164.7 4.7H124z" coriginal="rgb(153,118,89)" colortype="17" awdzp="17" style="fill: rgb(44, 83, 73);"></path><g id="MTBteHk0ODkxMDAwMDAwMDAwMHh6czQzNQ" transform="translate(24 199)"><path id="MTBteHk5OTgxMDAwMDAwMDAwMHh6czEy-2" fill="rgb(250, 250, 250)" d="M-.5 28.8c-1-.4-2.2.2-2.5 1.3v.1l-1.9 6.7c.1 2.6.4 5.3.9 7.9h56.4s2.2-7.3-2.5-7.8c-4.7-.6-7.9-1-7.9-1L15.8 24.3c-.5-.2-1.1 0-1.3.5l-1.7 4.1s-4.4 2-7.1 2l-6.2-2.1z" coriginal="rgb(228,228,228)" colortype="1" awdzp="1" style="fill: rgb(250, 250, 250);"></path></g><path id="MTBteHk2NTgxMDAwMDAwMDAwMHh6czQwNA-2" fill="rgb(72, 111, 101)" d="M26 212.2l26.7 5C73.3 186.9 159.6 62.6 169 4.7h-59.4C78.1 46.6 45.7 181.4 26 212.2z" coriginal="rgb(92,99,171)" colortype="15" awdzp="15" style="fill: rgb(72, 111, 101);"></path></g><path id="MTBteHkxNDYxMDAwMDAwMDAwMHh6czM0Mg" fill="rgb(44, 83, 73)" d="M171.2 347.7c-1.1-.7-2.3-3.3.6-5.3 7.4-5 18-13.9 19.4-16.8 2.9-5.9 28.6-82.5 28.6-82.5l21.9.1s-36 81.1-37.6 84.9c-2.3 5.7 2.6 14.5 4.7 19.2-3.3 1.5-4.8-.4-6.5-2.3-1.8-2-3.7-4-8.2-2-5.7 2.6-10.4 6.8-16 6.8-2.4 0-4.8-.7-6.9-2.1zm172.7-113.6l39.5-5.4c6.8-4 14.2-7 21.8-8.9 1.9-.1 4.8.6.4 4.3-4.4 3.7-8.9 7.8-8.1 9.7s4.9 1.2 5.6 4.3c.5 2-6.2 2.3-20 1l-32 12.7-7.2-17.7z" coriginal="rgb(153,118,89)" colortype="17" awdzp="17" style="fill: rgb(44, 83, 73);"></path><path id="MTBteHk3NjcxMDAwMDAwMDAwMHh6czEyMw" fill="rgb(197, 205, 192)" d="M279.8 173.7l17.1 1.1c4.2 38.2 27.2 62.3 78.7 54.1l6.8 49.2c-48.1 6.2-90.3-13-99-65.2-2.1-13.4-3.9-27.4-3.6-39.2z" coriginal="rgb(175,185,197)" colortype="5" awdzp="5" style="fill: rgb(197, 205, 192);"></path><path id="MTBteHk3MTAxMDAwMDAwMDAwMHh6czE2MQ" fill="rgb(202, 210, 197)" d="M194.3 315.7c11.9-63.3 37-112.3 75.4-147h1.7l26 5.9c0 44.7 14.2 73.2 21.5 106h-70.2c-1 11.3-1.6 23-1.9 35l-52.5.1z" coriginal="rgb(197,207,214)" colortype="4" awdzp="4" style="fill: rgb(202, 210, 197);"></path><path id="MTBteHk4MjIxMDAwMDAwMDAwMHh6czgyOA" d="M263 280.7h-14.3c2.1-24.6 5.9-46 11.5-65.4-1.2 20.7-1.7 48.8 2.8 65.4z" opacity=".5"></path></svg>