<!--?undefined undefined?--><svg xmlns="http://www.w3.org/2000/svg" id="svgid11" viewBox="0 0 600 600" repair="1" xmlns:xlink="http://www.w3.org/1999/xlink"><path fill="none" d="M0 0h600v600H0z"></path><g id="MTBteHk1MDEwMDAwMDAwMDAweHpzNTEw" transform="translate(243 74)"><path id="MTBteHk1NTMxMDAwMDAwMDAwMHh6czQxMw" fill="rgb(32, 47, 55)" d="M70.1 91v-.2C59.2 89.6 51 80.4 51 69.5v-21C51 36.6 60.6 27 72.5 27h2c10.6 0 19.7 7.8 21.3 18.3 3.4 12.7 7.9 41.3 3.4 45.7H70.1z" coriginal="rgb(25,24,71)" colortype="21" awdzp="21" style="fill: rgb(32, 47, 55);"></path><g id="MTBteHk3MjQxMDAwMDAwMDAwMHh6czE4Ng" transform="translate(54 31)"><path id="MTBteHk3MjQxMDAwMDAwMDAwMHh6czE4Ng-2" fill="rgb(82, 121, 111)" d="M0 73l8.3-38.5C3.7 29.1.6 22.5 1.1 15c1.5-21.4 31.2-16.7 37-5.9s5.1 38.2-2.4 40.1c-3 .8-9.3-1.1-15.8-5L24 73H0z" coriginal="rgb(178,139,103)" colortype="13" awdzp="13" style="fill: rgb(82, 121, 111);"></path></g><path id="MTBteHkxNDkxMDAwMDAwMDAwMHh6czA" fill="rgb(32, 47, 55)" d="M66.1 90.5h-29c-.2-3-.2-6.1.2-9.1.2-2.1.7-4.2 1.5-6.2 1.2-2.8 2.9-5.4 5.1-7.6 3.6-3.9 7.3-8 7.3-20.8.3-.2.5-.5.7-.7.7-.7 1.4-1.4 2.1-2v-.8c1.4-2.8 3.2-5.3 5.2-7.7 1.7-2.1 3.8-3.8 6-5.3 2.3-1.5 5.1-2.4 7.9-2.4 5.2 0 9.2 1.1 12.3 3.3 2.4 1.8 4.4 4.1 6 6.7-1.6 5.6-6.5 7.8-12.1 10.4-2.5 1.1-5 2.4-7.3 3.8-2.4-1.9-5.8-1.6-7.7.8-1.9 2.4-1.6 5.8.8 7.7 1 .8 2.2 1.2 3.5 1.2h.3c.6 5.8.7 11.7.3 17.6-.5 5.8-1.6 9.7-3.1 11.1z" coriginal="rgb(25,24,71)" colortype="21" awdzp="21" style="fill: rgb(32, 47, 55);"></path></g><g id="MTBteHk2MDAxMDAwMDAwMDAwMHh6czE3OQ" transform="translate(161 261)"><path id="MTBteHk0MjkxMDAwMDAwMDAwMHh6czc0" fill="rgb(67, 106, 96)" d="M97.4 98.1s36 10.1 62.1 10.1S208 92.7 208 92.7s-35.2-10.3-58-10.3-52.6 15.7-52.6 15.7z" coriginal="rgb(31,40,207)" colortype="16" awdzp="16" style="fill: rgb(67, 106, 96);"></path><path id="MTBteHk1ODQxMDAwMDAwMDAwMHh6czMyNg" fill="rgb(44, 83, 73)" d="M180.3 117.8c-.2-.4-.4-.7-.6-1.1-3.2-8.5-54.6-100-59.7-116.7h57.8c3.9 12.7 21.4 92.5 23.9 108.4 7.8 25.1 23.8 106.5 25.8 112.1 2.2 5.9-9.9 12.1-13.2 4.8-5.1-11.6-17.3-43.7-22.8-63.3-5-18.3-9.2-34.8-11.2-44.2z" coriginal="rgb(153,118,89)" colortype="17" awdzp="17" style="fill: rgb(44, 83, 73);"></path><path id="MTBteHk1ODQxMDAwMDAwMDAwMHh6czMyNg-2" fill="rgb(82, 121, 111)" d="M133 129c-23.5 5.9-109.4 16.7-115.3 18.3-6.1 1.7-11.4-10.8-3.9-13.5 11.9-4.3 44.8-14.3 64.7-18.3 16-3.3 30.6-5.9 40.5-7.5-.8-27.6-4.6-93.8-2.1-108.1H168c-2.4 13.7-22.6 113.7-26.3 123.7-1.2 3.7-4.8 5.3-8.7 5.4z" coriginal="rgb(178,139,103)" colortype="13" awdzp="13" style="fill: rgb(82, 121, 111);"></path><g id="MTBteHk3MTQxMDAwMDAwMDAwMHh6czIyMQ" transform="matrix(.174 .985 -.985 .174 38.9 123.49)"><path id="MTBteHk4MDIxMDAwMDAwMDAwMHh6czc0OA" fill="rgb(250, 250, 250)" d="M5.5 24c-1-.4-2.2.2-2.5 1.3v.1l-2 6.7c.1 2.6.4 5.3.9 7.9h56.4s2.2-7.3-2.5-7.8c-4.7-.6-7.9-1-7.9-1L21.7 19.4c-.5-.2-1.1 0-1.3.5L18.7 24s-4.4 2-7.1 2l-6.1-2z" coriginal="rgb(228,228,228)" colortype="1" awdzp="1" style="fill: rgb(250, 250, 250);"></path></g><g id="MTBteHk3MDkxMDAwMDAwMDAwMHh6czEzMw" transform="translate(208 199)"><path id="MTBteHk4MDIxMDAwMDAwMDAwMHh6czc0OA-2" fill="rgb(250, 250, 250)" d="M5.5 24c-1-.4-2.2.2-2.5 1.3v.1l-2 6.7c.1 2.6.4 5.3.9 7.9h56.4s2.2-7.3-2.5-7.8c-4.7-.6-7.9-1-7.9-1L21.7 19.4c-.5-.2-1.1 0-1.3.5L18.7 24s-4.4 2-7.1 2l-6.1-2z" coriginal="rgb(228,228,228)" colortype="1" awdzp="1" style="fill: rgb(250, 250, 250);"></path></g><path id="MTBteHk4MjMxMDAwMDAwMDAwMHh6czMzMA" fill="rgb(123, 99, 128)" d="M117 0s33.8-9.7 64 0c7 31.9 24 44.6 27 93.6-34 16.9-76-12-111 4.4-10-23 4-78.5 20-98z" coriginal="rgb(43,68,255)" colortype="10" awdzp="10" style="fill: rgb(123, 99, 128);"></path></g><g id="MTBteHkxNDkxMDAwMDAwMDAwMHh6czgyNw" transform="translate(183 156)"><path id="MTBteHk0MzMxMDAwMDAwMDAwMHh6czUzNQ" fill="rgb(44, 83, 73)" d="M19.4 179c-1.1-.7-2.3-3.3.6-5.3 7.4-5.1 18-13.9 19.4-16.8C42.3 151 68 74.4 68 74.4l21.9.1s-36 81.1-37.6 84.9c-2.3 5.7 2.6 14.5 4.7 19.2-3.3 1.5-4.8-.4-6.5-2.3-1.8-2-3.7-4-8.2-2-5.7 2.6-10.4 6.8-16 6.8-2.5 0-4.9-.7-6.9-2.1zM192 65.3l39.5-5.4c6.8-4 14.2-7 21.8-8.9 1.9-.1 4.8.6.4 4.3-4.4 3.7-8.9 7.8-8.1 9.7.8 2 4.9 1.2 5.6 4.3.5 2-6.2 2.3-20 1l-32 12.7-7.2-17.7z" coriginal="rgb(153,118,89)" colortype="17" awdzp="17" style="fill: rgb(44, 83, 73);"></path><path id="MTBteHk4NzAxMDAwMDAwMDAwMHh6czMw" fill="rgb(197, 205, 192)" d="M127.9 5L145 6.1c4.2 38.2 27.2 62.3 78.7 54.1l6.8 49.2c-48.1 6.2-90.3-13-99-65.2-2.1-13.4-3.8-27.5-3.6-39.2z" coriginal="rgb(175,185,197)" colortype="5" awdzp="5" style="fill: rgb(197, 205, 192);"></path><path id="MTBteHk0MjEwMDAwMDAwMDAweHpzMTE1" fill="rgb(202, 210, 197)" d="M42.4 147c11.9-63.3 37-112.3 75.4-147h1.7l26 5.9c0 44.7 14.2 73.2 21.5 106H96.8c-1 11.3-1.6 23-1.9 35l-52.5.1z" coriginal="rgb(197,207,214)" colortype="4" awdzp="4" style="fill: rgb(202, 210, 197);"></path><path id="MTBteHkyNzIxMDAwMDAwMDAwMHh6czI1OQ" d="M111.1 112H96.8c2.1-24.6 5.9-46 11.5-65.4-1.1 20.7-1.7 48.8 2.8 65.4z" opacity=".5"></path></g></svg>