<!--?undefined undefined?--><svg xmlns="http://www.w3.org/2000/svg" id="svgid18" viewBox="0 0 600 600" repair="1" xmlns:xlink="http://www.w3.org/1999/xlink"><path fill="none" d="M0 0h600v600H0z"></path><g id="MTBteHk1ODExMDAwMDAwMDAwMHh6czM3OQ" transform="translate(387 77) rotate(180)"><g id="MTBteHk2MjIxMDAwMDAwMDAwMHh6czEyMQ" transform="translate(54 -31)"><path id="MTBteHk2MjIxMDAwMDAwMDAwMHh6czEyMQ-2" fill="rgb(82, 121, 111)" d="M0-73l8.3 38.5C3.7-29.1.6-22.5 1.1-15c1.5 21.4 31.2 16.7 37 5.9s5.1-38.2-2.4-40.1c-3-.8-9.3 1.1-15.8 5L24-73H0z" coriginal="rgb(178,139,103)" colortype="13" awdzp="13" style="fill: rgb(82, 121, 111);"></path></g><path id="MTBteHk3NTUxMDAwMDAwMDAwMHh6czk5Ng" fill="rgb(32, 47, 55)" d="M62-67c-2.1.2-4.5 2.8-6.6 6.9C53.3-56 52.1-51.5 52-47c0 4.8 2 9.4 5.6 12.6 4 3.5 9.6 5.4 16.4 5.4 2.8 0 5.5-.3 8.2-.9 2-.5 3.8-1.3 5.5-2.3 2.4-1.4 4-4 4.3-6.8-4.9-1.4-13.5-2-26.1-2H63v-1l12-1 2-6h-.5c-2.6 0-4.7-1.6-6.8-4.9-.8.6-1.7.9-2.7.9-2.7-.1-4.9-2.3-5-5-.1-2.3 1-4.4 3-5.5-1.1-2.2-2-3.3-3-3.5z" coriginal="rgb(25,24,71)" colortype="21" awdzp="21" style="fill: rgb(32, 47, 55);"></path></g><g id="MTBteHk2MDcxMDAwMDAwMDAwMHh6czIxNQ" transform="translate(469 264) rotate(180)"><g id="MTBteHk1NjUxMDAwMDAwMDAwMHh6czQ2NA" transform="translate(10 -42)"><ellipse id="MTBteHkzNjUxMDAwMDAwMDAwMHh6czI0NA" cx="116" cy="-58.5" fill="rgb(202, 210, 197)" rx="77" ry="73.5" coriginal="rgb(197,207,214)" colortype="4" awdzp="4" style="fill: rgb(202, 210, 197);"></ellipse></g><path id="MTBteHkxMjkxMDAwMDAwMDAwMHh6czY3Mg" fill="rgb(82, 121, 111)" d="M245.7-96.6c-6.4 22.3-11.2 41.9-12.4 49.3-2.9 17.5 22.5 18.5 25.8 9.8 5.1-13.1 13.9-56.4 24.6-121.6l-12.2-3.6c-12.8 28.4-22.1 53.1-25.8 66.1zM122.9-73.7c11.8 4.6 52.9 19.2 72.8 23.3 5.7 1.2 11.2 2.3 16.4 3.3 15.5 3 23.5-24.9 8.6-27.1-37.1-5.3-89.6-10.8-94.1-11.5-.3 0-.5-.1-.8-.1-5.9.1-10 9.3-2.9 12.1z" coriginal="rgb(178,139,103)" colortype="13" awdzp="13" style="fill: rgb(82, 121, 111);"></path><path id="MTBteHk5MDExMDAwMDAwMDAwMHh6czE1Mg" fill="rgb(67, 106, 96)" d="M221.8-42.7c-.2 1.1-.3 2.2-.2 3.3L158-7v7h7.6s92.3-23.5 94.3-30.1v-.1l.1-.1c12.2-16.8 19.5-98.6 21.9-104.8l-23.4-3.5c-8.9 33.1-37.5 56.2-36.7 95.9z" coriginal="rgb(31,40,207)" colortype="16" awdzp="16" style="fill: rgb(67, 106, 96);"></path><path id="MTBteHk0NjkxMDAwMDAwMDAwMHh6czkyMw" fill="rgb(123, 99, 128)" d="M144.1-65.2l19.2 6.6c-5.8 1.2-11.2 2.2-15.8 3-29.6 5.2-38.2 21-33.1 55.6H169c8.9-2.6 55.2-22 79.3-32.3 15.9-6.8 10.9-31.5 1.9-37.9 0-.3-.2-.6-.5-.8-33.3-13.8-61.9-13.1-80.6-12.5-8.5.3-15 .6-19-.4l-6 18.7z" coriginal="rgb(43,68,255)" colortype="10" awdzp="10" style="fill: rgb(123, 99, 128);"></path><g id="MTBteHk2MjUxMDAwMDAwMDAwMHh6czM5MQ" transform="matrix(.438 -.899 .899 .438 148.565 -57.151)"><path id="MTBteHk2MDgxMDAwMDAwMDAwMHh6czk0NA" fill="rgb(250, 250, 250)" d="M5.5-24c-1 .4-2.2-.2-2.5-1.3v-.1l-2-6.7c.1-2.6.4-5.3.9-7.9h56.4s2.2 7.3-2.5 7.8c-4.7.6-7.9 1-7.9 1L21.7-19.4c-.5.2-1.1 0-1.3-.5L18.7-24s-4.4-2-7.1-2l-6.1 2z" coriginal="rgb(228,228,228)" colortype="1" awdzp="1" style="fill: rgb(250, 250, 250);"></path></g><g id="MTBteHk2MjUxMDAwMDAwMDAwMHh6czM5MQ-2" transform="translate(263 -132)"><path id="MTBteHk2MDgxMDAwMDAwMDAwMHh6czk0NA-2" fill="rgb(250, 250, 250)" d="M5.5-24c-1 .4-2.2-.2-2.5-1.3v-.1l-2-6.7c.1-2.6.4-5.3.9-7.9h56.4s2.2 7.3-2.5 7.8c-4.7.6-7.9 1-7.9 1L21.7-19.4c-.5.2-1.1 0-1.3-.5L18.7-24s-4.4-2-7.1-2l-6.1 2z" coriginal="rgb(228,228,228)" colortype="1" awdzp="1" style="fill: rgb(250, 250, 250);"></path></g></g><path id="MTBteHkxMjkxMDAwMDAwMDAwMHh6czY3Mg-2" fill="rgb(82, 121, 111)" d="M415.4 318.1c1.4-2.3 3-4.5 7.7-3.3 8.4 2.2 15.4 7.7 23.4.6 1-.9 1.7-3.6-1.5-5.1-8.1-3.7-20.1-10.6-22-13.2-3.9-5.4-27.5-62.9-27.5-62.9l-17.6 3.2s30.7 60.9 32.8 64.4c3.3 5.2 0 14.7-1.3 19.7.4.1.8.2 1.2.2 2.6.3 3.7-1.6 4.8-3.6zm-188.9-43.5l31.6-13.1-7-17.4-31.9 23.4c-7.6 1.9-14.9 4.8-21.7 8.7-1.4 1.2-3 3.8 2.7 3.3s11.7-.6 12.5 1.3c.8 1.9-2.7 4.3-1.1 6.9.1.2.4.4.6.4 1.7.2 6.5-4.3 14.3-13.5z" coriginal="rgb(178,139,103)" colortype="13" awdzp="13" style="fill: rgb(82, 121, 111);"></path><path id="MTBteHkzMTUxMDAwMDAwMDAwMHh6czU0Mg" fill="rgb(93, 69, 98)" d="M315.7 218.1c4.9-9.4 3.2-41.1 3.7-52.7l-10.7-4.4c-14.9 30.8-35.1 60.4-65.1 85.6-4.5-.2-9.1.5-13.4 2-2.4.8-3.6 3.3-2.8 5.7.4 1.3 1.5 2.4 2.8 2.8-.9.7-1.8 1.3-2.8 2l8 16.4c34-16.8 65.8-29.5 80.3-57.4z" coriginal="rgb(105,161,172)" colortype="12" awdzp="12" style="fill: rgb(93, 69, 98);"></path><path id="MTBteHk0MTQxMDAwMDAwMDAwMHh6czYxMw" fill="rgb(32, 47, 55)" d="M357 272.9s-47.2 5.2-74.2 0c-2.2-.4-2.1-10.1-1.1-12.7 16.2-41 26.8-71 26.8-99.5 4.4 2.3 15.6.7 15.6.7 19.8 29.4 29 63 32.9 111.5z" coriginal="rgb(25,24,71)" colortype="21" awdzp="21" style="fill: rgb(32, 47, 55);"></path><path id="MTBteHkzNDExMDAwMDAwMDAwMHh6czQ0MA" fill="rgb(192, 200, 187)" d="M362.8 277.8c1.1-1 1.6-2.6 1.3-4.1l-.5-3c-.3-2-1.9-3.5-3.9-3.7l-.9-4.5c-1.9-11.7 1-23.2 1.3-34.5 13.4 11.9 29.6 32.7 43.3 68.8l18.9-5.6c-.7-2.7-1.5-5.3-2.3-7.9 2.2-1.2 4.8-6.9 2.9-7.9s-4-1.7-6.2-2.1C389 194 332 159 332 159h-11.4c3.3 44.3-42.9 141-26.8 223.5 12.6 2.8 27.4.7 43.5-1.4 21.9-2.8 46-5.7 69.8 3.8-1.5-33.1-32.3-72.2-44.3-107.1z" coriginal="rgb(137,197,204)" colortype="6" awdzp="6" style="fill: rgb(192, 200, 187);"></path><path id="MTBteHkyODEwMDAwMDAwMDAweHpzNjcw" d="M327.9 160l5.2 15.9-10.4 11.9 9.4 9.3-22.8 38.9 27.8-38.8-9.2-9.4 9.2-10.5-9.2-17.3z" opacity=".5"></path><path id="MTBteHk2NjkxMDAwMDAwMDAwMHh6czc0Nw" d="M314 293c0-2.2-1.8-4-4-4s-4 1.8-4 4 1.8 4 4 4 4-1.8 4-4zm1-23c0-2.2-1.8-4-4-4s-4 1.8-4 4 1.8 4 4 4 4-1.8 4-4zm5-23c0-2.2-1.8-4-4-4s-4 1.8-4 4 1.8 4 4 4 4-1.8 4-4z" opacity=".5"></path></svg>