<!--?undefined undefined?--><svg xmlns="http://www.w3.org/2000/svg" id="svgid12" viewBox="0 0 600 600" repair="1" xmlns:xlink="http://www.w3.org/1999/xlink"><g id="MTBteHk2OTkxMDAwMDAwMDAwMHh6czU1Ng" transform="translate(143 271.787)"><path id="MTBteHkxMDgxMDAwMDAwMDAwMHh6czQ1OA" fill="rgb(82, 121, 111)" d="M116.7 0c1.8 24.6 117.9 97.1 118.6 99.2.5 1.4-36.2 85.7-36.2 85.7l10.2 4s56.2-89.3 53.3-98.8C258.5 76.5 172.5.4 172.5.4L116.7 0z" coriginal="rgb(178,139,103)" colortype="13" awdzp="13" style="fill: rgb(82, 121, 111);"></path><path id="MTBteHk4NzIxMDAwMDAwMDAwMHh6czI2" fill="rgb(42, 57, 65)" d="M201.8 172.2l16.6 6c35-39.4 48.7-72 46.2-88.6S174.8.1 174.8.1h-59.3c2 57 109.7 99.3 111.1 101.7s-12.8 26.2-24.8 70.4z" coriginal="rgb(47,54,118)" colortype="19" awdzp="19" style="fill: rgb(42, 57, 65);"></path><g id="MTBteHk1OTgxMDAwMDAwMDAwMHh6czcy" transform="translate(201.564 158.054) rotate(20)"><path id="MTBteHk0NDcxMDAwMDAwMDAwMHh6czY3Ng" fill="rgb(250, 250, 250)" d="M5.5 24c-1-.4-2.2.2-2.5 1.3v.1l-2 6.7c.1 2.6.4 5.3.9 7.9h56.4s2.2-7.3-2.5-7.8c-4.7-.6-7.9-1-7.9-1L21.7 19.4c-.5-.2-1.1 0-1.3.5L18.7 24s-4.4 2-7.1 2l-6.1-2z" coriginal="rgb(228,228,228)" colortype="1" awdzp="1" style="fill: rgb(250, 250, 250);"></path></g><path id="MTBteHkxMDgxMDAwMDAwMDAwMHh6czQ1OA-2" fill="rgb(44, 83, 73)" d="M130 0L78.3 124.2l-50.9 105h12L170.7 0H130z" coriginal="rgb(153,118,89)" colortype="17" awdzp="17" style="fill: rgb(44, 83, 73);"></path><g id="MTBteHkzNzExMDAwMDAwMDAwMHh6czYyMw" transform="translate(24 199)"><path id="MTBteHk0NDcxMDAwMDAwMDAwMHh6czY3Ng-2" fill="rgb(250, 250, 250)" d="M5.5 24c-1-.4-2.2.2-2.5 1.3v.1l-2 6.7c.1 2.6.4 5.3.9 7.9h56.4s2.2-7.3-2.5-7.8c-4.7-.6-7.9-1-7.9-1L21.7 19.4c-.5-.2-1.1 0-1.3.5L18.7 24s-4.4 2-7.1 2l-6.1-2z" coriginal="rgb(228,228,228)" colortype="1" awdzp="1" style="fill: rgb(250, 250, 250);"></path></g><path id="MTBteHk4NzIxMDAwMDAwMDAwMHh6czI2-2" fill="rgb(72, 111, 101)" d="M32 207.4l26.7 5C79.3 182.1 165.5 57.9 175 0h-59.4C84.1 41.8 51.6 176.6 32 207.4z" coriginal="rgb(92,99,171)" colortype="15" awdzp="15" style="fill: rgb(72, 111, 101);"></path></g><g id="MTBteHk2MTYxMDAwMDAwMDAwMHh6czc0Nw" transform="translate(213 65.95)"><g id="MTBteHk5NDYxMDAwMDAwMDAwMHh6czI5NQ" transform="translate(54 31)"><path id="MTBteHk5NDYxMDAwMDAwMDAwMHh6czI5NQ-2" fill="rgb(82, 121, 111)" d="M0 73l8.3-38.5C3.7 29.1.6 22.5 1.1 15c1.5-21.4 31.2-16.7 37-5.9s5.1 38.2-2.4 40.1c-3 .8-9.3-1.1-15.8-5L24 73H0z" coriginal="rgb(178,139,103)" colortype="13" awdzp="13" style="fill: rgb(82, 121, 111);"></path></g><path id="MTBteHkxMzMxMDAwMDAwMDAwMHh6czc0Mw" fill="rgb(32, 47, 55)" d="M60.4 70.3c-3-13.4-11.6-22.5-10.3-28.5.8-3.6 3.5-6.4 7-7.4 0 0 2.9-11.9 18.9-10.1 16 1.8 25.8 8.4 21.5 23-3.9 0-8.6-1.4-15 1-3.1 1.1-4.4 7.1-4.4 7.1h-2.9s-4.3-7.1-8.4-5.2C62.7 52 65 59.3 65 59.3l-1.4 11h-3.2z" coriginal="rgb(25,24,71)" colortype="21" awdzp="21" style="fill: rgb(32, 47, 55);"></path></g><path id="MTBteHkyMzEwMDAwMDAwMDAweHpzMjQ0" fill="rgb(82, 121, 111)" d="M187.2 339c-1.1-.7-2.3-3.3.6-5.3 7.4-5 18-13.9 19.4-16.8 2.9-5.9 12.9-63.9 12.9-63.9l20.9.1s-19.4 62.5-20.9 66.3c-2.3 5.7 2.6 14.5 4.7 19.2-3.3 1.5-4.8-.4-6.5-2.3-1.8-2-3.7-4-8.2-2-5.7 2.6-10.4 6.8-16 6.8-2.4 0-4.8-.7-6.9-2.1zm178.7-56.2l-29.5-17.4 9.4-16.3 28.3 27.6c7.3 2.9 14.1 6.9 20.3 11.6 1.2 1.4 2.5 4.2-3.1 2.9-5.6-1.2-11.5-2.3-12.5-.5s2 4.6.1 7c-.1.2-.4.3-.6.3-1.7.1-5.9-5-12.4-15.2z" coriginal="rgb(178,139,103)" colortype="13" awdzp="13" style="fill: rgb(82, 121, 111);"></path><path id="MTBteHk1MDExMDAwMDAwMDAwMHh6czkyMg" fill="rgb(32, 47, 55)" d="M279.5 165.3l8.6-1.5c14.9 37.2 40.9 71 78 101.3l-28 34.1c-37.1-43.2-59.9-87.9-58.6-133.9z" coriginal="rgb(25,24,71)" colortype="21" awdzp="21" style="fill: rgb(32, 47, 55);"></path><path id="MTBteHk3NjExMDAwMDAwMDAwMHh6czkzOA" fill="rgb(245, 245, 245)" d="M241.8 274h77S292 208.9 292 163.5l-23.2-3.5c-18.2 29.4-23.4 65.5-27 114z" coriginal="rgb(221,227,233)" colortype="2" awdzp="2" style="fill: rgb(245, 245, 245);"></path><path id="MTBteHkxNzkxMDAwMDAwMDAwMHh6czQ4MA" fill="rgb(42, 57, 65)" d="M206.8 307c8.4-95 61.5-147 61.5-147h1.5c2.7.1 8.3.3 8.3.3l5.6 16c.9 29.3 10.4 118.2 10.4 118.2h-50.4c.1 4.1.3 8.2.6 12.4l-37.5.1z" coriginal="rgb(47,54,118)" colortype="19" awdzp="19" style="fill: rgb(42, 57, 65);"></path><path id="MTBteHk5NDkxMDAwMDAwMDAwMHh6czY4Nw" d="M257.8 295h-14c-.3-16.6.9-33.2 3.8-49.5.6 9.3 1.8 18.5 3.4 27.7 1.8 9.9 4.1 17.2 6.8 21.8z" opacity=".5"></path><path id="MTBteHkxNDcxMDAwMDAwMDAwMHh6czU5MA" d="M254.9 264l24.9-11.6V264h-24.9z" opacity=".5"></path></svg>