<!--?undefined undefined?--><svg xmlns="http://www.w3.org/2000/svg" id="svgid14" viewBox="0 0 600 600" repair="1" xmlns:xlink="http://www.w3.org/1999/xlink"><g id="MTBteHkyODkxMDAwMDAwMDAwMHh6czMzNw" transform="translate(139 272)"><path id="MTBteHk4ODUxMDAwMDAwMDAwMHh6czI2OQ" fill="rgb(44, 83, 73)" d="M128 0l37.6 123 18.2 104.6h14.3L178.9 0H128z" coriginal="rgb(153,118,89)" colortype="17" awdzp="17" style="fill: rgb(44, 83, 73);"></path><path id="MTBteHk4ODUxMDAwMDAwMDAwMHh6czI2OQ-2" fill="rgb(82, 121, 111)" d="M114.5 0c2.6 67.5-.5 102.4-1 108.5-.6 6.1-8.4 45.9-27 121.2l15.2-5.2c29.3-69 39.3-104.9 42.7-114 3.4-9.1 12.3-45.9 26.8-110.5h-56.7z" coriginal="rgb(178,139,103)" colortype="13" awdzp="13" style="fill: rgb(82, 121, 111);"></path><g id="MTBteHk3OTkxMDAwMDAwMDAwMHh6czkyMg" transform="translate(84 199)"><path id="MTBteHk0MjcxMDAwMDAwMDAwMHh6czk1Ng" fill="rgb(250, 250, 250)" d="M5.5 24c-1-.4-2.2.2-2.5 1.3v.1l-2 6.7c.1 2.6.4 5.3.9 7.9h56.4s2.2-7.3-2.5-7.8c-4.7-.6-7.9-1-7.9-1L21.7 19.4c-.5-.2-1.1 0-1.3.5L18.7 24s-4.4 2-7.1 2l-6.1-2z" coriginal="rgb(228,228,228)" colortype="1" awdzp="1" style="fill: rgb(250, 250, 250);"></path></g><g id="MTBteHkxNTExMDAwMDAwMDAwMHh6czUwMQ" transform="translate(178 199)"><path id="MTBteHk0MjcxMDAwMDAwMDAwMHh6czk1Ng-2" fill="rgb(250, 250, 250)" d="M5.5 24c-1-.4-2.2.2-2.5 1.3v.1l-2 6.7c.1 2.6.4 5.3.9 7.9h56.4s2.2-7.3-2.5-7.8c-4.7-.6-7.9-1-7.9-1L21.7 19.4c-.5-.2-1.1 0-1.3.5L18.7 24s-4.4 2-7.1 2l-6.1-2z" coriginal="rgb(228,228,228)" colortype="1" awdzp="1" style="fill: rgb(250, 250, 250);"></path></g><path id="MTBteHk0MjYxMDAwMDAwMDAwMHh6czMyMw" fill="rgb(93, 69, 98)" d="M123 0l16 62.7h48.9L180.6 0H123z" coriginal="rgb(105,161,172)" colortype="12" awdzp="12" style="fill: rgb(93, 69, 98);"></path><path id="MTBteHk0MjYxMDAwMDAwMDAwMHh6czMyMw-2" fill="rgb(192, 200, 187)" d="M114 0c-7.9 23.7-3 62.7-3 62.7h49.9L174.6 0H114z" coriginal="rgb(137,197,204)" colortype="6" awdzp="6" style="fill: rgb(192, 200, 187);"></path></g><g id="MTBteHk3NTEwMDAwMDAwMDAweHpzMzYw" transform="translate(54 31)"><path id="MTBteHk3NTEwMDAwMDAwMDAweHpzMzYw-2" fill="rgb(82, 121, 111)" d="M212.3 140.8l8.3-38.5c-4.6-5.4-7.7-12-7.2-19.5 1.5-21.4 31.3-16.7 37.1-5.9 5.8 10.8 5.1 38.2-2.4 40.1-3 .8-9.3-1.1-15.8-5l4.1 28.8h-24.1z" coriginal="rgb(178,139,103)" colortype="13" awdzp="13" style="fill: rgb(82, 121, 111);"></path></g><path id="MTBteHk2NDEwMDAwMDAwMDAweHpzMjY3" fill="rgb(187, 195, 182)" d="M303.7 101.8c.4-1.2 3.4-5.1-1.9-8.8-.9-.7-2.5 0-3.9-.4-1-.3-1.4-1.7-2.5-2-1.2-.3-2.5.9-3.9.8-.8-.1-2.1-1.4-3-1.4-1.6-.1-3 1.3-4.5 1.4-.9.1-1.9-1.4-2.8-1.4-2.1-.2-4.1.8-5.9 1.1-1.7.3-2.5 3.8-3.8 4.7-4 2.6-7.1 3.4-10.4 6.1-3.9 3.2-4.6 5.6-6.2 7.7-1.6 2.1-2.6 9.6-1.7 14.5.5 2.8 2 10.6 5.2 13.6 4.4 4.1 13.3 5.3 14.1 4.8 3.7-2.5 11.9-16.6 17.7-21.6 4.3-3.7 10.8-11.4 13.5-19.1z" coriginal="rgb(255,155,33)" colortype="7" awdzp="7" style="fill: rgb(187, 195, 182);"></path><path fill="none" d="M303.7 101.8c-2.7 7.7-9.1 15.4-13.4 19-5.8 5-14 19-17.7 21.6-.2.1-1 .2-2.1 0-.5 0-1.1-.1-1.7-.3-3.2-.6-7.5-2-10.2-4.6-3.2-3-4.6-10.8-5.2-13.6-.9-4.8.1-12.3 1.7-14.5 1.6-2.1 2.3-4.5 6.2-7.7 3.2-2.7 6.4-3.4 10.4-6 1.3-.8 2.1-4.4 3.8-4.7 1.9-.3 3.8-1.3 5.9-1.1.5 0 1.1.6 1.7 1 .4.2.7.4 1 .4.6 0 1.2-.3 1.7-.6.9-.4 1.8-1 2.7-.9.4 0 .9.3 1.4.6.6.4 1.2.8 1.6.8.4 0 .7 0 1.1-.1 1-.3 1.9-.9 2.8-.7.6.1 1 .6 1.4 1.1.3.4.6.8 1.1.9.5.2 1.1.2 1.6.1.8 0 1.6-.1 2.2.3 5.3 3.9 2.4 7.8 2 9z"></path><g id="MTBteHkzMzQxMDAwMDAwMDAwMHh6czc5NA" opacity=".5"><path d="M299.6 92.8c-1.5 3.6-7.1 17.4-10.4 23.4-8.1 14.6-15.8 23.5-18.7 26.3-.5 0-1.1-.1-1.7-.3 1.2-4.7 6-18 9.9-31.6 1.8-6.4 3.6-15.4 4.4-19.5.4.2.7.4 1 .4.6 0 1.2-.3 1.7-.6-1.4 5.7-4.9 20-7 26.5-1.8 5.6-3.3 10.3-4.6 14.2 2.6-5.8 6-13.3 9.1-20.9 2.7-6.8 5.7-16.8 6.7-20 .6.4 1.2.8 1.6.8.4 0 .7 0 1.1-.1-1.8 5-7 19.7-10 26.2-3.8 8.5-6.5 15-8.7 19.3 5.6-8.3 10.7-16.9 15.2-25.8 2.9-5.6 6.5-16.1 7.7-19.4.3.4.6.8 1.1.9.5.2 1 .2 1.6.2z"></path></g><path id="MTBteHk0OTcxMDAwMDAwMDAwMHh6czk4Ng" fill="rgb(82, 121, 111)" d="M195.2 347.5c-1.1-.7-2.3-3.3.6-5.3 7.4-5.1 18-13.9 19.4-16.8 2.9-5.9 12.9-63.9 12.9-63.9l20.9.1s-19.4 62.5-20.9 66.3c-2.3 5.7 2.6 14.5 4.7 19.2-3.3 1.5-4.8-.4-6.5-2.3-1.8-2-3.7-4-8.2-2-5.7 2.6-10.4 6.8-16 6.8-2.4 0-4.8-.7-6.9-2.1zm180-56.2l-31.6-13.1 7.1-17.4 31.9 23.4c7.6 1.9 14.9 4.8 21.7 8.7 1.4 1.2 3 3.8-2.7 3.3s-11.7-.6-12.5 1.3 2.7 4.3 1.1 6.9c-.1.2-.4.4-.7.4-1.9 0-6.7-4.5-14.3-13.5z" coriginal="rgb(178,139,103)" colortype="13" awdzp="13" style="fill: rgb(82, 121, 111);"></path><path id="MTBteHkxOTEwMDAwMDAwMDAweHpzNTgy" fill="rgb(118, 94, 123)" d="M287.5 173.8l8.6-1.5c32.1 27.7 45.3 80.9 84.6 109.1l-9.5 11.7c-68.1-8.3-85-73.2-83.7-119.3z" coriginal="rgb(232,118,19)" colortype="11" awdzp="11" style="fill: rgb(118, 94, 123);"></path><path id="MTBteHk0OTkxMDAwMDAwMDAwMHh6czI2Mw" fill="rgb(245, 245, 245)" d="M249.8 282.5h76.5c3.5 0 2.8-5 2.3-7.6-5.8-29.4-28.6-61.1-28.6-102.9l-22.1-3.5c-18.1 29.4-24.5 65.5-28.1 114z" coriginal="rgb(221,227,233)" colortype="2" awdzp="2" style="fill: rgb(245, 245, 245);"></path><path id="MTBteHk2NDcxMDAwMDAwMDAwMHh6czg0NQ" fill="rgb(187, 195, 182)" d="M214.8 324.5c-1.8-57.1 19.8-101 37.9-127.5-4.2-.1-8-2.4-9.9-6.1-8.1-14.6-5.2-22.6 3.5-25.2 8.6-2.6 16.3 2.8 30 2.8.5 0 1.1 0 1.6.1l7.3.4s29.7 100.8 16.4 134.5h-60.5c-2.9 7.2-6.2 14.2-10 21h-16.3z" coriginal="rgb(255,155,33)" colortype="7" awdzp="7" style="fill: rgb(187, 195, 182);"></path><path id="MTBteHkyNTExMDAwMDAwMDAwMHh6czgyMw" d="M263.8 303.5h-22.6c4.1-10 8.7-22.2 13.6-36.5 2.1 17.6 5.1 29.9 9 36.5z" opacity=".5"></path></svg>