<!--?undefined undefined?--><svg xmlns="http://www.w3.org/2000/svg" id="svgid7" viewBox="0 0 600 600" repair="1" xmlns:xlink="http://www.w3.org/1999/xlink"><g id="MTBteHk3NDkxMDAwMDAwMDAwMHh6czE0NA" transform="translate(153 281.3)"><path id="MTBteHk4MTkxMDAwMDAwMDAwMHh6czE0OQ" fill="rgb(67, 106, 96)" d="M97.4 98.1s36 10.1 62.1 10.1S208 92.7 208 92.7s-35.2-10.3-58-10.3-52.6 15.7-52.6 15.7z" coriginal="rgb(31,40,207)" colortype="16" awdzp="16" style="fill: rgb(67, 106, 96);"></path><path id="MTBteHkzNzEwMDAwMDAwMDAweHpzNDEw" fill="rgb(44, 83, 73)" d="M180.3 117.8c-.2-.4-.4-.7-.6-1.1-3.2-8.5-54.6-100-59.7-116.7h57.8c3.9 12.7 21.4 92.5 23.9 108.4 7.8 25.1 23.8 106.5 25.8 112.1 2.2 5.9-9.9 12.1-13.2 4.8-5.1-11.6-17.3-43.7-22.8-63.3-5-18.3-9.2-34.8-11.2-44.2z" coriginal="rgb(153,118,89)" colortype="17" awdzp="17" style="fill: rgb(44, 83, 73);"></path><path id="MTBteHkzNzEwMDAwMDAwMDAweHpzNDEw-2" fill="rgb(82, 121, 111)" d="M133 129c-23.5 5.9-109.4 16.7-115.3 18.3-6.1 1.7-11.4-10.8-3.9-13.5 11.9-4.3 44.8-14.3 64.7-18.3 16-3.3 30.6-5.9 40.5-7.5-.8-27.6-4.6-93.8-2.1-108.1H168c-2.4 13.7-22.6 113.7-26.3 123.7-1.2 3.7-4.8 5.3-8.7 5.4z" coriginal="rgb(178,139,103)" colortype="13" awdzp="13" style="fill: rgb(82, 121, 111);"></path><g id="MTBteHkzMDQxMDAwMDAwMDAwMHh6czExMA" transform="matrix(.174 .985 -.985 .174 38.9 123.49)"><path id="MTBteHk2MTYxMDAwMDAwMDAwMHh6czM5OA" fill="rgb(250, 250, 250)" d="M5.5 24c-1-.4-2.2.2-2.5 1.3v.1l-2 6.7c.1 2.6.4 5.3.9 7.9h56.4s2.2-7.3-2.5-7.8c-4.7-.6-7.9-1-7.9-1L21.7 19.4c-.5-.2-1.1 0-1.3.5L18.7 24s-4.4 2-7.1 2l-6.1-2z" coriginal="rgb(228,228,228)" colortype="1" awdzp="1" style="fill: rgb(250, 250, 250);"></path></g><g id="MTBteHk2NTQxMDAwMDAwMDAwMHh6czMxMw" transform="translate(208 199)"><path id="MTBteHk2MTYxMDAwMDAwMDAwMHh6czM5OA-2" fill="rgb(250, 250, 250)" d="M5.5 24c-1-.4-2.2.2-2.5 1.3v.1l-2 6.7c.1 2.6.4 5.3.9 7.9h56.4s2.2-7.3-2.5-7.8c-4.7-.6-7.9-1-7.9-1L21.7 19.4c-.5-.2-1.1 0-1.3.5L18.7 24s-4.4 2-7.1 2l-6.1-2z" coriginal="rgb(228,228,228)" colortype="1" awdzp="1" style="fill: rgb(250, 250, 250);"></path></g><path id="MTBteHk3OTMxMDAwMDAwMDAwMHh6czY4OQ" fill="rgb(123, 99, 128)" d="M117 0s33.8-9.7 64 0c7 31.9 24 44.6 27 93.6-34 16.9-76-12-111 4.4-10-23 4-78.5 20-98z" coriginal="rgb(43,68,255)" colortype="10" awdzp="10" style="fill: rgb(123, 99, 128);"></path></g><g id="MTBteHk3MTAwMDAwMDAwMDB4enM0MzI" transform="translate(242 65)"><g id="MTBteHk5MDkxMDAwMDAwMDAwMHh6czE1OQ" transform="translate(54 31)"><path id="MTBteHk5MDkxMDAwMDAwMDAwMHh6czE1OQ-2" fill="rgb(82, 121, 111)" d="M0 73l8.3-38.5C3.7 29.1.6 22.5 1.1 15c1.5-21.4 31.2-16.7 37-5.9s5.1 38.2-2.4 40.1c-3 .8-9.3-1.1-15.8-5L24 73H0z" coriginal="rgb(178,139,103)" colortype="13" awdzp="13" style="fill: rgb(82, 121, 111);"></path></g><path id="MTBteHkzNDUxMDAwMDAwMDAwMHh6czc2MA" fill="rgb(32, 47, 55)" d="M44.6 38.9c-.7-.8-1.3-1.8-1.6-2.9-.4-1.1-.7-2.2-1-3.3-.5-2.2-.5-4.8 1.1-6.6 1.3-1.3 3.1-2.1 5-2.2 1.2-.1 2.4.1 3.5.4 1.1.4 2.1 1.1 3.2 1.6 0-2.4.5-4.9 1.7-7 1.1-1.9 3-3.1 5.2-3.4 2.2-.3 4.4.2 6.4 1.3.5.3 1 .5 1.5.9.4.3.8.5 1.3.7.5.1.8-.2 1.1-.5.4-.4.8-.8 1.3-1.2 2-1.6 4.7-2.1 7.1-1.2 1.1.4 2.2 1.2 2.9 2.1.7.9 1.1 2.3 2.1 2.9.4.3.7-.1 1-.3.5-.4 1-.8 1.6-1.2.7-.5 1.6-.9 2.5-1.1 1.3-.3 3.1-.2 3.4 1.5.1.6.1 1.3 0 1.9-.1.9-.1 1.8-.2 2.6-.1.7-.1 1.3-.3 2-.1.4-.2.9-.1 1.3.2.4 1 .2 1.4.2.7 0 1.5.2 2.1.5.6.2 1 .6 1.3 1.2.1.4.1.7 0 1.1 0 .4 0 .8.1 1.1 1-.5 4.3-1.5 4.8.2.1.6-.1 1.2-.4 1.7-.4.8-1 1.6-1.6 2.4-1.2 1.5-2.6 2.9-4.2 4.1 1.4.6 2 2.2 1.4 3.6-.2.4-.4.7-.7 1-.7.6-1.6.8-2.5.7-.3-.1-.7-.1-1-.1-.2.1-.3.1-.5.2-1.3 0-2.6-.1-3.8-.5-2.2-.5-4.2-1.5-5.8-3.1-.3-.4-.8-.6-1.4-.6-.5 0-1 .1-1.5.2-1.3-.1-2.6-.5-3.8-1-.1 1.7-.5 3.4-1.2 5-.6 1.2-1.7 1.4-2.9 1.5-3.6.3-7.3 0-11 0 3.5.8 7.2 1.1 10.7 2.1 1.6.4.4 1.5-.3 2.2-1.1 1.3-2 2.7-2.5 4.3-1.7-2.3-4.8-3.7-7.5-3-3 .8-5.1 4.8-3.2 7.7 1.1 1.7 3.1 2.3 4.8 3.1-1.3 1.4-1.6 3.4-2.4 5-.3.9-.9 1.6-1.8 2.1-.3 0-.7.2-.9.4-.3.3-.4.7-.8 1-1.7 1.2-4 1-5.5-.4-1.1-1.4-1.1-3.4.1-4.7-1.7-.7-4.8-1.6-4.1-4.3-3.7-.5-12.6-6.5-7.7-10.8-2.7-1.5-5.2-5.3-3.5-8.6 1.4-2.5 4.5-3.7 7.1-3.8" coriginal="rgb(25,24,71)" colortype="21" awdzp="21" style="fill: rgb(32, 47, 55);"></path></g><g id="MTBteHkzNDExMDAwMDAwMDAwMHh6czg5Nw" transform="translate(180.776 156)"><path id="MTBteHkyNjYxMDAwMDAwMDAwMHh6czQ2OQ" fill="rgb(44, 83, 73)" d="M213 58.7l15.2-8.4s3.2-12.2 7.7-12.3c1.2-.5.7 1.8.5 4.2-.2 2.3-.1 4.6 2.1 4.2 4.3-.9 14.9-8.8 16.7-7.2 2.7 2.4.3 9.6-2.5 13.2-5.3 6.7-9.7 9.1-20.5 12.1-8.5 2.4-18.4 9.5-18.4 9.5l-.8-15.3zm-54.4-16l34.7-19c4.9-6.1 10.7-11.4 17.1-16 1.7-.7 4.7-1.1 1.9 3.8-2.8 5-5.5 10.3-4.1 11.9.6.7 1.7.6 2.8.6 1.4 0 3-.1 3.9 1.3 1.1 1.7-4.9 4.4-18.2 8l-25.2 23.1-12.9-13.7z" coriginal="rgb(153,118,89)" colortype="17" awdzp="17" style="fill: rgb(44, 83, 73);"></path><path id="MTBteHk3ODEwMDAwMDAwMDAweHpzNTcw" fill="rgb(47, 62, 70)" d="M141.7 38.5c16.2-.1 32.1-4.9 45.7-13.7l6.8 15.1c-11.9 11.8-28.7 21.6-43.4 21.2-11.5-.3-17.5-14.3-9.1-22.6z" coriginal="rgb(32,38,162)" colortype="18" awdzp="18" style="fill: rgb(47, 62, 70);"></path><path id="MTBteHk5OTIxMDAwMDAwMDAwMHh6czMzOA" fill="rgb(67, 106, 96)" d="M110.6 142.5c-12.2-1.6-23.6-3.2-30.2-1.9C69.2 103.9 91 88.9 91.1 65.4 91.1 39.6 111.8 0 114.8 0h27.7c1.5 19.7 9.2 41.3 15.6 62.7 20.2 4.6 64.9-11.4 64.9-11.4s11.3 23.4 10.5 33.3c-26.1 13.6-48.4 19.7-66.8 20.1.6 10.9-.7 21.3-5.2 30.8-3.3 7.1-12.6 9.2-23.9 9.2-8.4.1-17.9-1-27-2.2z" coriginal="rgb(31,40,207)" colortype="16" awdzp="16" style="fill: rgb(67, 106, 96);"></path></g></svg>