<!--?undefined undefined?--><svg xmlns="http://www.w3.org/2000/svg" id="svgid10" viewBox="0 0 600 600" repair="1" xmlns:xlink="http://www.w3.org/1999/xlink"><g id="MTBteHk4NTkxMDAwMDAwMDAwMHh6czQ1MQ" transform="translate(60.66 34.848)"><path id="MTBteHkyOTgxMDAwMDAwMDAwMHh6czEwMA" fill="rgb(82, 121, 111)" d="M188.1 169.1l9.3-43.3c-5.2-6.1-8.7-13.5-8.1-21.9 1.7-24.1 35.2-18.8 41.7-6.6s5.7 42.9-2.7 45.1c-3.4.9-10.5-1.3-17.8-5.6l4.6 32.3h-27z" coriginal="rgb(178,139,103)" colortype="13" awdzp="13" style="fill: rgb(82, 121, 111);"></path></g><path id="MTBteHk5OTUxMDAwMDAwMDAwMHh6czEyMg" fill="rgb(32, 47, 55)" d="M257.8 162.3c-2.3-.2-5.1-3.1-7.4-7.7-2.4-4.6-3.7-9.6-3.8-14.8 0-5.4 2.3-10.6 6.3-14.2 4.5-4 10.8-6 18.4-6 3.1 0 6.2.3 9.2 1 2.2.5 4.3 1.4 6.2 2.6 2.9 2 4.6 4.7 4.8 7.6-5.5 1.5-15.1 2.3-29.3 2.3h-3.3v1.1l13.5 1.1 2.2 6.7h-.5c-2.9 0-5.3 1.7-7.6 5.5-.9-.6-2-1-3.1-1-3.1.1-5.5 2.5-5.6 5.6-.2 2.6 1.2 5 3.4 6.2-1.3 2.6-2.3 3.8-3.4 4z" coriginal="rgb(25,24,71)" colortype="21" awdzp="21" style="fill: rgb(32, 47, 55);"></path><path id="MTBteHk2NzMxMDAwMDAwMDAwMHh6czgxMw" fill="rgb(82, 121, 111)" d="M379 468.5c-1.1-14.2-3.2-63.3-1.1-86.2.6-6.9 1.3-13.5 1.9-19.7-19.9 36-51.4 87.5-51.4 87.5l-12.8-5.9s15-50.2 24.7-70.9c11-23.6 21.3-43.9 25.6-51 5.7-9.4 15-8.2 21.6-3.5 8-10.9 27.9-3.7 27.8 5.4 0 23.8-21.4 136.7-22.6 143.9-.6 3.9-4.4 6.3-7.9 6.3-2.8-.1-5.4-1.9-5.8-5.9z" coriginal="rgb(178,139,103)" colortype="13" awdzp="13" style="fill: rgb(82, 121, 111);"></path><path id="MTBteHk5MDcxMDAwMDAwMDAwMHh6czY5MQ" fill="rgb(67, 106, 96)" d="M316.6 425.5l43.8-105.3c10.5-17.1 39.9 3.5 36.3 13.4-8.1 22.5-49.5 95.5-51.9 102.3l-28.2-10.4z" coriginal="rgb(31,40,207)" colortype="16" awdzp="16" style="fill: rgb(67, 106, 96);"></path><path id="MTBteHk5NDIxMDAwMDAwMDAwMHh6czU1OQ" fill="rgb(123, 99, 128)" d="M416.5 332.3c0 29.8-12.9 100-12.9 106.5l-31.2-1.1s8.2-91.5 6.9-92.1c-1.9-.9-78.9 10.8-101.9 11.7-33.3 1.3-47-19.4-48.2-58.7h64.5s82.7 10 108.7 13.9c11 1.7 14.1 11.5 14.1 19.8z" coriginal="rgb(43,68,255)" colortype="10" awdzp="10" style="fill: rgb(123, 99, 128);"></path><g id="MTBteHk3MzQxMDAwMDAwMDAwMHh6czM4OQ" transform="translate(212.914 114.032) rotate(14)"><path id="MTBteHk4NDAxMDAwMDAwMDAwMHh6czM3Mg" fill="rgb(250, 250, 250)" d="M180.2 291.1c-1.1-.4-2.4.2-2.8 1.4v.1l-2.1 7.5c.2 3 .5 5.9 1 8.9l62.6.2s2.4-8.2-2.8-8.8c-5.3-.7-8.7-1.2-8.7-1.2L198.2 286c-.6-.3-1.2 0-1.5.5l-1.9 4.6s-4.9 2.3-7.9 2.3l-6.7-2.3z" coriginal="rgb(228,228,228)" colortype="1" awdzp="1" style="fill: rgb(250, 250, 250);"></path></g><g id="MTBteHkxODMxMDAwMDAwMDAwMHh6czkwNQ" transform="translate(269.378 124.778)"><path id="MTBteHk4NDAxMDAwMDAwMDAwMHh6czM3Mg-2" fill="rgb(250, 250, 250)" d="M111.1 325.3c-1.2-.4-2.4.2-2.8 1.4v.1l-2.1 7.5c.2 3 .5 5.9 1 8.9h62.5s2.4-8.2-2.8-8.8c-5.3-.7-8.7-1.2-8.7-1.2l-29.2-13c-.6-.2-1.2 0-1.5.6l-1.9 4.6s-4.9 2.3-7.9 2.3l-6.6-2.4z" coriginal="rgb(228,228,228)" colortype="1" awdzp="1" style="fill: rgb(250, 250, 250);"></path></g><path id="MTBteHkzMzcxMDAwMDAwMDAwMHh6czE2NA" fill="rgb(42, 57, 65)" d="M380.5 468.1h50.9c2.2 0 3.9 1.8 3.9 3.9 0 2.2-1.8 3.9-3.9 3.9h-50.9c-2.2 0-3.9-1.8-3.9-3.9 0-2.2 1.8-3.9 3.9-3.9z" coriginal="rgb(47,54,118)" colortype="19" awdzp="19" style="fill: rgb(42, 57, 65);"></path><path id="MTBteHk1NDgxMDAwMDAwMDAwMHh6czEw" fill="rgb(42, 57, 65)" d="M224.7 305.1h120.8c5.5 0 10 4.5 10 10v56.3H218.7c-2.2 0-4-1.8-4-4v-52.3c0-5.5 4.5-10 10-10z" coriginal="rgb(47,54,118)" colortype="19" awdzp="19" style="fill: rgb(42, 57, 65);"></path><path id="MTBteHk1NDgxMDAwMDAwMDAwMHh6czQyMg" fill="rgb(42, 57, 65)" d="M344.4 305.1h2.4c5.5 0 10.1 4 10.9 9.4L382 464.7h-11.8" coriginal="rgb(47,54,118)" colortype="19" awdzp="19" style="fill: rgb(42, 57, 65);"></path><circle id="MTBteHk1MTYxMDAwMDAwMDAwMHh6czkx" cx="376.6" cy="466.7" r="20" fill="rgb(32, 47, 55)" coriginal="rgb(25,24,71)" colortype="21" awdzp="21" style="fill: rgb(32, 47, 55);"></circle><g id="MTBteHkyMDExMDAwMDAwMDAwMHh6czY1" transform="translate(39.908 15.738)"><path id="MTBteHkyMDExMDAwMDAwMDAwMHh6czY1-2" fill="rgb(32, 47, 55)" d="M189.3 469.2c-11.3 0-22.4-2.3-32.8-6.7-5-2.2-9.8-4.8-14.3-7.9-39.1-27-49-80.6-22-119.7 2.8-4.1 6-8 9.5-11.6 3.8-3.9 8-7.4 12.5-10.4 4.5-3.1 9.3-5.7 14.3-7.9 20.9-9 44.6-9 65.6 0 5 2.2 9.8 4.8 14.3 7.9 39.1 27 49 80.6 22 119.7-2.8 4.1-6 8-9.5 11.6-3.8 3.9-8 7.4-12.5 10.4-4.5 3.1-9.3 5.7-14.3 7.9-10.4 4.4-21.6 6.7-32.8 6.7zm0-155.1c-37.9 0-68.7 31.3-68.7 69.7s30.8 69.7 68.7 69.7 68.7-31.3 68.7-69.7-30.9-69.7-68.7-69.7z" coriginal="rgb(25,24,71)" colortype="21" awdzp="21" style="fill: rgb(32, 47, 55);"></path><path id="MTBteHk1NDgxMDAwMDAwMDAwMHh6czQyMg-2" fill="rgb(32, 47, 55)" d="M184.8 309.6h8.9V458h-8.9z" coriginal="rgb(25,24,71)" colortype="21" awdzp="21" style="fill: rgb(32, 47, 55);"></path><path id="MTBteHk1NDgxMDAwMDAwMDAwMHh6czQyMg-3" fill="rgb(32, 47, 55)" d="M239.4 329.7l3.1 3.2c.9.9.9 2.3 0 3.2L142.2 437.8c-.9.9-2.2.9-3.1 0l-3.1-3.2c-.9-.9-.9-2.3 0-3.2l100.3-101.7c.8-.8 2.2-.9 3.1 0z" coriginal="rgb(25,24,71)" colortype="21" awdzp="21" style="fill: rgb(32, 47, 55);"></path><path id="MTBteHk1NDgxMDAwMDAwMDAwMHh6czQyMg-4" fill="rgb(32, 47, 55)" d="M262.4 381.3v5c0 1.1-.9 2-2 2H118.1c-1.1 0-2-.9-2-2v-5c0-1.1.9-2 2-2h142.3c1.1 0 2 .9 2 2z" coriginal="rgb(25,24,71)" colortype="21" awdzp="21" style="fill: rgb(32, 47, 55);"></path><path id="MTBteHk1NDgxMDAwMDAwMDAwMHh6czQyMg-5" fill="rgb(32, 47, 55)" d="M242.6 434.6l-3.1 3.2c-.9.9-2.2.9-3.1 0L136 336.1c-.9-.9-.9-2.3 0-3.2l3.1-3.2c.9-.9 2.2-.9 3.1 0l100.3 101.7c.9.9.9 2.4.1 3.2z" coriginal="rgb(25,24,71)" colortype="21" awdzp="21" style="fill: rgb(32, 47, 55);"></path></g><path id="MTBteHk2NzMxMDAwMDAwMDAwMHh6czgxMw-2" fill="rgb(44, 83, 73)" d="M149.2 380.4c-1.3-.8-2.6-3.7.7-6 8.3-5.7 20.2-15.6 21.8-18.9 3.3-6.7 32.1-92.7 32.1-92.7l24.6.1s-40.5 91.1-42.2 95.4c-2.6 6.4 2.9 16.3 5.3 21.5-3.7 1.7-5.4-.5-7.3-2.6-2-2.3-4.2-4.5-9.2-2.2-6.4 3-11.7 7.7-17.9 7.7-2.8.1-5.5-.8-7.9-2.3zm193.9-127.8l44.4-6.1c8.9-4.9 17-8.3 24.5-10 2.1-.1 5.4.7.5 4.8-5 4.1-10 8.7-9.1 10.9s5.5 1.4 6.3 4.8c.5 2.3-7 2.6-22.5 1.1l-36 14.3-8.1-19.8z" coriginal="rgb(153,118,89)" colortype="17" awdzp="17" style="fill: rgb(44, 83, 73);"></path><path id="MTBteHkyNDAxMDAwMDAwMDAwMHh6czUyNw" fill="rgb(197, 205, 192)" d="M271.2 184.8l19.3 1.3c4.7 42.9 30.6 70 88.4 60.9l7.7 55.3c-54.1 7-101.5-14.7-111.2-73.3-2.5-15.2-4.5-31-4.2-44.2z" coriginal="rgb(175,185,197)" colortype="5" awdzp="5" style="fill: rgb(197, 205, 192);"></path><path id="MTBteHk1OTAxMDAwMDAwMDAwMHh6czMwMw" fill="rgb(202, 210, 197)" d="M175.1 344.4c13.4-71.2 41.6-126.3 84.7-165.2h1.9l29.2 6.7c0 50.2 16 82.3 24.2 119.2h-78.8c-1.1 12.8-1.8 25.9-2.1 39.3h-59.1z" coriginal="rgb(197,207,214)" colortype="4" awdzp="4" style="fill: rgb(202, 210, 197);"></path><path id="MTBteHkyODMxMDAwMDAwMDAwMHh6czIyMA" d="M252.3 305.1h-16c2.4-27.7 6.6-51.7 13-73.5-1.5 23.2-2 54.8 3 73.5z" opacity=".5"></path></svg>