<!--?undefined undefined?--><svg xmlns="http://www.w3.org/2000/svg" id="svgid9" viewBox="0 0 600 600" repair="1" xmlns:xlink="http://www.w3.org/1999/xlink"><path fill="none" d="M0 0h600v600H0z"></path><g id="MTBteHk3NzQxMDAwMDAwMDAwMHh6czgxMw" transform="translate(60.66 34.848)"><path id="MTBteHk2ODAxMDAwMDAwMDAwMHh6czIy" fill="rgb(82, 121, 111)" d="M215.1 150.1l9.3-43.3c-5.2-6.1-8.7-13.5-8.1-21.9 1.7-24.1 35.2-18.8 41.7-6.6s5.7 42.9-2.7 45.1c-3.4.9-10.5-1.3-17.8-5.6l4.6 32.3h-27z" coriginal="rgb(178,139,103)" colortype="13" awdzp="13" style="fill: rgb(82, 121, 111);"></path></g><path id="MTBteHkzNzcxMDAwMDAwMDAwMHh6czgyNQ" fill="rgb(32, 47, 55)" d="M321.2 118.6c-.4-1.6-.8-3.3-1.4-4.8-.7-1.9-1.7-3.7-2.8-5.3-2.1-3.1-4.6-5.8-7.5-8.1-5.2-4.2-11.7-6.6-18.2-5.8-3.3.4-6.5 1.7-9.1 3.7-2.4 1.9-4.8 4.6-7.9 4.8-3.4.2-6.6-2.8-9.3-4.7-3-2.1-6.4-3.6-10-4.2-6-1.1-12.1 1.2-15.9 6-4.4 5.3-7.7 13.1-4.8 20.1.5 1.3 1.3 2.4 2.2 3.3.9.8 2.3 1.7 2.7 3.1.4 1.4-.8 3.3-1.2 4.5-.8 1.8-1.1 3.8-1 5.8.3 3.3 2.4 6.4 4.5 8.6 2.2 2.1 4.9 3.5 7.8 4 1.9.4 3.9.6 5.9.5.9-.1 1.9-.3 2.8-.6.8-.2 1.6 0 2.2.5 3.5 2.3 7.6 3.3 11.7 2.9 3.5-.3 7.6-1.2 10.5-3.6 3.2-2.7 3.1-6.4 2.4-10.4.8.4 3 .6 1.7-.9-.6-.5-1.4-1-2.2-1.3-.8-.4-1.6-1-2.2-1.7-2.5-2.8 0-8.6 3.1-9.5 4.6-1.4 5.6 5.1 8.9 6.8 1.9 1 3.8-.4 5.3-1.7 1.8-1.9 3.3-4.2 4.3-6.6l2.7-6c.4-.9 1.9-3.6 1.2-4.6 3.3-.7 6.9.7 9.8 2.5 1.2.7 2.1 1.7 2.7 2.9.1.3.4 1.1.8 1.1.6-.1.4-.9.3-1.3" coriginal="rgb(25,24,71)" colortype="21" awdzp="21" style="fill: rgb(32, 47, 55);"></path><path id="MTBteHk3NzMxMDAwMDAwMDAwMHh6czE3OQ" fill="rgb(202, 210, 197)" d="M309.1 465.9H199.2c-8.8 0-16-7.2-16-16V342.5c0-8.8 7.2-16 16-16h109.9c8.8 0 16 7.2 16 16v107.4c0 8.9-7.1 16-16 16zM214.2 358c-2.2 0-4 1.8-4 4v68.4c0 2.2 1.8 4 4 4h79.9c2.2 0 4-1.8 4-4V362c0-2.2-1.8-4-4-4h-79.9z" coriginal="rgb(197,207,214)" colortype="4" awdzp="4" style="fill: rgb(202, 210, 197);"></path><path id="MTBteHk1NDExMDAwMDAwMDAwMHh6czkx" fill="rgb(82, 121, 111)" d="M420.9 460.3c-19-27.1-31.9-47.1-38.6-60.2-11.5-22.4-20.9-42.3-23.9-49.9-7.1-18.1 16.3-26.6 21.6-18.2 8 12.8 25.2 53.1 51.4 120.8l-10.5 7.5z" coriginal="rgb(178,139,103)" colortype="13" awdzp="13" style="fill: rgb(82, 121, 111);"></path><path id="MTBteHk1NDExMDAwMDAwMDAwMHh6czkx-2" fill="rgb(42, 57, 65)" d="M381.9 452.4l-35.4-103.8c-7.6-18.9 29-31.4 34.6-22.6 12.6 20 42.7 98.9 46.5 104.8l-45.7 21.6z" coriginal="rgb(47,54,118)" colortype="19" awdzp="19" style="fill: rgb(42, 57, 65);"></path><g id="MTBteHk3NzUxMDAwMDAwMDAwMHh6czMyMQ" transform="translate(217.746 59.578) rotate(39)"><path id="MTBteHk1NDExMDAwMDAwMDAwMHh6czkx-3" fill="rgb(82, 121, 111)" d="M288.3 245.2c-2-13.5-7.3-59.9-7-81.2.1-6.1.3-12 .4-17.6.5-16.5 30.4-13.7 29.2 1.9-3 38.8-9.4 93.1-9.8 97.8-.4 6.7-11.5 7.6-12.8-.9z" coriginal="rgb(178,139,103)" colortype="13" awdzp="13" style="fill: rgb(82, 121, 111);"></path></g><g id="MTBteHk4MTUxMDAwMDAwMDAwMHh6czcwNw" transform="translate(167.135 120.764) rotate(30)"><path id="MTBteHkxMDQxMDAwMDAwMDAwMHh6czYxMg" fill="rgb(250, 250, 250)" d="M261.1 202.4c-.9-.4-1.9-.1-2.3.8-.1.1-.1.3-.1.5l-1.5 7.2c.3 2.9.8 5.8 1.4 8.6l56.7 3.9s1.7-7.7-3.1-8.7c-4.8-1-8-1.7-8-1.7L277 198.5c-.4-.3-1-.1-1.2.3 0 .1-.1.1-.1.2l-1.4 4.3s-4.3 1.9-7 1.7l-6.2-2.6z" coriginal="rgb(228,228,228)" colortype="1" awdzp="1" style="fill: rgb(250, 250, 250);"></path></g><g id="MTBteHk4MTUxMDAwMDAwMDAwMHh6czcwNw-2" transform="translate(278.097 148.384)"><path id="MTBteHkxMDQxMDAwMDAwMDAwMHh6czYxMg-2" fill="rgb(250, 250, 250)" d="M137.3 305.7c-1-.3-2.1.2-2.4 1.2v.1l-1.8 6.6c.1 2.6.4 5.2.9 7.7h54.5s2.1-7.1-2.5-7.7c-4.6-.6-7.6-1-7.6-1l-25.3-11.4c-.5-.2-1.1 0-1.3.5l-1.6 4s-4.2 2-6.9 2l-6-2z" coriginal="rgb(228,228,228)" colortype="1" awdzp="1" style="fill: rgb(250, 250, 250);"></path></g><path id="MTBteHk4MTgxMDAwMDAwMDAwMHh6czYwNg" fill="rgb(72, 111, 101)" d="M333.7 353.8s-44.2-8.4-59.2-11.5c-28.5-5.9-36.8-23.7-31.9-62.7h52.5c10.4 3.5 87.1 43.4 87.1 43.4 9.2 5.3 7.5 21 5.8 26.2-.1.3-46.5 92.8-46.5 92.8l-43-31.9 35.2-52.6c.1.1 1.5-3.2 0-3.7z" coriginal="rgb(92,99,171)" colortype="15" awdzp="15" style="fill: rgb(72, 111, 101);"></path><path id="MTBteHkyNjAxMDAwMDAwMDAwMHh6czkw" fill="rgb(82, 121, 111)" d="M180.7 349.2c-1.3-.8-2.6-3.6.7-5.8 8.3-5.5 20.2-15.2 21.8-18.4 3.3-6.5 19.7-90.4 19.7-90.4l24.6.1s-28.1 88.9-29.8 93.1c-2.6 6.3 2.9 15.9 5.3 21-3.7 1.6-5.4-.4-7.3-2.5-2-2.2-4.2-4.4-9.2-2.1-6.4 2.9-11.7 7.5-17.9 7.5-2.8-.2-5.5-1-7.9-2.5zm220.4-50.3l-33.1-19 10.6-17.8 31.8 30.3c9.3 3.9 16.8 8.1 22.8 12.8 1.3 1.6 2.8 4.6-3.5 3.2-6.3-1.3-12.9-2.5-14.1-.5-1.2 2 2.3 5 .1 7.6-.2.2-.4.3-.7.3-2-.1-6.6-5.7-13.9-16.9z" coriginal="rgb(178,139,103)" colortype="13" awdzp="13" style="fill: rgb(82, 121, 111);"></path><path id="MTBteHkzNjIxMDAwMDAwMDAwMHh6czU0NQ" fill="rgb(77, 116, 106)" d="M297.9 166.5l9.7-1.6c15.3 52.8 93.9 88.7 98.7 108.5 1.8 7.2-3.6 10.9-.8 13.1l-12.6 9c-2.1-2.4-6.7 2-16.2-1.1-9.5-3.2-78.8-65.4-78.8-127.9z" coriginal="rgb(219,39,33)" colortype="14" awdzp="14" style="fill: rgb(77, 116, 106);"></path><path id="MTBteHkyODIxMDAwMDAwMDAwMHh6czk2MQ" fill="rgb(128, 104, 133)" d="M204.6 319.6c1.1-6-6.7-9-4.6-22.5 11.8-76.4 57.1-117.4 75.4-131.1l.5-6.4c.2-2.4 2.4-4.3 4.8-4.1l30.3 2.1c2.4.1 4.3 2.2 4.2 4.7l-.8 11.3c-1.1 69.9 40.3 87.7 31.1 115.8-7.6 23.2-80.5 48-93.1 25.3-5.1-9.1-7.4-20.1-7.7-32-3.2 9-5.8 17.1-7.7 23.6-3.2 11.6-15.8 13.4-15.8 17.9l-16.6-4.6z" coriginal="rgb(255,65,51)" colortype="9" awdzp="9" style="fill: rgb(128, 104, 133);"></path></svg>