<!--?undefined undefined?--><svg xmlns="http://www.w3.org/2000/svg" id="svgid1" viewBox="0 0 600 600" repair="1" xmlns:xlink="http://www.w3.org/1999/xlink"><g id="MTBteHk3NzIxMDAwMDAwMDAwMHh6czg2NA" transform="translate(221 64)"><path id="MTBteHk2NzQxMDAwMDAwMDAwMHh6czg1MA" fill="rgb(32, 47, 55)" d="M61 77.7c11.4 0 15.6-13.7 22.1-21.2 4.6-5.4 12.6-3.8 14.9-11.3C103.9 26.3 88.1 13 67.5 13S33 24.7 30 42.2s10.4 35.5 31 35.5z" coriginal="rgb(25,24,71)" colortype="21" awdzp="21" style="fill: rgb(32, 47, 55);"></path><g id="MTBteHk4MTEwMDAwMDAwMDAweHpzNzEw" transform="translate(54 31)"><path id="MTBteHk4MTEwMDAwMDAwMDAweHpzNzEw-2" fill="rgb(82, 121, 111)" d="M0 73l8.3-38.5C3.7 29.1.6 22.5 1.1 15c1.5-21.4 31.2-16.7 37-5.9s5.1 38.2-2.4 40.1c-3 .8-9.3-1.1-15.8-5L24 73H0z" coriginal="rgb(178,139,103)" colortype="13" awdzp="13" style="fill: rgb(82, 121, 111);"></path></g><path id="MTBteHk4NzUxMDAwMDAwMDAwMHh6czQzNA" fill="rgb(32, 47, 55)" d="M61.7 68.1c-1.3 0-3.5-1.3-5.6-3.3-2.5-2.5-4.5-5.4-5.9-8.7-1.6-3.7-2-7.8-1.3-11.8.9-4.7 3.4-9.2 7.6-13.3 4-4.1 9.4-6.4 15.1-6.4 7.1 0 13.1 3.3 16 5.3 4.1 2.8 7.1 6.3 7.3 8.4.1.8-.4 1.6-1.3 1.8h-.2c-4.8.9-14.1 5.5-21.2 11.5-.9-.5-1.9-.7-2.9-.7-3.4 0-6.1 2.6-6.2 6 0 1.3.4 2.6 1.2 3.6-1.2 2.4-2.2 5-2.6 7.6z" coriginal="rgb(25,24,71)" colortype="21" awdzp="21" style="fill: rgb(32, 47, 55);"></path></g><g id="MTBteHk3ODYxMDAwMDAwMDAwMHh6czU4Mg" transform="translate(139 251)"><path id="MTBteHk0NzAxMDAwMDAwMDAwMHh6czM5Ng" fill="rgb(44, 83, 73)" d="M128 0l37.6 123 18.2 104.6h14.3L178.9 0H128z" coriginal="rgb(153,118,89)" colortype="17" awdzp="17" style="fill: rgb(44, 83, 73);"></path><path id="MTBteHk0NzAxMDAwMDAwMDAwMHh6czM5Ng-2" fill="rgb(82, 121, 111)" d="M114.5 0c2.6 67.5-.5 102.4-1 108.5-.6 6.1-8.4 45.9-27 121.2l15.2-5.2c29.3-69 39.3-104.9 42.7-114 3.4-9.1 12.3-45.9 26.8-110.5h-56.7z" coriginal="rgb(178,139,103)" colortype="13" awdzp="13" style="fill: rgb(82, 121, 111);"></path><g id="MTBteHkyOTYxMDAwMDAwMDAwMHh6czc5" transform="translate(84 199)"><path id="MTBteHk4ODMxMDAwMDAwMDAwMHh6czQwNg" fill="rgb(250, 250, 250)" d="M5.5 24c-1-.4-2.2.2-2.5 1.3v.1l-2 6.7c.1 2.6.4 5.3.9 7.9h56.4s2.2-7.3-2.5-7.8c-4.7-.6-7.9-1-7.9-1L21.7 19.4c-.5-.2-1.1 0-1.3.5L18.7 24s-4.4 2-7.1 2l-6.1-2z" coriginal="rgb(228,228,228)" colortype="1" awdzp="1" style="fill: rgb(250, 250, 250);"></path></g><g id="MTBteHkxNjYxMDAwMDAwMDAwMHh6czg2Mw" transform="translate(178 199)"><path id="MTBteHk4ODMxMDAwMDAwMDAwMHh6czQwNg-2" fill="rgb(250, 250, 250)" d="M5.5 24c-1-.4-2.2.2-2.5 1.3v.1l-2 6.7c.1 2.6.4 5.3.9 7.9h56.4s2.2-7.3-2.5-7.8c-4.7-.6-7.9-1-7.9-1L21.7 19.4c-.5-.2-1.1 0-1.3.5L18.7 24s-4.4 2-7.1 2l-6.1-2z" coriginal="rgb(228,228,228)" colortype="1" awdzp="1" style="fill: rgb(250, 250, 250);"></path></g><path id="MTBteHk4NDAxMDAwMDAwMDAwMHh6czkwMA" fill="rgb(93, 69, 98)" d="M123 0l16 62.7h48.9L180.6 0H123z" coriginal="rgb(105,161,172)" colortype="12" awdzp="12" style="fill: rgb(93, 69, 98);"></path><path id="MTBteHk4NDAxMDAwMDAwMDAwMHh6czkwMA-2" fill="rgb(192, 200, 187)" d="M114 0c-7.9 23.7-3 62.7-3 62.7h49.9L174.6 0H114z" coriginal="rgb(137,197,204)" colortype="6" awdzp="6" style="fill: rgb(192, 200, 187);"></path></g><g id="MTBteHk2MTExMDAwMDAwMDAwMHh6czU2Nw" transform="translate(161 146)"><path id="MTBteHk4NjQxMDAwMDAwMDAwMHh6czE4MA" fill="rgb(82, 121, 111)" d="M35.4 179c-1.1-.7-2.3-3.3.6-5.3 7.4-5.1 18-13.9 19.4-16.8C58.3 151 68.3 93 68.3 93l20.9.1s-19.4 62.5-20.9 66.3c-2.3 5.7 2.6 14.5 4.7 19.2-3.3 1.5-4.8-.4-6.5-2.3-1.8-2-3.7-4-8.2-2-5.7 2.6-10.4 6.8-16 6.8-2.5 0-4.9-.7-6.9-2.1zm178.7-56.2l-29.5-17.4 9.4-16.3 28.3 27.6c7.3 2.9 14.1 6.9 20.3 11.6 1.2 1.4 2.5 4.2-3.1 2.9s-11.5-2.3-12.5-.5c-1 1.8 2 4.6.1 7-.1.2-.4.3-.6.3-1.8.1-5.9-5-12.4-15.2z" coriginal="rgb(178,139,103)" colortype="13" awdzp="13" style="fill: rgb(82, 121, 111);"></path><path id="MTBteHk3NTIxMDAwMDAwMDAwMHh6czc0" fill="rgb(32, 47, 55)" d="M127.7 5.3l8.6-1.5c14.9 37.2 40.9 71 78 101.3l-28 34.1c-37.1-43.2-60-87.9-58.6-133.9z" coriginal="rgb(25,24,71)" colortype="21" awdzp="21" style="fill: rgb(32, 47, 55);"></path><path id="MTBteHk2MDgxMDAwMDAwMDAwMHh6czQw" fill="rgb(245, 245, 245)" d="M90 114h77S140.2 48.9 140.2 3.5L117 0C98.8 29.4 93.6 65.5 90 114z" coriginal="rgb(221,227,233)" colortype="2" awdzp="2" style="fill: rgb(245, 245, 245);"></path><path id="MTBteHkzNjQxMDAwMDAwMDAwMHh6czc5Mg" fill="rgb(42, 57, 65)" d="M55 147C63.4 52 116.5 0 116.5 0h1.5c2.7.1 8.3.3 8.3.3l5.6 16c.9 29.3 10.4 118.2 10.4 118.2H91.9c.1 4.1.3 8.2.6 12.4L55 147z" coriginal="rgb(47,54,118)" colortype="19" awdzp="19" style="fill: rgb(42, 57, 65);"></path><path id="MTBteHk3NjcxMDAwMDAwMDAwMHh6czI0Nw" d="M106 135H92c-.3-16.6.9-33.2 3.8-49.5.6 9.3 1.8 18.5 3.4 27.7 1.8 9.9 4.1 17.2 6.8 21.8z" opacity=".5"></path><path id="MTBteHkxOTcxMDAwMDAwMDAwMHh6czI1MA" d="M103.1 104L128 92.4V104h-24.9z" opacity=".5"></path></g></svg>