<svg xmlns="http://www.w3.org/2000/svg" width="32" height="32" viewBox="0 0 64 64" id="svgid5" repair="1" xmlns:xlink="http://www.w3.org/1999/xlink"><defs><path id="MTBteHkyNzUxMDAwMDAwMDAwMHh6czQ5NQ" d="M31.75 49h9.625L27.813 7h-9.625L4.625 49h9.625l2.26-7h12.98l2.26 7zM18.77 35L23 21.903 27.23 35h-8.46z"></path></defs><clipPath id="MTBteHk2NTExMDAwMDAwMDAwMHh6czYwMA"><use xlink:href="#MTBteHkyNzUxMDAwMDAwMDAwMHh6czQ5NQ" overflow="visible"></use></clipPath><path fill="rgb(32, 47, 55)" d="M-3 6h52v52H-3z" class="st1" clip-path="url(#MTBteHk2NTExMDAwMDAwMDAwMHh6czYwMA)" coriginal="rgb(71,72,94)" colortype="34" awdzp="34" style="fill: rgb(32, 47, 55);"></path><path d="M46.513 56.4l-28.61 14.616L12.313 55l15.5-48" class="st8" opacity=".25" clip-path="url(#MTBteHk2NTExMDAwMDAwMDAwMHh6czYwMA)"></path><path fill="rgb(255, 255, 255)" d="M2.28 42h14.23l2.26-7H2.28" class="st9" opacity=".2" clip-path="url(#MTBteHk2NTExMDAwMDAwMDAwMHh6czYwMA)" coriginal="rgb(255,255,255)" colortype="0" awdzp="0" style="fill: rgb(255, 255, 255);"></path><defs><path id="MTBteHkyMjQxMDAwMDAwMDAwMHh6czI3Ng" d="M57.37 17.487c-2.18-1.26-4.972-.512-6.23 1.67-1.206 2.09-1.802 4.426-4.182 10.7l-5.43-1.454c-2.432-.65-3.926-.456-5.293 1.912L24.758 50.193S23.188 52 21.906 52H3.656L2.04 57h40.913c4.254 0 5.98-1.133 7.79-4.264 1.808-3.13 6.08-10.535 6.08-10.535 1.37-2.36.792-3.76-.99-5.53l-3.973-3.98c4.243-5.2 5.97-6.88 7.175-8.97 1.26-2.18.514-4.97-1.668-6.22z"></path></defs><clipPath id="MTBteHkxNTAxMDAwMDAwMDAwMHh6czk1Mw"><use xlink:href="#MTBteHkyMjQxMDAwMDAwMDAwMHh6czI3Ng" overflow="visible"></use></clipPath><g class="st4" clip-path="url(#MTBteHkxNTAxMDAwMDAwMDAwMHh6czk1Mw)"><path fill="rgb(37, 76, 66)" d="M61.826 44.974L32.708 46.26l.742-30.478h28.376" class="st5" coriginal="rgb(147,104,78)" colortype="30" awdzp="30" style="fill: rgb(37, 76, 66);"></path><path fill="rgb(172, 180, 167)" d="M31.426 36.418l23.365 13.92-5.19 8.502-49.75-.816 2.38-8.32" class="stshockcolor" data-st="fill:#E5B829;;" coriginal="rgb(229,184,41)" colortype="13" awdzp="13" style="fill: rgb(172, 180, 167);"></path><path fill="rgb(255, 255, 255)" fill-opacity=".3" d="M41.957 37.252c-.43.7-4.27 7.397-6.385 11.06-4.863 8.425-6.556 8.665-10.485 8.665-2.424 0-26.244 1.51-26.244.023l2.587-8s23.563-3.616 26.054-7.932c1.773-3.066 2.193-3.67 2.193-3.67l12.28-.146z" class="st3" coriginal="rgb(255,255,255)" colortype="0" awdzp="0" style="fill: rgb(255, 255, 255);"></path><path fill="rgb(85, 61, 90)" d="M49.363 58.665s-19.976-1.67-15.08-1.67c4.896 0 6.887-2.003 8.967-5.608l3.896-6.746 8.215 4.5-5.99 9.53z" class="st2" opacity=".1" coriginal="rgb(222,112,71)" colortype="22" awdzp="22" style="fill: rgb(85, 61, 90);"></path><path d="M49.363 58.665s-19.976-1.67-15.08-1.67c4.896 0 6.887-2.003 8.967-5.608l3.896-6.746 8.215 4.5-5.99 9.53z" class="st6" opacity=".1"></path><path fill="rgb(240, 240, 240)" d="M57.666 44.013l-4.57 7.915-23.678-13.67 4.57-7.915 23.678 13.67z" class="st7" coriginal="rgb(209,213,221)" colortype="3" awdzp="3" style="fill: rgb(240, 240, 240);"></path></g></svg>