<svg xmlns="http://www.w3.org/2000/svg" width="32" height="32" viewBox="0 0 64 64" id="svgid3" repair="1" xmlns:xlink="http://www.w3.org/1999/xlink"><path fill="rgb(202, 210, 197)" d="M35.51 24.494H25V19.11S25.945 17 27.11 17c.58 0 1.105.234 1.488.614l6.912 6.88z" class="st5" coriginal="rgb(147,193,207)" colortype="7" awdzp="7" style="fill: rgb(202, 210, 197);"></path><defs><path id="MTBteHk3NzExMDAwMDAwMDAwMHh6czc5NQ" d="M51.62 29L47 21c-12.938 0-19.144.33-21.25 1.513-1.816 1.02-3.75 2.73-6.497 7.487-9.065 1-10.984 1.938-12.486 2.688C4.345 33.898 4 37.438 4 43c0 2 2.063 3 3 3h44c5 0 8-.857 8-3.93V33c0-1.874-1-3-7.38-4z"></path></defs><use fill="rgb(197, 205, 192)" xlink:href="#MTBteHk3NzExMDAwMDAwMDAwMHh6czc5NQ" class="stshockcolor" data-st="fill:#F7C90B;;overflow:visible;" overflow="visible" coriginal="rgb(247,201,11)" colortype="8" awdzp="8" style="fill: rgb(197, 205, 192);"></use><clipPath id="MTBteHkzNDQxMDAwMDAwMDAwMHh6czk2Nw"><use xlink:href="#MTBteHk3NzExMDAwMDAwMDAwMHh6czc5NQ" overflow="visible"></use></clipPath><g class="st2" clip-path="url(#MTBteHkzNDQxMDAwMDAwMDAwMHh6czk2Nw)"><defs><path id="MTBteHk5MDgxMDAwMDAwMDAwMHh6czE5OQ" d="M15.79 44l6.927-12c1.633-2.83 3.635-5.237 4.993-6 1.663-.935 7.29-1 16.768-1H59v21H15l.79-2z"></path></defs><use fill="rgb(67, 106, 96)" xlink:href="#MTBteHk5MDgxMDAwMDAwMDAwMHh6czE5OQ" overflow="visible" opacity=".15" coriginal="rgb(125,28,199)" colortype="26" awdzp="26" style="fill: rgb(67, 106, 96);"></use><clipPath id="MTBteHk0NTgxMDAwMDAwMDAwMHh6czQxOQ"><use xlink:href="#MTBteHk5MDgxMDAwMDAwMDAwMHh6czE5OQ" overflow="visible" opacity=".15"></use></clipPath><path fill="rgb(255, 255, 255)" d="M44.478 25H37v7h11.52l-4.042-7zm-23.31 7H34v-7h-9l-3.833 7z" class="st0" opacity=".7" clip-path="url(#MTBteHk0NTgxMDAwMDAwMDAwMHh6czQxOQ)" coriginal="rgb(255,255,255)" colortype="0" awdzp="0" style="fill: rgb(255, 255, 255);"></path><path d="M4 40h10v6H4zm45 0h10v6H49z" class="st1" opacity=".35"></path><path d="M57.846 40H18.098l1.732-3h38.016" class="st7" opacity=".2"></path><path fill="rgb(255, 255, 255)" d="M10 40H4v-4h3c1.657 0 3 1.343 3 3v1z" class="st8" opacity=".7" coriginal="rgb(255,255,255)" colortype="0" awdzp="0" style="fill: rgb(255, 255, 255);"></path><path fill="rgb(57, 96, 86)" d="M55 40h4v-6h-1c-1.656 0-3 1.343-3 3v3z" class="st6" coriginal="rgb(200,68,29)" colortype="28" awdzp="28" style="fill: rgb(57, 96, 86);"></path></g><defs><circle id="MTBteHkyNjUxMDAwMDAwMDAwMHh6czM3Nw" cx="15.5" cy="44.5" r="6.5"></circle></defs><use fill="rgb(123, 99, 128)" xlink:href="#MTBteHkyNjUxMDAwMDAwMDAwMHh6czM3Nw" overflow="visible" coriginal="rgb(158,165,165)" colortype="17" awdzp="17" style="fill: rgb(123, 99, 128);"></use><clipPath id="MTBteHk4MjExMDAwMDAwMDAwMHh6czk2Nw"><use xlink:href="#MTBteHkyNjUxMDAwMDAwMDAwMHh6czM3Nw" overflow="visible"></use></clipPath><g class="st3" clip-path="url(#MTBteHk4MjExMDAwMDAwMDAwMHh6czk2Nw)"><path d="M22 51H11.748l7.505-13H22" class="st7" opacity=".2"></path><circle cx="15.5" cy="44.5" r="3.5" fill="rgb(235, 235, 235)" class="st9" coriginal="rgb(212,213,209)" colortype="4" awdzp="4" style="fill: rgb(235, 235, 235);"></circle></g><defs><circle id="MTBteHk2ODcxMDAwMDAwMDAwMHh6czY1MA" cx="46.5" cy="44.5" r="6.5"></circle></defs><use fill="rgb(123, 99, 128)" xlink:href="#MTBteHk2ODcxMDAwMDAwMDAwMHh6czY1MA" overflow="visible" coriginal="rgb(158,165,165)" colortype="17" awdzp="17" style="fill: rgb(123, 99, 128);"></use><clipPath id="MTBteHk1NzkxMDAwMDAwMDAwMHh6czE5OA"><use xlink:href="#MTBteHk2ODcxMDAwMDAwMDAwMHh6czY1MA" overflow="visible"></use></clipPath><g class="st4" clip-path="url(#MTBteHk1NzkxMDAwMDAwMDAwMHh6czE5OA)"><path d="M53 51H42.748l7.505-13H53" class="st7" opacity=".2"></path><circle cx="46.5" cy="44.5" r="3.5" fill="rgb(235, 235, 235)" class="st9" coriginal="rgb(212,213,209)" colortype="4" awdzp="4" style="fill: rgb(235, 235, 235);"></circle></g></svg>