<svg xmlns="http://www.w3.org/2000/svg" width="32" height="32" viewBox="0 0 64 64" preserveAspectRatio="none" id="svgid17" repair="1" xmlns:xlink="http://www.w3.org/1999/xlink"><defs><path id="MTBteHk4MDExMDAwMDAwMDAwMHh6czYwMg" d="M57 50c0 3.313-2.687 6-6 6H13c-3.313 0-6-2.687-6-6V21c0-3.313 2.687-6 6-6h38c3.313 0 6 2.687 6 6v29z"></path></defs><use fill="rgb(128, 104, 133)" xlink:href="#MTBteHk4MDExMDAwMDAwMDAwMHh6czYwMg" overflow="visible" coriginal="rgb(166,166,159)" colortype="16" awdzp="16" style="fill: rgb(128, 104, 133);"></use><clipPath id="MTBteHk1NzYxMDAwMDAwMDAwMHh6czU2MQ"><use xlink:href="#MTBteHk4MDExMDAwMDAwMDAwMHh6czYwMg" overflow="visible"></use></clipPath><g class="st6" clip-path="url(#MTBteHk1NzYxMDAwMDAwMDAwMHh6czU2MQ)"><circle cx="32" cy="41.041" r="26.042" fill="rgb(17, 32, 40)" fill-opacity=".3" class="st10" coriginal="rgb(35,31,32)" colortype="37" awdzp="37" style="fill: rgb(17, 32, 40);"></circle></g><defs><path id="MTBteHkzNzIxMDAwMDAwMDAwMHh6czQyNw" d="M27.9 28.936S14.683 34.318 9.57 39.43C5.506 43.494 3.43 47 3.43 60h57.14c0-13-2.075-16.504-6.143-20.57-5.112-5.112-17.48-10.492-17.48-10.492l-9.05-.002z"></path></defs><use fill="rgb(245, 245, 245)" xlink:href="#MTBteHkzNzIxMDAwMDAwMDAwMHh6czQyNw" class="stshockcolor" data-st="fill:#DEDCD9;overflow:visible;" overflow="visible" coriginal="rgb(222,220,217)" colortype="2" awdzp="2" style="fill: rgb(245, 245, 245);"></use><clipPath id="MTBteHk2OTkxMDAwMDAwMDAwMHh6czYxMA"><use xlink:href="#MTBteHkzNzIxMDAwMDAwMDAwMHh6czQyNw" overflow="visible"></use></clipPath><g class="st7" clip-path="url(#MTBteHk2OTkxMDAwMDAwMDAwMHh6czYxMA)"><path fill="rgb(17, 32, 40)" d="M32 35h29.625v26H32z" class="st0" opacity=".15" coriginal="rgb(35,31,32)" colortype="37" awdzp="37" style="fill: rgb(17, 32, 40);"></path></g><path fill="rgb(128, 104, 133)" fill-rule="evenodd" d="M51.063 27.792v5C51.063 41.19 42.528 48 32 48c-10.528 0-19.063-6.81-19.063-15.208 0-1.792.125-5 .125-5h38z" class="st2" clip-rule="evenodd" coriginal="rgb(166,166,159)" colortype="16" awdzp="16" style="fill: rgb(128, 104, 133);"></path><defs><path id="MTBteHkzODMxMDAwMDAwMDAwMHh6czM3Mw" d="M51.063 27.792C51.063 36.19 42.528 43 32 43c-10.528 0-19.063-6.81-19.063-15.208C12.937 27 13 24.84 13 24c0-10.493 8.507-19 19-19 10.494 0 19 8.507 19 19 0 1.083.063 2.5.063 3.792z"></path></defs><use fill="rgb(245, 245, 245)" fill-rule="evenodd" xlink:href="#MTBteHkzODMxMDAwMDAwMDAwMHh6czM3Mw" class="stshockcolor" data-st="fill:#DEDCD9;overflow:visible;" overflow="visible" clip-rule="evenodd" coriginal="rgb(222,220,217)" colortype="2" awdzp="2" style="fill: rgb(245, 245, 245);"></use><clipPath id="MTBteHkzOTYxMDAwMDAwMDAwMHh6czU0Nw"><use xlink:href="#MTBteHkzODMxMDAwMDAwMDAwMHh6czM3Mw" overflow="visible"></use></clipPath><g class="st8" clip-path="url(#MTBteHkzOTYxMDAwMDAwMDAwMHh6czU0Nw)"><defs><circle id="MTBteHkyODIxMDAwMDAwMDAwMHh6czkwMg" cx="32" cy="41.041" r="26.042"></circle></defs><use fill="rgb(27, 42, 50)" fill-rule="evenodd" xlink:href="#MTBteHkyODIxMDAwMDAwMDAwMHh6czkwMg" overflow="visible" clip-rule="evenodd" coriginal="rgb(71,71,94)" colortype="35" awdzp="35" style="fill: rgb(27, 42, 50);"></use><clipPath id="MTBteHk4MzcxMDAwMDAwMDAwMHh6czQ0OQ"><use xlink:href="#MTBteHkyODIxMDAwMDAwMDAwMHh6czkwMg" overflow="visible"></use></clipPath><g class="st9" clip-path="url(#MTBteHk4MzcxMDAwMDAwMDAwMHh6czQ0OQ)"><circle cx="24" cy="21" r="8" fill="rgb(192, 200, 187)" fill-opacity=".5" class="st5" coriginal="rgb(217,147,173)" colortype="9" awdzp="9" style="fill: rgb(192, 200, 187);"></circle><circle cx="42.5" cy="49.5" r="15.5" fill="rgb(225, 225, 225)" fill-opacity=".3" class="st3" coriginal="rgb(133,222,216)" colortype="6" awdzp="6" style="fill: rgb(225, 225, 225);"></circle></g></g><circle cx="45" cy="53" r="5" fill="rgb(27, 42, 50)" fill-rule="evenodd" class="st4" opacity=".7" clip-rule="evenodd" coriginal="rgb(71,71,94)" colortype="35" awdzp="35" style="fill: rgb(27, 42, 50);"></circle><path fill="rgb(27, 42, 50)" fill-opacity=".3" fill-rule="evenodd" d="M13 60h-3v-8h3v8zm6-8h-3v8h3v-8zm6 0h-3v8h3v-8z" class="st1" clip-rule="evenodd" coriginal="rgb(71,71,94)" colortype="35" awdzp="35" style="fill: rgb(27, 42, 50);"></path></svg>