<svg xmlns="http://www.w3.org/2000/svg" width="32" height="32" viewBox="0 0 64 64" id="svgid4" repair="1" xmlns:xlink="http://www.w3.org/1999/xlink"><path fill="rgb(108, 84, 113)" fill-rule="evenodd" d="M16 40c0 1.104-.896 2-2 2h-3c-1.104 0-2-.896-2-2V21c0-1.104.896-2 2-2h3c1.104 0 2 .896 2 2v19z" class="st4" clip-rule="evenodd" coriginal="rgb(188,113,158)" colortype="20" awdzp="20" style="fill: rgb(108, 84, 113);"></path><path fill="rgb(37, 52, 60)" d="M48.427 24.58H23.573l5.192-8.993C29.27 14.71 30.392 14 31.27 14h9.462c.877 0 1.996.71 2.503 1.587l5.192 8.993z" class="stshockcolor" data-st="fill:#565668;;" coriginal="rgb(86,86,104)" colortype="33" awdzp="33" style="fill: rgb(37, 52, 60);"></path><path fill="rgb(255, 255, 255)" d="M48.427 24.58H23.573l5.192-8.993C29.27 14.71 30.392 14 31.27 14h9.462c.877 0 1.996.71 2.503 1.587l5.192 8.993z" class="st2" opacity=".5" coriginal="rgb(255,255,255)" colortype="0" awdzp="0" style="fill: rgb(255, 255, 255);"></path><defs><path id="MTBteHk2ODgxMDAwMDAwMDAwMHh6czY5Nw" d="M56 22.228c1.52.663 3 1.343 3 3V47c0 1.657-1.343 3-3 3H8c-1.657 0-3-1.343-3-3V25.228c0-1.657 1.366-2.688 2.993-3l15.717-3s23.125-1 32.29 3z"></path></defs><use fill="rgb(37, 52, 60)" xlink:href="#MTBteHk2ODgxMDAwMDAwMDAwMHh6czY5Nw" class="stshockcolor" data-st="fill:#565668;;overflow:visible;" overflow="visible" coriginal="rgb(86,86,104)" colortype="33" awdzp="33" style="fill: rgb(37, 52, 60);"></use><clipPath id="MTBteHk1MjUxMDAwMDAwMDAwMHh6czQ2MQ"><use xlink:href="#MTBteHk2ODgxMDAwMDAwMDAwMHh6czY5Nw" overflow="visible"></use></clipPath><path d="M59.094 50H31.38l-5.773-10 20.786-12" class="st7" opacity=".25" clip-path="url(#MTBteHk1MjUxMDAwMDAwMDAwMHh6czQ2MQ)"></path><g class="st3" clip-path="url(#MTBteHk1MjUxMDAwMDAwMDAwMHh6czQ2MQ)"><circle cx="36" cy="34" r="12" fill="rgb(37, 52, 60)" class="stshockcolor" data-st="fill:#565668;;" coriginal="rgb(86,86,104)" colortype="33" awdzp="33" style="fill: rgb(37, 52, 60);"></circle><circle cx="36" cy="34" r="12" fill="rgb(255, 255, 255)" class="st2" opacity=".5" coriginal="rgb(255,255,255)" colortype="0" awdzp="0" style="fill: rgb(255, 255, 255);"></circle></g><g class="st3" clip-path="url(#MTBteHk1MjUxMDAwMDAwMDAwMHh6czQ2MQ)"><path fill="rgb(151, 159, 146)" d="M42 34c0 3.313-2.69 6-6 6-3.313 0-6-2.688-6-6 0-3.313 2.688-6 6-6 3.31 0 6 2.687 6 6z" class="st5" coriginal="rgb(117,162,216)" colortype="14" awdzp="14" style="fill: rgb(151, 159, 146);"></path><path fill="rgb(17, 32, 40)" d="M42 34c0 3.313-2.69 6-6 6-3.313 0-6-2.688-6-6 0-3.313 2.688-6 6-6 3.31 0 6 2.687 6 6z" class="st6" opacity=".3" coriginal="rgb(35,31,32)" colortype="37" awdzp="37" style="fill: rgb(17, 32, 40);"></path></g><g class="st3" clip-path="url(#MTBteHk1MjUxMDAwMDAwMDAwMHh6czQ2MQ)"><defs><path id="MTBteHk5MTkxMDAwMDAwMDAwMHh6czg4NA" d="M42 34c0 3.313-2.69 6-6 6-3.313 0-6-2.688-6-6 0-3.313 2.688-6 6-6 3.31 0 6 2.687 6 6z"></path></defs><clipPath id="MTBteHk2MTgxMDAwMDAwMDAwMHh6czExOA"><use xlink:href="#MTBteHk5MTkxMDAwMDAwMDAwMHh6czg4NA" overflow="visible"></use></clipPath><path d="M42 28H30v9.464l12-6.928" class="st8" opacity=".25" clip-path="url(#MTBteHk2MTgxMDAwMDAwMDAwMHh6czExOA)"></path></g><path fill="rgb(255, 255, 255)" d="M16 50H9V21c0-1.104.896-2 2-2h3c1.104 0 2 .896 2 2v29z" class="st0" opacity=".25" clip-path="url(#MTBteHk1MjUxMDAwMDAwMDAwMHh6czQ2MQ)" coriginal="rgb(255,255,255)" colortype="0" awdzp="0" style="fill: rgb(255, 255, 255);"></path></svg>