<svg xmlns="http://www.w3.org/2000/svg" width="32" height="32" viewBox="0 0 64 64" id="svgid20" repair="1" xmlns:xlink="http://www.w3.org/1999/xlink"><defs><path id="MTBteHk2OTEwMDAwMDAwMDAweHpzNjYx" d="M32 56.333c13.44 0 24.333-10.894 24.333-24.333C56.333 18.56 45.44 7.667 32 7.667 18.56 7.667 7.667 18.56 7.667 32 7.667 45.44 18.56 56.333 32 56.333z"></path></defs><use fill="rgb(52, 91, 81)" xlink:href="#MTBteHk2OTEwMDAwMDAwMDAweHpzNjYx" class="stshockcolor" data-st="fill:#C7441C;;overflow:visible;" overflow="visible" coriginal="rgb(199,68,28)" colortype="29" awdzp="29" style="fill: rgb(52, 91, 81);"></use><clipPath id="MTBteHk0ODgxMDAwMDAwMDAwMHh6czg5Ng"><use xlink:href="#MTBteHk2OTEwMDAwMDAwMDAweHpzNjYx" overflow="visible"></use></clipPath><path fill="rgb(113, 89, 118)" d="M53.585 19.463c6.886 11.922 2.8 27.166-9.123 34.047-11.92 6.884-27.165 2.8-34.048-9.123l43.17-24.924z" class="st4" clip-path="url(#MTBteHk0ODgxMDAwMDAwMDAwMHh6czg5Ng)" coriginal="rgb(224,163,10)" colortype="19" awdzp="19" style="fill: rgb(113, 89, 118);"></path><g class="st0" opacity=".2" clip-path="url(#MTBteHk0ODgxMDAwMDAwMDAwMHh6czg5Ng)"><path fill="rgb(52, 91, 81)" d="M53.585 19.463c6.886 11.922 3.66 37.398-21.517 37.396L32 32l21.585-12.537z" class="stshockcolor" data-st="fill:#C7441C;;overflow:visible;" coriginal="rgb(199,68,28)" colortype="29" awdzp="29" style="fill: rgb(52, 91, 81);"></path><path d="M53.585 19.463c6.886 11.922 3.66 37.398-21.517 37.396L32 32l21.585-12.537z" class="st7" opacity=".2"></path></g><path fill="rgb(255, 255, 255)" d="M10.415 44.537C3.53 32.615 6.757 7.14 31.933 7.14L32 32 10.415 44.537z" class="st10" opacity=".2" clip-path="url(#MTBteHk0ODgxMDAwMDAwMDAwMHh6czg5Ng)" coriginal="rgb(255,255,255)" colortype="0" awdzp="0" style="fill: rgb(255, 255, 255);"></path><g class="st0" opacity=".2" clip-path="url(#MTBteHk0ODgxMDAwMDAwMDAwMHh6czg5Ng)"><path fill="rgb(52, 91, 81)" d="M53.585 19.463c6.886 11.922 6.847 13.015-.037 24.936L32 32l21.585-12.537z" class="stshockcolor" data-st="fill:#C7441C;;overflow:visible;" coriginal="rgb(199,68,28)" colortype="29" awdzp="29" style="fill: rgb(52, 91, 81);"></path><path d="M53.585 19.463c6.886 11.922 6.847 13.015-.037 24.936L32 32l21.585-12.537z" class="st7" opacity=".2"></path></g><path fill="rgb(255, 255, 255)" d="M32 32L10.452 19.602c-6.884 11.92-6.923 13.013-.037 24.935L32 32z" class="st2" opacity=".15" clip-path="url(#MTBteHk0ODgxMDAwMDAwMDAwMHh6czg5Ng)" coriginal="rgb(255,255,255)" colortype="0" awdzp="0" style="fill: rgb(255, 255, 255);"></path><defs><path id="MTBteHk5MDgxMDAwMDAwMDAwMHh6czQ4" d="M32 13.074c10.453 0 18.926 8.474 18.926 18.926 0 10.453-8.473 18.926-18.926 18.926-10.452 0-18.926-8.473-18.926-18.926 0-10.452 8.474-18.926 18.926-18.926z"></path></defs><use fill="rgb(245, 245, 245)" xlink:href="#MTBteHk5MDgxMDAwMDAwMDAwMHh6czQ4" overflow="visible" coriginal="rgb(222,220,217)" colortype="2" awdzp="2" style="fill: rgb(245, 245, 245);"></use><clipPath id="MTBteHk4MjQxMDAwMDAwMDAwMHh6czUwNw"><use xlink:href="#MTBteHk5MDgxMDAwMDAwMDAwMHh6czQ4" overflow="visible"></use></clipPath><path fill="rgb(17, 32, 40)" d="M32 17.13c.747 0 1.352.605 1.352 1.352L34.112 32c0 .747-1.365 1.352-2.112 1.352-.747 0-2.112-.604-2.112-1.352l.76-13.52c0-.745.605-1.35 1.352-1.35z" class="st9" opacity=".6" clip-path="url(#MTBteHk4MjQxMDAwMDAwMDAwMHh6czUwNw)" coriginal="rgb(35,31,32)" colortype="37" awdzp="37" style="fill: rgb(17, 32, 40);"></path><path fill="rgb(17, 32, 40)" d="M32 29.888l10.814.76c.747 0 1.352.605 1.352 1.352s-.604 1.352-1.352 1.352L32 34.112c-.747 0-1.352-1.365-1.352-2.112s.605-2.112 1.352-2.112z" class="st5" opacity=".77" clip-path="url(#MTBteHk4MjQxMDAwMDAwMDAwMHh6czUwNw)" coriginal="rgb(35,31,32)" colortype="37" awdzp="37" style="fill: rgb(17, 32, 40);"></path><path fill="rgb(22, 37, 45)" d="M32 29.296c1.493 0 2.704 1.21 2.704 2.704s-1.21 2.704-2.704 2.704-2.704-1.21-2.704-2.704 1.21-2.704 2.704-2.704z" class="st8" clip-path="url(#MTBteHk4MjQxMDAwMDAwMDAwMHh6czUwNw)" coriginal="rgb(48,43,44)" colortype="36" awdzp="36" style="fill: rgb(22, 37, 45);"></path><path fill="rgb(255, 255, 255)" d="M17.34 40.39c-4.673-8.096-1.898-18.45 6.197-23.123 8.096-4.674 18.448-1.9 23.122 6.196L17.34 40.39z" class="st3" opacity=".3" clip-path="url(#MTBteHk4MjQxMDAwMDAwMDAwMHh6czUwNw)" coriginal="rgb(255,255,255)" colortype="0" awdzp="0" style="fill: rgb(255, 255, 255);"></path><path fill="rgb(113, 89, 118)" d="M21 39l-9.057.008c-.67.02-1.315.37-1.675.993-.384.67-4.116 7.13-4.5 7.8-.552.96-.224 2.18.733 2.73.96.55 2.18.23 2.74-.73l3.92-6.8H21c1.106 0 2-.89 2-2 0-1.1-.895-2-2-2z" class="st1" coriginal="rgb(224,163,10)" colortype="19" awdzp="19" style="fill: rgb(113, 89, 118);"></path><path fill="rgb(52, 91, 81)" d="M57.5 13.474c-.957-.552-2.18-.225-2.732.732-.307.532-2.76 4.783-3.923 6.793H43c-1.105 0-2 .89-2 2 0 1.1.895 2 2 2h8.998c.708 0 1.327-.37 1.683-.93.02-.03 4.17-7.21 4.56-7.87.55-.96.22-2.18-.73-2.73z" class="stshockcolor" data-st="fill:#C7441C;;overflow:visible;" coriginal="rgb(199,68,28)" colortype="29" awdzp="29" style="fill: rgb(52, 91, 81);"></path></svg>