<svg xmlns="http://www.w3.org/2000/svg" width="32" height="32" viewBox="0 0 64 64" id="svgid22" repair="1" xmlns:xlink="http://www.w3.org/1999/xlink"><defs><path id="MTBteHk5MzcxMDAwMDAwMDAwMHh6czYzNA" d="M57 39V7H7v32L1.227 57h61.546z"></path></defs><use fill="rgb(103, 79, 108)" xlink:href="#MTBteHk5MzcxMDAwMDAwMDAwMHh6czYzNA" class="stshockcolor" data-st="fill:#EA7A2F;;overflow:visible;" overflow="visible" coriginal="rgb(234,122,47)" colortype="21" awdzp="21" style="fill: rgb(103, 79, 108);"></use><clipPath id="MTBteHkyMzcxMDAwMDAwMDAwMHh6czgzOA"><use xlink:href="#MTBteHk5MzcxMDAwMDAwMDAwMHh6czYzNA" overflow="visible"></use></clipPath><g class="st4" clip-path="url(#MTBteHkyMzcxMDAwMDAwMDAwMHh6czgzOA)"><path fill="rgb(67, 106, 96)" d="M57 39v-6h-9.897l-15.15-8.75c-.667-.384-1.457-.357-2.08 0-.1.06-1.603.926-3.565 2.06l-8.71-5.03c-.667-.385-1.458-.36-2.08 0L7 26.195V39L1.228 57h61.547L57 39z" class="st6" opacity=".15" coriginal="rgb(125,28,199)" colortype="26" awdzp="26" style="fill: rgb(67, 106, 96);"></path><path fill="rgb(17, 32, 40)" d="M57 39v-6h-9.897l-15.15-8.75c-.667-.384-1.457-.357-2.08 0-.1.06-1.603.926-3.565 2.06l-8.71-5.03c-.667-.385-1.458-.36-2.08 0L7 26.195V39L1.228 57h61.547L57 39z" class="st2" opacity=".5" coriginal="rgb(35,31,32)" colortype="37" awdzp="37" style="fill: rgb(17, 32, 40);"></path><path fill="rgb(255, 255, 255)" fill-opacity=".3" d="M1.227 39h61.547v18H1.227z" class="st3" coriginal="rgb(255,255,255)" colortype="0" awdzp="0" style="fill: rgb(255, 255, 255);"></path><path fill="rgb(17, 32, 40)" d="M59.375 41.188L47 48.333 32 22.355 57.562 7.597" class="st7" opacity=".3" coriginal="rgb(35,31,32)" colortype="37" awdzp="37" style="fill: rgb(17, 32, 40);"></path><circle cx="49" cy="18" r="5" fill="rgb(113, 89, 118)" class="st0" coriginal="rgb(224,163,10)" colortype="19" awdzp="19" style="fill: rgb(113, 89, 118);"></circle></g><defs><path id="MTBteHk3NjMxMDAwMDAwMDAwMHh6czEyMA" d="M17 31.013l15-8.658 15 8.658v17.32L32 57l-15-8.667z"></path></defs><use fill="rgb(113, 89, 118)" xlink:href="#MTBteHk3NjMxMDAwMDAwMDAwMHh6czEyMA" class="st0" overflow="visible" coriginal="rgb(224,163,10)" colortype="19" awdzp="19" style="fill: rgb(113, 89, 118);"></use><clipPath id="MTBteHk4NzcxMDAwMDAwMDAwMHh6czkwNQ"><use xlink:href="#MTBteHk3NjMxMDAwMDAwMDAwMHh6czEyMA" overflow="visible"></use></clipPath><g class="st5" clip-path="url(#MTBteHk4NzcxMDAwMDAwMDAwMHh6czkwNQ)"><path fill="rgb(255, 255, 255)" d="M47 31.013l-15 8.662-15-8.662v-8.658h30" class="st1" opacity=".3" coriginal="rgb(255,255,255)" colortype="0" awdzp="0" style="fill: rgb(255, 255, 255);"></path><path fill="rgb(67, 106, 96)" d="M47 31.013l-15 8.662V57h15" class="st6" opacity=".15" coriginal="rgb(125,28,199)" colortype="26" awdzp="26" style="fill: rgb(67, 106, 96);"></path></g></svg>