<svg xmlns="http://www.w3.org/2000/svg" width="32" height="32" viewBox="0 0 64 64" id="svgid11" repair="1" xmlns:xlink="http://www.w3.org/1999/xlink"><defs><path id="MTBteHk2MjEwMDAwMDAwMDAweHpzNDAz" d="M40 52.032l-8.005-8.693L24 52l-8.556 4.968 33.11.03z"></path></defs><use fill="rgb(27, 42, 50)" xlink:href="#MTBteHk2MjEwMDAwMDAwMDAweHpzNDAz" overflow="visible" coriginal="rgb(71,71,94)" colortype="35" awdzp="35" style="fill: rgb(27, 42, 50);"></use><clipPath id="MTBteHkxNzAxMDAwMDAwMDAwMHh6czUzNw"><use xlink:href="#MTBteHk2MjEwMDAwMDAwMDAweHpzNDAz" overflow="visible"></use></clipPath><g class="st4" clip-path="url(#MTBteHkxNzAxMDAwMDAwMDAwMHh6czUzNw)"><path fill="rgb(17, 32, 40)" d="M48.553 56.998V50H27.056l12.12 6.998" class="st1" opacity=".15" coriginal="rgb(35,31,32)" colortype="37" awdzp="37" style="fill: rgb(17, 32, 40);"></path></g><path fill="rgb(27, 42, 50)" d="M24 52V40h16v12.032" class="st0" coriginal="rgb(71,71,94)" colortype="35" awdzp="35" style="fill: rgb(27, 42, 50);"></path><path fill="rgb(17, 32, 40)" d="M24 52V40h16v12.032" class="st6" opacity=".3" coriginal="rgb(35,31,32)" colortype="37" awdzp="37" style="fill: rgb(17, 32, 40);"></path><path fill="rgb(151, 159, 146)" d="M9 15h46v31H9z" class="stshockcolor" data-st="fill:#DE7047;;" coriginal="rgb(117,162,216)" colortype="14" awdzp="14" style="fill: rgb(151, 159, 146);"></path><path fill="rgb(17, 32, 40)" d="M55 33.803V15h-3.49L9 39.543V46h24.874" class="st1" opacity=".15" coriginal="rgb(35,31,32)" colortype="37" awdzp="37" style="fill: rgb(17, 32, 40);"></path><path fill="rgb(67, 106, 96)" d="M9 46h46V15h-3.49L9 39.543" class="st2" opacity=".1" coriginal="rgb(125,28,199)" colortype="26" awdzp="26" style="fill: rgb(67, 106, 96);"></path><path fill="rgb(27, 42, 50)" d="M59 47c0 1.657-1.343 3-3 3H8c-1.657 0-3-1.343-3-3V14c0-1.657 1.343-3 3-3h48c1.657 0 3 1.343 3 3v33zm-5-30c0-.552-.447-1-1-1H11c-.552 0-1 .448-1 1v27c0 .553.448 1 1 1h42c.553 0 1-.447 1-1V17z" class="st0" coriginal="rgb(71,71,94)" colortype="35" awdzp="35" style="fill: rgb(27, 42, 50);"></path><path fill="rgb(255, 255, 255)" fill-rule="evenodd" d="M37.993 28h-5.48l1.23-8.4L26.007 33h5.48l-1.23 8.4" class="st5" clip-rule="evenodd" coriginal="rgb(255,255,255)" colortype="0" awdzp="0" style="fill: rgb(255, 255, 255);"></path><circle cx="23" cy="22" r="3" fill="rgb(197, 205, 192)" class="st3" coriginal="rgb(247,201,11)" colortype="8" awdzp="8" style="fill: rgb(197, 205, 192);"></circle><circle cx="41" cy="39" r="3" fill="rgb(197, 205, 192)" class="st3" coriginal="rgb(247,201,11)" colortype="8" awdzp="8" style="fill: rgb(197, 205, 192);"></circle><circle cx="41" cy="22" r="2" fill="rgb(197, 205, 192)" class="st3" coriginal="rgb(247,201,11)" colortype="8" awdzp="8" style="fill: rgb(197, 205, 192);"></circle><circle cx="23" cy="39" r="2" fill="rgb(197, 205, 192)" class="st3" coriginal="rgb(247,201,11)" colortype="8" awdzp="8" style="fill: rgb(197, 205, 192);"></circle></svg>