<svg xmlns="http://www.w3.org/2000/svg" width="32" height="32" viewBox="0 0 64 64" id="svgid9" repair="1" xmlns:xlink="http://www.w3.org/1999/xlink"><defs><path id="MTBteHk5MDQxMDAwMDAwMDAwMHh6czk0MQ" d="M32 13L10 25.29V53h44V6H44v13.417L32 13z"></path></defs><use fill="rgb(151, 159, 146)" xlink:href="#MTBteHk5MDQxMDAwMDAwMDAwMHh6czk0MQ" class="stshockcolor" data-st="fill:#75A2D8;;overflow:visible;" overflow="visible" coriginal="rgb(117,162,216)" colortype="14" awdzp="14" style="fill: rgb(151, 159, 146);"></use><clipPath id="MTBteHk3MTEwMDAwMDAwMDAweHpzOTIy"><use xlink:href="#MTBteHk5MDQxMDAwMDAwMDAwMHh6czk0MQ" overflow="visible"></use></clipPath><g class="st1" clip-path="url(#MTBteHk3MTEwMDAwMDAwMDAweHpzOTIy)"><path fill-opacity=".15" d="M54.553 27.326L9.368 53h45.185" class="st7"></path><path fill-opacity=".15" d="M44 22.336h11v31.33H44z" class="st7"></path><path fill-opacity=".15" d="M54.553 42L10.556 17l-.003-11.866h44" class="st7"></path><path fill="rgb(151, 159, 146)" d="M23.05 21.998l37.695 21.764-1.5 2.597L21.55 24.59z" class="stshockcolor" data-st="fill:#75A2D8;;overflow:visible;" coriginal="rgb(117,162,216)" colortype="14" awdzp="14" style="fill: rgb(151, 159, 146);"></path><path fill="rgb(255, 255, 255)" d="M23.05 21.998l37.695 21.764-1.5 2.597L21.55 24.59z" class="st0" opacity=".3" coriginal="rgb(255,255,255)" colortype="0" awdzp="0" style="fill: rgb(255, 255, 255);"></path><path fill="rgb(151, 159, 146)" d="M21.553 23h3v31h-3z" class="stshockcolor" data-st="fill:#75A2D8;;overflow:visible;" coriginal="rgb(117,162,216)" colortype="14" awdzp="14" style="fill: rgb(151, 159, 146);"></path><path fill="rgb(255, 255, 255)" d="M21.553 23h3v31h-3z" class="st0" opacity=".3" coriginal="rgb(255,255,255)" colortype="0" awdzp="0" style="fill: rgb(255, 255, 255);"></path><path fill="rgb(151, 159, 146)" d="M61 24.54L4.55 57.132l-1.5-2.597L59.5 21.943z" class="stshockcolor" data-st="fill:#75A2D8;;overflow:visible;" coriginal="rgb(117,162,216)" colortype="14" awdzp="14" style="fill: rgb(151, 159, 146);"></path><path fill="rgb(255, 255, 255)" d="M61 24.54L4.55 57.132l-1.5-2.597L59.5 21.943z" class="st0" opacity=".3" coriginal="rgb(255,255,255)" colortype="0" awdzp="0" style="fill: rgb(255, 255, 255);"></path></g><defs><path id="MTBteHkxOTcxMDAwMDAwMDAwMHh6czc1NA" d="M33.5 9.4c-.898-.515-2.04-.553-3 .003L5 24.073V31l27-15.536 26.997 15.462L59 24S33.94 9.656 33.5 9.4z"></path></defs><clipPath id="MTBteHk3ODQxMDAwMDAwMDAwMHh6czkz"><use xlink:href="#MTBteHkxOTcxMDAwMDAwMDAwMHh6czc1NA" overflow="visible"></use></clipPath><g class="st2" clip-path="url(#MTBteHk3ODQxMDAwMDAwMDAwMHh6czkz)"><path fill="rgb(151, 159, 146)" d="M4 8h56v24H4z" class="stshockcolor" data-st="fill:#75A2D8;;overflow:visible;" coriginal="rgb(117,162,216)" colortype="14" awdzp="14" style="fill: rgb(151, 159, 146);"></path><path fill="rgb(255, 255, 255)" d="M4 8h56v24H4z" class="st3" opacity=".2" coriginal="rgb(255,255,255)" colortype="0" awdzp="0" style="fill: rgb(255, 255, 255);"></path></g><g class="st2" clip-path="url(#MTBteHk3ODQxMDAwMDAwMDAwMHh6czkz)"><path fill="rgb(151, 159, 146)" d="M32 7v29H3.667V13L32 7zm12 27V14l10-8v28H44z" class="stshockcolor" data-st="fill:#75A2D8;;overflow:visible;" coriginal="rgb(117,162,216)" colortype="14" awdzp="14" style="fill: rgb(151, 159, 146);"></path><path fill="rgb(255, 255, 255)" d="M32 7v29H3.667V13L32 7zm12 27V14l10-8v28H44z" class="st4 st6" opacity=".5" coriginal="rgb(255,255,255)" colortype="0" awdzp="0" style="fill: rgb(255, 255, 255);"></path></g><circle cx="40.553" cy="34" r="4" fill="rgb(151, 159, 146)" class="stshockcolor" data-st="fill:#75A2D8;;overflow:visible;" coriginal="rgb(117,162,216)" colortype="14" awdzp="14" style="fill: rgb(151, 159, 146);"></circle><circle cx="40.553" cy="34" r="4" fill="rgb(255, 255, 255)" class="st5" opacity=".75" coriginal="rgb(255,255,255)" colortype="0" awdzp="0" style="fill: rgb(255, 255, 255);"></circle><circle cx="22.553" cy="45" r="4" fill="rgb(151, 159, 146)" class="stshockcolor" data-st="fill:#75A2D8;;overflow:visible;" coriginal="rgb(117,162,216)" colortype="14" awdzp="14" style="fill: rgb(151, 159, 146);"></circle><circle cx="22.553" cy="45" r="4" fill="rgb(255, 255, 255)" class="st5" opacity=".75" coriginal="rgb(255,255,255)" colortype="0" awdzp="0" style="fill: rgb(255, 255, 255);"></circle><circle cx="22.553" cy="23" r="4" fill="rgb(151, 159, 146)" class="stshockcolor" data-st="fill:#75A2D8;;overflow:visible;" coriginal="rgb(117,162,216)" colortype="14" awdzp="14" style="fill: rgb(151, 159, 146);"></circle><circle cx="22.553" cy="23" r="4" fill="rgb(255, 255, 255)" class="st5" opacity=".75" coriginal="rgb(255,255,255)" colortype="0" awdzp="0" style="fill: rgb(255, 255, 255);"></circle></svg>