<svg xmlns="http://www.w3.org/2000/svg" width="32" height="32" viewBox="0 0 64 64" id="svgid18" repair="1" xmlns:xlink="http://www.w3.org/1999/xlink"><path fill="rgb(27, 42, 50)" fill-rule="evenodd" d="M16.468 21.74L3.064 14H12" class="st1" clip-rule="evenodd" coriginal="rgb(71,71,94)" colortype="35" awdzp="35" style="fill: rgb(27, 42, 50);"></path><defs><path id="MTBteHk4OTAxMDAwMDAwMDAwMHh6czgwNw" d="M33.962 14.408C31.746 10.578 27.604 8 22.86 8c-4.576 0-8.59 2.396-10.86 6.002v15.544C12 39.738 20.26 48 30.452 48h13.98c.324.568 1.703 2.976 4.236 7.36 1.63 2.825 4.248 4.435 7.112 4.64 1.718.123 4.505.002 4.505.002L33.962 14.408z"></path></defs><use fill="rgb(245, 245, 245)" xlink:href="#MTBteHk4OTAxMDAwMDAwMDAwMHh6czgwNw" overflow="visible" coriginal="rgb(222,220,217)" colortype="2" awdzp="2" style="fill: rgb(245, 245, 245);"></use><clipPath id="MTBteHk1NzkxMDAwMDAwMDAwMHh6czEz"><use xlink:href="#MTBteHk4OTAxMDAwMDAwMDAwMHh6czgwNw" overflow="visible"></use></clipPath><g class="st2" clip-path="url(#MTBteHk1NzkxMDAwMDAwMDAwMHh6czEz)"><path fill="rgb(103, 79, 108)" d="M34 18H12v24h21" class="st0" opacity=".5" coriginal="rgb(234,122,47)" colortype="21" awdzp="21" style="fill: rgb(103, 79, 108);"></path><path fill="rgb(151, 159, 146)" d="M60.285 8H12v11.17c2.144 1.232 17.235 9.91 23.61 13.55l15.78 27.335L60.285 60V8z" class="stshockcolor" data-st="fill:#75A2D8;;" coriginal="rgb(117,162,216)" colortype="14" awdzp="14" style="fill: rgb(151, 159, 146);"></path><path fill="rgb(17, 32, 40)" fill-opacity=".15" d="M60.285 60.002L45.08 31.88h-15c-1.642 0-5.64 4.3-4.874 5.623C26.763 40.19 38.23 60.056 38.23 60.056l22.055-.054z" class="st5" coriginal="rgb(35,31,32)" colortype="37" awdzp="37" style="fill: rgb(17, 32, 40);"></path><ellipse cx="21" cy="18.5" fill="rgb(17, 32, 40)" fill-opacity=".6" class="st3" rx="2" ry="2.5" coriginal="rgb(35,31,32)" colortype="37" awdzp="37" style="fill: rgb(17, 32, 40);"></ellipse><path fill="rgb(151, 159, 146)" d="M41.333 24l-2.99-4.48s-8.52 4.918-9.843 5.685C25.81 26.76 24 29.67 24 33c0 4.97 4.03 9 9 9h16.892l-8.56-18z" class="stshockcolor" data-st="fill:#75A2D8;;" coriginal="rgb(117,162,216)" colortype="14" awdzp="14" style="fill: rgb(151, 159, 146);"></path></g></svg>