<svg xmlns="http://www.w3.org/2000/svg" width="32" height="32" viewBox="0 0 64 64" id="svgid13" repair="1" xmlns:xlink="http://www.w3.org/1999/xlink"><defs><path id="MTBteHk2NzQxMDAwMDAwMDAwMHh6czY3Mw" d="M5.28 31L7 32.98C13.967 45.043 20.488 50 32 50s18.032-4.953 25-17.02L58.72 31 32 23 5.28 31z"></path></defs><use fill="rgb(72, 111, 101)" xlink:href="#MTBteHk2NzQxMDAwMDAwMDAwMHh6czY3Mw" class="stshockcolor" data-st="fill:#DD7046;;overflow:visible;" overflow="visible" coriginal="rgb(221,112,70)" colortype="25" awdzp="25" style="fill: rgb(72, 111, 101);"></use><clipPath id="MTBteHk0ODExMDAwMDAwMDAwMHh6czkzOA"><use xlink:href="#MTBteHk2NzQxMDAwMDAwMDAwMHh6czY3Mw" overflow="visible"></use></clipPath><g fill="rgb(255, 255, 255)" class="st2" clip-path="url(#MTBteHk0ODExMDAwMDAwMDAwMHh6czkzOA)" coriginal="rgb(255,255,255)" colortype="0" awdzp="0" style="fill: rgb(255, 255, 255);"><path d="M1 14h31v38H1z" class="st0" opacity=".3"></path><path d="M28 35.316v9.35s-6.213 1.412-4.818-1.004L28 35.316z" class="st1" opacity=".5"></path></g><defs><path id="MTBteHkyNzUxMDAwMDAwMDAwMHh6czgzOQ" d="M32 17.5C29.402 16 26.22 15 23.33 15 19 15 15.5 17.01 9.5 27.402 8.556 29.037 6.646 30 5 30H2c4.157 2.4 7.355 5 11.828 5 4.474 0 8.842-3.5 13.172-6 0 0 2 3 5 3s5-3 5-3c3.464 2 8.698 6 13.172 6S57.844 32.4 62 30h-3c-1.758 0-3.625-1.083-4.5-2.598C48.5 17.01 45 15 40.67 15c-2.89 0-6.072 1-8.67 2.5z"></path></defs><use fill="rgb(72, 111, 101)" xlink:href="#MTBteHkyNzUxMDAwMDAwMDAwMHh6czgzOQ" class="stshockcolor" data-st="fill:#DD7046;;overflow:visible;" overflow="visible" coriginal="rgb(221,112,70)" colortype="25" awdzp="25" style="fill: rgb(72, 111, 101);"></use><clipPath id="MTBteHk2MDcxMDAwMDAwMDAwMHh6czI1Ng"><use xlink:href="#MTBteHkyNzUxMDAwMDAwMDAwMHh6czgzOQ" overflow="visible"></use></clipPath><g class="st3" clip-path="url(#MTBteHk2MDcxMDAwMDAwMDAwMHh6czI1Ng)"><path d="M32 14h31v38H32z" class="st5" opacity=".3"></path><path d="M32 37.66V14.063l9.632-1.086 3.466 1.998" class="st4" opacity=".1"></path></g></svg>