<svg xmlns="http://www.w3.org/2000/svg" width="32" height="32" viewBox="0 0 64 64" id="svgid7" repair="1" xmlns:xlink="http://www.w3.org/1999/xlink"><path fill="rgb(47, 62, 70)" d="M23 31h18v20H23z" class="st0" coriginal="rgb(122,99,72)" colortype="31" awdzp="31" style="fill: rgb(47, 62, 70);"></path><defs><path id="MTBteHk1MDMxMDAwMDAwMDAwMHh6czUzNg" d="M32 13L10 25.29V53h16V37s0-3 6-3 6 3 6 3v16h16V24.917L32 13z"></path></defs><use fill="rgb(245, 245, 245)" xlink:href="#MTBteHk1MDMxMDAwMDAwMDAwMHh6czUzNg" overflow="visible" coriginal="rgb(222,220,217)" colortype="2" awdzp="2" style="fill: rgb(245, 245, 245);"></use><clipPath id="MTBteHk4ODAxMDAwMDAwMDAwMHh6czc"><use xlink:href="#MTBteHk1MDMxMDAwMDAwMDAwMHh6czUzNg" overflow="visible"></use></clipPath><path fill="rgb(255, 255, 255)" d="M54 28L10 53h44" class="st3" opacity=".3" clip-path="url(#MTBteHk4ODAxMDAwMDAwMDAwMHh6czc)" coriginal="rgb(255,255,255)" colortype="0" awdzp="0" style="fill: rgb(255, 255, 255);"></path><path fill="rgb(245, 245, 245)" d="M44 6h10v20l-10-7V6z" class="st2" coriginal="rgb(222,220,217)" colortype="2" awdzp="2" style="fill: rgb(245, 245, 245);"></path><defs><path id="MTBteHk0OTcxMDAwMDAwMDAwMHh6czMwMQ" d="M33.5 9.4c-.898-.515-2.04-.553-3 .003L5 24.073V31l27-15.536 26.997 15.462L59 24S33.94 9.656 33.5 9.4z"></path></defs><use fill="rgb(85, 61, 90)" xlink:href="#MTBteHk0OTcxMDAwMDAwMDAwMHh6czMwMQ" class="stshockcolor" data-st="fill:#DE7047;;overflow:visible;" overflow="visible" coriginal="rgb(222,112,71)" colortype="22" awdzp="22" style="fill: rgb(85, 61, 90);"></use><clipPath id="MTBteHkzNzcxMDAwMDAwMDAwMHh6czkzMQ"><use xlink:href="#MTBteHk0OTcxMDAwMDAwMDAwMHh6czMwMQ" overflow="visible"></use></clipPath><path fill="rgb(17, 32, 40)" d="M32 7v19h12V13L32 7zm27 26V13h-5v20h5z" class="st1" opacity=".3" clip-path="url(#MTBteHkzNzcxMDAwMDAwMDAwMHh6czkzMQ)" coriginal="rgb(35,31,32)" colortype="37" awdzp="37" style="fill: rgb(17, 32, 40);"></path></svg>