<svg xmlns="http://www.w3.org/2000/svg" width="32" height="32" viewBox="0 0 64 64" id="svgid21" repair="1" xmlns:xlink="http://www.w3.org/1999/xlink"><defs><path id="MTBteHk3MTQxMDAwMDAwMDAwMHh6czYxNQ" d="M3 15h48l10 17v17H3V15z"></path></defs><use fill="rgb(62, 101, 91)" xlink:href="#MTBteHk3MTQxMDAwMDAwMDAwMHh6czYxNQ" class="stshockcolor" data-st="fill:#80B34F;;overflow:visible;" overflow="visible" coriginal="rgb(128,179,79)" colortype="27" awdzp="27" style="fill: rgb(62, 101, 91);"></use><clipPath id="MTBteHk4NTYxMDAwMDAwMDAwMHh6czY4NA"><use xlink:href="#MTBteHk3MTQxMDAwMDAwMDAwMHh6czYxNQ" overflow="visible"></use></clipPath><g class="st3" clip-path="url(#MTBteHk4NTYxMDAwMDAwMDAwMHh6czY4NA)"><path fill="rgb(255, 255, 255)" fill-opacity=".15" d="M61 49H3V15h19.18L61 37.54" class="st1" coriginal="rgb(255,255,255)" colortype="0" awdzp="0" style="fill: rgb(255, 255, 255);"></path><path fill="rgb(17, 32, 40)" fill-opacity=".5" d="M6 18h52v28H6V18zm36 14c0 6.628-4.48 12-10 12-5.522 0-10-5.372-10-12s4.477-12 10-12c5.52 0 10 5.372 10 12zM11 20c0 1.657-1.343 3-3 3v18c1.657 0 3 1.343 3 3h42c0-1.656 1.344-3 3-3V23c-1.657 0-3-1.343-3-3H11z" class="st4" coriginal="rgb(35,31,32)" colortype="37" awdzp="37" style="fill: rgb(17, 32, 40);"></path></g><path fill="rgb(62, 101, 91)" d="M46.142 23.74L61 32 51 15" class="stshockcolor" data-st="fill:#80B34F;;overflow:visible;" coriginal="rgb(128,179,79)" colortype="27" awdzp="27" style="fill: rgb(62, 101, 91);"></path><path fill="rgb(255, 255, 255)" d="M46.142 23.74L61 32 51 15" class="st0" opacity=".6" coriginal="rgb(255,255,255)" colortype="0" awdzp="0" style="fill: rgb(255, 255, 255);"></path></svg>