<svg xmlns="http://www.w3.org/2000/svg" width="1127.558" height="833.655" viewBox="0 0 1127.55775 833.65458" id="svgid11" repair="1" xmlns:xlink="http://www.w3.org/1999/xlink"><path d="M700.236 167.799v416.989a18.694 18.694 0 0 1-18.694 18.694h-600.827a13.177 13.177 0 0 1-13.177-13.177v-371.005a84.836 84.836 0 0 1 84.836-84.836h514.526a33.336 33.336 0 0 1 33.336 33.336z" transform="translate(-36.221 -33.173)" fill="rgb(250, 250, 250)" coriginal="rgb(242,242,242)" colortype="1" awdzp="1" style="fill: rgb(250, 250, 250);"></path><path d="M477.103 507.329a217.016 217.016 0 0 1-22.306 96.153h-374.082a13.177 13.177 0 0 1-13.177-13.177v-187.084a218.005 218.005 0 0 1 409.566 104.109z" transform="translate(-36.221 -33.173)" fill="rgb(22, 37, 45)" coriginal="rgb(47,46,65)" colortype="32" awdzp="32" style="fill: rgb(22, 37, 45);"></path><path d="M700.236 472.538v112.25a18.694 18.694 0 0 1-18.694 18.694h-601.656a13.083 13.083 0 0 1-13.083-13.079v-.133c0-93.495 290.799-173.243 373.483-204.21a218.26 218.26 0 0 1 259.949 86.479z" transform="translate(-36.221 -33.173)" fill="rgb(32, 47, 55)" coriginal="rgb(63,61,86)" colortype="30" awdzp="30" style="fill: rgb(32, 47, 55);"></path><circle cx="564.926" cy="229.738" r="54.315" fill="rgb(182, 190, 177)" coriginal="rgb(255,101,132)" colortype="10" awdzp="10" style="fill: rgb(182, 190, 177);"></circle><path d="M281.361 242.2c0 105.949-62.985 142.942-140.681 142.942s-140.681-36.993-140.681-142.942l140.681-240.732s140.681 134.784 140.681 240.732z" fill="rgb(154, 162, 149)" coriginal="rgb(108,99,255)" colortype="12" awdzp="12" style="fill: rgb(154, 162, 149);"></path><path fill="rgb(32, 47, 55)" d="M135.556 368.936l1.441-88.67 59.961-109.697-59.736 95.787.648-39.869 41.325-79.365-41.153 68.814 1.164-71.707 44.253-63.184-44.069 51.908.728-131.485-4.575 174.063.376-7.181-44.991-68.866 44.27 82.65-4.192 80.085-.125-2.126-51.867-72.472 51.71 79.982-.524 10.015-.094.151.043.822-10.636 203.181h14.21l1.705-104.947 51.583-79.785-51.455 71.896z" coriginal="rgb(63,61,86)" colortype="30" awdzp="30" style="fill: rgb(32, 47, 55);"></path><path d="M510.739 193.644c0 85.225-50.665 114.982-113.163 114.982s-113.163-29.757-113.163-114.982l113.163-193.644s113.163 108.419 113.163 193.644z" fill="rgb(154, 162, 149)" coriginal="rgb(108,99,255)" colortype="12" awdzp="12" style="fill: rgb(154, 162, 149);"></path><path fill="rgb(32, 47, 55)" d="M393.454 295.589l1.159-71.326 48.233-88.239-48.051 77.051.521-32.071 33.242-63.841-33.104 55.354.937-57.681 35.596-50.825-35.449 41.755.586-105.766-3.68 140.015.303-5.776-36.191-55.396 35.61 66.484-3.372 64.419-.1-1.71-41.722-58.296 41.595 64.337-.421 8.056-.076.121.035.662-8.556 163.437h11.431l1.371-84.418 41.494-64.179-41.391 57.833z" coriginal="rgb(63,61,86)" colortype="30" awdzp="30" style="fill: rgb(32, 47, 55);"></path><path d="M743.87 313.865c0 57.376-34.109 77.41-76.185 77.41s-76.185-20.034-76.185-77.41l76.185-130.368s76.185 72.992 76.185 130.368z" fill="rgb(154, 162, 149)" coriginal="rgb(108,99,255)" colortype="12" awdzp="12" style="fill: rgb(154, 162, 149);"></path><path fill="rgb(32, 47, 55)" d="M664.909 382.498l.78-48.018 32.472-59.407-32.349 51.874.35-21.592 22.38-42.979-22.287 37.266.631-38.833 23.965-34.217-23.866 28.111.395-71.206-2.478 94.263.204-3.888-24.365-37.295 23.974 44.76-2.27 43.369-.068-1.151-28.088-39.247 28.003 43.314-.284 5.423-.05.082.023.445-5.76 110.032h7.696l.923-56.833 27.935-43.208-27.866 38.935z" coriginal="rgb(63,61,86)" colortype="30" awdzp="30" style="fill: rgb(32, 47, 55);"></path><path d="M182.232 419.727c-3.372 5.378-7.746 5.252-11.691 2.779s-5.964-6.355-2.593-11.733l14.803-7.744s2.852 11.319-.52 16.698zm-104.961 14.68c-3.372 5.378-7.746 5.252-11.691 2.779s-5.964-6.355-2.593-11.733l14.803-7.744s2.852 11.319-.52 16.698zm372.091-25.872c.624 6.317-2.914 8.894-7.546 9.351s-8.606-1.377-9.23-7.694l6.97-15.182s9.182 7.208 9.806 13.525zm-121.067-78.355c-3.372 5.378-7.746 5.252-11.691 2.779s-5.964-6.355-2.593-11.733l14.803-7.744s2.852 11.319-.52 16.698zm278.916 82.941c-3.372 5.378-7.746 5.252-11.691 2.779s-5.964-6.355-2.593-11.733l14.803-7.744s2.852 11.319-.52 16.698z" fill="rgb(154, 162, 149)" coriginal="rgb(108,99,255)" colortype="12" awdzp="12" style="fill: rgb(154, 162, 149);"></path><path d="M1086.87 504.655c0 176.179-79.992 315.163-178.5 319-128.463 5.003-296.357-123.086-178.5-319 90.818-150.967 79.917-319 178.5-319s178.5 142.821 178.5 319z" fill="rgb(250, 250, 250)" coriginal="rgb(242,242,242)" colortype="1" awdzp="1" style="fill: rgb(250, 250, 250);"></path><ellipse cx="857.87" cy="816.655" rx="159" ry="17" fill="rgb(32, 47, 55)" coriginal="rgb(63,61,86)" colortype="30" awdzp="30" style="fill: rgb(32, 47, 55);"></ellipse><path d="M994.362 605.535c.624 6.317-2.914 8.894-7.546 9.351s-8.606-1.377-9.23-7.694l6.97-15.182s9.182 7.208 9.806 13.525zm-65.091-18.128c-3.372 5.378-7.746 5.252-11.691 2.779s-5.964-6.355-2.593-11.733l14.803-7.744s2.852 11.319-.52 16.698z" fill="rgb(154, 162, 149)" coriginal="rgb(108,99,255)" colortype="12" awdzp="12" style="fill: rgb(154, 162, 149);"></path><path d="M925.613 732.767s7.53 32.762 19.258 39.823l-28.627 20.451s-17.564 10.889-22.126 14.826-24.114 12.361-20.891 6.105 8.884-18.153 17.825-28.037 20.694-27.579 10.455-41.36l24.106-11.808z" fill="rgb(192, 200, 187)" coriginal="rgb(255,185,185)" colortype="8" awdzp="8" style="fill: rgb(192, 200, 187);"></path><path d="M884.841 334.195l-3.947-1.409s-10.148-1.409-19.451 10.43l-30.586 47.781-7.893 18.605 27.908.846 21.001-46.231z" fill="rgb(182, 190, 177)" coriginal="rgb(255,101,132)" colortype="10" awdzp="10" style="fill: rgb(182, 190, 177);"></path><path d="M884.841 334.195l-3.947-1.409s-10.148-1.409-19.451 10.43l-30.586 47.781-7.893 18.605 27.908.846 21.001-46.231z" opacity=".1"></path><path d="M880.613 620.459s15.927 3.524 13.249 15.786 16.632 28.19 18.464 30.868 4.51 3.806 2.819 7.893 39.324 61.735 31.149 66.95-74.42 25.652-80.34 21.565l-10.712-137.847z" fill="rgb(22, 37, 45)" coriginal="rgb(47,46,65)" colortype="32" awdzp="32" style="fill: rgb(22, 37, 45);"></path><path d="M880.613 620.459s15.927 3.524 13.249 15.786 16.632 28.19 18.464 30.868 4.51 3.806 2.819 7.893 39.324 61.735 31.149 66.95-74.42 25.652-80.34 21.565l-10.712-137.847z" opacity=".1"></path><path d="M844.389 765.917s-9.866 32.136-3.242 44.117l-35.018 3.391s-20.655.644-26.575 1.772-27.063-1.357-21.144-5.163 16.773-11.276 29.458-15.363 31.713-13.531 29.74-30.586l26.78 1.832z" fill="rgb(192, 200, 187)" coriginal="rgb(255,185,185)" colortype="8" awdzp="8" style="fill: rgb(192, 200, 187);"></path><path d="M862.146 477.871a31.065 31.065 0 0 1 18.746-5.779c10.853.423 46.372 8.88 45.385 10.571a35.631 35.631 0 0 1-3.242 4.228s2.255 10.289 1.269 11.276 19.31 24.243 7.47 74.138l-10.571 84.428s4.792 146.304-8.88 149.263-67.514.987-70.051-4.792l7.752-185.205s1.128-90.206 3.806-101.2l8.316-36.928z" transform="translate(-36.221 -33.173)" fill="rgb(22, 37, 45)" coriginal="rgb(47,46,65)" colortype="32" awdzp="32" style="fill: rgb(22, 37, 45);"></path><circle cx="888.013" cy="283.383" r="33.968" fill="rgb(192, 200, 187)" coriginal="rgb(255,185,185)" colortype="8" awdzp="8" style="fill: rgb(192, 200, 187);"></circle><path d="M882.868 305.864s21.001 20.578-4.933 36.505c-18.261 11.215 44.117-8.739 44.117-8.739s-12.967-33.123-10.994-40.734l-28.19 12.967z" fill="rgb(192, 200, 187)" coriginal="rgb(255,185,185)" colortype="8" awdzp="8" style="fill: rgb(192, 200, 187);"></path><path d="M888.083 338.001s29.176-13.39 33.968-8.598 25.512 24.525 2.96 59.48-26.921 61.171-30.727 64.131l-6.202-3.806s-10.994-10.007-18.182-10.007l-37.915 3.383 8.598-34.109s-4.228-26.921 10.148-40.311l30.163-35.378 8.141-1.487-5.376 6.846s-.792 2.112 4.423-.144z" fill="rgb(182, 190, 177)" coriginal="rgb(255,101,132)" colortype="10" awdzp="10" style="fill: rgb(182, 190, 177);"></path><path d="M965.037 567.475c-58.905-21.514-66.683-64.043-50.906-107.24s49.133-70.703 108.038-49.189l105.275 127.097s-103.502 50.846-162.407 29.333z" fill="rgb(154, 162, 149)" coriginal="rgb(108,99,255)" colortype="12" awdzp="12" style="fill: rgb(154, 162, 149);"></path><path fill="rgb(32, 47, 55)" d="M924.182 460.676l49.005 18.806 48.813 55.612-41.125-52.662 22.035 8.456 35.733 39.091-29.902-36.853 39.63 15.208 26.143 37.433-19.911-35.042 72.955 27.104-95.846-37.888 3.916 1.667 47.424-11.03-54.941 7.83-43.673-18.592 1.207.362 50.824-14.121-54.967 12.509-5.462-2.325-.065-.083-.466-.143-110.803-47.17-2.886 7.9 58.002 22.258 33.884 44.88-29.524-43.207z" coriginal="rgb(63,61,86)" colortype="30" awdzp="30" style="fill: rgb(32, 47, 55);"></path><path d="M820.992 412.421s-12.544 16.914-4.228 23.256l25.793-4.51s40.311 28.049 39.747 11.558l-29.458-27.908-19.451.564 2.96-9.725-8.175-.846z" fill="rgb(192, 200, 187)" coriginal="rgb(255,185,185)" colortype="8" awdzp="8" style="fill: rgb(192, 200, 187);"></path><path d="M820.992 412.421s-12.544 16.914-4.228 23.256l25.793-4.51s40.311 28.049 39.747 11.558l-29.458-27.908-19.451.564 2.96-9.725-8.175-.846z" opacity=".1"></path><path d="M941.359 413.035s-79.213 61.03-84.287 39.606c-3.298-13.924-.761-48.208 1.419-70.506a69.107 69.107 0 0 1 20.469-42.801c4.752-4.63 9.161-7.535 11.375-5.371 6.202 6.061-14.518 30.304-14.518 30.304s-3.383 49.191 3.383 54.829c0 0 24.51-23.667 29.592-23.321l32.566 17.26z" transform="translate(-36.221 -33.173)" fill="rgb(192, 200, 187)" coriginal="rgb(255,185,185)" colortype="8" awdzp="8" style="fill: rgb(192, 200, 187);"></path><path d="M957.606 315.146c-6.489-9.768-11.847-25.479-17.628-39.315-1.874-4.484-3.585-9.027-5.261-13.589-3.378-9.194-18.085-21.063-37.347-21.063-22.015 0-39.862 11.079-39.862 20.374 0 7.685 12.204 14.163 28.872 16.178-5.856 13.071-9.384 27.578-9.384 37.415 0 22.26 18.045 12.845 40.305 12.845s52.623 5.697 40.305-12.845z" fill="rgb(22, 37, 45)" coriginal="rgb(47,46,65)" colortype="32" awdzp="32" style="fill: rgb(22, 37, 45);"></path><path d="M922.051 341.806s14.095 35.942-17.618 44.117c0 0-6.202-8.598-16.35-10.007l-19.169-11.981s20.719-29.176 36.928-29.74l16.209 7.611z" fill="rgb(182, 190, 177)" coriginal="rgb(255,101,132)" colortype="10" awdzp="10" style="fill: rgb(182, 190, 177);"></path></svg>