<svg xmlns="http://www.w3.org/2000/svg" width="1061" height="742.855" viewBox="0 0 1061 742.85506" id="svgid6" repair="1" xmlns:xlink="http://www.w3.org/1999/xlink"><path d="M1049 437.442c0 103.859-61.742 140.122-137.905 140.122s-137.905-36.264-137.905-140.122l137.905-235.983s137.905 132.125 137.905 235.983z" fill="rgb(250, 250, 250)" coriginal="rgb(242,242,242)" colortype="1" awdzp="1" style="fill: rgb(250, 250, 250);"></path><path fill="rgb(32, 47, 55)" d="M906.071 561.677l1.412-86.921 58.779-107.532-58.557 93.897.635-39.083 40.51-77.799-40.342 67.457 1.141-70.293 43.38-61.937-43.2 50.884.714-128.891-4.484 170.628.368-7.039-44.104-67.508 43.397 81.021-4.11 78.504-.122-2.084-50.844-71.042 50.69 78.404-.514 9.817-.092.148.042.806-10.426 199.173h13.93l1.671-102.877 50.566-78.211-50.44 70.478z" coriginal="rgb(63,61,86)" colortype="30" awdzp="30" style="fill: rgb(32, 47, 55);"></path><path d="M762.157 342.914c0 134.324-79.853 181.225-178.358 181.225s-178.358-46.901-178.358-181.225l178.358-305.205s178.358 170.881 178.358 305.205z" fill="rgb(250, 250, 250)" coriginal="rgb(242,242,242)" colortype="1" awdzp="1" style="fill: rgb(250, 250, 250);"></path><path fill="rgb(32, 47, 55)" d="M577.302 503.591l1.826-112.417 76.021-139.076-75.734 121.441.821-50.547 52.393-100.62-52.176 87.243v.001l1.477-90.912 56.104-80.106-55.872 65.81.923-166.699-5.799 220.68.477-9.104-57.041-87.31 56.126 104.786-5.315 101.532-.158-2.695-65.758-91.881 65.559 101.402-.665 12.698-.119.191.054 1.042-13.484 257.597h18.016l2.162-133.054 65.398-101.153-65.236 91.151zm460.668 187.774c0 10.11-29.38 19.55-80.14 27.5-91.98 14.42-254.15 23.99-438.85 23.99-286.62 0-518.98-23.05-518.98-51.49 0-3.93 4.46-7.78 12.91-11.46 9.53-4.17 24.15-8.14 43.17-11.85 39.21-7.65 97.14-14.19 167.8-19.05 82.02-5.63 181.21-8.98 288.21-9.11q3.435-.015 6.89-.01 19.335 0 38.33.14 8.925.06 17.77.16c63.02.67 122.66 2.46 176.86 5.16l7.23.37 2.46.13.66.04q15.975.84 31.25 1.79 5.01.3 9.93.63c31.87 2.07 61.29 4.48 87.75 7.19q6.78.69 13.3 1.41c33.48 3.67 61.67 7.84 83.39 12.37 32.1 6.69 50.06 14.18 50.06 22.09z" coriginal="rgb(63,61,86)" colortype="30" awdzp="30" style="fill: rgb(32, 47, 55);"></path><ellipse cx="752.963" cy="688.148" rx="113.082" ry="26.202" opacity=".1"></ellipse><path d="M1037.97 691.365c0 10.11-29.38 19.55-80.14 27.5-38.38-4.19-64.95-13.24-64.95-23.72 0-13.05 41.16-23.87 95.03-25.87 32.1 6.69 50.06 14.18 50.06 22.09zm-475.316-11.951c0 17.266-123.076 31.259-274.891 31.259-150.39 0-272.575-13.726-274.855-30.771 29.19-12.742 106.04-23.683 210.968-30.9 20.502-.552 41.896-.846 63.887-.846 151.815 0 274.891 13.993 274.891 31.259z" opacity=".1"></path><path fill="rgb(32, 47, 55)" d="M56.082 0h456.007v683.091h-456.007z" coriginal="rgb(63,61,86)" colortype="30" awdzp="30" style="fill: rgb(32, 47, 55);"></path><path fill="rgb(22, 37, 45)" d="M83.663 237.197h428.426v209.616h-428.426z" coriginal="rgb(47,46,65)" colortype="32" awdzp="32" style="fill: rgb(22, 37, 45);"></path><path fill="rgb(32, 47, 55)" d="M256.504 241.794h423.829v199.503h-423.829z" coriginal="rgb(63,61,86)" colortype="30" awdzp="30" style="fill: rgb(32, 47, 55);"></path><path fill="rgb(154, 162, 149)" d="M282.476 271.214h94.695v34.017h-94.695zm23.444 59.759h348.441v9.194h-348.441zm0 23.903h348.441v9.194h-348.441zm0 23.904h348.441v9.194h-348.441zm0 23.904h348.441v9.194h-348.441z" coriginal="rgb(108,99,255)" colortype="12" awdzp="12" style="fill: rgb(154, 162, 149);"></path><path fill="rgb(250, 250, 250)" d="M86.421 77.227h94.695v34.017h-94.695zm23.444 59.759h348.441v9.194h-348.441zm0 23.904h348.441v9.194h-348.441zm0 23.903h348.441v9.194h-348.441zm0 23.904h348.441v9.194h-348.441zm-19.767 259.262h94.695v34.017h-94.695zm23.444 59.759h348.441v9.194h-348.441zm0 23.903h348.441v9.194h-348.441zm0 23.904h348.441v9.194h-348.441zm0 23.904h348.441v9.194h-348.441z" coriginal="rgb(242,242,242)" colortype="1" awdzp="1" style="fill: rgb(250, 250, 250);"></path><path d="M723.063 140.458s18.904 24.22 16.541 41.352l38.989-23.629s-14.178-29.537-6.498-43.714l-49.031 25.992z" fill="rgb(192, 200, 187)" coriginal="rgb(255,185,185)" colortype="8" awdzp="8" style="fill: rgb(192, 200, 187);"></path><path d="M789.225 630.769s24.811 27.174 20.676 33.081-76.796 28.355-85.066 27.174-12.405-7.089-9.452-8.861l21.857-11.815 15.95-18.313s11.815-6.498 11.815-10.043l24.22-11.224z" fill="rgb(22, 37, 45)" coriginal="rgb(47,46,65)" colortype="32" awdzp="32" style="fill: rgb(22, 37, 45);"></path><path d="M747.283 660.897s-9.452 15.359-11.224 15.95l8.861 21.857 24.811-7.68 13.587-11.224-2.954-15.359z" fill="rgb(192, 200, 187)" coriginal="rgb(255,185,185)" colortype="8" awdzp="8" style="fill: rgb(192, 200, 187);"></path><path d="M721.881 367.892l-11.815 52.576s-40.761 91.564-12.405 107.514l62.027 118.738 33.081-14.768-55.529-121.692 25.402-140.004z" fill="rgb(202, 210, 197)" coriginal="rgb(208,205,225)" colortype="6" awdzp="6" style="fill: rgb(202, 210, 197);"></path><path d="M721.881 367.892l-11.815 52.576s-40.761 91.564-12.405 107.514l62.027 118.738 33.081-14.768-55.529-121.692 25.402-140.004z" opacity=".1"></path><path d="M795.516 454.735h-5.994a333.982 333.982 0 0 0 3.04 54.348c4.135 30.128 14.768 99.244 14.768 99.244s-1.181 12.996 2.363 17.131 4.135-1.181 4.726 8.27l6.203 75.167s3.84 13.443-.295 16.397-12.405 18.904-6.498 21.267 46.668 5.317 48.44 3.544v-112.831s-1.181-22.448-2.363-23.629-6.498-17.131-4.726-20.676.591-14.178.591-15.95-5.317 0-.591-7.68l5.317-69.116s25.402-38.989 17.722-49.031z" transform="translate(-69.5 -78.572)" fill="rgb(202, 210, 197)" coriginal="rgb(208,205,225)" colortype="6" awdzp="6" style="fill: rgb(202, 210, 197);"></path><circle cx="739.603" cy="110.331" r="38.989" fill="rgb(192, 200, 187)" coriginal="rgb(255,185,185)" colortype="8" awdzp="8" style="fill: rgb(192, 200, 187);"></circle><path d="M778.592 151.682s-23.629 5.907-33.081 20.085l-8.27 1.772v8.27s-15.359 49.031-11.815 70.298 0 62.618-5.907 73.842-7.68 13.587-4.726 18.313 7.089 20.676 4.135 27.765 0 14.178 27.174 15.95 65.572 1.772 65.572-7.68-2.363-36.035 0-43.124 3.544-11.815 2.363-18.313l2.363-79.159s.591-72.661-37.807-88.02z" fill="rgb(22, 37, 45)" coriginal="rgb(47,46,65)" colortype="32" awdzp="32" style="fill: rgb(22, 37, 45);"></path><path d="M723.063 334.22l-32.49 48.44s-34.263 31.309-21.857 45.487l44.896-41.352 35.444-40.17z" fill="rgb(192, 200, 187)" coriginal="rgb(255,185,185)" colortype="8" awdzp="8" style="fill: rgb(192, 200, 187);"></path><path d="M743.739 679.801s-1.181-7.68-5.317-7.68l-31.9 18.904s-36.626 4.135-22.448 11.815 101.016 8.861 101.607 5.907 1.772-32.081-2.363-31.99l-37.216 6.589z" fill="rgb(22, 37, 45)" coriginal="rgb(47,46,65)" colortype="32" awdzp="32" style="fill: rgb(22, 37, 45);"></path><path d="M811.877 168.761a9.779 9.779 0 0 1-4.456 1.007c-1.593.091-3.496-.008-4.343-1.36a6.221 6.221 0 0 1-.542-2.837 9.346 9.346 0 0 0-10.922-7.96 13.445 13.445 0 0 0 1.741 5.543 11.855 11.855 0 0 1-10.422-1.387l-.6 7.957c-2.119 1.013-4.834 1.224-6.682-.226s-1.996-4.851.094-5.923c-2.582-.538-5.74-1.695-5.93-4.326-.173-2.4 2.375-4.157 2.844-6.518.383-1.925-.673-4.018.074-5.833.981-2.385 4.544-2.997 5.258-5.474.364-1.262-.16-2.611-.035-3.919.327-3.423 4.63-4.844 8.063-4.649s7.18 1.106 10.096-.715c1.414-.883 2.402-2.297 3.644-3.408a10.823 10.823 0 0 1 12.568-1.093c1.381.859 2.585 2.048 4.125 2.57 3.151 1.068 6.438-.953 9.733-1.418a8.086 8.086 0 0 1 6.779 1.964 5.549 5.549 0 0 1 1.01 6.686c1.933-.326 3.981-.642 5.802.082s3.213 2.905 2.371 4.675a6.056 6.056 0 0 0-.735 1.501c-.171 1.03.821 1.91 1.822 2.205s2.088.24 3.068.599c4.049 1.482 3.078 7.955 6.265 10.86a25.416 25.416 0 0 0 3.455 2.113 8.406 8.406 0 0 1 2.964 10.156c-.639 1.415-1.709 2.765-1.58 4.311.181 2.17 2.505 3.358 4.137 4.799a9.625 9.625 0 0 1 2.24 11.05c-1.5 3.128-4.747 5.499-5.077 8.953-.143 1.501.308 3 .282 4.507a9.287 9.287 0 0 1-3.992 7.012 20.765 20.765 0 0 1-7.663 3.189c-1.288.308-2.824.791-3.136 2.078-.37 1.526 1.333 2.914 1.157 4.474a2.595 2.595 0 0 1-1.042 1.686c-2.304 1.802-5.951.257-7.361-2.307s-1.229-5.671-1.011-8.588l.795-10.608c.247-3.301.224-7.22-2.467-9.148-2.975-2.131-7.307-.406-10.671-1.846-3.505-1.501-4.763-5.892-4.621-9.702s1.233-7.627.605-11.388c-.778-4.661-4.924-7.794-9.111-4.773 3.679-.501 4.314 3.721 1.407 5.431z" transform="translate(-69.5 -78.572)" fill="rgb(22, 37, 45)" coriginal="rgb(47,46,65)" colortype="32" awdzp="32" style="fill: rgb(22, 37, 45);"></path><path d="M775.048 180.038s-23.629 9.452-23.629 29.537 1.181 46.668-2.954 55.529-7.68 11.815-5.317 18.904 6.498 5.907 0 11.224-5.907-3.544-6.498 5.317 5.907 10.043 0 14.178-21.267 20.676-14.768 25.992 23.629 22.448 29.537 15.95 8.861-23.039 17.131-21.857 9.452 1.772 8.27-4.135-6.498-5.907.591-7.68 10.043 2.363 7.68-3.544-4.135-8.27.591-14.768 7.089-8.27 6.498-14.768l12.996-64.981s4.135-49.622-30.128-44.896zm-6.499-1.182s-23.63 9.452-23.63 29.537 1.181 46.668-2.954 55.529-7.68 11.815-5.317 18.904 6.498 5.907 0 11.224-5.907-3.544-6.498 5.317 5.907 10.043 0 14.178-21.267 20.676-14.768 25.992 23.629 22.448 29.537 15.95 8.861-23.039 17.131-21.857 9.452 1.772 8.27-4.135-6.498-5.907.591-7.68 10.043 2.363 7.68-3.544-4.135-8.27.591-14.768 7.089-8.27 6.498-14.768l12.996-64.981s4.135-49.622-30.127-44.896z" opacity=".1"></path><path d="M771.503 177.084s-23.629 9.452-23.629 29.537 1.181 46.668-2.954 55.529-7.68 11.815-5.317 18.904 6.498 5.907 0 11.224-5.907-3.544-6.498 5.317 5.907 10.043 0 14.178-21.267 20.676-14.768 25.992 23.629 22.448 29.537 15.95 8.861-23.039 17.131-21.857 9.452 1.772 8.27-4.135-6.498-5.907.591-7.68 10.043 2.363 7.68-3.544-4.135-8.27.591-14.768 7.089-8.27 6.498-14.768l12.996-64.981s4.135-49.622-30.128-44.896zm123.497 408.13c0 51.684 32.424 93.506 72.494 93.506" fill="rgb(22, 37, 45)" coriginal="rgb(47,46,65)" colortype="32" awdzp="32" style="fill: rgb(22, 37, 45);"></path><path d="M967.494 678.721c0-52.265 36.183-94.557 80.899-94.557m-127.127 5.736c0 49.094 20.676 88.821 46.228 88.821" fill="rgb(154, 162, 149)" coriginal="rgb(108,99,255)" colortype="12" awdzp="12" style="fill: rgb(154, 162, 149);"></path><path d="M967.494 678.721c0-66.783 41.822-120.823 93.506-120.823" fill="rgb(22, 37, 45)" coriginal="rgb(47,46,65)" colortype="32" awdzp="32" style="fill: rgb(22, 37, 45);"></path><path d="M952.243 679.38s10.281-.317 13.379-2.523 15.814-4.841 16.583-1.302 15.45 17.599 3.843 17.692-26.969-1.808-30.062-3.692l-3.744-10.175z" fill="rgb(133, 109, 138)" coriginal="rgb(168,168,168)" colortype="13" awdzp="13" style="fill: rgb(133, 109, 138);"></path><path d="M986.255 692.015c-11.607.094-26.969-1.808-30.062-3.692-2.355-1.435-3.293-6.582-3.607-8.957l-.343.013s.651 8.292 3.744 10.175 18.455 3.785 30.062 3.692c3.35-.027 4.508-1.219 4.444-2.985-.465 1.067-1.743 1.733-4.237 1.753z" opacity=".2"></path></svg>