<svg xmlns="http://www.w3.org/2000/svg" width="994.995" height="662.08" viewBox="0 0 994.9952 662.08019" id="svgid8" repair="1" xmlns:xlink="http://www.w3.org/1999/xlink"><path d="M1097.44 499.83a287.137 287.137 0 0 1-163.69 254.01 282.147 282.147 0 0 1-121.25 27.2q-9.045 0-17.96-.56a3110.258 3110.258 0 0 0-389.08 0q-8.91.555-17.96.56a282.058 282.058 0 0 1-138.92-36.35 287.209 287.209 0 0 1-146.02-244.86c-3.16-160.68 124.03-292.05 283.61-292.79 84.99-.39 161.37 36.69 213.83 95.77 52.46-59.08 128.84-96.16 213.83-95.77 159.58.74 286.77 132.11 283.61 292.79z" transform="translate(-102.502 -118.96)" fill="rgb(250, 250, 250)" coriginal="rgb(242,242,242)" colortype="1" awdzp="1" style="fill: rgb(250, 250, 250);"></path><path d="M933.75 753.84a282.147 282.147 0 0 1-121.25 27.2q-9.045 0-17.96-.56a3110.258 3110.258 0 0 0-389.08 0q-8.91.555-17.96.56a282.058 282.058 0 0 1-138.92-36.35c64.13-27.78 189.39-46.65 333.42-46.65 159.34 0 295.71 23.09 351.75 55.8z" transform="translate(-102.502 -118.96)" fill="rgb(22, 37, 45)" coriginal="rgb(47,46,65)" colortype="32" awdzp="32" style="fill: rgb(22, 37, 45);"></path><path d="M736.377 356.117a22.982 22.982 0 0 0-23.874-3.782c-11.878 5.18-17.05 19.732-16.22 32.663s6.219 25.062 9.709 37.541c4.687 16.762 5.904 34.929.411 51.444s-18.42 31.069-35.187 35.738c-15.563 4.333-32.071-.011-47.634-4.344" transform="translate(-102.502 -118.96)" stroke="#3f3d56" stroke-miterlimit="10" fill="none"></path><path d="M764.553 330.279a13.569 13.569 0 1 0-27.093-1.563l-1.563 27.093 27.093 1.563a13.569 13.569 0 1 0 1.563-27.093zm-29.132 70.543a13.569 13.569 0 1 0-27.093-1.563l-1.563 27.093 27.093 1.563a13.569 13.569 0 0 0 1.563-27.093zm-39.038-75.568a13.569 13.569 0 1 0-17.428 20.802l20.802 17.428 17.428-20.802a13.569 13.569 0 1 0-20.802-17.428z" transform="translate(-102.502 -118.96)" fill="rgb(154, 162, 149)" coriginal="rgb(108,99,255)" colortype="12" awdzp="12" style="fill: rgb(154, 162, 149);"></path><path d="M858.424 343.766a22.982 22.982 0 0 0-22.004-10.005c-12.828 1.829-21.69 14.477-24.334 27.162s-.682 25.813-.642 38.77c.053 17.405-3.613 35.239-13.307 49.694s-26.03 25.04-43.435 25.073c-16.155.031-30.909-8.554-44.756-16.875" transform="translate(-102.502 -118.96)" stroke="#3f3d56" stroke-miterlimit="10" fill="none"></path><path d="M892.465 326.366a13.569 13.569 0 0 0-25.697-8.723l-8.723 25.697 25.697 8.723a13.569 13.569 0 1 0 8.723-25.697zm-46.871 60.234a13.569 13.569 0 0 0-25.697-8.723l-8.723 25.697 25.697 8.723a13.569 13.569 0 1 0 8.723-25.697zm-17.498-83.236a13.569 13.569 0 1 0-22.339 15.408l15.408 22.339 22.339-15.408a13.569 13.569 0 0 0-15.408-22.339z" transform="translate(-102.502 -118.96)" fill="rgb(154, 162, 149)" coriginal="rgb(108,99,255)" colortype="12" awdzp="12" style="fill: rgb(154, 162, 149);"></path><path d="M799.946 162.865a22.982 22.982 0 0 1 22.288 9.357c7.37 10.658 4.105 25.753-3.41 36.309s-18.484 18.031-28.021 26.802c-12.811 11.781-23.412 26.585-27.438 43.517s-.701 36.112 11.095 48.91c10.948 11.879 27.27 16.878 42.782 21.39" transform="translate(-102.502 -118.96)" stroke="#3f3d56" stroke-miterlimit="10" fill="none"></path><path d="M789.599 126.062a13.569 13.569 0 1 1 23.855 12.938l-12.938 23.855-23.855-12.938a13.569 13.569 0 1 1 12.938-23.855zm-12.38 75.311a13.569 13.569 0 1 1 23.855 12.938l-12.938 23.855-23.855-12.938a13.569 13.569 0 1 1 12.938-23.855zm72.979-43.686a13.569 13.569 0 1 1 3.863 26.861l-26.861 3.863-3.863-26.861a13.569 13.569 0 1 1 26.861-3.863z" transform="translate(-102.502 -118.96)" fill="rgb(154, 162, 149)" coriginal="rgb(108,99,255)" colortype="12" awdzp="12" style="fill: rgb(154, 162, 149);"></path><path fill="rgb(197, 205, 192)" d="M440.498 331.08h25v13h-25z" coriginal="rgb(251,190,190)" colortype="7" awdzp="7" style="fill: rgb(197, 205, 192);"></path><path opacity=".1" d="M440.498 331.08h25v13h-25z"></path><circle cx="394.498" cy="112.08" r="32" fill="rgb(22, 37, 45)" coriginal="rgb(47,46,65)" colortype="32" awdzp="32" style="fill: rgb(22, 37, 45);"></circle><path d="M466.998 324.58s-10-3-12-2l7 9z" fill="rgb(197, 205, 192)" coriginal="rgb(251,190,190)" colortype="7" awdzp="7" style="fill: rgb(197, 205, 192);"></path><path d="M466.998 324.58s-10-3-12-2l7 9z" opacity=".1"></path><path d="M397.998 580.58s23 3 27 3 15 4 9 9-44 12-49 9-12-12-7-13l20-8z" fill="rgb(32, 47, 55)" coriginal="rgb(63,61,86)" colortype="30" awdzp="30" style="fill: rgb(32, 47, 55);"></path><path fill="rgb(197, 205, 192)" d="M356.998 617.58l-8 14 10 5 19 4 10-13-4-15-27 5z" coriginal="rgb(251,190,190)" colortype="7" awdzp="7" style="fill: rgb(197, 205, 192);"></path><path d="M409.998 514.58s-13 55-11 58 6 11 2 14l-20 4 5-29 7-35zm-36-116l13 59s2 29-3 40l-32 127s28 1 34-2l16.119-72.265s32.881-65.735 31.881-78.735 4.968-79.037-3.516-84.019l-56.484 11.019z" fill="rgb(22, 37, 45)" coriginal="rgb(47,46,65)" colortype="32" awdzp="32" style="fill: rgb(22, 37, 45);"></path><path d="M375.998 635.58l12-12s32 16 37 17 16 9 5 12-52 1-62 0-30-2-27-8l8-27s2.764-3.821 4.382 1.09 2.618 11.91 6.618 11.91l16 5z" fill="rgb(32, 47, 55)" coriginal="rgb(63,61,86)" colortype="30" awdzp="30" style="fill: rgb(32, 47, 55);"></path><path d="M529.998 381.58l28-2 19 10-2 12-8 2s-22-9-35-6l-2-16z" fill="rgb(108, 84, 113)" coriginal="rgb(160,97,106)" colortype="18" awdzp="18" style="fill: rgb(108, 84, 113);"></path><path d="M562.998 385.58s11 12.032 0 16.516c0 0 2 3.484 10 4.484s19 8 22 8 16-2 8-13l-40-35s-9-4-12 4l-4.583 9.827s14.583 3.173 16.583 5.173z" fill="rgb(22, 37, 45)" coriginal="rgb(47,46,65)" colortype="32" awdzp="32" style="fill: rgb(22, 37, 45);"></path><path d="M478.998 481.58s9 34 9 36l12-8 2-18s-8-8-8-13l-15 3z" fill="rgb(108, 84, 113)" coriginal="rgb(160,97,106)" colortype="18" awdzp="18" style="fill: rgb(108, 84, 113);"></path><path d="M599.5 624.54s-7 9-12 6l3 34s2 17 9 10l14-42s10-21 2-24a83.282 83.282 0 0 0-14-4s0 21-2 20z" transform="translate(-102.502 -118.96)" fill="rgb(22, 37, 45)" coriginal="rgb(47,46,65)" colortype="32" awdzp="32" style="fill: rgb(22, 37, 45);"></path><path d="M431.998 391.58l30 62s10 35 14 36 19-6 21-7-17-40-17-47l-23-46z" fill="rgb(182, 190, 177)" coriginal="rgb(255,101,132)" colortype="10" awdzp="10" style="fill: rgb(182, 190, 177);"></path><path d="M431.998 391.58l30 62s10 35 14 36 19-6 21-7-17-40-17-47l-23-46z" opacity=".1"></path><path d="M452.998 283.58s1 21-3 35l5 60s15 1 19 0 58-2 61 0 2 37 0 36-54-12-79-8-28-2-29-4l-18-56-6-26-8-28 5-27z" fill="rgb(182, 190, 177)" coriginal="rgb(255,101,132)" colortype="10" awdzp="10" style="fill: rgb(182, 190, 177);"></path><circle cx="392.498" cy="126.08" r="27" fill="rgb(108, 84, 113)" coriginal="rgb(160,97,106)" colortype="18" awdzp="18" style="fill: rgb(108, 84, 113);"></circle><circle cx="341.998" cy="189.58" r="27" fill="rgb(197, 205, 192)" coriginal="rgb(251,190,190)" colortype="7" awdzp="7" style="fill: rgb(197, 205, 192);"></circle><path d="M399.998 144.58s18 12 15 19l-11 15-1 11 15 5 38 2s-2-34-14-43-26-15-28-23l-14 14z" fill="rgb(108, 84, 113)" coriginal="rgb(160,97,106)" colortype="18" awdzp="18" style="fill: rgb(108, 84, 113);"></path><path d="M552.116 288.206c-6.544-12.226-24.957-10.74-28.773 2.592a12.062 12.062 0 0 0 1.157 9.743c7 12 12 21 12 21l22-2s.433-18.6-6.384-31.334z" transform="translate(-102.502 -118.96)" fill="rgb(108, 84, 113)" coriginal="rgb(160,97,106)" colortype="18" awdzp="18" style="fill: rgb(108, 84, 113);"></path><path d="M509.786 293.954s-26.286 16.586-24.286 27.586 4 30 4 37 7 29 17 33 10-7 24 6 29 19 28 21 4-18-4-26-17-31-9-41l15-36s-1-6-7-5-43-3-45-8a8.443 8.443 0 0 1 1.286-8.586z" transform="translate(-102.502 -118.96)" fill="rgb(22, 37, 45)" coriginal="rgb(47,46,65)" colortype="32" awdzp="32" style="fill: rgb(22, 37, 45);"></path><path d="M403.553 183.474s27.445-29.894 31.445-28.894l15.519 12.834-15.519-10.834-31.445 28.579z" fill="rgb(22, 37, 45)" coriginal="rgb(47,46,65)" colortype="32" awdzp="32" style="fill: rgb(22, 37, 45);"></path><path d="M364.998 194.58s3.756 40.446 8.878 44.223l-38.878 2.777s10-31 4-35l26-12z" fill="rgb(197, 205, 192)" coriginal="rgb(251,190,190)" colortype="7" awdzp="7" style="fill: rgb(197, 205, 192);"></path><path d="M477.5 346.54s-34-9-38-4l-12 48s4 29 11 50 16 95 23 95 19-11 22-11 21-9 32-7a38.933 38.933 0 0 0 19-1s-5-42-17-53l-18-87s-17-32-22-30z" transform="translate(-102.502 -118.96)" fill="rgb(32, 47, 55)" coriginal="rgb(63,61,86)" colortype="30" awdzp="30" style="fill: rgb(32, 47, 55);"></path><path d="M426.998 322.58s11.371 15.433 22.685 16.217l6.315-.217s-10 26-5 27 20-19 15-30l-20-28zm40 0s-17 16-10 23h16s7-10-6-23z" fill="rgb(197, 205, 192)" coriginal="rgb(251,190,190)" colortype="7" awdzp="7" style="fill: rgb(197, 205, 192);"></path><path d="M466.998 322.58s-17 16-10 23h16s7-10-6-23z" opacity=".1"></path><circle cx="401.498" cy="106.08" r="32" fill="rgb(22, 37, 45)" coriginal="rgb(47,46,65)" colortype="32" awdzp="32" style="fill: rgb(22, 37, 45);"></circle><circle cx="416.498" cy="79.08" r="19" fill="rgb(22, 37, 45)" coriginal="rgb(47,46,65)" colortype="32" awdzp="32" style="fill: rgb(22, 37, 45);"></circle><path d="M504 192.04a19.001 19.001 0 0 1 17-18.893 19.193 19.193 0 0 0-2-.107 19 19 0 1 0 2 37.893 19.001 19.001 0 0 1-17-18.893z" transform="translate(-102.502 -118.96)" fill="rgb(22, 37, 45)" coriginal="rgb(47,46,65)" colortype="32" awdzp="32" style="fill: rgb(22, 37, 45);"></path><ellipse cx="390.998" cy="119.08" rx="25.5" ry="19" fill="rgb(22, 37, 45)" coriginal="rgb(47,46,65)" colortype="32" awdzp="32" style="fill: rgb(22, 37, 45);"></ellipse><path d="M445.626 298.516c-.35 1.877-1.183 3.763-.48 5.696.521 1.432 1.791 2.567 2.553 3.924 1.535 2.731.518 6.226-2.122 7.296a7.147 7.147 0 0 0-4.912-.831 3.199 3.199 0 0 0-2.478 3.468c.352 2.309 3.044 3.788 4.413 5.848a15.131 15.131 0 0 1 1.672 4.959c.674 2.697 1.859 5.374 1.996 8.072s-1.175 5.549-3.852 5.935c-2.251.325-4.67-1.201-6.298-3.053s-2.726-4.049-4.217-5.998c-4.845-6.335-13.126-9.288-18.734-15.037-7.186-7.367-8.708-18.28-6.137-26.978 1.08-3.653 2.866-7.145 5.901-9.374 3.186-2.339 7.44-3.087 11.007-4.906 3.815-1.945 6.742-5.057 10.116-7.596s7.554-4.576 12.159-3.891c3.212.478 6.259 2.226 9.446 3.051a15.283 15.283 0 0 0 10.417-.859l-2.962 3.178a15.083 15.083 0 0 0 6.712 1.017 8.138 8.138 0 0 1-4.505 4.069 8.086 8.086 0 0 0 5.616 1.693c-2.198 2.511-4.56 5.125-7.946 6-1.659.429-3.466.408-5.178.688-3.65.597-6.723 2.524-9.704 4.415-1.565.993-3.533 2.119-3.522 4.181.009 1.717 1.397 3.118 1.039 5.036z" transform="translate(-102.502 -118.96)" fill="rgb(22, 37, 45)" coriginal="rgb(47,46,65)" colortype="32" awdzp="32" style="fill: rgb(22, 37, 45);"></path><path d="M354.998 237.58s-9 33 7 40 49 33 55 42l13 12s24-20 19-26l-25-24s-51-55-69-44z" fill="rgb(32, 47, 55)" coriginal="rgb(63,61,86)" colortype="30" awdzp="30" style="fill: rgb(32, 47, 55);"></path><path d="M433.998 238.58s-36.739-10.502-47.87-12.251-40.13 1.251-34.13 6.251l41 9 42 16z" fill="rgb(108, 84, 113)" coriginal="rgb(160,97,106)" colortype="18" awdzp="18" style="fill: rgb(108, 84, 113);"></path><path d="M433.998 197.58s3 20 3 27 5 13 1 13-7-4-7 0-6 28 0 28 21-4 24-4 13-2 12-13-5-23-3-25 3-12 1-14l-7-15z" fill="rgb(22, 37, 45)" coriginal="rgb(47,46,65)" colortype="32" awdzp="32" style="fill: rgb(22, 37, 45);"></path><path d="M747.87 520.089a7.009 7.009 0 1 0-1.671 13.917l13.917 1.671 1.671-13.917a7.009 7.009 0 1 0-13.917-1.671zm167.729-66.877a7.009 7.009 0 0 0-6.883 12.211l12.211 6.883 6.883-12.211a7.009 7.009 0 1 0-12.211-6.883zm-74.729 94.877a7.009 7.009 0 1 0-1.671 13.917l13.917 1.671 1.671-13.917a7.009 7.009 0 1 0-13.917-1.671z" transform="translate(-102.502 -118.96)" fill="rgb(154, 162, 149)" opacity=".3" coriginal="rgb(108,99,255)" colortype="12" awdzp="12" style="fill: rgb(154, 162, 149);"></path></svg>