<svg xmlns="http://www.w3.org/2000/svg" width="918.573" height="684" viewBox="0 0 918.57304 684" id="svgid10" repair="1" xmlns:xlink="http://www.w3.org/1999/xlink"><circle cx="355.573" cy="328" r="328" fill="rgb(250, 250, 250)" coriginal="rgb(242,242,242)" colortype="1" awdzp="1" style="fill: rgb(250, 250, 250);"></circle><path d="M176.554 121.417l-6.792 54.922c8.336 16.315 17.166 34.863 25.587 54.87l15.994-82.816.808.737c-11.694-11.832-23.994-21.463-36.42-28.374zm-8.259 52.062l6.58-53.201c-13.977-7.629-28.097-11.798-41.675-11.723-.706.004-1.404.028-2.101.055 2.727 4.168 18.57 28.742 37.197 64.869zm108.698 85.69l.732.988q-3.646-11.087-8.037-21.722l-41.247 92.402-.352-.438q1.566 6.819 2.885 13.507z" fill="rgb(154, 162, 149)" coriginal="rgb(108,99,255)" colortype="12" awdzp="12" style="fill: rgb(154, 162, 149);"></path><path d="M389.777 305.766l.779.88a258.753 258.753 0 0 0-36.883-48.686l-16.3 84.394q11.711 28.181 20.183 55.018zm-182.733-4.323a216.052 216.052 0 0 0 1.147 43.531l143.856 40.395c-5.212-15.42-10.821-30.011-16.402-43.391l-128.428-39.319z" transform="translate(-140.713 -108)" fill="rgb(154, 162, 149)" coriginal="rgb(108,99,255)" colortype="12" awdzp="12" style="fill: rgb(154, 162, 149);"></path><path d="M70.078 253.7l-.196-1.217 145.961 38.77q-1.779-5.718-3.642-11.307l-144.387-40.544-.188-1.218q.971 7.631 2.452 15.517z" fill="rgb(154, 162, 149)" coriginal="rgb(108,99,255)" colortype="12" awdzp="12" style="fill: rgb(154, 162, 149);"></path><path d="M409.08 344.131l.756.94a309.002 309.002 0 0 0-18.597-37.271l-32.655 92.845q5.548 17.927 9.593 35.117z" transform="translate(-140.713 -108)" fill="rgb(154, 162, 149)" coriginal="rgb(108,99,255)" colortype="12" awdzp="12" style="fill: rgb(154, 162, 149);"></path><path d="M237.65 395.34c1.49 26.511-.44 51.001-5.79 73.195 11.339-16.231 55.497-83.959 55.487-154.187z" fill="rgb(154, 162, 149)" coriginal="rgb(108,99,255)" colortype="12" awdzp="12" style="fill: rgb(154, 162, 149);"></path><path d="M229.085 417.935a298.926 298.926 0 0 0 20.388 34.431l-.137-1.339 127.176 49.893a371.63 371.63 0 0 0-5.573-44.189z" transform="translate(-140.713 -108)" fill="rgb(154, 162, 149)" coriginal="rgb(108,99,255)" colortype="12" awdzp="12" style="fill: rgb(154, 162, 149);"></path><path d="M167.003 174.172c-20.163-39.082-37.009-64.492-37.252-64.856l.466-.67c-20.607 1.078-36.938 12.153-48.013 30.351z" fill="rgb(154, 162, 149)" coriginal="rgb(108,99,255)" colortype="12" awdzp="12" style="fill: rgb(154, 162, 149);"></path><path d="M372.348 455.36c.262 1.384.533 2.773.779 4.149a369.221 369.221 0 0 1 4.993 39.866l49.226-80.224.694.986a146.38 146.38 0 0 0-4.973-36.609q-1.916-7.031-4.151-13.915z" transform="translate(-140.713 -108)" fill="rgb(154, 162, 149)" coriginal="rgb(108,99,255)" colortype="12" awdzp="12" style="fill: rgb(154, 162, 149);"></path><path d="M193.813 231.311c-8.339-19.774-17.071-38.1-25.313-54.224l-86.745-35.982-.109-1.192c-8.197 13.867-13.405 31.742-15.214 52.399zm42.13 163.965l-126.246-49.529c45.299 66.024 114.843 122.669 119.287 126.258 6.593-24.505 8.408-50.532 6.959-76.729z" fill="rgb(154, 162, 149)" coriginal="rgb(108,99,255)" colortype="12" awdzp="12" style="fill: rgb(154, 162, 149);"></path><path d="M370.413 454.252l.044-.081a501.537 501.537 0 0 0-13.116-52.37l-146.32-38.866q2.054 10.675 5.056 21.734a179.712 179.712 0 0 0 11.671 30.564z" transform="translate(-140.713 -108)" fill="rgb(154, 162, 149)" coriginal="rgb(108,99,255)" colortype="12" awdzp="12" style="fill: rgb(154, 162, 149);"></path><path d="M423.205 352.944l-40.261 37.968c-3.985 17.883-9.015 37.8-15.29 58.58l65.14-53.583.152 1.084c-1.46-16.571-4.791-31.835-9.952-45.083zm-39.567 34.83l39-36.778c-5.899-14.791-14.116-27.007-24.621-35.61-.547-.448-1.1-.874-1.653-1.298-.558 4.95-4.03 33.98-12.726 73.686zm29.064 135.328l-.066 1.228q4.264-10.864 7.665-21.856l-90.703 44.859.008-.562q-3.144 6.251-6.393 12.243z" fill="rgb(154, 162, 149)" coriginal="rgb(108,99,255)" colortype="12" awdzp="12" style="fill: rgb(154, 162, 149);"></path><path d="M571.068 565.995l.039 1.175a258.753 258.753 0 0 0 2.646-61.021l-66.382 54.603q-8.955 29.174-19.547 55.247zm-137.981-119.879a216.051 216.051 0 0 0-26.881 34.259l85.032 122.866c5.821-15.2 10.808-30.016 15.043-43.88l-73.836-112.197z" transform="translate(-140.713 -108)" fill="rgb(154, 162, 149)" coriginal="rgb(108,99,255)" colortype="12" awdzp="12" style="fill: rgb(154, 162, 149);"></path><path d="M256.826 386.915l.626-1.063 87.689 122.956q2.277-5.538 4.407-11.032l-85.346-123.319.632-1.058q-4.119 6.497-8.008 13.515z" fill="rgb(154, 162, 149)" coriginal="rgb(108,99,255)" colortype="12" awdzp="12" style="fill: rgb(154, 162, 149);"></path><path d="M561.465 607.856l-.017 1.206a309.003 309.003 0 0 0 9.448-40.567l-84.369 50.68q-7.161 17.346-15.01 33.166z" transform="translate(-140.713 -108)" fill="rgb(154, 162, 149)" coriginal="rgb(108,99,255)" colortype="12" awdzp="12" style="fill: rgb(154, 162, 149);"></path><path d="M295.548 602.886c-15.762 21.368-32.868 38.999-51.144 52.682 19.086-5.269 96.294-29.268 141.078-83.363z" fill="rgb(154, 162, 149)" coriginal="rgb(108,99,255)" colortype="12" awdzp="12" style="fill: rgb(154, 162, 149);"></path><path d="M375.762 549.896a298.924 298.924 0 0 0-6.258 39.523l.748-1.119 66.127 119.542a371.629 371.629 0 0 0 23.892-37.588z" transform="translate(-140.713 -108)" fill="rgb(154, 162, 149)" coriginal="rgb(108,99,255)" colortype="12" awdzp="12" style="fill: rgb(154, 162, 149);"></path><path d="M382.201 387.484c9.398-42.961 12.63-73.276 12.675-73.711l.786-.219c-16.559-12.313-36.2-14.2-56.338-7.248z" fill="rgb(154, 162, 149)" coriginal="rgb(108,99,255)" colortype="12" awdzp="12" style="fill: rgb(154, 162, 149);"></path><path d="M462.231 670.094c-.681 1.234-1.359 2.476-2.046 3.693a369.219 369.219 0 0 1-21.581 33.889l89.082-30.39-.095 1.202a146.38 146.38 0 0 0 19.519-31.368q3.009-6.637 5.678-13.364z" transform="translate(-140.713 -108)" fill="rgb(154, 162, 149)" coriginal="rgb(108,99,255)" colortype="12" awdzp="12" style="fill: rgb(154, 162, 149);"></path><path d="M366.406 448.592c6.189-20.548 11.152-40.232 15.089-57.908l-43.86-83.041.676-.988c-15.158 5.452-30.57 15.897-45.139 30.653zm-72.132 153.155l-65.643-118.668c-7.223 79.744 10.211 167.727 11.344 173.325 20.708-14.668 38.706-33.557 54.299-54.658z" fill="rgb(154, 162, 149)" coriginal="rgb(108,99,255)" colortype="12" awdzp="12" style="fill: rgb(154, 162, 149);"></path><path d="M461.447 668.007l.086-.034a501.541 501.541 0 0 0 23.3-48.7l-87.905-123.259q-5.226 9.532-9.968 19.965a179.711 179.711 0 0 0-10.505 30.983z" transform="translate(-140.713 -108)" fill="rgb(154, 162, 149)" coriginal="rgb(108,99,255)" colortype="12" awdzp="12" style="fill: rgb(154, 162, 149);"></path><path d="M86.807 354.835l10.517 54.332c12.971 12.939 27.102 27.85 41.294 44.274l-10.387-83.704.997.452c-14.778-7.638-29.454-12.996-43.407-15.728zm8.237 52.066l-10.187-52.63c-15.651-2.935-30.368-2.535-43.258 1.733-.671.222-1.327.461-1.981.702 3.882 3.121 26.544 21.594 55.426 50.195zm129.863 47.895l1.002.713q-6.894-9.417-14.358-18.174l-10.666 100.626-.471-.308q3.597 6.001 6.919 11.954z" fill="rgb(154, 162, 149)" coriginal="rgb(108,99,255)" colortype="12" awdzp="12" style="fill: rgb(154, 162, 149);"></path><path d="M320.078 513.033l1.013.596a258.753 258.753 0 0 0-50.125-34.901l10.584 85.3q19.848 23.182 36.2 46.085zm-175.12 52.37a216.052 216.052 0 0 0 14.546 41.044l149.298-6.048c-9.723-13.054-19.567-25.197-29.01-36.196l-134.293 2.303z" transform="translate(-140.713 -108)" fill="rgb(154, 162, 149)" coriginal="rgb(108,99,255)" colortype="12" awdzp="12" style="fill: rgb(154, 162, 149);"></path><path d="M26.433 513.552l-.563-1.097 150.797-8.244q-3.459-4.888-6.959-9.628l-149.849 6.071-.555-1.1q3.282 6.957 7.128 13.999z" fill="rgb(154, 162, 149)" coriginal="rgb(108,99,255)" colortype="12" awdzp="12" style="fill: rgb(154, 162, 149);"></path><path d="M350.295 543.553l1.009.66a309.002 309.002 0 0 0-29.207-29.697l-2.358 98.393q10.817 15.334 19.978 30.432z" transform="translate(-140.713 -108)" fill="rgb(154, 162, 149)" coriginal="rgb(108,99,255)" colortype="12" awdzp="12" style="fill: rgb(154, 162, 149);"></path><path d="M229.58 596.46c9.611 24.752 15.346 48.639 17.118 71.401 5.767-18.941 26.828-97.002 5.111-163.787z" fill="rgb(154, 162, 149)" coriginal="rgb(108,99,255)" colortype="12" awdzp="12" style="fill: rgb(154, 162, 149);"></path><path d="M201.927 669.379a298.926 298.926 0 0 0 30.033 26.443l-.544-1.231 136.371 8.14a371.631 371.631 0 0 0-18.959-40.302z" transform="translate(-140.713 -108)" fill="rgb(154, 162, 149)" coriginal="rgb(108,99,255)" colortype="12" awdzp="12" style="fill: rgb(154, 162, 149);"></path><path d="M94.03 407.959c-31.256-30.936-55.131-49.894-55.475-50.165l.236-.781c-19.265 7.395-31.373 22.975-36.281 43.705z" fill="rgb(154, 162, 149)" coriginal="rgb(108,99,255)" colortype="12" awdzp="12" style="fill: rgb(154, 162, 149);"></path><path d="M349.742 660.688c.677 1.236 1.364 2.473 2.023 3.705a369.221 369.221 0 0 1 17.071 36.37l22.019-91.511.965.724a146.38 146.38 0 0 0-16.045-33.279q-3.995-6.094-8.248-11.95z" transform="translate(-140.713 -108)" fill="rgb(154, 162, 149)" coriginal="rgb(108,99,255)" colortype="12" awdzp="12" style="fill: rgb(154, 162, 149);"></path><path d="M137.189 454.013c-14.043-16.228-28.012-30.957-40.834-43.744l-93.62-7.407-.472-1.1c-3.51 15.722-2.938 34.331 1.727 54.536zm90.748 142.914l-135.373-8.081c63.488 48.79 147.136 81.164 152.471 83.204-1.304-25.343-7.623-50.656-17.099-75.123z" fill="rgb(154, 162, 149)" coriginal="rgb(108,99,255)" colortype="12" awdzp="12" style="fill: rgb(154, 162, 149);"></path><path d="M347.559 660.233l.017-.091a501.539 501.539 0 0 0-28.661-45.751l-151.168 8.265q5.253 9.517 11.527 19.107a179.712 179.712 0 0 0 20.546 25.46z" transform="translate(-140.713 -108)" fill="rgb(154, 162, 149)" coriginal="rgb(108,99,255)" colortype="12" awdzp="12" style="fill: rgb(154, 162, 149);"></path><path d="M101.573 684s212-84 468 0" fill="rgb(22, 37, 45)" coriginal="rgb(47,46,65)" colortype="32" awdzp="32" style="fill: rgb(22, 37, 45);"></path><path d="M396.417 727.553a66.756 66.756 0 0 0 .832 6.706s18.243 12.405 19.703-1.459c.949-9.034-1.197-13.113-2.817-14.857l-.026-.028a5.618 5.618 0 0 1-1.536-3.805v-16.337l-16.054 5.108.73 13.865c-1.08 2.882-1.095 7.188-.832 10.807z" transform="translate(-140.713 -108)" fill="rgb(192, 200, 187)" coriginal="rgb(255,185,185)" colortype="8" awdzp="8" style="fill: rgb(192, 200, 187);"></path><path d="M396.417 727.553a66.756 66.756 0 0 0 .832 6.706s18.243 12.405 19.703-1.459c.949-9.034-1.197-13.113-2.817-14.857a4.359 4.359 0 0 0-4.481-.467c-2.919-1.299-6.13.868-8.786 3.671a25.797 25.797 0 0 0-4.451 6.407z" transform="translate(-140.713 -108)" opacity=".05"></path><path d="M409.655 718.935s8.027-4.378 9.487 15.324l2.189 17.514s7.297 17.514-8.027 15.324-22.622-3.649-21.892-12.405c.44-5.278 1.675-12.942 2.587-18.198a26.758 26.758 0 0 1 6.868-13.891c2.663-2.803 5.87-4.965 8.789-3.668z" transform="translate(-140.713 -108)" fill="rgb(22, 37, 45)" coriginal="rgb(47,46,65)" colortype="32" awdzp="32" style="fill: rgb(22, 37, 45);"></path><path d="M495.384 743.982l8.366 4.035s26.136 4.012 17.846-10.871a60.393 60.393 0 0 1-5.451-14.081 93.794 93.794 0 0 1-2.894-20.879l-22.111 3.085c7.21 9.602 6.297 25.179 5.181 33.337-.452 3.288-.937 5.375-.937 5.375z" transform="translate(-140.713 -108)" fill="rgb(192, 200, 187)" coriginal="rgb(255,185,185)" colortype="8" awdzp="8" style="fill: rgb(192, 200, 187);"></path><path d="M495.384 743.982l8.366 4.035s26.136 4.012 17.846-10.871a60.393 60.393 0 0 1-5.451-14.081c-5.077.977-8.94 8.286-8.94 8.286-4.095 14.215-7.778 10.662-10.884 7.256-.452 3.288-.937 5.375-.937 5.375z" transform="translate(-140.713 -108)" opacity=".05"></path><path d="M366.972 624.729s6.517-12.325 13.746-7.12 3.642 12.641 27.055 19.923 7.94 22.734-6.385 21.554l-44.868-6.745s-7.94-22.734-4.255-23.249 8.771 16.261 14.708-4.364z" fill="rgb(22, 37, 45)" coriginal="rgb(47,46,65)" colortype="32" awdzp="32" style="fill: rgb(22, 37, 45);"></path><path d="M400.425 656.331c9.301.766 19.08-5.478 18.393-11.946 4.444 7.304-6.806 15.577-17.431 14.701-14.325-1.18-44.868-6.745-44.868-6.745s-.374-1.07-.92-2.748c.889.162 30.715 5.575 44.826 6.738zm-149.689-10.059c.841 6.565 8.123 7.945 21.854 9.906 6.983.998 9.262-2.098 9.682-5.762.456 4.692-.876 9.938-9.682 8.68-15.324-2.189-22.622-3.649-21.892-12.405l.038-.42z" fill="rgb(255, 255, 255)" opacity=".3" coriginal="rgb(255,255,255)" colortype="0" awdzp="0" style="fill: rgb(255, 255, 255);"></path><path d="M217.357 361.44l-2.422 36.335s-1.938 36.82 13.081 39.727v-79.938z" fill="rgb(197, 205, 192)" coriginal="rgb(251,190,190)" colortype="7" awdzp="7" style="fill: rgb(197, 205, 192);"></path><path d="M229.954 229.18l-1.938 4.36s.484 30.522 0 32.944-6.783 21.317-6.783 23.255-4.845 58.136-5.814 61.528-5.329 14.05-1.453 15.503 11.143-4.36 14.05 0 5.329 0 5.329-1.453.969-29.068 6.783-36.82 11.143-25.192 12.112-28.584 2.422-52.323 2.907-53.292l-1.938-14.05z" fill="rgb(32, 47, 55)" coriginal="rgb(63,61,86)" colortype="30" awdzp="30" style="fill: rgb(32, 47, 55);"></path><path d="M257.568 280.534s-5.814 22.77-9.689 27.13-23.255 36.82-17.441 79.938l15.988 99.317s1.453 19.863-.484 25.192l8.72 90.112s15.019 11.627 23.255-2.907c0 0-1.938-31.491 0-34.397v-55.23s1.453-130.323 9.205-124.993l31.491 95.925s10.174 34.882 9.689 37.789l8.72 39.242s8.72 50.385 12.112 51.354 24.224 1.453 26.161-3.876l-5.814-45.54s-5.814-51.838-8.72-59.105-7.752-110.459-21.801-140.981c0 0-5.329-48.932-9.205-56.199 0 0-2.274-9.984.532-19.304 0 0-67.389.409-72.718-3.466z" fill="rgb(22, 37, 45)" coriginal="rgb(47,46,65)" colortype="32" awdzp="32" style="fill: rgb(22, 37, 45);"></path><ellipse cx="286.394" cy="138.099" rx="40.696" ry="51.596" fill="rgb(22, 37, 45)" coriginal="rgb(47,46,65)" colortype="32" awdzp="32" style="fill: rgb(22, 37, 45);"></ellipse><path d="M510.679 306.658l-6.298 13.565-74.609 21.801s-51.838 15.019-57.168-9.205l20.348-26.646s9.689-6.783 21.801-13.565c4.05-2.272 5.392-5.949 5.382-9.84a20.36 20.36 0 0 0-.325-3.449 29.19 29.19 0 0 0-.969-3.885 44.53 44.53 0 0 0-4.089-8.987s31.975-12.596 31.491-5.814a19.282 19.282 0 0 0 .775 7.248 28.53 28.53 0 0 0 2.66 5.877c.543.935 1.148 1.904 1.822 2.931.872 1.332 1.865 2.752 2.98 4.292 6.298 8.72 27.13 8.72 27.13 8.72 16.472-1.938 29.068 16.957 29.068 16.957z" transform="translate(-140.713 -108)" fill="rgb(197, 205, 192)" coriginal="rgb(251,190,190)" colortype="7" awdzp="7" style="fill: rgb(197, 205, 192);"></path><path d="M446.996 276.173s34.882 25.677 41.664 25.192 46.509-2.907 37.304 6.298l-50.869 3.391-38.273-24.224z" fill="rgb(197, 205, 192)" coriginal="rgb(251,190,190)" colortype="7" awdzp="7" style="fill: rgb(197, 205, 192);"></path><path d="M447.02 267.881a27.633 27.633 0 0 1-28.177 7.553 44.53 44.53 0 0 0-4.089-8.987s31.975-12.596 31.491-5.814a19.282 19.282 0 0 0 .775 7.248z" transform="translate(-140.713 -108)" opacity=".1"></path><circle cx="286.152" cy="137.615" r="27.615" fill="rgb(197, 205, 192)" coriginal="rgb(251,190,190)" colortype="7" awdzp="7" style="fill: rgb(197, 205, 192);"></circle><path d="M251.755 218.037s120.149-27.13 120.633-23.255l5.329 11.627-28.099 31.975s3.391 15.503-3.391 18.894-7.752 29.068-14.05 29.553-79.938-.484-80.422-4.36 1.938-6.298 0-7.267-4.845-.969-2.422-5.814l2.422-25.192-22.77-10.658s-3.123-9.028 2.557-10.57l20.213-4.933zm121.602-12.596h4.36s13.081 8.72 16.472 16.472 15.503 17.925 18.41 20.832 42.633 30.522 42.149 34.397-11.627 7.752-12.112 12.112 4.845 6.298 1.453 6.298-24.224-12.112-31.975-16.472-23.739-16.956-25.677-20.348-15.019-9.205-16.472-11.627l-24.224-13.565z" fill="rgb(32, 47, 55)" coriginal="rgb(63,61,86)" colortype="30" awdzp="30" style="fill: rgb(32, 47, 55);"></path><circle cx="245.699" cy="106.851" r="15.503" fill="rgb(22, 37, 45)" coriginal="rgb(47,46,65)" colortype="32" awdzp="32" style="fill: rgb(22, 37, 45);"></circle><circle cx="314.009" cy="86.503" r="15.503" fill="rgb(22, 37, 45)" coriginal="rgb(47,46,65)" colortype="32" awdzp="32" style="fill: rgb(22, 37, 45);"></circle><ellipse cx="290.028" cy="119.689" rx="28.826" ry="17.683" fill="rgb(22, 37, 45)" coriginal="rgb(47,46,65)" colortype="32" awdzp="32" style="fill: rgb(22, 37, 45);"></ellipse><path d="M449.679 273.758c-13.284 5.227-23.783 5.848-29.868 5.562a20.363 20.363 0 0 1 .325 3.449c.707.029 1.468.044 2.277.044 6.72 0 16.758-1.168 29.088-6.124z" transform="translate(-140.713 -108)" fill="rgb(22, 37, 45)" coriginal="rgb(47,46,65)" colortype="32" awdzp="32" style="fill: rgb(22, 37, 45);"></path><rect x="497.573" y="310" width="421" height="252" rx="21.433" fill="rgb(32, 47, 55)" coriginal="rgb(63,61,86)" colortype="30" awdzp="30" style="fill: rgb(32, 47, 55);"></rect><path fill="rgb(154, 162, 149)" opacity=".3" d="M542.966 486.75h330v12h-330zm.214-31.5h330v12h-330zm271-43h59v12h-59zm-157-32h216v12h-216zm-114.214 138.5h165.213v12h-165.213z" coriginal="rgb(108,99,255)" colortype="12" awdzp="12" style="fill: rgb(154, 162, 149);"></path><rect x="543.18" y="341.25" width="83" height="83" rx="10.165" fill="rgb(154, 162, 149)" coriginal="rgb(108,99,255)" colortype="12" awdzp="12" style="fill: rgb(154, 162, 149);"></rect></svg>