<svg xmlns="http://www.w3.org/2000/svg" width="32" height="32" viewBox="0 0 100 100" id="svgid7" repair="1" xmlns:xlink="http://www.w3.org/1999/xlink"><g id="MTBteHkzMDAxMDAwMDAwMDAwMHh6czE3Nw"><linearGradient id="MTBteHkyMjYxMDAwMDAwMDAwMHh6czE1MQ" x1="369.264" x2="362.27" y1="-335.738" y2="-323.87" gradientUnits="userSpaceOnUse" gradientTransform="matrix(1 0 0 -1 -294 -250)"><stop offset="0" stop-opacity="0"></stop><stop offset="1"></stop></linearGradient><path fill="url(#MTBteHkyMjYxMDAwMDAwMDAwMHh6czE1MQ)" d="M44.088 90.575l45.49-26.707L100 69.978 55.645 96.94l-11.557-6.367" class="st0" opacity=".15"></path><path fill="rgb(230, 230, 230)" d="M93.94 64.43l-.01 3.28c0 .59-.39 1.18-1.17 1.63L52.94 92.37l-.01.01c-1.57.9-4.12.9-5.7 0-.01 0-.01 0-.01-.01L7.13 69.34c-.8-.46-1.19-1.06-1.19-1.66l.01-3.27c0-.59.39-1.19 1.17-1.64l39.83-23.03c1.57-.91 4.13-.91 5.71 0l40.08 23.03c.8.46 1.2 1.06 1.2 1.66z" class="st6" coriginal="rgb(208,222,226)" colortype="5" awdzp="5" style="fill: rgb(230, 230, 230);"></path><path d="M47.227 89.098L7.14 66.063c-.796-.456-1.192-1.056-1.19-1.655l-.01 3.274c-.003.6.395 1.2 1.188 1.655l40.088 23.036.01.005v-3.28z" class="st4" opacity=".1"></path><path d="M47.227 89.098v3.28c1.587.904 4.134.903 5.7 0l.01-.006v-3.27c-1.57.906-4.125.906-5.71-.004z" class="st1" opacity=".12"></path><path d="M92.77 66.063l-39.834 23.04v3.27L92.76 69.338c.78-.45 1.168-1.04 1.17-1.632l.01-3.273c-.002.59-.392 1.178-1.17 1.63z" class="st5" opacity=".2"></path></g><g><linearGradient id="MTBteHk4NTUxMDAwMDAwMDAwMHh6czE0NA" x1="68.726" x2="44.475" y1="83.019" y2="62.518" gradientUnits="userSpaceOnUse" gradientTransform="matrix(.9699 .2433 -.2433 .9699 20.802 -15.796)"><stop offset="0" stop-opacity="0"></stop><stop offset="1"></stop></linearGradient><path fill="url(#MTBteHk4NTUxMDAwMDAwMDAwMHh6czE0NA)" d="M86.308 82.47c-1.9 7.57-13.44 11.2-25.78 8.105-12.338-3.096-20.8-11.743-18.9-19.314 1.9-7.57 13.44-11.2 25.78-8.1 12.337 3.1 20.8 11.74 18.9 19.32z" class="st2" opacity=".4"></path><g><defs><circle id="MTBteHk4NTMxMDAwMDAwMDAwMHh6czQ5Mg" cx="48.524" cy="50.948" r="26"></circle></defs><clipPath id="MTBteHk0ODUxMDAwMDAwMDAwMHh6czMwMQ"><use xlink:href="#MTBteHk4NTMxMDAwMDAwMDAwMHh6czQ5Mg" overflow="visible"></use></clipPath><g class="st3" clip-path="url(#MTBteHk0ODUxMDAwMDAwMDAwMHh6czMwMQ)"><circle cx="48.524" cy="50.948" r="26" fill="rgb(123, 99, 128)" class="st9" coriginal="rgb(117,162,216)" colortype="20" awdzp="20" style="fill: rgb(123, 99, 128);"></circle><path fill="rgb(103, 79, 108)" d="M29.2 29.4c2.255 5.333 8.718 9.8 15.51 12.595-.005.87-.006 1.743-.003 2.62-3.02 2.404-6.086 4.528-8.98 6.336-3.79-1.05-7.41-2.61-10.463-4.66-.102 1.75-.12 3.51-.056 5.26 1.473 1.49 3.072 2.88 4.732 4.16 1.122-.33 2.278-.72 3.465-1.16 4.215 2.548 8.658 4.457 12.938 5.75 1.318 1.444 2.6 2.81 3.813 4.105-2.446 4.103-4.564 7.74-5.926 10.83-.646-.083-1.3-.19-1.958-.31-4.15-4.213-9.56-9.636-14.184-16.06-2.637-2.88-5.086-6.055-6.944-9.46-1.868-7.34-1.73-14.96 1.835-21.6 1.09 1.068 3.34 1.62 6.22 1.616zm34.216 5.99c-.936 2.027-2.167 4.017-3.576 5.933-.85 3.227-1.98 6.472-3.23 9.64 1.727.264 3.424.428 5.077.494 2.472-1.36 4.828-2.95 6.902-4.753 2.17-.64 4.16-1.5 5.84-2.58.09.583.17 1.167.24 1.752-3.35 3.324-8.04 5.78-12.99 7.325-1.26 2.12-2.59 4.17-3.94 6.13 1.6 1.05 3.12 1.99 4.56 2.83 2.01-.66 4.01-1.48 5.94-2.46-.34 2.52-.84 4.96-1.5 7.31 1.69-.12 3.34-.39 4.94-.79 3.23-3.52 6.22-7.55 8.2-11.98.76-10.254-2.46-20.988-9.88-29.268 1.352 4.32-1.808 8.065-6.6 10.44z" class="stshockcolor" data-st="fill:#D99A57;;" coriginal="rgb(217,154,87)" colortype="24" awdzp="24" style="fill: rgb(103, 79, 108);"></path></g><circle cx="38.25" cy="39.5" r="8.5" fill="rgb(255, 255, 255)" class="st8" opacity=".4" coriginal="rgb(255,255,255)" colortype="0" awdzp="0" style="fill: rgb(255, 255, 255);"></circle><path fill="rgb(7, 22, 30)" d="M48.52 23.95c-14.91 0-27 12.09-27 27s12.09 27 27 27c14.92 0 27-12.09 27-27s-12.08-27-27-27zm-8.86 2.56c1.28-.47 2.81-.28 4.45.51-.32-.04-.63-.07-.95-.1-1.68-.12-3.29-.08-4.83.11.44-.18.88-.36 1.33-.52zm-6.15 3.98c2.72-1.28 5.95-1.84 9.5-1.57.6.04 1.2.13 1.8.21-3.43 1.41-6.76 3.44-9.77 6.02-.66.56-1.28 1.14-1.89 1.73-.6-.93-.94-1.91-.94-2.93 0-1.22.47-2.39 1.3-3.46zm.94 7.91c.6-.59 1.23-1.17 1.88-1.73 2.69-2.29 5.63-4.13 8.66-5.45-2.26 2.75-4.34 6.13-6.13 9.9-1.78-.73-3.29-1.66-4.41-2.72zm3.56 4.6c-.51 1.18-1 2.38-1.45 3.61-.85 2.35-1.54 4.67-2.07 6.91-3.01-1.22-5.5-2.82-7.24-4.68 1.31-3.1 3.25-6.16 5.79-8.96 1.29 1.23 2.98 2.29 4.97 3.12zm-12.69-3.75c.98-1.95 2.21-3.76 3.64-5.39.44-.5.92-.95 1.42-1.38-.1.48-.17.97-.17 1.47 0 1.58.54 3.07 1.5 4.42-2.48 2.71-4.44 5.67-5.84 8.69-.87-1.39-1.35-2.88-1.35-4.43 0-1.15.28-2.28.8-3.38zm-1.8 15.7c-.64-1.27-1-2.61-1-4 0-1.79.19-3.53.53-5.22.42 1.21 1.07 2.36 1.93 3.45-.71 1.92-1.2 3.86-1.46 5.77zm2.98-4.13c1.95 1.84 4.54 3.42 7.57 4.63-.5 2.56-.8 5-.88 7.27-3.31-1.36-6.02-3.14-7.88-5.21.04-2.17.44-4.43 1.19-6.69zm.45 14.3c-.74-1.47-1.23-3.07-1.47-4.76 2.06 1.76 4.67 3.27 7.69 4.45.04 1.81.22 3.49.55 4.99-2.82-1.25-5.15-2.84-6.77-4.68zm5.73 6.43c.58.26 1.17.51 1.78.74.1.24.2.48.3.71-.71-.45-1.41-.94-2.08-1.45zm14.84 5.38c-2.75-.11-5.39-.64-7.86-1.54-1.04-.37-1.9-1.15-2.58-2.24 3.19.92 6.73 1.45 10.44 1.53v2.25zm0-4.25c-4.15-.1-8.1-.8-11.52-1.99-.45-1.47-.72-3.21-.8-5.15 3.69 1.18 7.88 1.89 12.32 1.98v5.16zm0-7.16c-4.49-.09-8.7-.83-12.34-2.05.05-2.26.32-4.73.81-7.32 3.45 1.13 7.37 1.81 11.53 1.9v7.47zm0-9.47c-4.04-.09-7.83-.75-11.12-1.83.52-2.26 1.19-4.59 2.04-6.93.45-1.23.94-2.43 1.45-3.61 2.29.72 4.87 1.15 7.63 1.23v11.14zm0-13.14c-2.42-.08-4.73-.47-6.77-1.1 1.96-4.1 4.28-7.69 6.77-10.45v11.55zm0-16.14c-.86-.65-1.72-1.17-2.56-1.57.3-.04.59-.08.88-.11.05-.01.09-.01.14-.01.37-.04.74-.07 1.11-.09.14-.01.29-.01.43-.01v1.79zm19.15 5.71c.5.43.98.88 1.42 1.38 1.41 1.61 2.63 3.4 3.61 5.33.54 1.12.83 2.28.83 3.44 0 1.55-.48 3.04-1.35 4.43-1.4-3.02-3.36-5.98-5.84-8.69.96-1.35 1.5-2.84 1.5-4.42 0-.5-.07-.99-.17-1.47zm-2.66 7.4c2.53 2.8 4.48 5.86 5.79 8.96-1.74 1.86-4.23 3.46-7.24 4.68-.53-2.24-1.22-4.56-2.07-6.91-.45-1.23-.94-2.43-1.45-3.61 1.99-.83 3.68-1.89 4.97-3.12zm-5.82 1.24c-1.79-3.77-3.87-7.15-6.13-9.9 3.03 1.32 5.97 3.16 8.66 5.45.65.56 1.28 1.14 1.88 1.73-1.12 1.06-2.63 1.99-4.41 2.72zm-.8-14.61c.45.16.89.34 1.33.53-1.53-.2-3.15-.24-4.83-.12-.32.03-.64.06-.95.1 1.64-.79 3.17-.98 4.45-.51zm-3.35 2.41c3.56-.27 6.78.29 9.49 1.56.84 1.08 1.31 2.25 1.31 3.47 0 1.02-.34 2-.94 2.93-.61-.59-1.23-1.17-1.89-1.73-3.01-2.58-6.34-4.61-9.77-6.02.6-.08 1.2-.17 1.8-.21zm-4.52-3.94c.15 0 .3 0 .44.01.37.02.74.05 1.11.09.05 0 .09 0 .14.01.29.03.58.07.88.11-.84.4-1.7.92-2.57 1.57v-1.79zm0 6.38c2.5 2.75 4.82 6.34 6.78 10.45-2.04.63-4.35 1.02-6.78 1.1V31.36zm0 13.55c2.77-.08 5.35-.51 7.63-1.23.52 1.18 1.01 2.38 1.46 3.61.85 2.34 1.52 4.67 2.04 6.93-3.29 1.08-7.08 1.74-11.13 1.83V44.91zm7.87 30.48c-2.47.9-5.12 1.43-7.87 1.54v-2.25c3.72-.08 7.26-.62 10.45-1.54-.68 1.1-1.54 1.88-2.58 2.25zm3.66-4.7c-3.42 1.19-7.38 1.89-11.53 1.99v-5.16c4.45-.09 8.64-.8 12.33-1.98-.08 1.94-.35 3.68-.8 5.15zm-11.53-5.17v-7.47c4.17-.09 8.09-.77 11.54-1.9.49 2.59.76 5.06.81 7.32-3.64 1.22-7.85 1.96-12.35 2.05zm12.77 7.47c.11-.23.21-.47.3-.71.62-.24 1.22-.49 1.8-.75-.67.52-1.37 1.01-2.1 1.46zm7.8-7.87c-1.61 1.84-3.95 3.42-6.76 4.67.33-1.5.52-3.17.55-4.98 3.02-1.18 5.63-2.69 7.69-4.45-.24 1.69-.73 3.29-1.48 4.76zm-6.22-2.4c-.09-2.27-.39-4.71-.89-7.27 3.03-1.21 5.62-2.79 7.57-4.63.75 2.27 1.15 4.52 1.19 6.69-1.86 2.07-4.57 3.85-7.87 5.21zm8.2-13.54c.86-1.09 1.51-2.24 1.93-3.44.34 1.68.52 3.43.52 5.21 0 1.39-.35 2.72-.99 3.99-.26-1.9-.75-3.84-1.46-5.76z" class="st10" opacity=".2" clip-path="url(#MTBteHk0ODUxMDAwMDAwMDAwMHh6czMwMQ)" coriginal="rgb(35,31,32)" colortype="45" awdzp="45" style="fill: rgb(7, 22, 30);"></path></g></g></svg>