<svg xmlns="http://www.w3.org/2000/svg" width="32" height="32" viewBox="0 0 100 100" id="svgid19" repair="1" xmlns:xlink="http://www.w3.org/1999/xlink"><g id="MTBteHk4MjYxMDAwMDAwMDAwMHh6czc5"><linearGradient id="MTBteHk0MTQxMDAwMDAwMDAwMHh6czg5MQ" x1="369.264" x2="362.27" y1="-335.738" y2="-323.87" gradientUnits="userSpaceOnUse" gradientTransform="matrix(1 0 0 -1 -294 -250)"><stop offset="0" stop-opacity="0"></stop><stop offset="1"></stop></linearGradient><path fill="url(#MTBteHk0MTQxMDAwMDAwMDAwMHh6czg5MQ)" d="M44.088 90.575l45.49-26.707L100 69.978 55.645 96.94l-11.557-6.367" class="st1" opacity=".15"></path><path fill="rgb(230, 230, 230)" d="M93.94 64.43l-.01 3.28c0 .59-.39 1.18-1.17 1.63L52.94 92.37l-.01.01c-1.57.9-4.12.9-5.7 0-.01 0-.01 0-.01-.01L7.13 69.34c-.8-.46-1.19-1.06-1.19-1.66l.01-3.27c0-.59.39-1.19 1.17-1.64l39.83-23.03c1.57-.91 4.13-.91 5.71 0l40.08 23.03c.8.46 1.2 1.06 1.2 1.66z" class="st11" coriginal="rgb(208,222,226)" colortype="5" awdzp="5" style="fill: rgb(230, 230, 230);"></path><path d="M47.227 89.098L7.14 66.063c-.796-.456-1.192-1.056-1.19-1.655l-.01 3.274c-.003.6.395 1.2 1.188 1.655l40.088 23.036.01.005v-3.28z" class="st7" opacity=".1"></path><path d="M47.227 89.098v3.28c1.587.904 4.134.903 5.7 0l.01-.006v-3.27c-1.57.906-4.125.906-5.71-.004z" class="st2" opacity=".12"></path><path d="M92.77 66.063l-39.834 23.04v3.27L92.76 69.338c.78-.45 1.168-1.04 1.17-1.632l.01-3.273c-.002.59-.392 1.178-1.17 1.63z" class="st8" opacity=".2"></path></g><g><linearGradient id="MTBteHk0OTYxMDAwMDAwMDAwMHh6czcyNQ" x1="68.899" x2="61.07" y1="76.27" y2="67.702" gradientUnits="userSpaceOnUse"><stop offset="0" stop-opacity="0"></stop><stop offset="1"></stop></linearGradient><path fill="url(#MTBteHk0OTYxMDAwMDAwMDAwMHh6czcyNQ)" d="M72.044 54.784L47.08 69.206 40.685 80.52l13.41 7.887L92.01 66.435" class="st4" opacity=".15"></path></g><g><linearGradient id="MTBteHk5NTYxMDAwMDAwMDAwMHh6czQ5NA" x1="44.84" x2="39.626" y1="73.554" y2="67.848" gradientUnits="userSpaceOnUse"><stop offset="0" stop-opacity="0"></stop><stop offset="1"></stop></linearGradient><path fill="url(#MTBteHk5NTYxMDAwMDAwMDAwMHh6czQ5NA)" d="M44.634 61.682l-6.988.46-7.775 7.285.23 6.383 9.9 5.812 17.75-12.34" class="st5" opacity=".15"></path></g><g><path fill="rgb(47, 86, 76)" d="M74.14 49.973L68 56.163l-6.92-8.595c.5-1.75.78-3.5.77-5.16 0-.327-.01-.643-.044-.946-.076-1.24-.325-2.336-.728-3.26-.555-1.336-1.412-2.347-2.488-2.966l-.663-.38-3.987-2.326C62.784 29.63 68 34.355 68 34.355v.01c.01.165.01.327.01.49l.012 3.053v1.858c.01 2.564.315 3.977 1 4.933.532.75 4.933 5.01 5.118 5.27z" class="st10" coriginal="rgb(206,77,37)" colortype="34" awdzp="34" style="fill: rgb(47, 86, 76);"></path><g><path fill="rgb(98, 74, 103)" d="M59.818 45.46L53.94 67.156l-15.3-4.802c-2.096 3.118-5.073 5.703-9.278 8.138-.694.39-1.543.89-1.597.912.685-3.325 3.216-15.7 4.683-22.925l.52-4.44 7.944-3.39 18.906 4.8z" class="stshockcolor" data-st="fill:#E0A30A;;" coriginal="rgb(224,163,10)" colortype="25" awdzp="25" style="fill: rgb(98, 74, 103);"></path><path d="M59.818 45.46L53.94 67.156l-15.3-4.802c-2.096 3.118-5.073 5.703-9.278 8.138-.694.39-1.543.89-1.597.912.685-3.325 3.216-15.7 4.683-22.925l.52-4.44 7.944-3.39 18.906 4.8z" class="st3" opacity=".25"></path></g><g><path fill="rgb(98, 74, 103)" d="M58.91 48.815l-1.726 6.366-7.648 2.47-4.45-1.38c9.146-.87 9.653-7.16 9.653-7.16l4.17-.29z" class="stshockcolor" data-st="fill:#E0A30A;;" coriginal="rgb(224,163,10)" colortype="25" awdzp="25" style="fill: rgb(98, 74, 103);"></path><path d="M58.91 48.815l-1.726 6.366-7.648 2.47-4.45-1.38c9.146-.87 9.653-7.16 9.653-7.16l4.17-.29z" class="st7" opacity=".1"></path></g><path fill="rgb(98, 74, 103)" d="M73.53 52.554C69.88 62.876 59.396 62.3 59.396 62.3c-1.576 7.757-5.26 14.19-13.495 17.56-1.63.66-5.21.66-5.21.66l4.4-24.25c8.53 1.272 11.19-4.345 11.99-7.094-3.2 1.456-6.91 2.694-10.59 2.868-.55.022-1.81.11-3.39-.043-.702 3.53-1.55 7.74-2.13 10.59l-3.41.07-3.15.46-1.13-2.83c.73-3.553 1.52-7.562 2.197-10.91-3.227-2.25-2.705-4.27-2.705-4.27s.404-1.987.61-2.943C35.038 34.39 36.07 32 43.53 27.34c.46-.282 7.73-5.378 19.148 1.935 10.55 6.76 6.573 16.365 6.335 16.91-.01.01-.01.01-.01.02l4.53 6.355z" class="stshockcolor" data-st="fill:#E0A30A;;" coriginal="rgb(224,163,10)" colortype="25" awdzp="25" style="fill: rgb(98, 74, 103);"></path><g><path fill="rgb(98, 74, 103)" d="M32.447 48.477s-.43 2.28 1.443 3.124c0 0-4.458 21.1-3.794 24.21 0 0-1.952-2.45-2.33-3.8s3.28-19.34 4.68-23.53z" class="stshockcolor" data-st="fill:#E0A30A;;" coriginal="rgb(224,163,10)" colortype="25" awdzp="25" style="fill: rgb(98, 74, 103);"></path><path d="M32.447 48.477s-.43 2.28 1.443 3.124c0 0-4.458 21.1-3.794 24.21 0 0-1.952-2.45-2.33-3.8s3.28-19.34 4.68-23.53z" class="st7" opacity=".1"></path></g><g><path fill="rgb(47, 86, 76)" d="M68 34.355s-5.63-6.31-14.976-2.55c-7.298 2.938-9.678 8.037-9.678 8.037l-4.116-1.936-8.414-8.88c.043-.02 1.686-3.222 12.53-6.645 6.852-2.16 10.6-1.11 13.76.62 3.75 2.04 5.993 3.85 6.298 4.13.01.02.02.02.032.04 2.755 2.48 4.206 5.206 4.564 7.206z" class="st10" coriginal="rgb(206,77,37)" colortype="34" awdzp="34" style="fill: rgb(47, 86, 76);"></path></g><path fill="rgb(255, 255, 255)" d="M63.404 27.12c-2.825-1.804-6.89-2.576-12.007-.675-.304.077-.565.174-.78.305-10.682 4.444-10.748 6.204-10.79 6.226l-9.01-3.948c.042-.02 1.667-3.28 12.53-6.646 6.88-2.132 10.598-1.116 13.76.612 3.748 2.042 5.993 3.842 6.297 4.125z" class="st6" opacity=".2" coriginal="rgb(255,255,255)" colortype="0" awdzp="0" style="fill: rgb(255, 255, 255);"></path><g class="st7" opacity=".1"><path fill="rgb(255, 255, 255)" d="M43.347 39.842l-4.117-1.936-8.414-8.88 9.01 3.95" class="st9" coriginal="rgb(255,255,255)" colortype="0" awdzp="0" style="fill: rgb(255, 255, 255);"></path></g><path fill="rgb(255, 255, 255)" d="M66.12 39.72c.428-2.025-1.15-4.072-3.522-4.574-2.372-.5-4.644.734-5.07 2.76-.428 2.027 1.146 4.073 3.522 4.576 2.368.5 4.64-.735 5.07-2.76z" class="st6" opacity=".2" coriginal="rgb(255,255,255)" colortype="0" awdzp="0" style="fill: rgb(255, 255, 255);"></path><path d="M43.097 52.033c-.74 3.64-1.532 7.54-2.14 10.55l-3.412.065c.77-3.824 1.553-7.714 2.282-11.246 1.074.327 2.173.523 3.27.63z" class="st7" opacity=".1"></path></g></svg>