<svg xmlns="http://www.w3.org/2000/svg" width="32" height="32" viewBox="0 0 100 100" id="svgid5" repair="1" xmlns:xlink="http://www.w3.org/1999/xlink"><g><linearGradient id="MTBteHk4MTAwMDAwMDAwMDB4enM1ODA" x1="369.228" x2="362.235" y1="-335.898" y2="-324.031" gradientUnits="userSpaceOnUse" gradientTransform="matrix(1 0 0 -1 -294 -250)"><stop offset="0" stop-opacity="0"></stop><stop offset="1"></stop></linearGradient><path fill="url(#MTBteHk4MTAwMDAwMDAwMDB4enM1ODA)" d="M44.054 90.735l45.49-26.707 10.422 6.11L55.61 97.102l-11.556-6.368" class="st0" opacity=".15"></path><path fill="rgb(230, 230, 230)" d="M93.906 64.59l-.01 3.28c0 .59-.39 1.18-1.17 1.63l-39.82 23.03-.01.01c-1.57.9-4.12.9-5.7 0-.01 0-.01 0-.01-.01L7.096 69.5c-.8-.46-1.19-1.06-1.19-1.66l.01-3.27c0-.59.39-1.19 1.17-1.64l39.83-23.03c1.57-.91 4.13-.91 5.71 0l40.08 23.03c.8.46 1.2 1.06 1.2 1.66z" class="st10" coriginal="rgb(208,222,226)" colortype="5" awdzp="5" style="fill: rgb(230, 230, 230);"></path><path d="M47.192 89.258L7.104 66.223c-.795-.456-1.19-1.056-1.19-1.655l-.008 3.274c-.003.6.395 1.2 1.188 1.655l40.088 23.036.01.005v-3.28z" class="st7" opacity=".1"></path><path d="M47.192 89.258v3.28c1.587.904 4.134.903 5.7 0l.01-.006v-3.27c-1.57.906-4.125.906-5.71-.004z" class="st2" opacity=".12"></path><path d="M92.735 66.223L52.9 89.263v3.27l39.826-23.035c.778-.45 1.167-1.04 1.17-1.632l.01-3.273c-.003.59-.392 1.178-1.17 1.63z" class="st8" opacity=".2"></path><linearGradient id="MTBteHk5OTgxMDAwMDAwMDAwMHh6czY4Nw" x1="67.336" x2="61.523" y1="79.878" y2="69.797" gradientUnits="userSpaceOnUse"><stop offset="0" stop-opacity="0"></stop><stop offset=".131" stop-opacity=".131"></stop><stop offset="1"></stop></linearGradient><path fill="url(#MTBteHk5OTgxMDAwMDAwMDAwMHh6czY4Nw)" d="M70.086 68.35l-18.69 11.22 9.157 5.264 19.05-11.02" class="st4" opacity=".15"></path></g><g><path fill="rgb(42, 57, 65)" d="M71.577 37.278l-.09 30.987c0 .605-.217 1.03-.563 1.23-5.954 3.467-11.91 6.923-17.854 10.38.027-.018.054-.044.082-.072-.354.27-.87.28-1.467-.063l-26.96-15.566c-1.058-.616-1.927-2.1-1.918-3.32l.09-30.988c0-.633.236-1.067.607-1.25.01-.007.018-.018.027-.018l17.79-10.343c.36-.208.85-.182 1.38.136l26.95 15.57c1.07.62 1.93 2.1 1.93 3.33z" class="stshockcolor" data-st="fill:#94684E;;" coriginal="rgb(148,104,78)" colortype="38" awdzp="38" style="fill: rgb(42, 57, 65);"></path><path d="M23.455 28.633l17.86-10.38c.35-.203.838-.174 1.374.135l-17.86 10.38c-.54-.31-1.03-.34-1.38-.135z" class="st1" opacity=".05"></path><path d="M53.714 47.658l-.087 30.985c-.002.607-.217 1.033-.56 1.233 5.95-3.458 11.904-6.92 17.857-10.378.346-.2.56-.628.56-1.233l.09-30.986-17.86 10.37z" class="st8" opacity=".2"></path><path d="M51.79 44.332l17.86-10.378-26.96-15.566-17.86 10.38" class="st7" opacity=".1"></path><path d="M51.79 44.332l17.86-10.378c1.067.617 1.927 2.104 1.923 3.325l-17.86 10.37c.004-1.23-.854-2.71-1.922-3.33z" class="st3" opacity=".15"></path><path fill="rgb(240, 240, 240)" d="M71.54 49.813l-.018 5.9-8.904 5.177v-5.892" class="st6" opacity=".3" coriginal="rgb(222,220,217)" colortype="3" awdzp="3" style="fill: rgb(240, 240, 240);"></path><path fill="rgb(240, 240, 240)" d="M65.2 56.153l-.018 5.9-2.564-1.163v-5.892" class="st6" opacity=".3" coriginal="rgb(222,220,217)" colortype="3" awdzp="3" style="fill: rgb(240, 240, 240);"></path><path fill="rgb(240, 240, 240)" d="M28.99 34.86c.35.2.665.597.83 1.038l2.03 5.235c.264.684.105 1.265-.357 1.304-.15.02-.318-.03-.48-.125-.334-.192-.657-.58-.835-1.04l-.236-.616-.012 4.05c0 .578-.436.792-.968.485-.53-.3-.963-1.02-.962-1.6l.013-4.05-.24.35c-.178.26-.502.27-.835.08-.163-.09-.33-.24-.482-.43-.46-.57-.615-1.33-.348-1.71l2.05-2.88c.17-.25.487-.28.833-.07zm17.784 10.826l-2.05 2.88c-.27.376-.114 1.137.348 1.71.152.19.317.335.48.43.334.192.66.178.837-.075l.24-.33-.01 4.05c0 .58.42 1.29.95 1.6.53.31.97.1.97-.48l.01-4.05.24.62c.17.465.5.85.83 1.04.16.1.33.146.47.127.46-.04.62-.62.354-1.302l-2.02-5.23c-.174-.445-.49-.84-.838-1.042-.34-.2-.66-.17-.835.075z" class="st9" opacity=".8" coriginal="rgb(222,220,217)" colortype="3" awdzp="3" style="fill: rgb(240, 240, 240);"></path><path fill="rgb(240, 240, 240)" d="M53.604 24.69l-17.86 10.378-.1 35.41 5.138 2.963.1-35.4L58.74 27.66" class="st6" opacity=".3" coriginal="rgb(222,220,217)" colortype="3" awdzp="3" style="fill: rgb(240, 240, 240);"></path></g></svg>