<svg xmlns="http://www.w3.org/2000/svg" width="32" height="32" viewBox="0 0 100 100" id="svgid20" repair="1" xmlns:xlink="http://www.w3.org/1999/xlink"><g id="MTBteHk3NDcxMDAwMDAwMDAwMHh6czQ5Mw"><linearGradient id="MTBteHk3NjMxMDAwMDAwMDAwMHh6czI5MA" x1="369.264" x2="362.27" y1="-335.738" y2="-323.87" gradientUnits="userSpaceOnUse" gradientTransform="matrix(1 0 0 -1 -294 -250)"><stop offset="0" stop-opacity="0"></stop><stop offset="1"></stop></linearGradient><path fill="url(#MTBteHk3NjMxMDAwMDAwMDAwMHh6czI5MA)" d="M44.088 90.575l45.49-26.707L100 69.978 55.645 96.94l-11.557-6.367" class="st1" opacity=".15"></path><path fill="rgb(230, 230, 230)" d="M93.94 64.43l-.01 3.28c0 .59-.39 1.18-1.17 1.63L52.94 92.37l-.01.01c-1.57.9-4.12.9-5.7 0-.01 0-.01 0-.01-.01L7.13 69.34c-.8-.46-1.19-1.06-1.19-1.66l.01-3.27c0-.59.39-1.19 1.17-1.64l39.83-23.03c1.57-.91 4.13-.91 5.71 0l40.08 23.03c.8.46 1.2 1.06 1.2 1.66z" class="st9" coriginal="rgb(208,222,226)" colortype="5" awdzp="5" style="fill: rgb(230, 230, 230);"></path><path d="M47.227 89.098L7.14 66.063c-.796-.456-1.192-1.056-1.19-1.655l-.01 3.274c-.003.6.395 1.2 1.188 1.655l40.088 23.036.01.005v-3.28z" class="st7" opacity=".1"></path><path d="M47.227 89.098v3.28c1.587.904 4.134.903 5.7 0l.01-.006v-3.27c-1.57.906-4.125.906-5.71-.004z" class="st2" opacity=".12"></path><path d="M92.77 66.063l-39.834 23.04v3.27L92.76 69.338c.78-.45 1.168-1.04 1.17-1.632l.01-3.273c-.002.59-.392 1.178-1.17 1.63z" class="st8" opacity=".2"></path></g><g><linearGradient id="MTBteHk5ODgxMDAwMDAwMDAwMHh6czcxNg" x1="69.706" x2="62.445" y1="79.849" y2="67.527" gradientUnits="userSpaceOnUse"><stop offset="0" stop-opacity="0"></stop><stop offset=".07" stop-opacity=".07"></stop><stop offset="1"></stop></linearGradient><path fill="url(#MTBteHk5ODgxMDAwMDAwMDAwMHh6czcxNg)" d="M64.977 68.694l11.652 6.703-8.45 4.887-11.71-6.69" class="st5" opacity=".15"></path></g><g><linearGradient id="MTBteHk3MjMxMDAwMDAwMDAwMHh6czIzNw" x1="50.038" x2="37.663" y1="64.86" y2="55.235" gradientUnits="userSpaceOnUse"><stop offset="0" stop-opacity="0"></stop><stop offset=".07" stop-opacity=".07"></stop><stop offset="1"></stop></linearGradient><path fill="url(#MTBteHk3MjMxMDAwMDAwMDAwMHh6czIzNw)" d="M44.797 57.1l20.18 11.594-8.502 4.9L36.338 61.99" class="st6" opacity=".15"></path></g><g><g><g><path fill="rgb(128, 104, 133)" d="M59.27 56.622l7.05-4.096-.05 17.548-7.047 4.096" class="stshockcolor" data-st="fill:#75A2D9;;" coriginal="rgb(117,162,217)" colortype="19" awdzp="19" style="fill: rgb(128, 104, 133);"></path><path fill="rgb(128, 104, 133)" d="M66.324 52.524l-7.05 4.1-.05 17.55c-1.04.08-1.98-.14-2.75-.58-1.37-.79-2.22-2.28-2.21-4 0-.58.03-13.55.04-14.13 0-.89.23-1.46.648-1.69l7.02-4.08c.39-.228.93-.148 1.6.24.772.44 1.71 1.3 2.752 2.59z" class="stshockcolor" data-st="fill:#75A2D9;;" coriginal="rgb(117,162,217)" colortype="19" awdzp="19" style="fill: rgb(128, 104, 133);"></path><path d="M63.574 49.93c-.668-.385-1.213-.46-1.596-.238l-7.05 4.097c.384-.23.93-.15 1.597.23.773.44 1.71 1.3 2.746 2.59l7.05-4.1c-1.03-1.29-1.97-2.15-2.74-2.6z" class="st3" opacity=".15"></path><path fill="rgb(17, 32, 40)" d="M72.674 65.805c0 2.23-.43 3.16-1.15 3.58-2.35 1.36-4.7 2.728-7.05 4.09-.46.27-1.04.33-1.7.39l-.2.02c-.55.06-1.1.15-1.59.13l-1.76.15c0-.73.04-14.48.05-18.55 0-.55-.01-1.1-.04-1.66l7.05-4.1 3.56 2.06v.08c1.72 2.14 2.84 10.15 2.83 13.81z" class="st0" coriginal="rgb(71,72,94)" colortype="43" awdzp="43" style="fill: rgb(17, 32, 40);"></path><path d="M69.84 51.993v-.08l-7.05 4.096v.08c1.73 2.13 2.85 10.15 2.84 13.8-.007 2.23-.437 3.16-1.16 3.58 2.35-1.37 4.7-2.73 7.05-4.1.72-.42 1.152-1.35 1.158-3.58.01-3.66-1.112-11.68-2.838-13.81z" class="st7" opacity=".1"></path><path fill="rgb(17, 32, 40)" d="M62.79 56.01v.08c1.73 2.136 2.85 10.154 2.84 13.806-.01 3.654-1.155 3.816-2.85 3.97l-.206.02c-.55.058-1.1.15-1.592.132l-1.76.145c.002-.724.04-14.474.053-18.545.002-.55-.01-1.1-.04-1.662l3.556 2.053z" class="st0" coriginal="rgb(71,72,94)" colortype="43" awdzp="43" style="fill: rgb(17, 32, 40);"></path><path d="M59.236 53.955l7.047-4.096 3.557 2.05L62.79 56" class="st3" opacity=".15"></path></g><g><path fill="rgb(17, 32, 40)" d="M37.28 33.112l-7.407 4.274h.004c-1.523.875-2.545 6.97-2.555 10.394-.012 3.653 1.13 5.135 2.818 7.24l3.543 4.398 7.05-4.096c0-.626.034-12.51.05-17.542l.002-1.005c.002-.55.016-1.086.05-1.61l-3.556-2.053z" class="st0" coriginal="rgb(71,72,94)" colortype="43" awdzp="43" style="fill: rgb(17, 32, 40);"></path><path d="M33.787 39.26l7.05-4.095c-.036.524-.05 1.06-.052 1.61l-.002 1.005c-.016 5.032-.05 16.917-.05 17.542l-7.05 4.096.05-17.542c0-.38.003-.718.003-1.005.002-.54.016-1.08.05-1.61z" class="st3" opacity=".15"></path><path d="M30.543 37.39l3.244 1.872 7.05-4.096-3.558-2.053-7.41 4.274c.1-.06.21-.096.32-.105l.35.107z" class="st7" opacity=".1"></path></g><g><path fill="rgb(128, 104, 133)" d="M45.744 42.354c0 .58-.04 13.55-.04 14.13 0 .88-.23 1.45-.63 1.68l-7.05 4.1c-.38.22-.93.14-1.59-.24-.77-.45-1.71-1.31-2.75-2.6 0-.01.04-12.52.05-17.55l7.05-4.09c1.04-.09 1.98.13 2.75.58 1.37.78 2.22 2.27 2.21 3.99z" class="stshockcolor" data-st="fill:#75A2D9;;" coriginal="rgb(117,162,217)" colortype="19" awdzp="19" style="fill: rgb(128, 104, 133);"></path><path d="M33.734 41.877l7.05-4.096c1.04-.08 1.98.14 2.75.58l-7.046 4.1c-.773-.44-1.713-.67-2.754-.58z" class="st3" opacity=".15"></path><path d="M45.074 58.165l-7.047 4.097c.402-.233.627-.797.63-1.677 0-.58.038-13.55.04-14.13.004-1.72-.844-3.21-2.21-3.998l7.048-4.097c1.365.788 2.215 2.28 2.21 3.998 0 .58-.038 13.55-.04 14.13-.002.88-.228 1.444-.63 1.677z" class="st7" opacity=".1"></path></g><g><path fill="rgb(17, 32, 40)" d="M68.373 52.72l-4.23 2.46-3.55-2.05c-.17-3.41-.89-7.05-2.41-10.51-.51.05-1.01-.04-1.46-.3-.26-.15-.5-.36-.72-.62-1.36-1.66-3.03-5.32-8.11-8.26-4.93-2.84-6.65-1.28-8-1.13-.28 1.12-.45 2.36-.53 3.66l-4.22 2.46-3.56-2.05c.232-5.163 1.59-9.474 4.66-11.245-.006.003 2.81-1.626 4.22-2.447 2.57-1.5 6.35-1.2 11.68 1.88 11.67 6.74 15.85 18.16 16.23 28.15z" class="st0" coriginal="rgb(71,72,94)" colortype="43" awdzp="43" style="fill: rgb(17, 32, 40);"></path><path d="M39.895 32.305c-.28 1.12-.45 2.36-.53 3.66l-4.22 2.46c.18-3.2.93-5.99 2.46-7.69.51.63 1.01 1.12 1.46 1.38.26.15.5.23.72.21.04 0 .07 0 .11-.02z" class="st8" opacity=".2"></path><path d="M36.23 25.14l4.23-2.46c2.572-1.494 6.352-1.198 11.686 1.882l-4.23 2.458c-5.334-3.08-9.11-3.376-11.686-1.88z" class="st7" opacity=".1"></path><path d="M47.918 27.02l4.23-2.458c11.67 6.738 15.845 18.166 16.226 28.15l-4.23 2.46c-.38-9.986-4.556-21.414-16.226-28.152z" class="st3" opacity=".15"></path></g></g><g><g><path fill="rgb(17, 32, 40)" d="M57.36 80.593c-.81 0-1.694-.1-2.648-.295-3.395-.7-7.432-4.36-7.88-4.776l2.713-2.938c1.386 1.277 4.232 3.438 5.974 3.797 2.39.5 3.21.06 3.41-.11.23-.19.29-.47.29-.47l.01-8.12h4v8.04c0 .2-.03 2.17-1.74 3.59-1.05.86-2.43 1.3-4.13 1.3z" class="st0" coriginal="rgb(71,72,94)" colortype="43" awdzp="43" style="fill: rgb(17, 32, 40);"></path></g><circle cx="46.938" cy="72.589" r="4" fill="rgb(128, 104, 133)" class="stshockcolor" data-st="fill:#75A2D9;;" coriginal="rgb(117,162,217)" colortype="19" awdzp="19" style="fill: rgb(128, 104, 133);"></circle></g></g><circle cx="45.5" cy="71.5" r="1.5" fill="rgb(230, 230, 230)" class="st4" opacity=".3" coriginal="rgb(208,222,226)" colortype="5" awdzp="5" style="fill: rgb(230, 230, 230);"></circle></svg>