<svg xmlns="http://www.w3.org/2000/svg" width="32" height="32" viewBox="0 0 100 100" id="svgid24" repair="1" xmlns:xlink="http://www.w3.org/1999/xlink"><g id="MTBteHk0MDEwMDAwMDAwMDAweHpzNzA1"><linearGradient id="MTBteHk1OTExMDAwMDAwMDAwMHh6czYzOQ" x1="369.264" x2="362.27" y1="-335.738" y2="-323.87" gradientUnits="userSpaceOnUse" gradientTransform="matrix(1 0 0 -1 -294 -250)"><stop offset="0" stop-opacity="0"></stop><stop offset="1"></stop></linearGradient><path fill="url(#MTBteHk1OTExMDAwMDAwMDAwMHh6czYzOQ)" d="M44.088 90.575l45.49-26.707L100 69.978 55.645 96.94l-11.557-6.367" class="st0" opacity=".15"></path><path fill="rgb(230, 230, 230)" d="M93.94 64.43l-.01 3.28c0 .59-.39 1.18-1.17 1.63L52.94 92.37l-.01.01c-1.57.9-4.12.9-5.7 0-.01 0-.01 0-.01-.01L7.13 69.34c-.8-.46-1.19-1.06-1.19-1.66l.01-3.27c0-.59.39-1.19 1.17-1.64l39.83-23.03c1.57-.91 4.13-.91 5.71 0l40.08 23.03c.8.46 1.2 1.06 1.2 1.66z" class="stshockcolor3" coriginal="rgb(208,222,226)" colortype="5" awdzp="5" style="fill: rgb(230, 230, 230);"></path><path d="M47.227 89.098L7.14 66.063c-.796-.456-1.192-1.056-1.19-1.655l-.01 3.274c-.003.6.395 1.2 1.188 1.655l40.088 23.036.01.005v-3.28z" class="st9" opacity=".1"></path><path d="M47.227 89.098v3.28c1.587.904 4.134.903 5.7 0l.01-.006v-3.27c-1.57.906-4.125.906-5.71-.004z" class="st3" opacity=".12"></path><path d="M92.77 66.063l-39.834 23.04v3.27L92.76 69.338c.78-.45 1.168-1.04 1.17-1.632l.01-3.273c-.002.59-.392 1.178-1.17 1.63z" class="stshockcolor0" opacity=".2"></path></g><g><linearGradient id="MTBteHk0MjUxMDAwMDAwMDAwMHh6czIzOQ" x1="73.746" x2="70.046" y1="77.366" y2="71.087" gradientUnits="userSpaceOnUse"><stop offset="0" stop-opacity="0"></stop><stop offset="1"></stop></linearGradient><path fill="url(#MTBteHk0MjUxMDAwMDAwMDAwMHh6czIzOQ)" d="M78.197 67.786L60.265 78.15l5.83 3.34 17.918-10.363" class="st6" opacity=".15"></path></g><g><linearGradient id="MTBteHk3NzYxMDAwMDAwMDAwMHh6czc5" x1="58.941" x2="57.863" y1="85.695" y2="83.866" gradientUnits="userSpaceOnUse"><stop offset="0" stop-opacity="0"></stop><stop offset="1"></stop></linearGradient><path fill="url(#MTBteHk3NzYxMDAwMDAwMDAwMHh6czc5)" d="M58.27 84.012l-1.335.78 1.74.99 1.336-.773" class="st7" opacity=".15"></path></g><g><g><path fill="rgb(72, 111, 101)" d="M79.666 46.844l-.02 5.404-.01.01-.027 15.416c-.01.634-.23 1.09-.6 1.297-5.56 3.23-11.11 6.47-16.68 9.7.03-.02.05-.04.08-.07-.37.29-.91.29-1.52-.06L25.98 58.38c-1.11-.636-2.02-2.208-2.01-3.485l.04-17.852.01.01.01-2.99c0-.633.226-1.08.595-1.286 5.557-3.23 11.11-6.456 16.667-9.692.37-.206.88-.18 1.44.144l34.91 20.15c1.117.64 2.016 2.194 2.016 3.472z" class="stshockcolor4" coriginal="rgb(222,112,71)" colortype="29" awdzp="29" style="fill: rgb(72, 111, 101);"></path><path d="M62.974 61.94L24.026 39.452l-.006 2.313L62.967 64.25l16.678-9.69.005-2.313" class="st5" opacity=".25"></path><path d="M79.647 52.248v2.31l-.038 13.116c-.01.634-.23 1.09-.6 1.297-5.56 3.23-11.11 6.47-16.68 9.7.37-.21.58-.66.59-1.29l.04-13.11v-2.31l16.67-9.69z" class="st5" opacity=".25"></path><path d="M77.654 43.368L60.977 53.06c1.118.645 2.016 2.2 2.012 3.478l-.02 5.402 16.67-9.69.01-5.404c0-1.28-.9-2.833-2.01-3.478z" class="st4" opacity=".15"></path><path d="M42.743 23.212c-.56-.324-1.07-.354-1.438-.14L24.63 32.76c.366-.213.875-.183 1.437.14l34.91 20.156 16.678-9.69L42.743 23.21z" class="st2" opacity=".05"></path></g><g><path fill="rgb(197, 205, 192)" d="M44.156 57.26l-.013 4.63-1.348-.778.014-4.632" class="st8" coriginal="rgb(194,192,189)" colortype="10" awdzp="10" style="fill: rgb(197, 205, 192);"></path><path fill="rgb(240, 240, 240)" d="M43.49 55.33c1.853 1.07 3.35 3.66 3.342 5.79-.005 2.133-1.51 2.996-3.364 1.926-1.854-1.07-3.355-3.67-3.35-5.8.007-2.134 1.517-2.988 3.37-1.916zm.653 6.56l.014-4.63-1.348-.78-.02 4.632 1.35.778" class="stshockcolor5" coriginal="rgb(222,220,217)" colortype="3" awdzp="3" style="fill: rgb(240, 240, 240);"></path><path d="M42.795 61.112l1.352-.786.01-3.067-1.348-.78" class="stshockcolor0" opacity=".2"></path></g><g><path fill="rgb(57, 96, 86)" d="M58.32 67.04l-.05 16.97-1.33.78h-.01L32.76 70.83l.05-16.96 1.34-.78" class="stshockcolor" data-st="fill:#80B34F;;" coriginal="rgb(128,179,79)" colortype="32" awdzp="32" style="fill: rgb(57, 96, 86);"></path><path fill-opacity=".15" d="M34.146 53.09l-1.333.776 24.17 13.95-.046 16.972 1.334-.776.05-16.97" class="stshockcolor2"></path><path d="M48.905 71.65c-.01 3-1.87 4.332-4.046 3.076s-4.03-4.73-4.02-7.728c.01-3 1.87-4.33 4.04-3.074 2.17 1.256 4.02 4.728 4.01 7.727zM34.11 70.066L55.6 82.47l.04-13.887-21.49-12.4-.037 13.882zm20.156 8.54c-.65-.375-1.35.022-1.35.772l-8.057-4.65-8.06-4.65c0-.75-.69-1.95-1.35-2.327l.02-7.71c.65.38 1.14-.13 1.14-.88l8.27 4.77 8.05 4.65c0 .75.69 1.95 1.34 2.32l-.02 7.72" class="stshockcolor1" opacity=".4"></path></g><g><g><path fill="rgb(240, 240, 240)" d="M44.88 33.16l2.668-1.55-1.173 1.638-2.67 1.55" class="stshockcolor5" coriginal="rgb(222,220,217)" colortype="3" awdzp="3" style="fill: rgb(240, 240, 240);"></path><path d="M44.88 33.16l2.668-1.55-1.173 1.638-2.67 1.55" class="stshockcolor0" opacity=".2"></path></g><path fill="rgb(240, 240, 240)" d="M61.05 41.723l-2.67 1.552-3.01-1.74-1.165-2.992-9.322-5.386-1.174 1.638-3.02-1.74 2.16-3.04c.19-.265.39-.473.63-.605.04-.03.07-.048.12-.067l2.54-1.486c.5-.293 1.153-.255 2.07.275l7.99 4.62c1.333.775 2.09 1.9 2.69 3.444l2.14 5.527z" class="stshockcolor5" coriginal="rgb(222,220,217)" colortype="3" awdzp="3" style="fill: rgb(240, 240, 240);"></path><path d="M56.223 32.75l-2.67 1.552-7.988-4.62c-.918-.53-1.562-.577-2.072-.273l2.668-1.56c.51-.3 1.16-.26 2.08.27l7.99 4.62z" class="st9" opacity=".1"></path><path d="M53.55 34.298l2.67-1.55c1.34.774 2.094 1.905 2.687 3.444.602 1.543 2.068 5.33 2.146 5.53l-2.67 1.55c-.075-.2-1.542-3.986-2.143-5.53-.595-1.538-1.348-2.67-2.69-3.444z" class="st4" opacity=".15"></path></g></g></svg>