<svg xmlns="http://www.w3.org/2000/svg" width="32" height="32" viewBox="0 0 100 100" id="svgid21" repair="1" xmlns:xlink="http://www.w3.org/1999/xlink"><g id="MTBteHk5NDIxMDAwMDAwMDAwMHh6czY3Nw"><linearGradient id="MTBteHk0MDAxMDAwMDAwMDAwMHh6czkx" x1="369.264" x2="362.27" y1="-335.738" y2="-323.87" gradientUnits="userSpaceOnUse" gradientTransform="matrix(1 0 0 -1 -294 -250)"><stop offset="0" stop-opacity="0"></stop><stop offset="1"></stop></linearGradient><path fill="url(#MTBteHk0MDAxMDAwMDAwMDAwMHh6czkx)" d="M44.088 90.575l45.49-26.707L100 69.978 55.645 96.94l-11.557-6.367" class="st1" opacity=".15"></path><path fill="rgb(230, 230, 230)" d="M93.94 64.43l-.01 3.28c0 .59-.39 1.18-1.17 1.63L52.94 92.37l-.01.01c-1.57.9-4.12.9-5.7 0-.01 0-.01 0-.01-.01L7.13 69.34c-.8-.46-1.19-1.06-1.19-1.66l.01-3.27c0-.59.39-1.19 1.17-1.64l39.83-23.03c1.57-.91 4.13-.91 5.71 0l40.08 23.03c.8.46 1.2 1.06 1.2 1.66z" class="st14" coriginal="rgb(208,222,226)" colortype="5" awdzp="5" style="fill: rgb(230, 230, 230);"></path><path d="M47.227 89.098L7.14 66.063c-.796-.456-1.192-1.056-1.19-1.655l-.01 3.274c-.003.6.395 1.2 1.188 1.655l40.088 23.036.01.005v-3.28z" class="st11" opacity=".1"></path><path d="M47.227 89.098v3.28c1.587.904 4.134.903 5.7 0l.01-.006v-3.27c-1.57.906-4.125.906-5.71-.004z" class="st4" opacity=".12"></path><path d="M92.77 66.063l-39.834 23.04v3.27L92.76 69.338c.78-.45 1.168-1.04 1.17-1.632l.01-3.273c-.002.59-.392 1.178-1.17 1.63z" class="st12" opacity=".2"></path></g><linearGradient id="MTBteHk0MDUxMDAwMDAwMDAwMHh6czI1Nw" x1="60.259" x2="47.489" y1="76.02" y2="54.352" gradientUnits="userSpaceOnUse"><stop offset="0" stop-opacity="0"></stop><stop offset="1"></stop></linearGradient><path fill="url(#MTBteHk0MDUxMDAwMDAwMDAwMHh6czI1Nw)" d="M58.958 52.903l-28.44 15.93L50.766 80.46l28.14-16.08" class="st6" opacity=".15"></path><linearGradient id="MTBteHk3MDgxMDAwMDAwMDAwMHh6czky" x1="70.108" x2="64.195" y1="79.656" y2="69.621" gradientUnits="userSpaceOnUse"><stop offset="0" stop-opacity="0"></stop><stop offset="1"></stop></linearGradient><path fill="url(#MTBteHk3MDgxMDAwMDAwMDAwMHh6czky)" d="M75.11 65.265L50.765 80.46l8.585 4.932 25.336-14.627" class="st7" opacity=".15"></path><g><g><g><path fill="rgb(47, 62, 70)" d="M52.124 58.51c-6.108 3.55-12.216 7.098-18.325 10.647.83-.482 1.34-1.506 1.34-2.96 0-.137-.01-.273-.02-.41l18.32-10.65c.01.138.012.275.01.41-.003 1.456-.52 2.48-1.347 2.962zM74.03 67.8c.01-.123.013-.248.013-.442L55.72 78.008c0 .193-.006.318-.014.44-.084 1.257-.578 2.148-1.334 2.588l18.324-10.65c.756-.44 1.25-1.33 1.334-2.587z" class="st16" coriginal="rgb(119,114,109)" colortype="37" awdzp="37" style="fill: rgb(47, 62, 70);"></path><g class="st13" opacity=".3"><path d="M52.124 58.51c-6.108 3.55-12.216 7.098-18.325 10.647.83-.482 1.34-1.506 1.34-2.96 0-.137-.01-.273-.02-.41l18.32-10.65c.01.138.012.275.01.41-.003 1.456-.52 2.48-1.347 2.962zM74.03 67.8c.01-.123.013-.248.013-.442L55.72 78.008c0 .193-.006.318-.014.44-.084 1.257-.578 2.148-1.334 2.588l18.324-10.65c.756-.44 1.25-1.33 1.334-2.587z"></path></g></g><path fill="rgb(47, 62, 70)" d="M35.145 66.197c-.01 2.93-2.08 4.11-4.62 2.64-2.55-1.47-4.61-5.04-4.6-7.97 0-.13 0-.26.01-.39.19-2.63 2.19-3.64 4.62-2.24 2.42 1.4 4.41 4.71 4.58 7.55.01.14.01.27.01.41zm15.98 3.92c-2.43-1.4-4.42-.39-4.61 2.24-.01.13-.01.26-.01.39-.01 2.93 2.04 6.5 4.59 7.97 2.44 1.41 4.43.38 4.61-2.27.01-.12.01-.25.01-.44-.02-2.91-2.06-6.43-4.59-7.89z" class="st16" coriginal="rgb(119,114,109)" colortype="37" awdzp="37" style="fill: rgb(47, 62, 70);"></path><path fill="rgb(255, 255, 255)" d="M30.546 60.688c1.366.79 2.474 2.708 2.47 4.277-.005 1.577-1.12 2.212-2.486 1.423-1.373-.792-2.48-2.71-2.475-4.288.004-1.568 1.118-2.204 2.49-1.412zm18.08 13.29c-.005 1.577 1.103 3.495 2.475 4.288 1.38.792 2.49.156 2.5-1.42.01-1.57-1.1-3.488-2.47-4.28-1.37-.794-2.48-.158-2.49 1.412z" class="st2" opacity=".3" coriginal="rgb(255,255,255)" colortype="0" awdzp="0" style="fill: rgb(255, 255, 255);"></path></g><g><path fill="rgb(225, 225, 225)" d="M78.465 57.327l-18.33 10.64v.01l-37.31-21.55c-.062-5.27.054-5.167.044-7.313l35.12 20.274 18.32-10.65c.11.33.23.69.34 1.06.61 1.93 1.21 4.27 1.66 6.66l.15.87z" class="st10" coriginal="rgb(199,219,235)" colortype="6" awdzp="6" style="fill: rgb(225, 225, 225);"></path><path fill="rgb(255, 255, 255)" d="M78.464 57.323L60.14 67.97c-.05-.287-1.03-5.422-2.15-8.587l18.325-10.65c.114.338.23.692.345 1.062.603 1.93 1.204 4.27 1.65 6.665.053.286.105.574.154.863zM28.418 42.31l3.668 9.466 7.84 4.526-3.668-9.466-7.84-4.526zm24.31 15.004c-.448-1.07-1.08-1.57-1.51-1.84-.06-.04-7.46-4.31-7.46-4.31l3.67 9.47 7.48 4.32c-.538-2.73-1.308-5.64-2.18-7.64z" class="st9" opacity=".5" coriginal="rgb(255,255,255)" colortype="0" awdzp="0" style="fill: rgb(255, 255, 255);"></path></g><g><path fill="rgb(113, 89, 118)" d="M60.695 78.097l18.32-10.65v.75c0 .8-.23 1.29-.59 1.5l-18.33 10.65c.05-.03.09-.07.13-.11-.38.33-.96.29-1.61-.08l-2.91-1.71c.01-.12.01-.25.01-.37v-.11c-.04-2.9-2.08-6.4-4.59-7.85-2.43-1.4-4.42-.39-4.61 2.24l-11.38-6.57c-.17-2.84-2.16-6.15-4.58-7.55-2.43-1.4-4.43-.39-4.62 2.24l-4.26-2.46c-.18-.11-2.13-1.14-2.13-3.74l.03-9.72c.01-3.8.02-7.41.02-8.16 0-.79.24-1.24.61-1.44-.01.01-.03.01-.04.01l18.33-10.64c.39-.23.96-.14 1.57.21 1.59.92 31.92 18.43 32.63 18.84s1.94 1.21 2.83 3.26c.24.57.51 1.28.79 2.1l-18.32 10.65-33.42-19.3c-.8-.45-1.44-.09-1.44.81l-.02 5.7 37.02 21.38v-.01l18.33-10.64c.3 1.78.51 3.57.56 5.22l-18.32 10.64-.01.01v-.01l-.93-.53h-.01c-.01-.01-.03-.02-.04-.02-.64-.352-1.14-.05-1.14.67l-.01 2.21c0 .74.53 1.648 1.18 2.03l.95.55z" class="stshockcolor" data-st="fill:#AACF6F;;" coriginal="rgb(170,207,111)" colortype="22" awdzp="22" style="fill: rgb(113, 89, 118);"></path><path d="M21.697 48.753c.002-.74-.526-1.648-1.184-2.027l-.945-.546.004-1.63 35.333 20.4c.406 2.043.68 3.98.767 5.343l-33.98-19.618.005-1.922z" class="st11" opacity=".1"></path><path fill="rgb(255, 255, 255)" d="M40.06 24.54c1.597.92 31.924 18.43 32.633 18.84L54.367 54.027l-32.632-18.84c-.607-.35-1.172-.446-1.568-.216l18.325-10.65c.397-.23.96-.13 1.57.22z" class="st15" opacity=".1" coriginal="rgb(255,255,255)" colortype="0" awdzp="0" style="fill: rgb(255, 255, 255);"></path><path d="M60.14 67.97l18.324-10.646c.302 1.78.508 3.57.557 5.222L60.7 73.193c-.048-1.65-.255-3.44-.555-5.222zm-2.943-10.684c.248.572.517 1.283.793 2.097l18.325-10.65c-.276-.812-.546-1.522-.793-2.095-.89-2.05-2.122-2.85-2.83-3.26L54.367 54.03c.71.41 1.942 1.21 2.83 3.258z" class="st3" opacity=".05"></path><path d="M79.015 67.446v.75c0 .8-.23 1.29-.59 1.5l-18.33 10.65c.05-.03.09-.07.13-.11-.38.33-.96.29-1.61-.08l-2.91-1.71c.01-.12.01-.25.01-.37v-.06c0-.52-.02-3.86-.01-6.89 0-.25-.01-.52-.03-.83l4.09 2.36c-.66-.38-1.188-.09-1.188.65l-.01 2.21c0 .74.53 1.648 1.18 2.03l.95.55 18.318-10.65z" class="st5" opacity=".15"></path><path d="M51.124 70.115c-2.43-1.402-4.423-.39-4.61 2.24l-11.38-6.568c-.17-2.837-2.158-6.148-4.58-7.548-2.43-1.41-4.43-.4-4.618 2.23l-4.266-2.46c-.178-.11-2.125-1.13-2.125-3.74l.005-1.58.944.55c.658.38 1.19.09 1.19-.65l.007-1.93 33.98 19.62c.02.31.03.59.03.833-.01 3.033.02 6.372.02 6.88-.02-2.91-2.06-6.434-4.59-7.894z" class="st13" opacity=".3"></path></g><g><path fill="rgb(215, 215, 215)" d="M79.035 63.327c-.01 1.37-.01 2.74-.02 4.12l-18.32 10.65-.95-.55c-.65-.382-1.18-1.29-1.18-2.03l.01-2.21c0-.74.53-1.03 1.19-.65l.93.54 18.32-10.65c.01.02.01.05.01.08v.36c.01.11.01.22.01.34zm-58.52-16.6l-.95-.55c0 1.13-.02 6.52-.02 6.52l.95.55c.66.382 1.19.092 1.19-.648l.01-1.92v-1.93c0-.74-.52-1.65-1.18-2.03z" class="st8" coriginal="rgb(241,210,137)" colortype="8" awdzp="8" style="fill: rgb(215, 215, 215);"></path><path d="M79.035 63.327c-.01 1.37-.01 2.74-.02 4.12l-18.32 10.65v-4.9l18.32-10.65c.01.02.01.05.01.08v.36c.01.11.01.22.01.34zM21.69 50.675l-2.132-1.23-.01 3.258.945.545c.658.38 1.19.09 1.19-.65l.008-1.923z" class="st11" opacity=".1"></path></g></g></svg>