<svg xmlns="http://www.w3.org/2000/svg" width="32" height="32" viewBox="0 0 100 100" id="svgid18" repair="1" xmlns:xlink="http://www.w3.org/1999/xlink"><g id="MTBteHk2NzMxMDAwMDAwMDAwMHh6czkxMQ"><linearGradient id="MTBteHk1MTUxMDAwMDAwMDAwMHh6czM1Nw" x1="369.264" x2="362.27" y1="-335.738" y2="-323.87" gradientUnits="userSpaceOnUse" gradientTransform="matrix(1 0 0 -1 -294 -250)"><stop offset="0" stop-opacity="0"></stop><stop offset="1"></stop></linearGradient><path fill="url(#MTBteHk1MTUxMDAwMDAwMDAwMHh6czM1Nw)" d="M44.088 90.575l45.49-26.707L100 69.978 55.645 96.94l-11.557-6.367" class="st0" opacity=".15"></path><path fill="rgb(230, 230, 230)" d="M93.94 64.43l-.01 3.28c0 .59-.39 1.18-1.17 1.63L52.94 92.37l-.01.01c-1.57.9-4.12.9-5.7 0-.01 0-.01 0-.01-.01L7.13 69.34c-.8-.46-1.19-1.06-1.19-1.66l.01-3.27c0-.59.39-1.19 1.17-1.64l39.83-23.03c1.57-.91 4.13-.91 5.71 0l40.08 23.03c.8.46 1.2 1.06 1.2 1.66z" class="st8" coriginal="rgb(208,222,226)" colortype="5" awdzp="5" style="fill: rgb(230, 230, 230);"></path><path d="M47.227 89.098L7.14 66.063c-.796-.456-1.192-1.056-1.19-1.655l-.01 3.274c-.003.6.395 1.2 1.188 1.655l40.088 23.036.01.005v-3.28z" class="st5" opacity=".1"></path><path d="M47.227 89.098v3.28c1.587.904 4.134.903 5.7 0l.01-.006v-3.27c-1.57.906-4.125.906-5.71-.004z" class="st1" opacity=".12"></path><path d="M92.77 66.063l-39.834 23.04v3.27L92.76 69.338c.78-.45 1.168-1.04 1.17-1.632l.01-3.273c-.002.59-.392 1.178-1.17 1.63z" class="st6" opacity=".2"></path></g><linearGradient id="MTBteHk5MjgxMDAwMDAwMDAwMHh6czM1Nw" x1="65.338" x2="59.495" y1="77.464" y2="69.05" gradientUnits="userSpaceOnUse"><stop offset="0" stop-opacity="0"></stop><stop offset="1" stop-color="#1D1D1B" stop-opacity=".648"></stop></linearGradient><path fill="url(#MTBteHk5MjgxMDAwMDAwMDAwMHh6czM1Nw)" d="M48.945 68.26L69.03 79.792l5.656-3.27-20.102-11.54" class="st3" opacity=".15"></path><path fill="rgb(72, 111, 101)" d="M54.705 20.965c-3.55-2.05-6.76-2.24-9.08-.89-1.87 1.09-3.75 2.17-5.62 3.26-2.3 1.33-3.74 4.17-3.75 8.21 0 2.68.63 5.56 1.72 8.37l10.97 28.34 5.64-3.27 11.09-15.62c1.11-1.53 1.75-3.67 1.76-6.36.02-8.1-5.68-17.97-12.73-22.04zm1.88 24.48c-.62-.17-1.27-.45-1.94-.84-4.32-2.49-7.8-8.52-7.79-13.48 0-.74.08-1.42.23-2.02.63.16 1.29.45 1.97.84 4.3 2.48 7.79 8.51 7.78 13.47-.01.75-.1 1.42-.25 2.03z" class="stshockcolor" data-st="fill:#DE7047;;" coriginal="rgb(222,112,71)" colortype="29" awdzp="29" style="fill: rgb(72, 111, 101);"></path><path d="M54.645 44.605l-5.64 3.27c-.14-.08-.28-.16-.41-.24-4.13-2.63-7.39-8.44-7.38-13.23.02-4.16 2.48-6.23 5.83-5.31.01-.01.02 0 .04.01-.15.6-.23 1.28-.23 2.02-.01 4.96 3.47 10.99 7.79 13.48z" class="st7" opacity=".5"></path><path fill="rgb(72, 111, 101)" d="M56.655 41.405l-4.62 2.69c-.78.45-1.84.39-3.02-.3-2.35-1.35-4.25-4.65-4.24-7.34 0-1.34.48-2.29 1.25-2.73v-.01h.01l4.6-2.67c.47.38.92.8 1.36 1.26 2.35 2.46 4.12 5.87 4.66 9.1z" class="stshockcolor" data-st="fill:#DE7047;;" coriginal="rgb(222,112,71)" colortype="29" awdzp="29" style="fill: rgb(72, 111, 101);"></path><path fill="rgb(255, 255, 255)" d="M49.042 34.02c2.344 1.354 4.247 4.65 4.24 7.35-.01 2.69-1.924 3.783-4.268 2.43-2.35-1.355-4.252-4.65-4.244-7.344.008-2.7 1.922-3.792 4.272-2.435zm.028-9.78l5.64-3.275c-3.55-2.05-6.767-2.24-9.088-.892l-5.64 3.276c2.323-1.35 5.54-1.16 9.088.89z" class="st4" opacity=".2" coriginal="rgb(255,255,255)" colortype="0" awdzp="0" style="fill: rgb(255, 255, 255);"></path><path d="M56.595 45.445c0 .01 0 .02-.01.03-.86 3.4-3.94 4.51-7.58 2.4l5.64-3.27c.67.39 1.33.67 1.95.84zm-4.56-1.35l4.62-2.69c-.54-3.23-2.31-6.64-4.66-9.1l-2.95 1.72c2.34 1.35 4.24 4.64 4.24 7.34-.01 1.34-.48 2.28-1.25 2.73zm2.674-23.13l-5.64 3.276c7.05 4.07 12.75 13.94 12.72 22.05-.01 2.69-.66 4.83-1.77 6.36L48.94 68.26l5.64-3.274 11.09-15.614c1.11-1.533 1.757-3.673 1.765-6.36.022-8.106-5.68-17.975-12.728-22.044z" class="st2" opacity=".25"></path></svg>