<svg xmlns="http://www.w3.org/2000/svg" width="32" height="32" viewBox="0 0 100 100" id="svgid6" repair="1" xmlns:xlink="http://www.w3.org/1999/xlink"><g id="MTBteHk5MzgxMDAwMDAwMDAwMHh6czUzOA"><linearGradient id="MTBteHk2NzAxMDAwMDAwMDAwMHh6czYzMg" x1="369.264" x2="362.27" y1="-335.738" y2="-323.87" gradientUnits="userSpaceOnUse" gradientTransform="matrix(1 0 0 -1 -294 -250)"><stop offset="0" stop-opacity="0"></stop><stop offset="1"></stop></linearGradient><path fill="url(#MTBteHk2NzAxMDAwMDAwMDAwMHh6czYzMg)" d="M44.088 90.575l45.49-26.707L100 69.978 55.645 96.94l-11.557-6.367" class="st0" opacity=".15"></path><path fill="rgb(230, 230, 230)" d="M93.94 64.43l-.01 3.28c0 .59-.39 1.18-1.17 1.63L52.94 92.37l-.01.01c-1.57.9-4.12.9-5.7 0-.01 0-.01 0-.01-.01L7.13 69.34c-.8-.46-1.19-1.06-1.19-1.66l.01-3.27c0-.59.39-1.19 1.17-1.64l39.83-23.03c1.57-.91 4.13-.91 5.71 0l40.08 23.03c.8.46 1.2 1.06 1.2 1.66z" class="st13" coriginal="rgb(208,222,226)" colortype="5" awdzp="5" style="fill: rgb(230, 230, 230);"></path><path d="M47.227 89.098L7.14 66.063c-.796-.456-1.192-1.056-1.19-1.655l-.01 3.274c-.003.6.395 1.2 1.188 1.655l40.088 23.036.01.005v-3.28z" class="st8" opacity=".1"></path><path d="M47.227 89.098v3.28c1.587.904 4.134.903 5.7 0l.01-.006v-3.27c-1.57.906-4.125.906-5.71-.004z" class="st3" opacity=".12"></path><path d="M92.77 66.063l-39.834 23.04v3.27L92.76 69.338c.78-.45 1.168-1.04 1.17-1.632l.01-3.273c-.002.59-.392 1.178-1.17 1.63z" class="st9" opacity=".2"></path></g><g><linearGradient id="MTBteHk0MTAxMDAwMDAwMDAwMHh6czg4NQ" x1="35.725" x2="31.238" y1="63.899" y2="56.285" gradientUnits="userSpaceOnUse"><stop offset="0" stop-opacity="0"></stop><stop offset="1"></stop></linearGradient><path fill="url(#MTBteHk0MTAxMDAwMDAwMDAwMHh6czg4NQ)" d="M38.963 53.47l-17.38 10.08 7.1 4.11L45.97 57.634" class="st4" opacity=".15"></path><linearGradient id="MTBteHk2NTUxMDAwMDAwMDAwMHh6czExNw" x1="47.095" x2="42.609" y1="70.467" y2="62.854" gradientUnits="userSpaceOnUse"><stop offset="0" stop-opacity="0"></stop><stop offset="1"></stop></linearGradient><path fill="url(#MTBteHk2NTUxMDAwMDAwMDAwMHh6czExNw)" d="M50.333 60.04l-17.38 10.08 7.1 4.11L57.34 64.203" class="st5" opacity=".15"></path><linearGradient id="MTBteHkzMDExMDAwMDAwMDAwMHh6czUzMA" x1="58.409" x2="53.923" y1="77.001" y2="69.387" gradientUnits="userSpaceOnUse"><stop offset="0" stop-opacity="0"></stop><stop offset="1"></stop></linearGradient><path fill="url(#MTBteHkzMDExMDAwMDAwMDAwMHh6czUzMA)" d="M61.647 66.57l-17.38 10.08 7.1 4.112 17.286-10.028" class="st6" opacity=".15"></path><linearGradient id="MTBteHk5MzcxMDAwMDAwMDAwMHh6czkyNA" x1="70.936" x2="68.488" y1="78.959" y2="74.804" gradientUnits="userSpaceOnUse"><stop offset="0" stop-opacity="0"></stop><stop offset="1"></stop></linearGradient><path fill="url(#MTBteHk5MzcxMDAwMDAwMDAwMHh6czkyNA)" d="M80.307 68.89L55.64 83.233l3.738 2.14 24.728-14.3" class="st7" opacity=".15"></path></g><g><g><path fill="rgb(245, 245, 245)" d="M46.258 49.23L21.59 63.565l.025-8.965c0-.134.005-1.85 1.01-2.435l24.67-14.335c-1.007.584-1.012 2.3-1.012 2.434l-.025 8.966zm-.935 16.042c-1.005.585-1.01 2.3-1.01 2.433l-.026 8.965 24.668-14.335.025-8.966c0-.14.005-1.85 1.01-2.44L45.324 65.27zM57.63 46.815c0-.134.004-1.848 1.01-2.432L33.972 58.72c-1.006.583-1.01 2.297-1.01 2.43l-.026 8.967L57.604 55.78l.025-8.965z" class="st2" coriginal="rgb(230,230,230)" colortype="2" awdzp="2" style="fill: rgb(245, 245, 245);"></path><g class="st11" opacity=".5"><path d="M46.258 49.23L21.59 63.565l.025-8.965c0-.134.005-1.85 1.01-2.435l24.67-14.335c-1.007.584-1.012 2.3-1.012 2.434l-.025 8.966zm-.935 16.042c-1.005.585-1.01 2.3-1.01 2.433l-.026 8.965 24.668-14.335.025-8.966c0-.14.005-1.85 1.01-2.44L45.324 65.27zM57.63 46.815c0-.134.004-1.848 1.01-2.432L33.972 58.72c-1.006.583-1.01 2.297-1.01 2.43l-.026 8.967L57.604 55.78l.025-8.965z"></path></g></g><path fill="rgb(245, 245, 245)" d="M36.585 36.855L55.702 60.95l-.063 22.273-4.26-2.458.02-8.966c0-.21.01-4.08-3.53-6.13-3.55-2.05-3.56 1.82-3.56 2.03l-.03 8.96-4.26-2.46.02-8.97c0-.21.01-4.08-3.53-6.13-3.55-2.05-3.56 1.825-3.56 2.03l-.03 8.964-4.25-2.453.02-8.966c0-.2.01-4.08-3.54-6.124-3.54-2.043-3.553 1.83-3.553 2.036l-.025 8.965-4.26-2.46.06-22.27 19.197-1.98z" class="st2" coriginal="rgb(230,230,230)" colortype="2" awdzp="2" style="fill: rgb(245, 245, 245);"></path><g><path fill="rgb(245, 245, 245)" d="M55.702 60.95L80.37 46.615l-.063 22.274L55.64 83.22" class="st2" coriginal="rgb(230,230,230)" colortype="2" awdzp="2" style="fill: rgb(245, 245, 245);"></path><path d="M55.702 60.95L80.37 46.615l-.063 22.274L55.64 83.22" class="st9" opacity=".2"></path></g></g><g><g><path fill="rgb(245, 245, 245)" d="M63.382 15.787l-21.32 1.83L15.28 33.18l-.018 6.522 21.32-1.83 21.24 26.402 26.78-15.564.02-6.522" class="st2" coriginal="rgb(230,230,230)" colortype="2" awdzp="2" style="fill: rgb(245, 245, 245);"></path><path d="M63.382 15.787l-21.32 1.83L15.28 33.18l-.018 6.522 21.32-1.83 21.24 26.402 26.78-15.564.02-6.522" class="st10" opacity=".3"></path></g><path fill="rgb(255, 255, 255)" d="M15.28 33.18l26.783-15.564 21.32-1.83L36.6 31.352" class="st14" opacity=".1" coriginal="rgb(255,255,255)" colortype="0" awdzp="0" style="fill: rgb(255, 255, 255);"></path><path d="M57.84 57.753l26.782-15.565-.018 6.522L57.82 64.274" class="st9" opacity=".2"></path><path fill="rgb(255, 255, 255)" d="M36.6 31.35l21.24 26.403-.02 6.52-21.24-26.4-21.318 1.83.018-6.523" class="st1" opacity=".3" coriginal="rgb(255,255,255)" colortype="0" awdzp="0" style="fill: rgb(255, 255, 255);"></path></g><g><path fill="rgb(57, 96, 86)" d="M41.943 46.268l-3.85 5.124 2.303 1.33-.004 1.63-2.835-1.637-.005 1.63 2.835 1.635-.004 1.63-2.835-1.638-.007 2.45-2.13-1.23.01-2.45-2.83-1.638.01-1.628 2.84 1.636.006-1.628-2.836-1.637.004-1.63 2.3 1.333L31.09 40l2.483 1.434L36.5 48.77l2.96-3.937" class="stshockcolor" data-st="opacity:0.3;fill:#80B34F;;" opacity=".3" coriginal="rgb(128,179,79)" colortype="32" awdzp="32" style="fill: rgb(57, 96, 86);"></path><path d="M41.943 46.268l-3.85 5.124 2.303 1.33-.004 1.63-2.835-1.637-.005 1.63 2.835 1.635-.004 1.63-2.835-1.638-.007 2.45-2.13-1.23.01-2.45-2.83-1.638.01-1.628 2.84 1.636.006-1.628-2.836-1.637.004-1.63 2.3 1.333L31.09 40l2.483 1.434L36.5 48.77l2.96-3.937" class="st9" opacity=".2"></path></g></svg>