<svg xmlns="http://www.w3.org/2000/svg" width="32" height="32" viewBox="0 0 100 100" id="svgid10" repair="1" xmlns:xlink="http://www.w3.org/1999/xlink"><g id="MTBteHkyODgxMDAwMDAwMDAwMHh6czM0Mw"><linearGradient id="MTBteHkyMDgxMDAwMDAwMDAwMHh6czY3NA" x1="369.264" x2="362.27" y1="-335.738" y2="-323.87" gradientUnits="userSpaceOnUse" gradientTransform="matrix(1 0 0 -1 -294 -250)"><stop offset="0" stop-opacity="0"></stop><stop offset="1"></stop></linearGradient><path fill="url(#MTBteHkyMDgxMDAwMDAwMDAwMHh6czY3NA)" d="M44.088 90.575l45.49-26.707L100 69.978 55.645 96.94l-11.557-6.367" class="st0" opacity=".15"></path><path fill="rgb(230, 230, 230)" d="M93.94 64.43l-.01 3.28c0 .59-.39 1.18-1.17 1.63L52.94 92.37l-.01.01c-1.57.9-4.12.9-5.7 0-.01 0-.01 0-.01-.01L7.13 69.34c-.8-.46-1.19-1.06-1.19-1.66l.01-3.27c0-.59.39-1.19 1.17-1.64l39.83-23.03c1.57-.91 4.13-.91 5.71 0l40.08 23.03c.8.46 1.2 1.06 1.2 1.66z" class="st10" coriginal="rgb(208,222,226)" colortype="5" awdzp="5" style="fill: rgb(230, 230, 230);"></path><path d="M47.227 89.098L7.14 66.063c-.796-.456-1.192-1.056-1.19-1.655l-.01 3.274c-.003.6.395 1.2 1.188 1.655l40.088 23.036.01.005v-3.28z" class="st7" opacity=".1"></path><path d="M47.227 89.098v3.28c1.587.904 4.134.903 5.7 0l.01-.006v-3.27c-1.57.906-4.125.906-5.71-.004z" class="st2" opacity=".12"></path><path d="M92.77 66.063l-39.834 23.04v3.27L92.76 69.338c.78-.45 1.168-1.04 1.17-1.632l.01-3.273c-.002.59-.392 1.178-1.17 1.63z" class="st8" opacity=".2"></path></g><linearGradient id="MTBteHkzMzkxMDAwMDAwMDAwMHh6czE1NA" x1="63.134" x2="50.006" y1="80.842" y2="58.074" gradientUnits="userSpaceOnUse"><stop offset="0" stop-opacity="0"></stop><stop offset=".131" stop-opacity=".131"></stop><stop offset="1"></stop></linearGradient><path fill="url(#MTBteHkzMzkxMDAwMDAwMDAwMHh6czE1NA)" d="M54.79 63.193l-13.385 8.123L62.62 83.5l13.71-7.93" class="st5" opacity=".15"></path><path fill="rgb(172, 180, 167)" d="M68.47 55.9c-.02 6.07-2.16 10.34-5.62 12.35-2.54 1.47-5.07 2.95-7.61 4.42-3.5 2.06-8.38 1.79-13.76-1.31-10.63-6.14-19.23-21.03-19.19-33.25.02-6.1 2.18-10.38 5.66-12.38.1-.06 5.17-3.02 7.61-4.43 3.5-2.04 8.35-1.75 13.71 1.34C59.9 28.78 68.5 43.67 68.47 55.9z" class="stshockcolor" data-st="fill:#F7C90B;;" coriginal="rgb(247,201,11)" colortype="15" awdzp="15" style="fill: rgb(172, 180, 167);"></path><path fill="rgb(255, 255, 255)" d="M41.6 31.11c8.705 5.027 15.742 17.21 15.715 27.22-.03 10.003-7.113 14.032-15.818 9.007-8.704-5.026-15.737-17.205-15.708-27.21.02-10.01 7.1-14.042 15.81-9.016z" class="st9" opacity=".4" coriginal="rgb(255,255,255)" colortype="0" awdzp="0" style="fill: rgb(255, 255, 255);"></path><g class="st4"><g><path fill="rgb(172, 180, 167)" d="M34.63 46.38l2.114-1.23c-.02.26-.033.525-.034.797 0 .28.01.558.03.84l-2.115 1.23c-.018-.284-.03-.563-.03-.84 0-.272.014-.536.035-.797zm.934-2.722l2.115-1.23c.3-.43.68-.774 1.11-1.023l-2.12 1.23c-.43.247-.8.59-1.11 1.023z" class="stshockcolor" data-st="fill:#F7C90B;;" coriginal="rgb(247,201,11)" colortype="15" awdzp="15" style="fill: rgb(172, 180, 167);"></path><g class="st8" opacity=".2"><path d="M34.63 46.38l2.114-1.23c-.02.26-.033.525-.034.797 0 .28.01.558.03.84l-2.115 1.23c-.018-.284-.03-.563-.03-.84 0-.272.014-.536.035-.797zm.934-2.722l2.115-1.23c.3-.43.68-.774 1.11-1.023l-2.12 1.23c-.43.247-.8.59-1.11 1.023z"></path></g></g><g><path fill="rgb(172, 180, 167)" d="M29.377 44.986l2.114-1.23 1.71.985-2.11 1.23-1.7-.98zm2.3-3.573l2.114-1.23-2.28-1.32-2.11 1.23 2.29 1.32zM43.78 58.2c-2.618-1.51-4.905-4.477-6.124-7.62l-2.114 1.23c1.22 3.143 3.506 6.11 6.124 7.62 1.965 1.135 3.744 1.235 5.033.486.31-.185.63-.368.95-.553l1.05-.614.1-.07c-1.29.75-3.07.65-5.04-.49zm1.673-3.932l2.114-1.23-10.828-6.25-2.12 1.228 10.83 6.252zm2.3-3.573l2.114-1.23L37.68 42.43l-2.115 1.228 12.188 7.037zM43.838 37.82c-2.95-1.703-5.62-1.854-7.555-.73l-2.114 1.228c1.93-1.124 4.6-.97 7.55.73 3.16 1.826 5.99 5.062 7.93 8.71l2.11-1.23c-1.94-3.647-4.77-6.883-7.93-8.708z" class="stshockcolor" data-st="fill:#F7C90B;;" coriginal="rgb(247,201,11)" colortype="15" awdzp="15" style="fill: rgb(172, 180, 167);"></path><g class="st3" opacity=".15"><path d="M29.377 44.986l2.114-1.23 1.71.985-2.11 1.23-1.7-.98zm2.3-3.573l2.114-1.23-2.28-1.32-2.11 1.23 2.29 1.32zM43.78 58.2c-2.618-1.51-4.905-4.477-6.124-7.62l-2.114 1.23c1.22 3.143 3.506 6.11 6.124 7.62 1.965 1.135 3.744 1.235 5.033.486.31-.185.63-.368.95-.553l1.05-.614.1-.07c-1.29.75-3.07.65-5.04-.49zm1.673-3.932l2.114-1.23-10.828-6.25-2.12 1.228 10.83 6.252zm2.3-3.573l2.114-1.23L37.68 42.43l-2.115 1.228 12.188 7.037zM43.838 37.82c-2.95-1.703-5.62-1.854-7.555-.73l-2.114 1.228c1.93-1.124 4.6-.97 7.55.73 3.16 1.826 5.99 5.062 7.93 8.71l2.11-1.23c-1.94-3.647-4.77-6.883-7.93-8.708z"></path></g></g><path fill="rgb(172, 180, 167)" d="M41.724 39.05c3.16 1.824 5.99 5.06 7.93 8.708l-1.86 2.878c-1.233-3.1-3.488-6.02-6.08-7.515-2.62-1.51-4.915-1.19-6.148.54l12.188 7.04-1.535 2.38-11.59-6.69c-.02.26-.04.53-.04.8 0 .28.01.56.03.84l10.82 6.25-1.54 2.38-8.37-4.832c1.22 3.143 3.5 6.11 6.12 7.62 2.81 1.62 5.24 1.13 6.393-.936l-.016 6.228c-1.785.516-3.997.165-6.39-1.22-4.624-2.67-8.547-8.35-10-13.936l-3.92-2.28 1.65-2.31 1.705.98c-.02-.28-.04-.56-.038-.84 0-.27.02-.53.04-.79l-3.34-1.94 1.65-2.31 2.286 1.32c1.485-3.89 5.43-5.03 10.05-2.36z" class="stshockcolor" data-st="fill:#F7C90B;;" coriginal="rgb(247,201,11)" colortype="15" awdzp="15" style="fill: rgb(172, 180, 167);"></path><g><path fill="rgb(172, 180, 167)" d="M48.063 58.495l2.114-1.23-.018 6.23-2.12 1.23.02-6.23zm-.493-5.455l-1.54 2.37-2.12 1.23 1.54-2.37 2.12-1.23zm-1.35.03l2.11-1.23 1.54-2.37-2.12 1.22-1.53 2.38zm3.43-5.31l-1.86 2.88 2.12-1.23 1.86-2.88-2.12 1.23z" class="stshockcolor" data-st="fill:#F7C90B;;" coriginal="rgb(247,201,11)" colortype="15" awdzp="15" style="fill: rgb(172, 180, 167);"></path><g class="st1" opacity=".05"><path d="M48.063 58.495l2.114-1.23-.018 6.23-2.12 1.23.02-6.23zm-.493-5.455l-1.54 2.37-2.12 1.23 1.54-2.37 2.12-1.23zm-1.35.03l2.11-1.23 1.54-2.37-2.12 1.22-1.53 2.38zm3.43-5.31l-1.86 2.88 2.12-1.23 1.86-2.88-2.12 1.23z"></path></g></g></g><path d="M62.85 68.25l-7.654 4.45c3.456-2.01 5.6-6.28 5.617-12.35.034-12.23-8.564-27.117-19.202-33.26l7.66-4.448c10.64 6.142 19.24 21.027 19.2 33.26-.01 6.07-2.16 10.34-5.61 12.35z" class="st3" opacity=".15"></path></svg>