<svg xmlns="http://www.w3.org/2000/svg" width="32" height="32" viewBox="0 0 100 100" id="svgid12" repair="1" xmlns:xlink="http://www.w3.org/1999/xlink"><g id="MTBteHk3NDUxMDAwMDAwMDAwMHh6czc4Ng"><linearGradient id="MTBteHk2ODcxMDAwMDAwMDAwMHh6czcxNQ" x1="369.264" x2="362.27" y1="-335.738" y2="-323.87" gradientUnits="userSpaceOnUse" gradientTransform="matrix(1 0 0 -1 -294 -250)"><stop offset="0" stop-opacity="0"></stop><stop offset="1"></stop></linearGradient><path fill="url(#MTBteHk2ODcxMDAwMDAwMDAwMHh6czcxNQ)" d="M44.088 90.575l45.49-26.707L100 69.978 55.645 96.94l-11.557-6.367" class="st0" opacity=".15"></path><path fill="rgb(230, 230, 230)" d="M93.94 64.43l-.01 3.28c0 .59-.39 1.18-1.17 1.63L52.94 92.37l-.01.01c-1.57.9-4.12.9-5.7 0-.01 0-.01 0-.01-.01L7.13 69.34c-.8-.46-1.19-1.06-1.19-1.66l.01-3.27c0-.59.39-1.19 1.17-1.64l39.83-23.03c1.57-.91 4.13-.91 5.71 0l40.08 23.03c.8.46 1.2 1.06 1.2 1.66z" class="st10" coriginal="rgb(208,222,226)" colortype="5" awdzp="5" style="fill: rgb(230, 230, 230);"></path><path d="M47.227 89.098L7.14 66.063c-.796-.456-1.192-1.056-1.19-1.655l-.01 3.274c-.003.6.395 1.2 1.188 1.655l40.088 23.036.01.005v-3.28z" class="st6" opacity=".1"></path><path d="M47.227 89.098v3.28c1.587.904 4.134.903 5.7 0l.01-.006v-3.27c-1.57.906-4.125.906-5.71-.004z" class="st2" opacity=".12"></path><path d="M92.77 66.063l-39.834 23.04v3.27L92.76 69.338c.78-.45 1.168-1.04 1.17-1.632l.01-3.273c-.002.59-.392 1.178-1.17 1.63z" class="st7" opacity=".2"></path></g><linearGradient id="MTBteHk3ODEwMDAwMDAwMDAweHpzMjYw" x1="72.805" x2="66.871" y1="78.115" y2="68.045" gradientUnits="userSpaceOnUse"><stop offset="0" stop-opacity="0"></stop><stop offset="1"></stop></linearGradient><path fill="url(#MTBteHk3ODEwMDAwMDAwMDAweHpzMjYw)" d="M91.474 66.812l-9.367-5.39L48.98 80.67l9.286 5.35" class="st4" opacity=".15"></path><g><path fill="rgb(235, 235, 235)" d="M82.14 37.75l-.03 23.67-33.13 19.25-.05-.03v.03l-7.52-4.34.04-15.28-16.2-9.35-.04 15.28-7.52-4.34.06-23.42 15.64.85 15.62 16.94" class="st12" coriginal="rgb(220,219,218)" colortype="4" awdzp="4" style="fill: rgb(235, 235, 235);"></path><path fill-opacity=".25" d="M49.01 57.01l33.13-19.26-.033 23.673-33.125 19.25" class="st9"></path></g><g><path fill="rgb(123, 99, 128)" d="M85.7 39.83v5.64L52.58 64.72 33.46 41.06l-19.18 1.61.01-5.65 33.13-19.25 18.2-1.52c.31 0 .65.1.98.29.37.22.74.54 1.06.94.14.17 18.04 22.35 18.04 22.35z" class="stshockcolor" data-st="fill:#75A2D8;;" coriginal="rgb(117,162,216)" colortype="20" awdzp="20" style="fill: rgb(123, 99, 128);"></path><path d="M85.7 39.83v5.64L52.58 64.72l.02-5.64c-.07-.09-17.93-22.18-18.06-22.35-.33-.4-.69-.72-1.07-.94L66.6 16.54c.37.22.74.54 1.06.94.14.17 18.04 22.35 18.04 22.35z" class="st3" opacity=".25"></path><path fill="rgb(255, 255, 255)" d="M33.475 35.792c.373.215.74.54 1.064.94.13.17 18.06 22.346 18.06 22.346l-.03 5.646-19.12-23.66-19.19 1.604.012-5.65L32.4 35.503c.334-.025.7.08 1.06.29z" class="st5" opacity=".2" coriginal="rgb(255,255,255)" colortype="0" awdzp="0" style="fill: rgb(255, 255, 255);"></path></g><g><path fill="rgb(27, 42, 50)" d="M44.17 58.35v19.57L22.89 65.64V46.06" class="st8" coriginal="rgb(105,105,105)" colortype="41" awdzp="41" style="fill: rgb(27, 42, 50);"></path><path fill="rgb(255, 255, 255)" d="M44.17 63.22v2.47l-21.28-12.3v-2.44l21.28 12.27zm-21.28-7.385v2.44l21.28 12.3v-2.47l-21.28-12.27zm0 4.894v2.44l21.28 12.29v-2.47L22.89 60.73z" class="st1" opacity=".3" coriginal="rgb(255,255,255)" colortype="0" awdzp="0" style="fill: rgb(255, 255, 255);"></path></g></svg>