<svg xmlns="http://www.w3.org/2000/svg" width="32" height="32" viewBox="0 0 100 100" id="svgid15" repair="1" xmlns:xlink="http://www.w3.org/1999/xlink"><g id="MTBteHkzMzMxMDAwMDAwMDAwMHh6czQ4Mg"><linearGradient id="MTBteHk4MzExMDAwMDAwMDAwMHh6czY2MQ" x1="369.264" x2="362.27" y1="-335.738" y2="-323.87" gradientUnits="userSpaceOnUse" gradientTransform="matrix(1 0 0 -1 -294 -250)"><stop offset="0" stop-opacity="0"></stop><stop offset="1"></stop></linearGradient><path fill="url(#MTBteHk4MzExMDAwMDAwMDAwMHh6czY2MQ)" d="M44.088 90.575l45.49-26.707L100 69.978 55.645 96.94l-11.557-6.367" class="st1" opacity=".15"></path><path fill="rgb(230, 230, 230)" d="M93.94 64.43l-.01 3.28c0 .59-.39 1.18-1.17 1.63L52.94 92.37l-.01.01c-1.57.9-4.12.9-5.7 0-.01 0-.01 0-.01-.01L7.13 69.34c-.8-.46-1.19-1.06-1.19-1.66l.01-3.27c0-.59.39-1.19 1.17-1.64l39.83-23.03c1.57-.91 4.13-.91 5.71 0l40.08 23.03c.8.46 1.2 1.06 1.2 1.66z" class="st13" coriginal="rgb(208,222,226)" colortype="5" awdzp="5" style="fill: rgb(230, 230, 230);"></path><path d="M47.227 89.098L7.14 66.063c-.796-.456-1.192-1.056-1.19-1.655l-.01 3.274c-.003.6.395 1.2 1.188 1.655l40.088 23.036.01.005v-3.28z" class="st11" opacity=".1"></path><path d="M47.227 89.098v3.28c1.587.904 4.134.903 5.7 0l.01-.006v-3.27c-1.57.906-4.125.906-5.71-.004z" class="st3" opacity=".12"></path><path d="M92.77 66.063l-39.834 23.04v3.27L92.76 69.338c.78-.45 1.168-1.04 1.17-1.632l.01-3.273c-.002.59-.392 1.178-1.17 1.63z" class="st12" opacity=".2"></path></g><g id="MTBteHkxNjMxMDAwMDAwMDAwMHh6czIyMQ"><linearGradient id="MTBteHkyNTAxMDAwMDAwMDAwMHh6czUwNQ" x1="60.56" x2="31.453" y1="82.944" y2="31.61" gradientUnits="userSpaceOnUse"><stop offset="0" stop-opacity="0"></stop><stop offset=".131" stop-opacity=".131"></stop><stop offset="1"></stop></linearGradient><path fill="url(#MTBteHkyNTAxMDAwMDAwMDAwMHh6czUwNQ)" d="M38.142 49.622l-15.37 9.668L63.5 82.5l16.05-9.062z" class="st7" opacity=".15"></path><linearGradient id="MTBteHk1ODYxMDAwMDAwMDAwMHh6czIzMw" x1="63.682" x2="44.883" y1="82.078" y2="48.925" gradientUnits="userSpaceOnUse"><stop offset="0" stop-opacity="0"></stop><stop offset=".131" stop-opacity=".131"></stop><stop offset="1"></stop></linearGradient><path fill="url(#MTBteHk1ODYxMDAwMDAwMDAwMHh6czIzMw)" d="M53.207 58.287L35.68 69.313 61.59 84.08l17.96-10.642z" class="st8" opacity=".15"></path><g><path fill="rgb(77, 116, 106)" d="M72 47.73l-.02 22.31c0 .44 0 .88-.57 1.21l-6.33 3.65c-.32.18-.69.32-1.08.4-.13.03-.26.05-.39.06-.07.01-.14.02-.21.02-.12.01-.24.022-.36.022-.19 0-.38-.01-.57-.02l-.45-.06c-.02-.012-.04-.012-.06-.012-.12-.03-.24-.06-.35-.09-.05-.02-.1-.03-.16-.05-.12-.04-.24-.09-.36-.14l-.01-.01c-.21-.04-.44-.12-.68-.24L32.85 58.99v.07l-1.92 1.23c-.85.49-2.79.64-3.91.38l-3.27-.9c-.38-.09-.56-.15-.84-.32-.33-.18-.58-.41-.73-.67-.18-.3-.16-.68-.16-.99V34.6c-.08-.3.08-.79.44-1.06l12.06-8.93s.18-.22.75-.2c.04 0 .09 0 .15.01.14.01.3.03.48.08.1.02.2.05.3.08 1.39.5 1.81.64 11.15 3.96 3.12 1.11 5.98 2.43 8.65 3.96 5.34 3.06 9.92 6.95 14.24 11.58 1.08 1.16 1.76 2.31 1.76 3.65z" class="stshockcolor" data-st="fill:#8383B5;;" coriginal="rgb(131,131,181)" colortype="28" awdzp="28" style="fill: rgb(77, 116, 106);"></path><path d="M32.85 35.03v24.03l-1.92 1.23.01-2.39.08-21.54 1.27-1.54z" class="st5" opacity=".25"></path><path d="M31.017 36.364l-.085 23.923c-.85.49-2.79.64-3.91.384V36.75c1.29.453 3.215.394 3.995-.386z" class="st4" opacity=".15"></path><path fill="rgb(255, 255, 255)" d="M23.84 35.845c-.388-.09-.733-.22-1.02-.385-.328-.188-.58-.418-.73-.675-.035-.06-.052-.12-.067-.18v23.188c0 .306-.02.686.153.986.15.25.402.48.73.67.286.16.46.22.847.31l3.268.9V36.75l-3.18-.905zM61.08 75.02c-.21-.04-.44-.12-.68-.24L32.85 58.99V35.03c1.28.45 2.9 1.03 4.93 1.75 3.11 1.1 5.97 2.43 8.64 3.96 5.34 3.06 9.92 6.95 14.25 11.58l.24.27-.09 22.31c.08.05.17.09.26.12z" class="st10" opacity=".2" coriginal="rgb(255,255,255)" colortype="0" awdzp="0" style="fill: rgb(255, 255, 255);"></path><path d="M65.164 52.595l-.086 22.308c-1.166.673-3.075.67-4.256-.007l.086-22.305c1.18.68 3.09.68 4.256.01z" class="st4" opacity=".15"></path><path d="M71.98 48.16v21.88c0 .44 0 .88-.57 1.21l-6.33 3.65.08-22.3 6.33-3.65c.39-.23.48-.5.49-.79z" class="st5" opacity=".25"></path></g><g><path fill="rgb(42, 81, 71)" d="M41.98 51.257c-.002.997.26 2.075.71 3.105l-9.335 5.384-1.233.71c-.45-1.03-.71-2.107-.708-3.104 3.17-1.83 7.398-4.267 10.567-6.095z" class="st9" coriginal="rgb(92,122,160)" colortype="35" awdzp="35" style="fill: rgb(42, 81, 71);"></path><g><path fill="rgb(133, 109, 138)" d="M46.218 58.547c-1.377-.79-2.6-2.238-3.37-3.842-.547-1.13-.87-2.34-.866-3.448.004-1.33.477-2.267 1.24-2.707-3.17 1.83-7.397 4.267-10.568 6.095-.763.44-1.235 1.375-1.24 2.707-.002 1.108.32 2.316.866 3.448.773 1.604 1.994 3.053 3.37 3.842 1.183.677 2.255.74 3.03.293l10.566-6.095c-.774.447-1.847.384-3.028-.293z" class="st0" coriginal="rgb(171,171,180)" colortype="18" awdzp="18" style="fill: rgb(133, 109, 138);"></path><path d="M46.218 58.547c-1.377-.79-2.6-2.238-3.37-3.842-.547-1.13-.87-2.34-.866-3.448.004-1.33.477-2.267 1.24-2.707-3.17 1.83-7.397 4.267-10.568 6.095-.763.44-1.235 1.375-1.24 2.707-.002 1.108.32 2.316.866 3.448.773 1.604 1.994 3.053 3.37 3.842 1.183.677 2.255.74 3.03.293l10.566-6.095c-.774.447-1.847.384-3.028-.293z" class="st5" opacity=".25"></path></g><path fill="rgb(42, 81, 71)" d="M40.834 59.038c.28.81.437 1.63.435 2.4-.01 2.68-1.93 3.762-4.28 2.417s-4.25-4.612-4.24-7.29c-.01.996.26 2.074.7 3.104l7.363-.64z" class="st9" coriginal="rgb(92,122,160)" colortype="35" awdzp="35" style="fill: rgb(42, 81, 71);"></path><path fill="rgb(22, 37, 45)" d="M32.765 56.772c0-1.118.235-2.415 1.338-2.97 1.054-.53 2.3-.067 3.216.53 1.64 1.13 2.85 2.82 3.51 4.703l-7.37.634c-.4-.92-.67-1.9-.71-2.9 0-.02 0 .05 0 0z" class="st14" coriginal="rgb(69,91,120)" colortype="42" awdzp="42" style="fill: rgb(22, 37, 45);"></path><path fill="rgb(133, 109, 138)" d="M46.26 43.99c-2.36-1.35-4.51-1.48-6.05-.59l-10.55 6.09c-1.54.88-2.49 2.75-2.5 5.42-.02 5.37 3.78 11.9 8.48 14.59 2.54 1.45 4.81 1.48 6.38.36-.11.08-.21.16-.32.23l10.56-6.1c1.53-.88 2.48-2.75 2.49-5.42.01-5.36-3.79-11.88-8.49-14.58zM35.65 64.64c-2.35-1.34-4.24-4.61-4.24-7.29.01-2.68 1.92-3.76 4.27-2.41 1.67.96 3.12 2.89 3.81 4.89.28.8.43 1.63.43 2.4-.01 2.68-1.92 3.76-4.27 2.41z" class="st0" coriginal="rgb(171,171,180)" colortype="18" awdzp="18" style="fill: rgb(133, 109, 138);"></path></g><path fill="rgb(133, 109, 138)" d="M60.46 37.81l-5.63 3.25c-2.06-1.62-4.22-3.09-6.52-4.41-2-1.15-4.1-2.18-6.34-3.09l1.27-1.77c.09-.13.21-.23.34-.31l5.64-3.25c.4-.23.97-.23 1.44.04l6.7 3.84c.63.36 1.42 1.39 1.78 2.31l1.32 3.39z" class="st0" coriginal="rgb(171,171,180)" colortype="18" awdzp="18" style="fill: rgb(133, 109, 138);"></path><g id="MTBteHk5OTYxMDAwMDAwMDAwMHh6czg5"><path fill="rgb(82, 121, 111)" d="M38.02 27.65l-.01 2.87c0 .52-.34 1.04-1.02 1.43-.81.47-1.92.66-2.97.57-.72-.06-1.42-.25-1.97-.57-.69-.4-1.03-.92-1.03-1.45l.01-2.86v-.01c0-.52.33-1.03 1.01-1.43 1.36-.8 3.57-.8 4.94 0 .73.43 1.06.99 1.03 1.54.01-.03.01-.06.01-.09z" class="st6" coriginal="rgb(188,113,158)" colortype="27" awdzp="27" style="fill: rgb(82, 121, 111);"></path><path d="M37.002 29.08c-.813.477-1.927.662-2.985.57v2.87c1.057.09 2.167-.096 2.978-.57.674-.394 1.012-.91 1.013-1.428l.01-2.868c-.004.516-.342 1.033-1.016 1.427z" class="st12" opacity=".2"></path><path fill="rgb(255, 255, 255)" d="M32.056 29.08c-.688-.398-1.03-.923-1.03-1.447L31.02 30.5c-.003.525.34 1.05 1.027 1.45.556.323 1.25.508 1.97.57v-2.87c-.716-.06-1.408-.247-1.96-.57z" class="st10" opacity=".2" coriginal="rgb(255,255,255)" colortype="0" awdzp="0" style="fill: rgb(255, 255, 255);"></path></g></g><path d="M59.14 34.417c-.36-.92-1.15-1.95-1.775-2.31L51.73 35.36c.624.357 1.414 1.386 1.775 2.308l1.32 3.388 5.636-3.25-1.32-3.39zm-6.877 29.575l-10.567 6.095c1.528-.88 2.475-2.756 2.482-5.42.016-5.358-3.782-11.887-8.485-14.582L46.26 43.99c4.703 2.695 8.5 9.224 8.485 14.58-.008 2.666-.955 4.54-2.482 5.422z" class="st5" opacity=".25"></path></svg>