<svg xmlns="http://www.w3.org/2000/svg" width="32" height="32" viewBox="0 0 100 100" id="svgid17" repair="1" xmlns:xlink="http://www.w3.org/1999/xlink"><g id="MTBteHkzMTExMDAwMDAwMDAwMHh6czIzMA"><linearGradient id="MTBteHk0MDgxMDAwMDAwMDAwMHh6czUwNw" x1="369.264" x2="362.27" y1="-335.738" y2="-323.87" gradientUnits="userSpaceOnUse" gradientTransform="matrix(1 0 0 -1 -294 -250)"><stop offset="0" stop-opacity="0"></stop><stop offset="1"></stop></linearGradient><path fill="url(#MTBteHk0MDgxMDAwMDAwMDAwMHh6czUwNw)" d="M44.088 90.575l45.49-26.707L100 69.978 55.645 96.94l-11.557-6.367" class="st0" opacity=".15"></path><path fill="rgb(230, 230, 230)" d="M93.94 64.43l-.01 3.28c0 .59-.39 1.18-1.17 1.63L52.94 92.37l-.01.01c-1.57.9-4.12.9-5.7 0-.01 0-.01 0-.01-.01L7.13 69.34c-.8-.46-1.19-1.06-1.19-1.66l.01-3.27c0-.59.39-1.19 1.17-1.64l39.83-23.03c1.57-.91 4.13-.91 5.71 0l40.08 23.03c.8.46 1.2 1.06 1.2 1.66z" class="st8" coriginal="rgb(208,222,226)" colortype="5" awdzp="5" style="fill: rgb(230, 230, 230);"></path><path d="M47.227 89.098L7.14 66.063c-.796-.456-1.192-1.056-1.19-1.655l-.01 3.274c-.003.6.395 1.2 1.188 1.655l40.088 23.036.01.005v-3.28z" class="st6" opacity=".1"></path><path d="M47.227 89.098v3.28c1.587.904 4.134.903 5.7 0l.01-.006v-3.27c-1.57.906-4.125.906-5.71-.004z" class="st1" opacity=".12"></path><path d="M92.77 66.063l-39.834 23.04v3.27L92.76 69.338c.78-.45 1.168-1.04 1.17-1.632l.01-3.273c-.002.59-.392 1.178-1.17 1.63z" class="st7" opacity=".2"></path></g><linearGradient id="MTBteHkxODgxMDAwMDAwMDAwMHh6czcxMg" x1="66.113" x2="48.347" y1="80.609" y2="49.277" gradientUnits="userSpaceOnUse"><stop offset="0" stop-opacity="0"></stop><stop offset=".131" stop-opacity=".131"></stop><stop offset="1"></stop></linearGradient><path fill="url(#MTBteHkxODgxMDAwMDAwMDAwMHh6czcxMg)" d="M64.373 53.498L31.37 72.768l24.713 14.297 33.084-19.232" class="st4" opacity=".15"></path><g><path fill="rgb(167, 175, 162)" d="M69.026 9.562C58.446 3.454 41.51 3.454 31 9.562V50l25.94 26.485c4.43-.69 8.625-2.03 12.095-4.048 5.222-3.034 7.894-7.005 7.904-10.98V21.632c.45-4.333-2.18-8.76-7.92-12.07z" class="stshockcolor" data-st="fill:#BCD676;;" coriginal="rgb(188,214,118)" colortype="16" awdzp="16" style="fill: rgb(167, 175, 162);"></path><path fill="rgb(255, 255, 255)" d="M49.996 20.62L31 9.564V50l18.88 11.38 7.06 15.105V35.727" class="st5" opacity=".2" coriginal="rgb(255,255,255)" colortype="0" awdzp="0" style="fill: rgb(255, 255, 255);"></path><path d="M76.94 20.698v40.758c-.012 3.977-2.684 7.947-7.905 10.98-3.47 2.018-7.664 3.36-12.096 4.05v-40.76c4.43-.688 8.74-2.03 12.21-4.046 5.22-3.035 7.78-7.006 7.79-10.982z" class="st2" opacity=".25"></path></g><g><path fill="rgb(128, 104, 133)" d="M50 31.62v29.69l-26.18 4.12c-.62-1.35-.82-2.74-.82-4.13l.04-29.67c.05-3.85 2.74-7.58 7.96-10.63l19 10.62z" class="st9" coriginal="rgb(117,162,217)" colortype="19" awdzp="19" style="fill: rgb(128, 104, 133);"></path><path d="M49.996 31.622v29.69l-26.172 4.115.115-29.76" class="st2" opacity=".25"></path><path fill="rgb(255, 255, 255)" d="M23.003 61.3V31.544c-.004 1.388.31 2.776.937 4.125l-.115 29.75c-.63-1.35-.826-2.74-.822-4.13z" class="st5" opacity=".2" coriginal="rgb(255,255,255)" colortype="0" awdzp="0" style="fill: rgb(255, 255, 255);"></path></g><g><path fill="rgb(72, 111, 101)" d="M56.94 60.45v16.04c-5.57.86-11.53.67-16.94-.58-3.33-.75-6.45-1.91-9.15-3.47-3.48-2.02-5.82-4.44-7.03-7.01l.12-15.76L50 45.62l6.94 14.83z" class="st10" coriginal="rgb(222,112,71)" colortype="29" awdzp="29" style="fill: rgb(72, 111, 101);"></path><path fill="rgb(255, 255, 255)" d="M49.996 45.62l7.073 15.107c-9 1.39-19.02.044-26.11-4.047-3.49-2.013-5.82-4.442-7.03-7.01l26.05-4.05z" class="st5" opacity=".2" coriginal="rgb(255,255,255)" colortype="0" awdzp="0" style="fill: rgb(255, 255, 255);"></path><path d="M56.94 60.73v15.76c-5.57.86-11.53.67-16.94-.58V60.14c5.4 1.26 11.34 1.45 16.94.59z" class="st6" opacity=".1"></path></g></svg>