<svg xmlns="http://www.w3.org/2000/svg" width="32" height="32" viewBox="0 0 100 100" id="svgid9" repair="1" xmlns:xlink="http://www.w3.org/1999/xlink"><g id="MTBteHk5NjAxMDAwMDAwMDAwMHh6czY2Nw"><linearGradient id="MTBteHk3MDgxMDAwMDAwMDAwMHh6czgyMQ" x1="369.264" x2="362.27" y1="-335.738" y2="-323.87" gradientUnits="userSpaceOnUse" gradientTransform="matrix(1 0 0 -1 -294 -250)"><stop offset="0" stop-opacity="0"></stop><stop offset="1"></stop></linearGradient><path fill="url(#MTBteHk3MDgxMDAwMDAwMDAwMHh6czgyMQ)" d="M44.088 90.575l45.49-26.707L100 69.978 55.645 96.94l-11.557-6.367" class="st1" opacity=".15"></path><path fill="rgb(230, 230, 230)" d="M93.94 64.43l-.01 3.28c0 .59-.39 1.18-1.17 1.63L52.94 92.37l-.01.01c-1.57.9-4.12.9-5.7 0-.01 0-.01 0-.01-.01L7.13 69.34c-.8-.46-1.19-1.06-1.19-1.66l.01-3.27c0-.59.39-1.19 1.17-1.64l39.83-23.03c1.57-.91 4.13-.91 5.71 0l40.08 23.03c.8.46 1.2 1.06 1.2 1.66z" class="st11" coriginal="rgb(208,222,226)" colortype="5" awdzp="5" style="fill: rgb(230, 230, 230);"></path><g class="st4" opacity=".15"><linearGradient id="MTBteHk3MzEwMDAwMDAwMDAweHpzODE" x1="11.9" x2="71.46" y1="62.608" y2="62.608" gradientUnits="userSpaceOnUse"><stop offset="0" stop-opacity="0"></stop><stop offset="1"></stop></linearGradient><path fill="url(#MTBteHk3MzEwMDAwMDAwMDAweHpzODE)" d="M71.46 75.17c0 2.73-3.23 4.24-7.23 3.68-2.51-.29-5.2-1.06-6.73-1.74l-1.33-.73-8.92-5.16-30.1-.84c-.81-.03-1.44-.12-2.13-.53l-2.74-1.59c-.24-.13-.38-.318-.38-.51l.01-.81v-.01c0-.06.09-.523.92-.7l23.796-3.698C31.188 57.094 29.1 52.79 28.67 50.33l7.05-4.08c3.65.86 5.38 1.78 5.49 1.84 3 1.74 19.49 11.108 20.11 11.66 9.087 8.102 10.14 13.24 10.14 15.42z" class="st7"></path><linearGradient id="MTBteHkxOTIxMDAwMDAwMDAwMHh6czI3MQ" x1="11.9" x2="71.46" y1="62.608" y2="62.608" gradientUnits="userSpaceOnUse"><stop offset="0" stop-opacity="0"></stop><stop offset="1"></stop></linearGradient><path fill="url(#MTBteHkxOTIxMDAwMDAwMDAwMHh6czI3MQ)" d="M71.46 75.17c0 2.73-3.23 4.24-7.23 3.68-2.51-.29-5.2-1.06-6.73-1.74l-1.33-.73-8.92-5.16-30.1-.84c-.81-.03-1.44-.12-2.13-.53l-2.74-1.59c-.24-.13-.38-.318-.38-.51l.01-.81v-.01c0-.06.09-.523.92-.7l23.796-3.698C31.188 57.094 29.1 52.79 28.67 50.33l7.05-4.08c3.65.86 5.38 1.78 5.49 1.84 3 1.74 19.49 11.108 20.11 11.66 9.087 8.102 10.14 13.24 10.14 15.42z" class="st8" opacity=".2"></path></g><path d="M47.227 89.098L7.14 66.063c-.796-.456-1.192-1.056-1.19-1.655l-.01 3.274c-.003.6.395 1.2 1.188 1.655l40.088 23.036.01.005v-3.28z" class="st9" opacity=".1"></path><path d="M47.227 89.098v3.28c1.587.904 4.134.903 5.7 0l.01-.006v-3.27c-1.57.906-4.125.906-5.71-.004z" class="st3" opacity=".12"></path><path d="M92.77 66.063l-39.834 23.04v3.27L92.76 69.338c.78-.45 1.168-1.04 1.17-1.632l.01-3.273c-.002.59-.392 1.178-1.17 1.63z" class="st10" opacity=".2"></path></g><g><g><path fill="rgb(192, 200, 187)" d="M57.734 32.874c.647.374.815.712.86 1.152l1.482 16.734c.045.446-.486-.007-1.202.172-.71.183-1.534.093-2.085-.225l-8.96-5.17c-.48-.272-.67-.674-.49-1.047l5.84-12.798c.1-.235.42-.418.83-.484.4-.062.83.007 1.13.18l2.572 1.486z" class="st5" coriginal="rgb(193,193,188)" colortype="11" awdzp="11" style="fill: rgb(192, 200, 187);"></path><path d="M57.734 32.874c.647.374.815.712.86 1.152l1.482 16.734c.045.446-.486-.007-1.202.172-.71.183-1.534.093-2.085-.225l-8.96-5.17c-.48-.272-.67-.674-.49-1.047l5.84-12.798c.1-.235.42-.418.83-.484.4-.062.83.007 1.13.18l2.572 1.486z" class="st9" opacity=".1"></path></g><g><path fill="rgb(192, 200, 187)" d="M70.705 66.355c0 2.73-3.22 4.24-7.22 3.68-2.51-.29-5.2-1.06-6.74-1.74l-1.32-.73-17.18-9.92c-3.76-2.17-6.41-5.87-8.24-9.97-.02-.03-.03-.05-.03-.05-.96-2.17-1.95-4.43-2.26-7.68-.09-1.01-.04-1.73.2-2.23.14-.3.35-.53.64-.69.67-.38 1.16-.48 1.67-.46.38.01.76.1 1.23.17 6.06.94 8.87 2.46 9 2.54 3.01 1.74 19.4 11.25 20.12 11.66.88.53 2.87 1.8 4.29 3.45.34.39.66.87.97 1.37.62 1 1.15 2.12 1.51 2.96.29.68.46 1.17.46 1.26 2.15 2.63 2.9 4.2 2.9 6.38z" class="st5" coriginal="rgb(193,193,188)" colortype="11" awdzp="11" style="fill: rgb(192, 200, 187);"></path><g><path fill="rgb(192, 200, 187)" d="M58.564 49.755c-5.53-3.19-16.51-9.55-18.51-10.71-.01-.01-.03-.01-.04-.02-1.82-.89-4.8-1.59-7.11-2.04-.52-.1-1-.18-1.43-.26-.47-.08-.85-.16-1.23-.17-.51-.02-1 .08-1.67.46-.29.16-.5.39-.64.69.58.83 1.47 2.08 2.43 3.44.33.46 1.53 1.4 2.43 1.92.64.36 20.84 12.04 20.84 12.04 0-.01.01-.01.01-.02.73-1.33 1.82-2.53 3.04-3.24l.99-.57c1.15-.68 2.19-.76 2.92-.35-.53-.31-1.22-.71-2.03-1.17z" class="st5" coriginal="rgb(193,193,188)" colortype="11" awdzp="11" style="fill: rgb(192, 200, 187);"></path><path fill="rgb(255, 255, 255)" d="M58.564 49.755c-5.53-3.19-16.51-9.55-18.51-10.71-.01-.01-.03-.01-.04-.02-1.82-.89-4.8-1.59-7.11-2.04-.52-.1-1-.18-1.43-.26-.47-.08-.85-.16-1.23-.17-.51-.02-1 .08-1.67.46-.29.16-.5.39-.64.69.58.83 1.47 2.08 2.43 3.44.33.46 1.53 1.4 2.43 1.92.64.36 20.84 12.04 20.84 12.04 0-.01.01-.01.01-.02.73-1.33 1.82-2.53 3.04-3.24l.99-.57c1.15-.68 2.19-.76 2.92-.35-.53-.31-1.22-.71-2.03-1.17z" class="st6" opacity=".2" coriginal="rgb(255,255,255)" colortype="0" awdzp="0" style="fill: rgb(255, 255, 255);"></path></g><path fill="rgb(128, 104, 133)" d="M52.505 62.588c1.98 1.143 3.247 2.86 4.263 5.7l-1.322-.73-17.185-9.923c-3.76-2.175-6.43-5.898-8.26-10.02 0 0 2.16 3.135 4.03 4.226 1.88 1.1 18.48 10.75 18.48 10.75z" class="stshockcolor" data-st="fill:#75A2D9;;" coriginal="rgb(117,162,217)" colortype="19" awdzp="19" style="fill: rgb(128, 104, 133);"></path><path fill="rgb(255, 255, 255)" d="M67.345 58.715c-1.14.38-5.98 3.23-7.77 4.53-.45-1.07-1.13-2.1-1.7-2.85.42-.39 5.42-3.61 7.96-4.64.62 1 1.15 2.12 1.51 2.96zm-13.41 2.273c-.042 0-.085-.012-.124-.033l-1.43-.83c-.05-.027-.09-.072-.11-.125l-.93-2.41c-.03-.1-.01-.212.07-.28.05-.04.11-.062.17-.062.046 0 .09.012.128.034l1.44.83c.05.03.09.074.11.128l.93 2.408c.04.1.01.21-.07.28-.045.04-.103.06-.16.06zM48.97 58.12c-.044 0-.087-.01-.126-.034l-1.437-.828c-.05-.03-.088-.073-.108-.127l-.94-2.41c-.04-.09-.01-.21.07-.27.04-.04.1-.06.16-.06.04 0 .08.01.12.03l1.44.83c.05.03.09.08.11.13l.93 2.41c.04.1.01.21-.07.28-.05.04-.11.06-.16.06zM44 55.252c-.042 0-.085-.012-.124-.033l-1.436-.83c-.05-.03-.088-.08-.108-.13l-.932-2.41c-.038-.1-.01-.21.07-.28.047-.04.104-.06.163-.06.043 0 .086.01.125.03l1.437.83c.05.02.088.07.108.12l.93 2.41c.04.1.01.21-.07.28-.046.04-.103.06-.162.06zm-4.96-2.864c-.044 0-.087-.01-.126-.034l-1.44-.832c-.05-.027-.09-.072-.11-.125l-.93-2.41c-.038-.098-.01-.21.07-.28.047-.04.105-.06.163-.06.043 0 .086.012.125.035l1.436.83c.05.027.088.072.108.125l.937 2.41c.038.1.01.212-.07.282-.048.03-.105.05-.164.05zm-4.97-2.868c-.043 0-.086-.01-.125-.034l-1.435-.828c-.05-.028-.088-.073-.108-.126l-.937-2.41c-.038-.1-.01-.21.07-.28.047-.04.104-.06.163-.06.043 0 .086.01.125.034l1.435.828c.05.028.088.073.108.126l.937 2.41c.038.1.01.21-.07.28-.047.04-.104.06-.163.06z" class="st0" opacity=".6" coriginal="rgb(255,255,255)" colortype="0" awdzp="0" style="fill: rgb(255, 255, 255);"></path></g><g><g><path fill="rgb(192, 200, 187)" d="M47.683 59.398v.82c0 .16-.06.31-.17.46-.1.14-.25.26-.43.36-.39.22-.93.34-1.49.33l-29.19-.81c-.81-.022-1.44-.12-2.13-.522l-2.74-1.59c-.24-.13-.38-.32-.38-.51l.01-.81v-.01c0-.06.01-.12.04-.18.06-.13.17-.24.32-.33.15-.092.35-.15.56-.19l23.53-3.65c.69-.11 1.42 0 1.93.3l9.55 5.51c.38.223.59.522.59.822z" class="st5" coriginal="rgb(193,193,188)" colortype="11" awdzp="11" style="fill: rgb(192, 200, 187);"></path><path fill="rgb(255, 255, 255)" d="M47.683 59.398v.82c0 .16-.06.31-.17.46-.1.14-.25.26-.43.36-.39.22-.93.34-1.49.33l-29.19-.81c-.81-.022-1.44-.12-2.13-.522l-2.74-1.59c-.24-.13-.38-.32-.38-.51l.01-.81v-.01c0-.06.01-.12.04-.18.06-.13.17-.24.32-.33.15-.092.35-.15.56-.19l23.53-3.65c.69-.11 1.42 0 1.93.3l9.55 5.51c.38.223.59.522.59.822z" class="st6" opacity=".2" coriginal="rgb(255,255,255)" colortype="0" awdzp="0" style="fill: rgb(255, 255, 255);"></path></g><path d="M14.277 59.223l-2.746-1.585c-.24-.14-.37-.323-.37-.515v.814c0 .19.13.377.37.516l2.75 1.585c.69.397 1.32.5 2.13.522v-.814c-.81-.02-1.44-.125-2.13-.523z" class="st9" opacity=".1"></path><path d="M47.514 59.864c-.103.136-.25.256-.425.356-.39.222-.93.347-1.5.33l-29.19-.805v.814l29.19.8c.56.02 1.1-.11 1.49-.33.17-.1.32-.22.42-.36.11-.15.17-.31.17-.47v-.82c0 .157-.06.313-.17.46z" class="st10" opacity=".2"></path></g><g><path fill="rgb(192, 200, 187)" d="M33.025 29.598c.276.16.353.304.37.495l-.123 6.03c.023.207-.62.53-1.15.222l-3.107-1.807c-.206-.12-.407-.385-.333-.542l2.865-4.62c.043-.102.184-.183.355-.208.18-.028.362.003.487.075l.63.355z" class="st5" coriginal="rgb(193,193,188)" colortype="11" awdzp="11" style="fill: rgb(192, 200, 187);"></path><path d="M33.025 29.598c.276.16.353.304.37.495l-.123 6.03c.023.207-.62.53-1.15.222l-3.107-1.807c-.206-.12-.407-.385-.333-.542l2.865-4.62c.043-.102.184-.183.355-.208.18-.028.362.003.487.075l.63.355z" class="st9" opacity=".1"></path></g><path fill="rgb(192, 200, 187)" d="M26.69 29.75l.038-.02c-.01.01-.02.01-.03.02 0 0-.01-.01-.01 0z" class="st5" coriginal="rgb(193,193,188)" colortype="11" awdzp="11" style="fill: rgb(192, 200, 187);"></path><g><path fill="rgb(192, 200, 187)" d="M35.723 39.708l-.69.41-.01-.01-5.55-1.99-2.93-7.55c-.11-.29-.11-.56.01-.71.03-.05.08-.09.13-.11h.02c.03-.02.07-.03.11-.03-.03 0-.06 0-.08.01l.6-.37c.12-.07.27-.05.44.04l1.91 1.1c.48.28.75.62 1.05 1.1l.01.01 4.98 8.1z" class="st5" coriginal="rgb(193,193,188)" colortype="11" awdzp="11" style="fill: rgb(192, 200, 187);"></path><path d="M30.732 31.598l-.68.41c-.3-.48-.58-.82-1.06-1.1l-1.91-1.1c-.1-.06-.19-.09-.27-.09-.03 0-.06 0-.08.01l.6-.37c.12-.07.27-.05.44.04l1.91 1.1c.48.28.75.62 1.05 1.1z" class="st2" opacity=".05"></path><path d="M35.722 39.704l-.693.416-.01-.01-4.97-8.09.69-.416" class="st9" opacity=".1"></path></g><g><path fill="rgb(192, 200, 187)" d="M31.508 36.263v.37c0 .23-.38.43-.65.42l-10.29-.31c-.36-.01-.63-.06-.92-.23l-.163-.117c-.11-.05-.17-.13-.17-.22l.01-.37c0-.03 0-.06.02-.08.04-.11.19-.2.38-.22l7.66-1.4c.3-.05.79.08 1.01.2l2.874 1.658c.19.1.24.22.23.32-.01-.01 0-.01 0-.02z" class="st5" coriginal="rgb(193,193,188)" colortype="11" awdzp="11" style="fill: rgb(192, 200, 187);"></path><path d="M19.484 36.027c-.104-.06-.164-.14-.164-.22v.373c0 .08.06.16.163.22l.16.11v-.374l-.16-.11z" class="st2" opacity=".05"></path><path d="M30.858 36.677l-10.293-.31c-.355-.01-.624-.06-.922-.23v.373c.297.172.566.22.92.23l10.295.31c.27.01.646-.186.646-.418l.002-.373c0 .23-.376.42-.648.41z" class="st9" opacity=".1"></path></g></g></svg>