<svg xmlns="http://www.w3.org/2000/svg" width="32" height="32" viewBox="0 0 100 100" id="svgid16" repair="1" xmlns:xlink="http://www.w3.org/1999/xlink"><g id="MTBteHkzNzAxMDAwMDAwMDAwMHh6czM2Mg"><linearGradient id="MTBteHk1OTkxMDAwMDAwMDAwMHh6czU5Ng" x1="369.264" x2="362.27" y1="-335.738" y2="-323.87" gradientUnits="userSpaceOnUse" gradientTransform="matrix(1 0 0 -1 -294 -250)"><stop offset="0" stop-opacity="0"></stop><stop offset="1"></stop></linearGradient><path fill="url(#MTBteHk1OTkxMDAwMDAwMDAwMHh6czU5Ng)" d="M44.088 90.575l45.49-26.707L100 69.978 55.645 96.94l-11.557-6.367" class="st0" opacity=".15"></path><path fill="rgb(230, 230, 230)" d="M93.94 64.43l-.01 3.28c0 .59-.39 1.18-1.17 1.63L52.94 92.37l-.01.01c-1.57.9-4.12.9-5.7 0-.01 0-.01 0-.01-.01L7.13 69.34c-.8-.46-1.19-1.06-1.19-1.66l.01-3.27c0-.59.39-1.19 1.17-1.64l39.83-23.03c1.57-.91 4.13-.91 5.71 0l40.08 23.03c.8.46 1.2 1.06 1.2 1.66z" class="st10" coriginal="rgb(208,222,226)" colortype="5" awdzp="5" style="fill: rgb(230, 230, 230);"></path><path d="M47.227 89.098L7.14 66.063c-.796-.456-1.192-1.056-1.19-1.655l-.01 3.274c-.003.6.395 1.2 1.188 1.655l40.088 23.036.01.005v-3.28z" class="st4" opacity=".1"></path><path d="M47.227 89.098v3.28c1.587.904 4.134.903 5.7 0l.01-.006v-3.27c-1.57.906-4.125.906-5.71-.004z" class="st1" opacity=".12"></path><path d="M92.77 66.063l-39.834 23.04v3.27L92.76 69.338c.78-.45 1.168-1.04 1.17-1.632l.01-3.273c-.002.59-.392 1.178-1.17 1.63z" class="st5" opacity=".2"></path></g><linearGradient id="MTBteHk1NTUxMDAwMDAwMDAwMHh6czQ3OA" x1="71.669" x2="69.237" y1="78.599" y2="74.472" gradientUnits="userSpaceOnUse"><stop offset="0" stop-opacity="0"></stop><stop offset="1"></stop></linearGradient><path fill="url(#MTBteHk1NTUxMDAwMDAwMDAwMHh6czQ3OA)" d="M86.93 65.188L50.613 86.3l3.6 2.063 36.4-21.052" class="st3" opacity=".15"></path><g><path fill="rgb(123, 99, 128)" d="M86.93 65.188L50.59 86.3c-.98-.55-1.426-1.34-2.012-2.353-.62-1.067-1.393-2.407-2.87-3.268-1.462-.85-2.255-.4-2.854-.06-.585.34-1.05.6-2.03.05-.963-.57-1.41-1.36-1.993-2.36-.62-1.08-1.41-2.43-2.87-3.27-1.48-.86-2.25-.41-2.87-.05-.58.32-1.05.6-2.01.03-.96-.55-1.42-1.358-2.01-2.35-.62-1.07-1.39-2.41-2.87-3.27-1.46-.845-2.23-.4-2.87-.05-.58.323-1.05.6-2.01.03-.96-.55-1.42-1.34-1.99-2.355-.63-1.065-1.39-2.408-2.87-3.267-1.48-.84-2.25-.394-2.87-.05-.58.347-1.05.605-2.01.055L47.91 42.65c.963.55 1.426.29 2.01-.034.637-.343 1.41-.808 2.87.053 1.48.84 2.255 2.18 2.873 3.24.585 1.01 1.03 1.8 2.01 2.37.96.54 1.43.29 2.014-.06.617-.345 1.393-.79 2.87.05 1.462.86 2.235 2.198 2.87 3.265.568 1.017 1.032 1.81 1.995 2.357.96.567 1.428.292 2.01-.033.618-.345 1.408-.79 2.87.05 1.478.842 2.25 2.2 2.87 3.266.585 1 1.05 1.808 2.01 2.358.965.55 1.43.29 2.015-.038.62-.36 1.395-.81 2.87.05 1.462.84 2.253 2.182 2.872 3.265.58 1 1.03 1.79 1.99 2.355z" class="st13" coriginal="rgb(117,162,216)" colortype="20" awdzp="20" style="fill: rgb(123, 99, 128);"></path></g><g><g><g fill="rgb(220, 220, 220)" coriginal="rgb(212,213,209)" colortype="7" awdzp="7" style="fill: rgb(220, 220, 220);"><path d="M77.297 61.563c2.906 1.703.17 4.178.017 4.304l-12.956 7.528c-.217.09-4.344 1.786-7.43.005-3.085-1.78-33.783-19.504-35.397-20.437-.51-.296-10.26-5.926-7.48-16.127 17.59-1.636 27.34 3.994 27.85 4.29l35.4 20.437z" class="st11"></path><path d="M77.297 61.563c2.906 1.703.17 4.178.017 4.304l-12.956 7.528c-.217.09-4.344 1.786-7.43.005-3.085-1.78-33.783-19.504-35.397-20.437-.51-.296-10.26-5.926-7.48-16.127 17.59-1.636 27.34 3.994 27.85 4.29l35.4 20.437z" class="st11"></path></g><path d="M60.254 72.073c-.895 0-1.655-.177-2.26-.524L22.6 51.11c-.854-.492-7.875-4.784-6.795-12.275 1.53-.107 3.05-.16 4.534-.16 12.67 0 19.73 3.86 20.49 4.3l35.39 20.437c.12.072.21.134.27.183-.1.15-.26.353-.44.525l-12.64 7.345c-.39.143-1.73.606-3.17.606z" class="st5" opacity=".2"></path></g><g><path fill="rgb(182, 190, 177)" d="M54.308 77.204l-34.48-20.037c1.122 1.974 1.98 4.033 1.972 6.377L51.673 80.92l18.833-10.943 2.635-3.718L54.31 77.2z" class="st7" coriginal="rgb(155,182,214)" colortype="13" awdzp="13" style="fill: rgb(182, 190, 177);"></path><path fill-opacity=".2" d="M54.308 77.204L73.14 66.258l-2.634 3.72L51.673 80.92" class="st14"></path></g><g><path fill="rgb(162, 170, 157)" d="M63.577 41.54L38.555 27.09 19.72 38.034l-.02 6.98-.01 2.608 3.452 1.988 2.18 5.622 19.4 11.213L63.557 55.49l.02-8.038-.017.01" class="stshockcolor" data-st="fill:#EDBA2B;;" coriginal="rgb(237,186,43)" colortype="17" awdzp="17" style="fill: rgb(162, 170, 157);"></path><path fill-opacity=".08" d="M53.795 47.23l9.778-5.692-.02 6.97-9.778 5.69m-16.663-16.6l-8.348-4.82-9.043 5.257v.004l-.02 6.97 8.34 4.81.02-6.97m25.73 4.37l-8.34-4.82-9.04 5.26h.01l-.02 6.97 8.34 4.81.02-6.97h.006m10.48-15.76l-9.8 5.69-8.324-4.81L46.9 31.9" class="st9"></path><path fill="rgb(52, 91, 81)" d="M44.738 59.47L19.7 45.01l-.007 2.612 3.453 1.993 2.17 5.62 19.407 11.21v-.006l18.83-10.95.02-6.97" class="st12" opacity=".3" coriginal="rgb(188,118,50)" colortype="33" awdzp="33" style="fill: rgb(52, 91, 81);"></path><path fill-opacity=".08" d="M28.04 49.825l8.34 4.815-.02 6.97-8.34-4.814M53.775 54.2l-9.056 5.254v6.99l9.05-5.267" class="st9"></path><path d="M38.555 27.09L19.72 38.034l25.02 14.45L63.58 41.54" class="st4" opacity=".1"></path><path d="M44.743 52.486L63.577 41.54l-.02 13.95-18.834 10.955" class="st5" opacity=".2"></path></g><g><path fill="rgb(32, 47, 55)" d="M78.733 53.78l-.02 6.968-16.833 9.815-2 1.13-13.168-7.602.02-9.26c0-.95.686-1.34 1.52-.85l.02-5.23c0-.46.172-.8.44-.96l16.83-9.81c.28-.16.665-.14 1.08.098l6.072 3.506c.834.48 1.508 1.655 1.508 2.62l-.012 5.225 3.024 1.755c.847.48 1.52 1.657 1.52 2.62z" class="st8" coriginal="rgb(107,107,102)" colortype="40" awdzp="40" style="fill: rgb(32, 47, 55);"></path><path d="M61.9 63.592l16.833-9.813-.02 6.97-16.833 9.81" class="st6" opacity=".3"></path><path d="M77.217 51.16l-3.03-1.75-16.833 9.814 3.03 1.75c.84.483 1.52 1.662 1.517 2.618l16.84-9.812c.01-.96-.67-2.14-1.51-2.62zM66.623 38.062c-.42-.244-.8-.266-1.076-.106L48.714 47.77c.276-.16.656-.138 1.08.105l6.065 3.503 16.83-9.814-6.07-3.502z" class="st5" opacity=".2"></path><path d="M72.69 41.564l-16.83 9.814c.83.48 1.51 1.658 1.508 2.615l-.015 5.23 16.833-9.814.015-5.23c.01-.96-.67-2.14-1.51-2.62z" class="st6" opacity=".3"></path></g><g><path fill="rgb(220, 220, 220)" d="M78.713 60.748v1.742c-.01 2.213-.407 3.902-1.487 4.532L58.394 77.968c.03-.02.063-.053.096-.074-.866.576-2.202.46-4.18-.685L19.83 57.16c-2.234-3.923-3.86-6.264-5.558-12.698l5.42 3.152 3.45 1.987 2.182 5.63 2.693 1.57 8.35 4.82 6.593 3.805 1.753-2.48 15.17 8.754 18.833-10.95z" class="st11" coriginal="rgb(212,213,209)" colortype="7" awdzp="7" style="fill: rgb(220, 220, 220);"></path><path fill-opacity=".2" d="M77.223 67.02L58.39 77.967c1.088-.632 1.48-2.318 1.484-4.53.005-1.137.006-1.71.006-1.74L78.714 60.75l-.006 1.74c-.006 2.214-.397 3.9-1.485 4.53z" class="st14"></path></g></g><path fill="rgb(123, 99, 128)" d="M56.29 83.01l-1.73 1.014c-.98-.55-38.062-21.97-39.024-22.52l1.727-1.032c.964.55 1.427.293 2.012-.035.637-.343 1.41-.807 2.87.053 1.48.842 2.255 2.183 2.873 3.248.585 1.016 1.032 1.807 2.012 2.373.96.55 1.427.3 2.012-.05.617-.34 1.393-.79 2.87.05 1.462.87 2.235 2.2 2.87 3.27.568 1.02 1.032 1.81 1.995 2.36.96.57 1.428.3 2.012-.03.61-.34 1.4-.79 2.87.05 1.47.85 2.25 2.2 2.87 3.27.58 1 1.05 1.81 2.01 2.36.96.55 1.42.29 2.01-.034.62-.36 1.39-.81 2.87.05 1.46.843 2.25 2.183 2.87 3.267.58.99 1.03 1.784 1.99 2.35z" class="st13" coriginal="rgb(117,162,216)" colortype="20" awdzp="20" style="fill: rgb(123, 99, 128);"></path></svg>