<svg xmlns="http://www.w3.org/2000/svg" width="32" height="32" viewBox="0 0 100 100" id="svgid14" repair="1" xmlns:xlink="http://www.w3.org/1999/xlink"><g id="MTBteHkzODQxMDAwMDAwMDAwMHh6czg5Mg"><linearGradient id="MTBteHk1NTQxMDAwMDAwMDAwMHh6czg1NQ" x1="663.263" x2="656.269" y1="743.738" y2="731.871" gradientUnits="userSpaceOnUse" gradientTransform="translate(-588 -658)"><stop offset="0" stop-opacity="0"></stop><stop offset="1"></stop></linearGradient><path fill="url(#MTBteHk1NTQxMDAwMDAwMDAwMHh6czg1NQ)" d="M44.088 90.575l45.49-26.707L100 69.978 55.645 96.94l-11.557-6.365" class="st1" opacity=".15"></path><path fill="rgb(230, 230, 230)" d="M93.94 64.43l-.01 3.28c0 .59-.392 1.18-1.172 1.63l-39.82 23.03-.01.01c-1.57.9-4.12.9-5.7 0-.01 0-.01 0-.01-.01L7.13 69.34c-.8-.46-1.19-1.06-1.19-1.66l.01-3.27c0-.59.39-1.19 1.17-1.64l39.83-23.03c1.57-.91 4.13-.91 5.71 0l40.08 23.03c.8.46 1.2 1.06 1.2 1.66z" class="st13" coriginal="rgb(208,222,226)" colortype="5" awdzp="5" style="fill: rgb(230, 230, 230);"></path><path d="M47.227 89.098L7.14 66.063c-.796-.455-1.192-1.056-1.19-1.654l-.01 3.27c-.003.6.395 1.2 1.188 1.65l40.088 23.04h.01v-3.28z" class="st15" opacity=".1"></path><path d="M47.227 89.098v3.28c1.587.904 4.134.903 5.7 0l.01-.006v-3.27c-1.57.906-4.125.906-5.71-.004z" class="st7" opacity=".12"></path><path d="M92.77 66.063l-39.834 23.04v3.27l39.826-23.035c.777-.45 1.166-1.04 1.168-1.632l.01-3.272c-.002.587-.392 1.177-1.17 1.63z" class="st6" opacity=".2"></path></g><g><linearGradient id="MTBteHkzMTAwMDAwMDAwMDB4enM3NjE" x1="358.079" x2="334.188" y1="-364.769" y2="-322.635" gradientUnits="userSpaceOnUse" gradientTransform="matrix(1 0 0 -1 -294 -283)"><stop offset="0" stop-opacity="0"></stop><stop offset=".131" stop-opacity=".131"></stop><stop offset="1"></stop></linearGradient><path fill="url(#MTBteHkzMTAwMDAwMDAwMDB4enM3NjE)" d="M59.285 46.703L19.667 69.75l33.377 19.31L92.77 66.064" class="st12" opacity=".15"></path><linearGradient id="MTBteHk2OTkxMDAwMDAwMDAwMHh6czE2MA" x1="364.76" x2="356.096" y1="-361.642" y2="-346.362" gradientUnits="userSpaceOnUse" gradientTransform="matrix(1 0 0 -1 -294 -283)"><stop offset="0" stop-opacity="0"></stop><stop offset=".131" stop-opacity=".131"></stop><stop offset="1"></stop></linearGradient><path fill="url(#MTBteHk2OTkxMDAwMDAwMDAwMHh6czE2MA)" d="M80.917 59.18L44.75 84.167l8.294 4.894L92.77 66.07" class="st5" opacity=".15"></path></g><path fill="rgb(177, 185, 172)" d="M87.6 52.86c0 1.97-.7 3.35-1.82 4l-4.81 2.8c.15.99.47 4.68-4.25 7.74l-10.2 5.93v-.01c-1.45.89-2.81 1.35-3.25 1.41-.03-.01-.05-.02-.07-.03l-4.79 2.79c-.2 2.42-1.17 4.14-2.65 5l-4.22 2.46c.06-.04.12-.09.18-.13-1.69 1.1-4.09 1.02-6.75-.52-5.09-2.94-9.21-10.06-9.19-15.92.01-2.92 1.04-4.97 2.71-5.92l4.21-2.45c.19-.11.39-.2.59-.28-1.05-.18-2.1-.18-3.11.1-.99.32-1.11.36-1.22.4-.34-.14-.69-.28-1.04-.42l-5.05 2.93c-.2 2.42-1.17 4.15-2.64 5L26 70.2c.07-.04.13-.09.2-.14-1.69 1.11-4.1 1.04-6.77-.5-5.09-2.94-9.21-10.07-9.19-15.92.01-2.92 1.04-4.97 2.71-5.93l4.21-2.45c1.48-.86 3.47-.85 5.67.18l5.38-3.12c-.03-.54-.01-1.03.07-1.46.27-1.32 1.04-2.15 2.15-2.6-.17.07-.34.13-.49.22l10.21-5.93c1.65-.96 4.36-.79 7.62.15l6.79-3.95c.48-.28 1.03-.42 1.64-.42.84 0 1.79.27 2.79.85 3.44 1.99 6.22 6.8 6.2 10.74 0 .55-.06 1.04-.16 1.5 1.89 1.28 3.73 2.64 5.44 4.04l6.5-3.78c1.13-.65 2.7-.56 4.43.44 3.44 1.98 6.21 6.8 6.2 10.74z" class="stshockcolor" data-st="fill:#93C1CF;;" coriginal="rgb(147,193,207)" colortype="14" awdzp="14" style="fill: rgb(177, 185, 172);"></path><g><g><path fill="rgb(177, 185, 172)" d="M63.376 43.923l-9.894 5.75c1.117-.65 1.812-2.033 1.816-4 .012-3.945-2.764-8.758-6.203-10.744l9.894-5.75c3.43 1.98 6.21 6.79 6.2 10.74-.01 1.96-.7 3.35-1.82 4zm24.226 8.938c.012-3.94-2.765-8.75-6.203-10.74l-9.9 5.75c3.44 1.99 6.21 6.8 6.2 10.75-.01 1.97-.7 3.35-1.82 4l9.89-5.75c1.11-.65 1.81-2.03 1.81-4z" class="stshockcolor" data-st="fill:#93C1CF;;" coriginal="rgb(147,193,207)" colortype="14" awdzp="14" style="fill: rgb(177, 185, 172);"></path><g class="st3" opacity=".45"><path d="M63.376 43.923l-9.894 5.75c1.117-.65 1.812-2.033 1.816-4 .012-3.945-2.764-8.758-6.203-10.744l9.894-5.75c3.43 1.98 6.21 6.79 6.2 10.74-.01 1.96-.7 3.35-1.82 4zm24.226 8.938c.012-3.94-2.765-8.75-6.203-10.74l-9.9 5.75c3.44 1.99 6.21 6.8 6.2 10.75-.01 1.97-.7 3.35-1.82 4l9.89-5.75c1.11-.65 1.81-2.03 1.81-4z"></path></g></g><g><path fill="rgb(177, 185, 172)" d="M44.67 34.497l9.893-5.75c1.13-.657 2.7-.565 4.43.434l-9.895 5.75c-1.732-.99-3.298-1.09-4.43-.43zm26.834 13.37l9.895-5.75c-1.73-1-3.3-1.09-4.43-.433l-9.9 5.75c1.13-.658 2.69-.566 4.43.433z" class="stshockcolor" data-st="fill:#93C1CF;;" coriginal="rgb(147,193,207)" colortype="14" awdzp="14" style="fill: rgb(177, 185, 172);"></path><g class="st2" opacity=".25"><path d="M44.67 34.497l9.893-5.75c1.13-.657 2.7-.565 4.43.434l-9.895 5.75c-1.732-.99-3.298-1.09-4.43-.43zm26.834 13.37l9.895-5.75c-1.73-1-3.3-1.09-4.43-.433l-9.9 5.75c1.13-.658 2.69-.566 4.43.433z"></path></g></g><g><path fill="rgb(177, 185, 172)" d="M80.93 59.424c-1.146-7.04-11.162-15.542-21.188-21.33l-10.2 5.928c10.023 5.787 20.04 14.287 21.186 21.326l-3.68 2.137-.527 5.844 10.2-5.93c5.25-3.4 4.27-7.6 4.21-7.98z" class="stshockcolor" data-st="fill:#93C1CF;;" coriginal="rgb(147,193,207)" colortype="14" awdzp="14" style="fill: rgb(177, 185, 172);"></path><path d="M80.93 59.424c-1.146-7.04-11.162-15.542-21.188-21.33l-10.2 5.928c10.023 5.787 20.04 14.287 21.186 21.326l-3.68 2.137-.527 5.844 10.2-5.93c5.25-3.4 4.27-7.6 4.21-7.98z" class="st8" opacity=".45"></path></g><g><path fill="rgb(177, 185, 172)" d="M63.27 74.73c-2.048-.702-2.09-.743-2.13-.786-.213-.245-.43-.487-.617-.754-1.387-1.975-4.256-6.855-9.994-10.242-2.94-1.73-6.82-4.094-10.36-3.12-.99.323-1.11.364-1.21.403-1-.39-1.98-.83-3-1.19-1.54-.54-8.67-13.24-7.69-18.18l42.43 24.5c1.4 6.23-6.28 9.22-7.44 9.38z" class="stshockcolor" data-st="fill:#93C1CF;;" coriginal="rgb(147,193,207)" colortype="14" awdzp="14" style="fill: rgb(177, 185, 172);"></path><path d="M63.27 74.73c-2.048-.702-2.09-.743-2.13-.786-.213-.245-.43-.487-.617-.754-1.387-1.975-4.256-6.855-9.994-10.242-2.94-1.73-6.82-4.094-10.36-3.12-.99.323-1.11.364-1.21.403-1-.39-1.98-.83-3-1.19-1.54-.54-8.67-13.24-7.69-18.18l42.43 24.5c1.4 6.23-6.28 9.22-7.44 9.38z" class="st14" opacity=".25"></path></g><g><path fill="rgb(177, 185, 172)" d="M29.945 38.477l10.2-5.928c3.46-2.02 11.53.88 19.596 5.54l-10.2 5.93c-8.06-4.66-16.13-7.56-19.59-5.55z" class="stshockcolor" data-st="fill:#93C1CF;;" coriginal="rgb(147,193,207)" colortype="14" awdzp="14" style="fill: rgb(177, 185, 172);"></path><path d="M29.945 38.477l10.2-5.928c3.46-2.02 11.53.88 19.596 5.54l-10.2 5.93c-8.06-4.66-16.13-7.56-19.59-5.55z" class="st14" opacity=".25"></path></g><path fill="rgb(177, 185, 172)" d="M49.54 44.02c10.026 5.79 20.02 14.29 21.164 21.332L28.28 40.86c1.18-5.7 11.236-2.627 21.26 3.16z" class="stshockcolor" data-st="fill:#93C1CF;;" coriginal="rgb(147,193,207)" colortype="14" awdzp="14" style="fill: rgb(177, 185, 172);"></path></g><g><g><path fill="rgb(177, 185, 172)" d="M39.99 58.604l-11.276 6.553c1.275-.74 2.065-2.317 2.07-4.557.014-4.498-3.148-9.983-7.07-12.248l11.28-6.552c3.92 2.263 7.082 7.75 7.07 12.246-.007 2.24-.797 3.815-2.07 4.558zM67.603 68.79c.012-4.497-3.15-9.98-7.07-12.246l-11.276 6.554c3.92 2.264 7.083 7.75 7.07 12.246-.007 2.24-.798 3.816-2.07 4.56l11.274-6.556c1.28-.743 2.07-2.32 2.08-4.557z" class="stshockcolor" data-st="fill:#93C1CF;;" coriginal="rgb(147,193,207)" colortype="14" awdzp="14" style="fill: rgb(177, 185, 172);"></path><g class="st3" opacity=".45"><path d="M39.99 58.604l-11.276 6.553c1.275-.74 2.065-2.317 2.07-4.557.014-4.498-3.148-9.983-7.07-12.248l11.28-6.552c3.92 2.263 7.082 7.75 7.07 12.246-.007 2.24-.797 3.815-2.07 4.558zM67.603 68.79c.012-4.497-3.15-9.98-7.07-12.246l-11.276 6.554c3.92 2.264 7.083 7.75 7.07 12.246-.007 2.24-.798 3.816-2.07 4.56l11.274-6.556c1.28-.743 2.07-2.32 2.08-4.557z"></path></g></g><g><path fill="rgb(177, 185, 172)" d="M23.715 48.353c3.92 2.264 7.083 7.75 7.07 12.247-.013 4.504-3.196 6.326-7.116 4.063s-7.09-7.75-7.07-12.253c.01-4.498 3.19-6.32 7.11-4.057zm18.423 18.8c-.013 4.505 3.15 9.99 7.07 12.254 3.92 2.263 7.104.44 7.116-4.063.013-4.496-3.15-9.982-7.07-12.246s-7.104-.442-7.116 4.054z" class="stshockcolor" data-st="fill:#93C1CF;;" coriginal="rgb(147,193,207)" colortype="14" awdzp="14" style="fill: rgb(177, 185, 172);"></path><g class="st10" opacity=".4"><path fill="rgb(62, 101, 91)" d="M23.715 48.353c3.92 2.264 7.083 7.75 7.07 12.247-.013 4.504-3.196 6.326-7.116 4.063s-7.09-7.75-7.07-12.253c.01-4.498 3.19-6.32 7.11-4.057zm18.423 18.8c-.013 4.505 3.15 9.99 7.07 12.254 3.92 2.263 7.104.44 7.116-4.063.013-4.496-3.15-9.982-7.07-12.246s-7.104-.442-7.116 4.054z" class="st0" coriginal="rgb(125,28,199)" colortype="31" awdzp="31" style="fill: rgb(62, 101, 91);"></path></g><g class="st11" opacity=".6"><path fill="rgb(0, 14, 22)" d="M23.715 48.353c3.92 2.264 7.083 7.75 7.07 12.247-.013 4.504-3.196 6.326-7.116 4.063s-7.09-7.75-7.07-12.253c.01-4.498 3.19-6.32 7.11-4.057zm18.423 18.8c-.013 4.505 3.15 9.99 7.07 12.254 3.92 2.263 7.104.44 7.116-4.063.013-4.496-3.15-9.982-7.07-12.246s-7.104-.442-7.116 4.054z" class="st4" coriginal="rgb(29,29,27)" colortype="46" awdzp="46" style="fill: rgb(0, 14, 22);"></path></g></g><g><path fill="rgb(177, 185, 172)" d="M18.67 47.86l11.275-6.554c1.29-.75 3.075-.644 5.047.494l-11.277 6.553c-1.972-1.138-3.757-1.243-5.046-.494zm30.584 15.238l11.275-6.554c-1.98-1.138-3.76-1.243-5.05-.494L44.2 62.604c1.29-.75 3.075-.645 5.047.494z" class="stshockcolor" data-st="fill:#93C1CF;;" coriginal="rgb(147,193,207)" colortype="14" awdzp="14" style="fill: rgb(177, 185, 172);"></path><g class="st2" opacity=".25"><path d="M18.67 47.86l11.275-6.554c1.29-.75 3.075-.644 5.047.494l-11.277 6.553c-1.972-1.138-3.757-1.243-5.046-.494zm30.584 15.238l11.275-6.554c-1.98-1.138-3.76-1.243-5.05-.494L44.2 62.604c1.29-.75 3.075-.645 5.047.494z"></path></g></g><g><path fill="rgb(177, 185, 172)" d="M28.717 65.148l-4.23 2.457c-1.29.75-3.076.646-5.046-.49-3.92-2.264-7.08-7.75-7.06-12.247.01-2.238.8-3.812 2.07-4.552l4.23-2.458c-1.27.74-2.06 2.314-2.07 4.552-.01 4.497 3.15 9.982 7.07 12.246 1.97 1.138 3.76 1.242 5.05.492zM49.21 79.4c-3.92-2.264-7.084-7.748-7.07-12.246.006-2.237.795-3.812 2.067-4.55l-4.23 2.458c-1.272.74-2.06 2.313-2.067 4.552-.013 4.497 3.15 9.98 7.07 12.245 1.97 1.13 3.756 1.24 5.046.49l4.23-2.46c-1.29.75-3.076.64-5.047-.5z" class="stshockcolor" data-st="fill:#93C1CF;;" coriginal="rgb(147,193,207)" colortype="14" awdzp="14" style="fill: rgb(177, 185, 172);"></path><g class="st2" opacity=".25"><path d="M28.717 65.148l-4.23 2.457c-1.29.75-3.076.646-5.046-.49-3.92-2.264-7.08-7.75-7.06-12.247.01-2.238.8-3.812 2.07-4.552l4.23-2.458c-1.27.74-2.06 2.314-2.07 4.552-.01 4.497 3.15 9.982 7.07 12.246 1.97 1.138 3.76 1.242 5.05.492zM49.21 79.4c-3.92-2.264-7.084-7.748-7.07-12.246.006-2.237.795-3.812 2.067-4.55l-4.23 2.458c-1.272.74-2.06 2.313-2.067 4.552-.013 4.497 3.15 9.98 7.07 12.245 1.97 1.13 3.756 1.24 5.046.49l4.23-2.46c-1.29.75-3.076.64-5.047-.5z"></path></g></g><g><path fill="rgb(177, 185, 172)" d="M30.225 67.744l-4.23 2.458c1.655-.962 2.68-3.01 2.69-5.916.016-5.854-4.096-12.98-9.19-15.924l4.23-2.458c5.094 2.94 9.205 10.07 9.188 15.924-.008 2.908-1.033 4.955-2.688 5.916zm28.227 8.83c.017-5.855-4.095-12.983-9.19-15.926l-4.228 2.46c5.096 2.94 9.206 10.068 9.188 15.923-.008 2.91-1.033 4.96-2.688 5.92l4.23-2.45c1.654-.96 2.68-3.01 2.688-5.91z" class="stshockcolor" data-st="fill:#93C1CF;;" coriginal="rgb(147,193,207)" colortype="14" awdzp="14" style="fill: rgb(177, 185, 172);"></path><g class="st2" opacity=".25"><path d="M30.225 67.744l-4.23 2.458c1.655-.962 2.68-3.01 2.69-5.916.016-5.854-4.096-12.98-9.19-15.924l4.23-2.458c5.094 2.94 9.205 10.07 9.188 15.924-.008 2.908-1.033 4.955-2.688 5.916zm28.227 8.83c.017-5.855-4.095-12.983-9.19-15.926l-4.228 2.46c5.096 2.94 9.206 10.068 9.188 15.923-.008 2.91-1.033 4.96-2.688 5.92l4.23-2.45c1.654-.96 2.68-3.01 2.688-5.91z"></path></g></g><path fill="rgb(177, 185, 172)" d="M19.5 48.36l4.22-2.46c-2.56-1.48-4.88-1.61-6.56-.64l-4.21 2.45c-1.67.96-2.7 3.01-2.71 5.93-.02 5.852 4.1 12.98 9.19 15.92 5.1 2.94 9.24.58 9.25-5.27.02-5.858-4.09-12.99-9.18-15.93zm-.06 18.75c-3.92-2.26-7.08-7.74-7.07-12.24.01-4.51 3.2-6.32 7.12-4.06 3.91 2.26 7.08 7.74 7.07 12.25-.01 4.5-3.2 6.31-7.12 4.05zm25.59-4l4.23-2.46c-2.56-1.48-4.88-1.62-6.56-.64l-4.21 2.45c-1.67.95-2.7 3-2.71 5.92-.022 5.86 4.1 12.978 9.188 15.92 5.102 2.94 9.24.59 9.25-5.272.023-5.848-4.087-12.978-9.187-15.92zm-.05 18.75c-3.92-2.26-7.08-7.75-7.07-12.25.01-4.5 3.2-6.32 7.12-4.05 3.91 2.26 7.08 7.74 7.07 12.24-.02 4.5-3.21 6.32-7.12 4.06z" class="stshockcolor" data-st="fill:#93C1CF;;" coriginal="rgb(147,193,207)" colortype="14" awdzp="14" style="fill: rgb(177, 185, 172);"></path></g></svg>