<svg xmlns="http://www.w3.org/2000/svg" width="32" height="32" viewBox="0 0 100 100" id="svgid23" repair="1" xmlns:xlink="http://www.w3.org/1999/xlink"><g id="MTBteHk4MjgxMDAwMDAwMDAwMHh6czQ5MA"><linearGradient id="MTBteHkxMDYxMDAwMDAwMDAwMHh6czk3MQ" x1="369.264" x2="362.27" y1="-335.738" y2="-323.87" gradientUnits="userSpaceOnUse" gradientTransform="matrix(1 0 0 -1 -294 -250)"><stop offset="0" stop-opacity="0"></stop><stop offset="1"></stop></linearGradient><path fill="url(#MTBteHkxMDYxMDAwMDAwMDAwMHh6czk3MQ)" d="M44.088 90.575l45.49-26.707L100 69.978 55.645 96.94l-11.557-6.367" class="st0" opacity=".15"></path><path fill="rgb(230, 230, 230)" d="M93.94 64.43l-.01 3.28c0 .59-.39 1.18-1.17 1.63L52.94 92.37l-.01.01c-1.57.9-4.12.9-5.7 0-.01 0-.01 0-.01-.01L7.13 69.34c-.8-.46-1.19-1.06-1.19-1.66l.01-3.27c0-.59.39-1.19 1.17-1.64l39.83-23.03c1.57-.91 4.13-.91 5.71 0l40.08 23.03c.8.46 1.2 1.06 1.2 1.66z" class="st10" coriginal="rgb(208,222,226)" colortype="5" awdzp="5" style="fill: rgb(230, 230, 230);"></path><path d="M47.227 89.098L7.14 66.063c-.796-.456-1.192-1.056-1.19-1.655l-.01 3.274c-.003.6.395 1.2 1.188 1.655l40.088 23.036.01.005v-3.28z" class="st6" opacity=".1"></path><path d="M47.227 89.098v3.28c1.587.904 4.134.903 5.7 0l.01-.006v-3.27c-1.57.906-4.125.906-5.71-.004z" class="st2" opacity=".12"></path><path d="M92.77 66.063l-39.834 23.04v3.27L92.76 69.338c.78-.45 1.168-1.04 1.17-1.632l.01-3.273c-.002.59-.392 1.178-1.17 1.63z" class="st7" opacity=".2"></path></g><linearGradient id="MTBteHkxMjgxMDAwMDAwMDAwMHh6czQxMg" x1="70.673" x2="67.643" y1="79.115" y2="73.974" gradientUnits="userSpaceOnUse"><stop offset="0" stop-opacity="0"></stop><stop offset="1"></stop></linearGradient><path fill="url(#MTBteHkxMjgxMDAwMDAwMDAwMHh6czQxMg)" d="M76.595 69.918L57.352 81.102l4.727 2.71 19.28-11.15" class="st3" opacity=".15"></path><g><g><path fill="rgb(31, 70, 60)" d="M57.38 71.453l-34.864-20.13-.03 9.65 34.866 20.13 19.243-11.185.027-9.647" class="stshockcolor" data-st="fill:#C8441D;;" coriginal="rgb(200,68,29)" colortype="36" awdzp="36" style="fill: rgb(31, 70, 60);"></path><path fill="rgb(192, 200, 187)" d="M76.67 43.41c0 .5-.026 9.482-.045 16.864L57.375 71.45l-3.22-1.856-6.453-3.732-3.23-1.865-6.463-3.723-3.23-1.866-6.46-3.732-5.81-3.35.01-9.336 19.25-11.186 5.81-.39c.3-.028 5.98-.52 7.474-.638.527-.045.956.027 1.3.228.62.354.93 1.11.93 2.23 0 .846-.01 3.622-.01 3.768.3-.027 5.97-.51 7.464-.637.526-.045.954.036 1.3.228.63.364.94 1.12.93 2.23 0 .846-.01 3.623-.01 3.777.3-.027 5.97-.52 7.463-.646.53-.045.968.037 1.3.237.62.36.93 1.11.93 2.22z" class="st4" coriginal="rgb(193,193,188)" colortype="11" awdzp="11" style="fill: rgb(192, 200, 187);"></path><path fill-opacity=".1" d="M74.44 40.952c-1.492.128-7.162.62-7.462.646l-19.24 11.176c.292-.027 5.96-.51 7.463-.638.53-.045.96.036 1.31.228l19.23-11.176c-.33-.2-.77-.28-1.3-.236zm-8.38-5.36c-.347-.19-.774-.273-1.302-.228-1.493.128-7.163.61-7.463.637l-19.25 11.19 7.464-.63c.52-.04.96.03 1.3.23.62.37.93 1.12.93 2.23l19.24-11.19c.01-1.11-.3-1.86-.93-2.23zm-9.685-5.588c-.345-.2-.773-.273-1.3-.228-1.458.12-6.928.592-7.446.637L28.5 41.525c3.166-.246 6.57-.51 7.334-.573.52-.045.956.037 1.292.237.63.35.938 1.11.938 2.22l19.24-11.18c0-1.12-.31-1.88-.93-2.23z" class="st11"></path><path fill-opacity=".2" d="M38.06 43.412L57.304 32.23l-.01 3.77L38.05 47.184l.01-3.772zm9.674 9.365L66.98 41.594c0-.146.006-2.925.01-3.772L47.744 49.004c0 .85-.01 3.626-.01 3.773zm9.694 1.817l-.05 16.86L76.623 60.27l.048-16.86c.01-1.11-.3-1.866-.93-2.226L56.5 52.367c.624.36.932 1.116.93 2.227z" class="st12"></path><path fill="rgb(250, 250, 250)" d="M28.315 58.392l.01-3.712 6.456 3.728-.01 3.71-6.45-3.726zm16.142 9.32L44.47 64l-6.46-3.73-.01 3.713 6.456 3.727zm9.686 5.592l.01-3.712-6.454-3.728-.01 3.713 6.45 3.727zm-19.34-22.316l-6.456-3.728-.01 3.712L34.79 54.7l.01-3.712zm9.685 5.593l-6.455-3.72-.01 3.71 6.454 3.73.01-3.71zm9.687 5.6l-6.455-3.73-.016 3.71 6.457 3.73.01-3.71z" class="st1" coriginal="rgb(232,234,238)" colortype="1" awdzp="1" style="fill: rgb(250, 250, 250);"></path><path fill-opacity=".2" d="M57.38 71.453L76.62 60.27l-.027 9.648L57.35 81.102" class="st12"></path><path d="M47.72 58.445l-.01 3.713.465.273.01-3.72-.465-.26zm-9.684-5.59l-.017 3.714.47.27.01-3.73-.47-.27zm-9.692-5.595l-.01 3.713.475.272v-3.713l-.48-.272zm19.358 18.602l-.02 3.713.483.283.01-3.723-.473-.273zm-9.693-5.588L38 63.987l.482.282.01-3.73-.483-.28zm-9.69-5.598l-.01 3.713.47.27.01-3.72-.48-.28z" class="st9" opacity=".4"></path><path fill-opacity=".2" d="M47.63 30.414L28.5 41.526c-3.095.246-5.963.465-5.963.465l19.25-11.18 5.814-.39h.03z" class="st12"></path></g><g><path fill="rgb(192, 200, 187)" d="M46.79 18.524l-4.27 2.497-4.032-2.32-.43 6.44L43.002 28l4.27-2.5" class="st4" coriginal="rgb(193,193,188)" colortype="11" awdzp="11" style="fill: rgb(192, 200, 187);"></path><path fill="rgb(31, 70, 60)" d="M47.605 30.405l-4.27 2.498-5.82.397.543-8.168 4.944 2.855 4.27-2.498.333 4.91zm-.816-11.88l-.43-6.19-3.23-1.863-4.27 2.497-.39 5.72 4.03 2.33 4.27-2.5z" class="stshockcolor" data-st="fill:#C8441D;;" coriginal="rgb(200,68,29)" colortype="36" awdzp="36" style="fill: rgb(31, 70, 60);"></path><path d="M40.683 12.964l2.46-1.44 1.41.815-2.46 1.43" class="st9" opacity=".4"></path><path d="M43.144 11.524v1.64l-1.05.614-1.41-.814" class="st8" opacity=".3"></path><path fill-opacity=".2" d="M47.27 25.49l-.48-6.966-.425-6.19-4.268 2.498.424 6.19.49 6.966.34 4.915 4.27-2.498" class="st12"></path><path fill-opacity=".1" d="M38.87 12.97l4.27-2.498 3.225 1.862-4.268 2.498" class="st11"></path></g></g></svg>