<svg xmlns="http://www.w3.org/2000/svg" width="32" height="32" viewBox="0 0 100 100" id="svgid11" repair="1" xmlns:xlink="http://www.w3.org/1999/xlink"><g id="MTBteHk1MDkxMDAwMDAwMDAwMHh6czUwNg"><linearGradient id="MTBteHkxODkxMDAwMDAwMDAwMHh6czEyOA" x1="369.264" x2="362.27" y1="-335.738" y2="-323.87" gradientUnits="userSpaceOnUse" gradientTransform="matrix(1 0 0 -1 -294 -250)"><stop offset="0" stop-opacity="0"></stop><stop offset="1"></stop></linearGradient><path fill="url(#MTBteHkxODkxMDAwMDAwMDAwMHh6czEyOA)" d="M44.088 90.575l45.49-26.707L100 69.978 55.645 96.94l-11.557-6.367" class="st1" opacity=".15"></path><path fill="rgb(230, 230, 230)" d="M93.94 64.43l-.01 3.28c0 .59-.39 1.18-1.17 1.63L52.94 92.37l-.01.01c-1.57.9-4.12.9-5.7 0-.01 0-.01 0-.01-.01L7.13 69.34c-.8-.46-1.19-1.06-1.19-1.66l.01-3.27c0-.59.39-1.19 1.17-1.64l39.83-23.03c1.57-.91 4.13-.91 5.71 0l40.08 23.03c.8.46 1.2 1.06 1.2 1.66z" class="st8" coriginal="rgb(208,222,226)" colortype="5" awdzp="5" style="fill: rgb(230, 230, 230);"></path><linearGradient id="MTBteHk2MzEwMDAwMDAwMDAweHpzNjcy" x1="65.871" x2="61.55" y1="80.285" y2="75.086" gradientUnits="userSpaceOnUse"><stop offset="0" stop-opacity="0"></stop><stop offset=".07" stop-opacity=".07"></stop><stop offset="1"></stop></linearGradient><path fill="url(#MTBteHk2MzEwMDAwMDAwMDAweHpzNjcy)" d="M61.67 84.05l15.292-8.845-14.9-8.56-15.695 8.598z" class="st4" opacity=".15"></path><path d="M47.227 89.098L7.14 66.063c-.796-.456-1.192-1.056-1.19-1.655l-.01 3.274c-.003.6.395 1.2 1.188 1.655l40.088 23.036.01.005v-3.28z" class="st5" opacity=".1"></path><path d="M47.227 89.098v3.28c1.587.904 4.134.903 5.7 0l.01-.006v-3.27c-1.57.906-4.125.906-5.71-.004z" class="st2" opacity=".12"></path><path d="M92.77 66.063l-39.834 23.04v3.27L92.76 69.338c.78-.45 1.168-1.04 1.17-1.632l.01-3.273c-.002.59-.392 1.178-1.17 1.63z" class="st6" opacity=".2"></path></g><g><g><path fill="rgb(72, 111, 101)" d="M51.245 71.443c-1.12 0-2.18-.04-3.018-.085-1.76-1.927-4.8-5.322-7.23-8.402-6.1-7.735-6.88-9.44-8.794-36.1l2.166-1.26c1.36 1.22 3.3 2.706 5.97 4.243 3.04 1.75 6.21 2.64 9.41 2.64.67 0 1.35-.04 2.03-.12 3.6 4.8 7.27 8.29 10.91 10.39 1.82 1.05 3.48 1.83 4.98 2.36-.9 10.55-1.9 20.48-3.71 21.53l-7.01 4.08-.01-.01c-.48.312-1.667.476-2.518.57-.87.096-1.95.145-3.193.145z" class="stshockcolor" data-st="fill:#DE7047;;" coriginal="rgb(222,112,71)" colortype="29" awdzp="29" style="fill: rgb(72, 111, 101);"></path><path d="M51.245 71.443c-1.12 0-2.18-.04-3.018-.085-1.76-1.927-4.8-5.322-7.23-8.402-6.1-7.735-6.88-9.44-8.794-36.1l2.166-1.26c1.36 1.22 3.3 2.706 5.97 4.243 3.04 1.75 6.21 2.64 9.41 2.64.67 0 1.35-.04 2.03-.12 3.6 4.8 7.27 8.29 10.91 10.39 1.82 1.05 3.48 1.83 4.98 2.36-.9 10.55-1.9 20.48-3.71 21.53l-7.01 4.08-.01-.01c-.48.312-1.667.476-2.518.57-.87.096-1.95.145-3.193.145z" class="st7" opacity=".3"></path></g><g><path fill="rgb(72, 111, 101)" d="M60.483 67.534l-2.124 1.234c-2.36.255-5.42.135-7.03.043-1.63-1.78-4.7-5.2-7.05-8.18-5.32-6.75-6.29-7.99-8.11-32.43l-4.96 2.87C33.03 55.51 34 56.75 39.32 63.5c2.35 2.98 5.418 6.4 7.044 8.187 1.624.094 4.7.215 7.06-.045 1.435-.16 2.554-.28 3.46-.81l7.05-4.092c-.91.527-2.027.653-3.46.81z" class="stshockcolor" data-st="fill:#DE7047;;" coriginal="rgb(222,112,71)" colortype="29" awdzp="29" style="fill: rgb(72, 111, 101);"></path><path d="M60.483 67.534l-2.124 1.234c-2.36.255-5.42.135-7.03.043-1.63-1.78-4.7-5.2-7.05-8.18-5.32-6.75-6.29-7.99-8.11-32.43l-4.96 2.87C33.03 55.51 34 56.75 39.32 63.5c2.35 2.98 5.418 6.4 7.044 8.187 1.624.094 4.7.215 7.06-.045 1.435-.16 2.554-.28 3.46-.81l7.05-4.092c-.91.527-2.027.653-3.46.81z" class="st6" opacity=".2"></path></g><g><path fill="rgb(98, 74, 103)" d="M60.043 55.016l-5.63 1.41 2.48 11.128-2.11 1.22-7.29-10.21-7.32 1.782 2.69-8.71-7.86-11.08 2.11-1.23 8.09 4.66 2.35-5.79 2.11-1.23 3.1 11.4 9.39 5.42" class="st0" coriginal="rgb(224,163,10)" colortype="25" awdzp="25" style="fill: rgb(98, 74, 103);"></path><path d="M45.203 43.985l-.81 1.99-9.39-5.42 2.11-1.23" class="st3" opacity=".15"></path><path d="M56.893 67.554l-2.11 1.22-2.64-11.778 2.27-.57m-6.863-18.23l2.114-1.23 3.102 11.396-2.114 1.228m0 0l2.114-1.228 9.392 5.423-2.115 1.23" class="st5" opacity=".1"></path></g><g><path fill="rgb(72, 111, 101)" d="M64.697 39.294c-4.47-2.58-8.33-7.26-11.16-11.34-2.85.8-6.73 1-11.2-1.58-5.22-3.01-7.15-5.68-7.26-5.82l-7.04 4.1c2.04 28.94 2.74 31.8 9.82 40.78 3.55 4.5 8.26 9.54 8.51 9.81.25.02 4.97.42 8.52.03 1.78-.2 3.16-.48 4.26-1.2-.07.05-.15.1-.22.14l7.05-4.1c3.48-2.02 4.3-7.96 5.99-28.26-.1.02-2.05.45-7.27-2.56zm-11.26 32.34c-2.36.26-5.44.14-7.06.04-1.63-1.78-4.69-5.2-7.05-8.19-5.32-6.75-6.29-7.98-8.1-32.43 1.13.86 2.47 1.77 4.05 2.68 3.72 2.15 7.47 2.91 11.2 2.29 3.71 4.92 7.46 8.49 11.17 10.63 1.59.91 2.93 1.55 4.05 1.99-1.95 22.27-2.91 22.39-8.26 22.99z" class="stshockcolor" data-st="fill:#DE7047;;" coriginal="rgb(222,112,71)" colortype="29" awdzp="29" style="fill: rgb(72, 111, 101);"></path><path fill-opacity=".1" d="M65.974 70.114l-7.048 4.096c3.486-2.026 4.302-7.964 5.99-28.262l7.05-4.096c-1.69 20.298-2.506 26.236-5.992 28.262z" class="st9"></path><path d="M28.033 24.653l7.047-4.096c.103.14 2.04 2.808 7.256 5.82 4.47 2.58 8.352 2.375 11.2 1.572l-7.05 4.09c-2.848.8-6.73 1.01-11.2-1.57-5.215-3.01-7.15-5.68-7.253-5.82z" class="st3" opacity=".15"></path><path fill-opacity=".1" d="M64.7 39.29c-4.47-2.58-8.337-7.26-11.165-11.34l-7.048 4.096c2.827 4.08 6.696 8.76 11.165 11.34 5.217 3.013 7.162 2.586 7.265 2.564l7.048-4.096c-.103.02-2.048.447-7.265-2.564z" class="st9"></path></g></g></svg>