<svg xmlns="http://www.w3.org/2000/svg" width="32" height="32" viewBox="0 0 100 100" id="svgid13" repair="1" xmlns:xlink="http://www.w3.org/1999/xlink"><g id="MTBteHk4MzMxMDAwMDAwMDAwMHh6czg5Ng"><linearGradient id="MTBteHk3NzcxMDAwMDAwMDAwMHh6czExNQ" x1="369.264" x2="362.27" y1="-335.738" y2="-323.87" gradientUnits="userSpaceOnUse" gradientTransform="matrix(1 0 0 -1 -294 -250)"><stop offset="0" stop-opacity="0"></stop><stop offset="1"></stop></linearGradient><path fill="url(#MTBteHk3NzcxMDAwMDAwMDAwMHh6czExNQ)" d="M44.088 90.575l45.49-26.707L100 69.978 55.645 96.94l-11.557-6.367" class="st1" opacity=".15"></path><path fill="rgb(230, 230, 230)" d="M93.94 64.43l-.01 3.28c0 .59-.39 1.18-1.17 1.63L52.94 92.37l-.01.01c-1.57.9-4.12.9-5.7 0-.01 0-.01 0-.01-.01L7.13 69.34c-.8-.46-1.19-1.06-1.19-1.66l.01-3.27c0-.59.39-1.19 1.17-1.64l39.83-23.03c1.57-.91 4.13-.91 5.71 0l40.08 23.03c.8.46 1.2 1.06 1.2 1.66z" class="st23" coriginal="rgb(208,222,226)" colortype="5" awdzp="5" style="fill: rgb(230, 230, 230);"></path><path d="M47.227 89.098L7.14 66.063c-.796-.456-1.192-1.056-1.19-1.655l-.01 3.274c-.003.6.395 1.2 1.188 1.655l40.088 23.036.01.005v-3.28z" class="st14" opacity=".1"></path><path d="M47.227 89.098v3.28c1.587.904 4.134.903 5.7 0l.01-.006v-3.27c-1.57.906-4.125.906-5.71-.004z" class="st2" opacity=".12"></path><path d="M92.77 66.063l-39.834 23.04v3.27L92.76 69.338c.78-.45 1.168-1.04 1.17-1.632l.01-3.273c-.002.59-.392 1.178-1.17 1.63z" class="st15" opacity=".2"></path></g><g><linearGradient id="MTBteHk5MjgxMDAwMDAwMDAwMHh6czEzOQ" x1="69.947" x2="66.253" y1="79.517" y2="73.247" gradientUnits="userSpaceOnUse"><stop offset="0" stop-opacity="0"></stop><stop offset="1"></stop></linearGradient><path fill="url(#MTBteHk5MjgxMDAwMDAwMDAwMHh6czEzOQ)" d="M69.872 72.41l-8.955 5.683 5.6 3.16 9.427-5.46" class="st4" opacity=".15"></path><linearGradient id="MTBteHk2NDkxMDAwMDAwMDAwMHh6czU1" x1="55.839" x2="43.829" y1="88.09" y2="67.709" gradientUnits="userSpaceOnUse"><stop offset="0" stop-opacity="0"></stop><stop offset="1"></stop></linearGradient><path fill="url(#MTBteHk2NDkxMDAwMDAwMDAwMHh6czU1)" d="M36.528 76.34L55.45 87.707l9.285-5.54-18.932-11.404" class="st5" opacity=".15"></path><linearGradient id="MTBteHk4OTQxMDAwMDAwMDAwMHh6czU1Nw" x1="81.361" x2="66.122" y1="73.525" y2="47.665" gradientUnits="userSpaceOnUse"><stop offset="0" stop-opacity="0"></stop><stop offset="1"></stop></linearGradient><path fill="url(#MTBteHk4OTQxMDAwMDAwMDAwMHh6czU1Nw)" d="M57.837 58.01l24.545 14.136 9.285-5.54L67.11 52.43" class="st6" opacity=".15"></path></g><g><g><g><defs><path id="MTBteHk3OTYxMDAwMDAwMDAwMHh6czU5" d="M68.924 53.375c-.197-2.345-.39-3.394-.97-4.372-.265-.447-.61-.88-1.077-1.413l-4.744-5.448c-.805-.924-1.698-1.77-2.716-2.454-2.49-1.673-5.413-2.378-8.393-2.573-.563-.037-1.692-.003-2.87.44-.506.188-2.158.747-2.653.958-1.72.74-5.06 2.9-5.06 2.9.01 0 .02 0 .02-.004-.4.14-.64.45-.82 1.12-.69 2.64.59 5.41 2.97 6.78l7.88 4.53 6.57 3.77c2.99 1.71 6.67 1.71 9.65 0 1.51-.86 2.37-2.52 2.23-4.24zM40.81 41.335c.036-.006.074-.01.11-.014l-.11.02z"></path></defs><use fill="rgb(12, 27, 35)" xlink:href="#MTBteHk3OTYxMDAwMDAwMDAwMHh6czU5" overflow="visible" coriginal="rgb(71,71,94)" colortype="44" awdzp="44" style="fill: rgb(12, 27, 35);"></use><clipPath id="MTBteHk4NDcxMDAwMDAwMDAwMHh6czU5MA"><use xlink:href="#MTBteHk3OTYxMDAwMDAwMDAwMHh6czU5" overflow="visible"></use></clipPath><g class="st9" clip-path="url(#MTBteHk4NDcxMDAwMDAwMDAwMHh6czU5MA)"><g class="st15" opacity=".2"><path fill="rgb(255, 255, 255)" d="M44.158 42.035l3.82 4.708c1.628 2.008 2.515 4.518 2.507 7.105l-11.403-6.552c.473-5.474.474-6 2.304-5.993l1.25.004c.59 0 1.15.27 1.522.728z" class="st16" coriginal="rgb(255,255,255)" colortype="0" awdzp="0" style="fill: rgb(255, 255, 255);"></path></g></g></g><g><defs><path id="MTBteHkyMTMxMDAwMDAwMDAwMHh6czIxOQ" d="M51.245 46.133c-3.01-2.465-2.95-4.424-2.95-7.373v-5.898h11.798v5.898c0 2.95-3.687 5.14-8.848 7.373z"></path></defs><use fill="rgb(202, 210, 197)" fill-rule="evenodd" xlink:href="#MTBteHkyMTMxMDAwMDAwMDAwMHh6czIxOQ" class="stshockcolor" data-st="fill:#85ded8;;overflow:visible;fill-rule:evenodd;clip-rule:evenodd;" overflow="visible" clip-rule="evenodd" coriginal="rgb(133,222,216)" colortype="9" awdzp="9" style="fill: rgb(202, 210, 197);"></use><clipPath id="MTBteHk1NTAxMDAwMDAwMDAwMHh6czk2OQ"><use xlink:href="#MTBteHkyMTMxMDAwMDAwMDAwMHh6czIxOQ" overflow="visible"></use></clipPath><g class="st28" opacity=".1" clip-path="url(#MTBteHk1NTAxMDAwMDAwMDAwMHh6czk2OQ)"><path fill="rgb(7, 22, 30)" d="M49.293 39.736l13.267-9.134.012 1.454v15.32l-6.634-3.83-.01.02" class="st7" coriginal="rgb(35,31,32)" colortype="45" awdzp="45" style="fill: rgb(7, 22, 30);"></path></g><g class="st10" opacity=".15" clip-path="url(#MTBteHk1NTAxMDAwMDAwMDAwMHh6czk2OQ)"><path fill="rgb(7, 22, 30)" d="M47.68 33.6h13.397v14.5H47.68z" class="st7" coriginal="rgb(35,31,32)" colortype="45" awdzp="45" style="fill: rgb(7, 22, 30);"></path></g></g><g><g><defs><path id="MTBteHk4NTcxMDAwMDAwMDAwMHh6czQ" d="M54.194 14c8.213 0 10.322 5.91 10.322 10.322v6.352c0 4.655-4.408 10.72-10.322 10.72s-10.322-6.064-10.322-10.72v-6.352C43.872 19.91 45.98 14 54.194 14z"></path></defs><use fill="rgb(202, 210, 197)" fill-rule="evenodd" xlink:href="#MTBteHk4NTcxMDAwMDAwMDAwMHh6czQ" class="stshockcolor" data-st="fill:#85ded8;;overflow:visible;fill-rule:evenodd;clip-rule:evenodd;" overflow="visible" clip-rule="evenodd" coriginal="rgb(133,222,216)" colortype="9" awdzp="9" style="fill: rgb(202, 210, 197);"></use><clipPath id="MTBteHkyMjkxMDAwMDAwMDAwMHh6czUwNg"><use xlink:href="#MTBteHk4NTcxMDAwMDAwMDAwMHh6czQ" overflow="visible"></use></clipPath><path fill-opacity=".2" fill-rule="evenodd" d="M42.14 12.667h24.11v31.27H42.14z" class="st21" clip-path="url(#MTBteHkyMjkxMDAwMDAwMDAwMHh6czUwNg)" clip-rule="evenodd"></path><path fill="rgb(255, 255, 255)" fill-rule="evenodd" d="M54.988 14s-7.43 1.422-7.43 9.032v11.25s.052 7.128 7.413 7.128H39.44V13.636L54.987 14z" class="st19" opacity=".3" clip-path="url(#MTBteHkyMjkxMDAwMDAwMDAwMHh6czUwNg)" clip-rule="evenodd" coriginal="rgb(255,255,255)" colortype="0" awdzp="0" style="fill: rgb(255, 255, 255);"></path><path fill="rgb(37, 52, 60)" fill-rule="evenodd" d="M59.88 14.645c2.4 1.306 4.137 3.053 4.637 4.814 1.352 4.76-7.696 9.41-16.955 6.74.01 4.73.035 5.71-.003 8.07 0 0 .05 7.13 7.41 7.13h13.85V13.63l-8.94 1.01z" class="st27" opacity=".1" clip-path="url(#MTBteHkyMjkxMDAwMDAwMDAwMHh6czUwNg)" clip-rule="evenodd" coriginal="rgb(110,103,104)" colortype="39" awdzp="39" style="fill: rgb(37, 52, 60);"></path></g><path fill-opacity=".5" d="M50.803 30.183c0-1.018.487-1.843 1.087-1.843s1.088.825 1.088 1.843-.487 1.843-1.088 1.843c-.6 0-1.087-.825-1.087-1.843zm-5.607-.68c.51 0 .924-.733.924-1.638s-.414-1.64-.924-1.64-.923.735-.923 1.64.414 1.638.923 1.638z" class="st26"></path></g></g><g><g><defs><path id="MTBteHkxMzMxMDAwMDAwMDAwMHh6czgxMg" d="M71.924 73.375c-.197-2.345-.39-3.395-.97-4.37-.265-.448-.61-.88-1.077-1.414-2.324-2.66-3.804-4.36-4.744-5.44-.805-.92-1.698-1.77-2.716-2.45-2.49-1.67-5.413-2.38-8.393-2.57-.563-.03-1.692 0-2.87.44-.506.19-2.158.75-2.653.96-1.72.74-5.06 2.9-5.06 2.9h.02c-.4.144-.64.458-.82 1.13-.69 2.644.59 5.41 2.97 6.78l7.88 4.527 6.57 3.77c2.99 1.715 6.67 1.714 9.65 0 1.51-.86 2.37-2.52 2.23-4.24zM43.81 61.335c.036-.006.074-.01.11-.014l-.11.02z"></path></defs><use fill="rgb(167, 175, 162)" xlink:href="#MTBteHkxMzMxMDAwMDAwMDAwMHh6czgxMg" overflow="visible" coriginal="rgb(188,214,118)" colortype="16" awdzp="16" style="fill: rgb(167, 175, 162);"></use><clipPath id="MTBteHkxMDAxMDAwMDAwMDAwMHh6czk5Ng"><use xlink:href="#MTBteHkxMzMxMDAwMDAwMDAwMHh6czgxMg" overflow="visible"></use></clipPath><g class="st24" clip-path="url(#MTBteHkxMDAxMDAwMDAwMDAwMHh6czk5Ng)"><g class="st15" opacity=".2"><path fill="rgb(255, 255, 255)" d="M47.158 62.035l3.82 4.708c1.628 2.01 2.515 4.52 2.507 7.104l-11.403-6.552c.473-5.474.474-6 2.304-5.993l1.25.004c.59.002 1.15.27 1.522.73z" class="st16" coriginal="rgb(255,255,255)" colortype="0" awdzp="0" style="fill: rgb(255, 255, 255);"></path></g></g></g><g><defs><path id="MTBteHk2ODEwMDAwMDAwMDAweHpzOTc0" d="M54.245 66.133c-3.01-2.465-2.95-4.424-2.95-7.373v-5.898h11.798v5.898c0 2.95-3.687 5.14-8.848 7.373z"></path></defs><use fill="rgb(202, 210, 197)" fill-rule="evenodd" xlink:href="#MTBteHk2ODEwMDAwMDAwMDAweHpzOTc0" class="stshockcolor" data-st="fill:#85ded8;;overflow:visible;fill-rule:evenodd;clip-rule:evenodd;" overflow="visible" clip-rule="evenodd" coriginal="rgb(133,222,216)" colortype="9" awdzp="9" style="fill: rgb(202, 210, 197);"></use><clipPath id="MTBteHk4MzMxMDAwMDAwMDAwMHh6czgzOQ"><use xlink:href="#MTBteHk2ODEwMDAwMDAwMDAweHpzOTc0" overflow="visible"></use></clipPath><path fill="rgb(123, 99, 128)" fill-opacity=".5" fill-rule="evenodd" d="M50 58.013h14.25V67H50z" class="st20" clip-path="url(#MTBteHk4MzMxMDAwMDAwMDAwMHh6czgzOQ)" clip-rule="evenodd" coriginal="rgb(117,162,216)" colortype="20" awdzp="20" style="fill: rgb(123, 99, 128);"></path><g class="st11" opacity=".1" clip-path="url(#MTBteHk4MzMxMDAwMDAwMDAwMHh6czgzOQ)"><path fill="rgb(7, 22, 30)" d="M52.293 59.736l13.267-9.134.012 1.454v15.32l-6.634-3.83-.01.02" class="st7" coriginal="rgb(35,31,32)" colortype="45" awdzp="45" style="fill: rgb(7, 22, 30);"></path></g><g class="st17" opacity=".15" clip-path="url(#MTBteHk4MzMxMDAwMDAwMDAwMHh6czgzOQ)"><path fill="rgb(7, 22, 30)" d="M50.68 53.6h13.397v14.5H50.68z" class="st7" coriginal="rgb(35,31,32)" colortype="45" awdzp="45" style="fill: rgb(7, 22, 30);"></path></g></g><g><g><defs><path id="MTBteHk4MjEwMDAwMDAwMDAweHpzNDQ2" d="M57.194 34c8.213 0 10.322 5.91 10.322 10.322v6.352c0 4.655-4.408 10.72-10.322 10.72s-10.322-6.064-10.322-10.72v-6.352C46.872 39.91 48.98 34 57.194 34z"></path></defs><use fill="rgb(202, 210, 197)" fill-rule="evenodd" xlink:href="#MTBteHk4MjEwMDAwMDAwMDAweHpzNDQ2" class="stshockcolor" data-st="fill:#85ded8;;overflow:visible;fill-rule:evenodd;clip-rule:evenodd;" overflow="visible" clip-rule="evenodd" coriginal="rgb(133,222,216)" colortype="9" awdzp="9" style="fill: rgb(202, 210, 197);"></use><clipPath id="MTBteHk0MDIxMDAwMDAwMDAwMHh6czcxNA"><use xlink:href="#MTBteHk4MjEwMDAwMDAwMDAweHpzNDQ2" overflow="visible"></use></clipPath><path fill="rgb(123, 99, 128)" fill-opacity=".5" fill-rule="evenodd" d="M46.472 33.25h21.445v28.917H46.472z" class="st8" clip-path="url(#MTBteHk0MDIxMDAwMDAwMDAwMHh6czcxNA)" clip-rule="evenodd" coriginal="rgb(117,162,216)" colortype="20" awdzp="20" style="fill: rgb(123, 99, 128);"></path><path fill="rgb(255, 255, 255)" fill-rule="evenodd" d="M57.988 34s-7.43 1.422-7.43 9.032v11.25s.052 7.128 7.413 7.128H42.44V33.636L57.987 34z" class="st13" opacity=".3" clip-path="url(#MTBteHk0MDIxMDAwMDAwMDAwMHh6czcxNA)" clip-rule="evenodd" coriginal="rgb(255,255,255)" colortype="0" awdzp="0" style="fill: rgb(255, 255, 255);"></path><path fill="rgb(37, 52, 60)" fill-rule="evenodd" d="M62.88 34.645c2.4 1.306 4.137 3.053 4.637 4.814 1.352 4.76-7.696 9.41-16.955 6.74.01 4.73.035 5.71-.003 8.07 0 0 .05 7.13 7.41 7.13h13.85V33.63l-8.94 1.01z" class="st22" opacity=".1" clip-path="url(#MTBteHk0MDIxMDAwMDAwMDAwMHh6czcxNA)" clip-rule="evenodd" coriginal="rgb(110,103,104)" colortype="39" awdzp="39" style="fill: rgb(37, 52, 60);"></path></g><path fill-opacity=".5" d="M53.803 50.183c0-1.018.487-1.843 1.087-1.843s1.088.825 1.088 1.843-.487 1.843-1.088 1.843c-.6 0-1.087-.825-1.087-1.843zm-5.607-.68c.51 0 .924-.733.924-1.638s-.414-1.64-.924-1.64-.923.735-.923 1.64.414 1.638.923 1.638z" class="st26"></path></g></g><g><g><defs><path id="MTBteHk0MDgxMDAwMDAwMDAwMHh6czM1Mw" d="M46.924 71.375c-.197-2.345-.39-3.395-.97-4.37-.265-.448-.61-.88-1.077-1.414-2.324-2.66-3.804-4.36-4.744-5.44-.805-.92-1.698-1.77-2.716-2.45-2.49-1.67-5.413-2.38-8.393-2.57-.563-.03-1.692 0-2.87.44-.506.19-2.158.75-2.653.96-1.72.74-5.06 2.9-5.06 2.9h.02c-.4.144-.64.458-.82 1.13-.69 2.644.59 5.41 2.97 6.78l7.88 4.527 6.57 3.77c2.99 1.715 6.67 1.714 9.65 0 1.51-.86 2.37-2.52 2.23-4.24zM18.81 59.335c.036-.006.074-.01.11-.014l-.11.02z"></path></defs><use fill="rgb(72, 111, 101)" xlink:href="#MTBteHk0MDgxMDAwMDAwMDAwMHh6czM1Mw" overflow="visible" coriginal="rgb(222,112,71)" colortype="29" awdzp="29" style="fill: rgb(72, 111, 101);"></use><clipPath id="MTBteHkzOTMxMDAwMDAwMDAwMHh6czcxMA"><use xlink:href="#MTBteHk0MDgxMDAwMDAwMDAwMHh6czM1Mw" overflow="visible"></use></clipPath><g class="st25" clip-path="url(#MTBteHkzOTMxMDAwMDAwMDAwMHh6czcxMA)"><g class="st15" opacity=".2"><path fill="rgb(255, 255, 255)" d="M22.158 60.035l3.82 4.708c1.628 2.008 2.515 4.52 2.507 7.104l-11.403-6.552c.473-5.474.474-6 2.304-5.993l1.25.004c.59.002 1.15.27 1.522.73z" class="st16" coriginal="rgb(255,255,255)" colortype="0" awdzp="0" style="fill: rgb(255, 255, 255);"></path></g></g></g><g><defs><path id="MTBteHkxNDQxMDAwMDAwMDAwMHh6czcxMQ" d="M29.245 64.133c-3.01-2.465-2.95-4.424-2.95-7.373v-5.898h11.798v5.898c0 2.95-3.687 5.14-8.848 7.373z"></path></defs><use fill="rgb(202, 210, 197)" fill-rule="evenodd" xlink:href="#MTBteHkxNDQxMDAwMDAwMDAwMHh6czcxMQ" class="stshockcolor" data-st="fill:#85ded8;;overflow:visible;fill-rule:evenodd;clip-rule:evenodd;" overflow="visible" clip-rule="evenodd" coriginal="rgb(133,222,216)" colortype="9" awdzp="9" style="fill: rgb(202, 210, 197);"></use><clipPath id="MTBteHkxMTkxMDAwMDAwMDAwMHh6czIxMg"><use xlink:href="#MTBteHkxNDQxMDAwMDAwMDAwMHh6czcxMQ" overflow="visible"></use></clipPath><g class="st12" opacity=".1" clip-path="url(#MTBteHkxMTkxMDAwMDAwMDAwMHh6czIxMg)"><path fill="rgb(7, 22, 30)" d="M27.293 57.736l13.267-9.134.012 1.454v15.32l-6.634-3.83-.01.02" class="st7" coriginal="rgb(35,31,32)" colortype="45" awdzp="45" style="fill: rgb(7, 22, 30);"></path></g><g class="st18" opacity=".15" clip-path="url(#MTBteHkxMTkxMDAwMDAwMDAwMHh6czIxMg)"><path fill="rgb(7, 22, 30)" d="M25.68 51.6h13.397v14.5H25.68z" class="st7" coriginal="rgb(35,31,32)" colortype="45" awdzp="45" style="fill: rgb(7, 22, 30);"></path></g></g><g><g><defs><path id="MTBteHk1MjMxMDAwMDAwMDAwMHh6czk2NA" d="M32.194 32c8.213 0 10.322 5.91 10.322 10.322v6.352c0 4.655-4.408 10.72-10.322 10.72s-10.322-6.064-10.322-10.72v-6.352C21.872 37.91 23.98 32 32.194 32z"></path></defs><use fill="rgb(202, 210, 197)" fill-rule="evenodd" xlink:href="#MTBteHk1MjMxMDAwMDAwMDAwMHh6czk2NA" class="stshockcolor" data-st="fill:#85ded8;;overflow:visible;fill-rule:evenodd;clip-rule:evenodd;" overflow="visible" clip-rule="evenodd" coriginal="rgb(133,222,216)" colortype="9" awdzp="9" style="fill: rgb(202, 210, 197);"></use><clipPath id="MTBteHk2NTMxMDAwMDAwMDAwMHh6czQ2"><use xlink:href="#MTBteHk1MjMxMDAwMDAwMDAwMHh6czk2NA" overflow="visible"></use></clipPath><path fill="rgb(255, 255, 255)" fill-rule="evenodd" d="M32.988 32s-7.43 1.422-7.43 9.032v11.25s.052 7.128 7.413 7.128H17.44V31.636L32.987 32z" class="st0" opacity=".3" clip-path="url(#MTBteHk2NTMxMDAwMDAwMDAwMHh6czQ2)" clip-rule="evenodd" coriginal="rgb(255,255,255)" colortype="0" awdzp="0" style="fill: rgb(255, 255, 255);"></path><path fill="rgb(37, 52, 60)" fill-rule="evenodd" d="M37.88 32.645c2.4 1.306 4.137 3.053 4.637 4.814 1.352 4.76-7.696 9.41-16.955 6.74.01 4.73.035 5.71-.003 8.07 0 0 .05 7.13 7.41 7.13h13.85V31.63l-8.94 1.01z" class="st3" opacity=".1" clip-path="url(#MTBteHk2NTMxMDAwMDAwMDAwMHh6czQ2)" clip-rule="evenodd" coriginal="rgb(110,103,104)" colortype="39" awdzp="39" style="fill: rgb(37, 52, 60);"></path></g><path fill-opacity=".5" d="M28.803 48.183c0-1.018.487-1.843 1.087-1.843s1.088.825 1.088 1.843-.487 1.843-1.088 1.843c-.6 0-1.087-.825-1.087-1.843zm-5.607-.68c.51 0 .924-.733.924-1.638s-.414-1.64-.924-1.64-.923.735-.923 1.64.414 1.638.923 1.638z" class="st26"></path></g></g></g></svg>