<svg xmlns="http://www.w3.org/2000/svg" width="32" height="32" viewBox="0 0 100 100" id="svgid2" repair="1" xmlns:xlink="http://www.w3.org/1999/xlink"><g id="MTBteHk5ODIxMDAwMDAwMDAwMHh6czMx"><linearGradient id="MTBteHk4NDYxMDAwMDAwMDAwMHh6czM0Ng" x1="369.264" x2="362.27" y1="-335.738" y2="-323.87" gradientUnits="userSpaceOnUse" gradientTransform="matrix(1 0 0 -1 -294 -250)"><stop offset="0" stop-opacity="0"></stop><stop offset="1"></stop></linearGradient><path fill="url(#MTBteHk4NDYxMDAwMDAwMDAwMHh6czM0Ng)" d="M44.088 90.575l45.49-26.707L100 69.978 55.645 96.94l-11.557-6.367" class="st0" opacity=".15"></path><path fill="rgb(230, 230, 230)" d="M93.94 64.43l-.01 3.28c0 .59-.39 1.18-1.17 1.63L52.94 92.37l-.01.01c-1.57.9-4.12.9-5.7 0-.01 0-.01 0-.01-.01L7.13 69.34c-.8-.46-1.19-1.06-1.19-1.66l.01-3.27c0-.59.39-1.19 1.17-1.64l39.83-23.03c1.57-.91 4.13-.91 5.71 0l40.08 23.03c.8.46 1.2 1.06 1.2 1.66z" class="st10" coriginal="rgb(208,222,226)" colortype="5" awdzp="5" style="fill: rgb(230, 230, 230);"></path><path d="M47.227 89.098L7.14 66.063c-.796-.456-1.192-1.056-1.19-1.655l-.01 3.274c-.003.6.395 1.2 1.188 1.655l40.088 23.036.01.005v-3.28z" class="st5" opacity=".1"></path><path d="M47.227 89.098v3.28c1.587.904 4.134.903 5.7 0l.01-.006v-3.27c-1.57.906-4.125.906-5.71-.004z" class="st1" opacity=".12"></path><path d="M92.77 66.063l-39.834 23.04v3.27L92.76 69.338c.78-.45 1.168-1.04 1.17-1.632l.01-3.273c-.002.59-.392 1.178-1.17 1.63z" class="st6" opacity=".2"></path></g><linearGradient id="MTBteHk4MTkxMDAwMDAwMDAwMHh6czI0OQ" x1="72.811" x2="66.877" y1="78.112" y2="68.042" gradientUnits="userSpaceOnUse"><stop offset="0" stop-opacity="0"></stop><stop offset="1"></stop></linearGradient><path fill="url(#MTBteHk4MTkxMDAwMDAwMDAwMHh6czI0OQ)" d="M91.485 66.805l-9.378-5.382L48.98 80.67l9.297 5.342" class="st2" opacity=".15"></path><g><path fill="rgb(123, 99, 128)" d="M82.17 41.09l-.06 20.33-33.13 19.25-31.21-18.02.06-20.28 15.63-1.31 15.58 19.29" class="stshockcolor" data-st="fill:#75A2D8;;" coriginal="rgb(117,162,216)" colortype="20" awdzp="20" style="fill: rgb(123, 99, 128);"></path><path fill-opacity=".25" d="M82.17 41.09l-.06 20.33-33.13 19.25.06-20.32" class="st9"></path></g><g fill="rgb(255, 255, 255)" coriginal="rgb(255,255,255)" colortype="0" awdzp="0" style="fill: rgb(255, 255, 255);"><path d="M48.98 72.48v2.83L25.36 45.92l1.26-1.26" class="st4" opacity=".302"></path><path d="M46.27 56.92l2.13 2.64-30.63 2.63.01-2.82" class="st4" opacity=".302"></path><path d="M25.22 66.972l-2.127-1.228.03-20.702 2.127.893" class="st4" opacity=".302"></path><ellipse cx="36.608" cy="58.628" transform="matrix(.8644 -.5028 .5028 .8644 -24.5157 26.3587)" class="st8" rx="2.312" ry="3.997"></ellipse><ellipse cx="23.813" cy="60.229" transform="matrix(.8644 -.5028 .5028 .8644 -27.0555 20.142)" class="st8" rx="2.312" ry="3.997"></ellipse><ellipse cx="23.864" cy="42.291" transform="matrix(.8644 -.5028 .5028 .8644 -18.029 17.7349)" class="st8" rx="2.312" ry="3.997"></ellipse></g><g fill="rgb(255, 255, 255)" coriginal="rgb(255,255,255)" colortype="0" awdzp="0" style="fill: rgb(255, 255, 255);"><path d="M52.98 78.34l.49-.28 3.8-2.21L82.16 44.9l.01-2.84-29.19 36.28z" class="st4" opacity=".302"></path><path d="M65.06 71.32l-2.12 1.24-.06-20.26v-.11L65 50.62v.45m17.15-1.91l-.01 2.82-16.29-1.4-.79-.07 1.25-2.71 3.76.32" class="st4" opacity=".302"></path><path d="M76.34 46.95c1.564-.902 2.84-.177 2.844 1.62.005 1.806-1.262 4-2.825 4.902-1.58.907-2.85.18-2.86-1.625-.01-1.796 1.26-3.99 2.83-4.897zM63.596 63.29c1.564-.902 2.84-.177 2.844 1.62.005 1.806-1.262 4-2.825 4.902-1.57.907-2.846.18-2.85-1.625-.006-1.796 1.26-3.99 2.83-4.897z" class="st8"></path><path d="M53.47 78.06l-1.55.9L49 75.33l-.02-.02v-2.83l.02.03" class="st4" opacity=".302"></path></g><g><g><path fill="rgb(123, 99, 128)" d="M85.7 39.83v5.64L52.58 64.72 33.46 41.06l-19.18 1.61.01-5.65 33.13-19.25 18.2-1.52c.31 0 .65.1.98.29.37.22.74.54 1.06.94.14.17 18.04 22.35 18.04 22.35z" class="stshockcolor" data-st="fill:#75A2D8;;" coriginal="rgb(117,162,216)" colortype="20" awdzp="20" style="fill: rgb(123, 99, 128);"></path><path fill="rgb(255, 255, 255)" d="M85.7 39.83v5.64L52.58 64.72 33.46 41.06l-19.18 1.61.01-5.65 33.13-19.25 18.2-1.52c.31 0 .65.1.98.29.37.22.74.54 1.06.94.14.17 18.04 22.35 18.04 22.35z" class="st3" opacity=".2" coriginal="rgb(255,255,255)" colortype="0" awdzp="0" style="fill: rgb(255, 255, 255);"></path></g><path fill="rgb(255, 255, 255)" d="M85.7 39.83v5.64L52.58 64.72l.02-5.64c-.07-.09-17.93-22.18-18.06-22.35-.33-.4-.69-.72-1.07-.94L66.6 16.54c.37.22.74.54 1.06.94.14.17 18.04 22.35 18.04 22.35z" class="st11" opacity=".1" coriginal="rgb(255,255,255)" colortype="0" awdzp="0" style="fill: rgb(255, 255, 255);"></path><path fill="rgb(255, 255, 255)" d="M33.475 35.792c.373.215.74.54 1.064.94.13.17 18.06 22.346 18.06 22.346l-.03 5.646-19.12-23.66-19.19 1.604.012-5.65L32.4 35.503c.334-.025.7.08 1.06.29z" class="st3" opacity=".2" coriginal="rgb(255,255,255)" colortype="0" awdzp="0" style="fill: rgb(255, 255, 255);"></path></g><g><path fill="rgb(123, 99, 128)" d="M56.882 29.815l-6.884 4.07-.022 7.676c2.45 3.03 5.08 6.26 7.102 8.76l6.863-4.07.04-12.34-7.09-4.09z" class="stshockcolor" data-st="fill:#75A2D8;;" coriginal="rgb(117,162,216)" colortype="20" awdzp="20" style="fill: rgb(123, 99, 128);"></path><path d="M57.077 37.98l6.898-4.07-.035 12.34-6.863 4.07V37.98zm-2.58-4.087l2.443 1.413V32.45l-2.442 1.443z" class="st7" opacity=".3"></path><path d="M57.077 37.98v12.34c-2.02-2.5-4.65-5.73-7.102-8.76l.022-7.675 7.08 4.095zm2.4-4.078l-2.527-1.458-.01.005v2.85l.08.04 2.456-1.45z" class="st6" opacity=".2"></path></g></svg>